<?xml version="1.0" encoding="UTF-8" standalone="no"?>
<svg width="16px" height="30px" viewBox="0 0 16 30" version="1.1" xmlns="http://www.w3.org/2000/svg" xmlns:xlink="http://www.w3.org/1999/xlink">
    <!-- Generator: sketchtool 3.8.3 (29802) - http://www.bohemiancoding.com/sketch -->
    <title>8FF7138C-A6BE-4130-9A09-962B3079DC11</title>
    <desc>Created with sketchtool.</desc>
    <defs></defs>
    <g id="Style-guide" stroke="none" stroke-width="1" fill="none" fill-rule="evenodd">
        <g id="Icons" transform="translate(-952.000000, -2068.000000)">
            <g id="Group-3" transform="translate(944.000000, 2067.000000)">
                <g id="arona-favicon-copy" transform="translate(8.000000, 1.000000)">
                    <path d="M15,11 L1,11 L1,10 L15,10 L15,11 L15,11 Z M16,13 L16,23 C16,26.866 12.866,30 9,30 L9,13 L16,13 L16,13 Z M9,0 L7,0 L7,2 L9,2 L9,0 L9,0 Z M12,3 C11.268,3 10.59,3.211 10,3.555 C9.41,3.211 8.732,3 8,3 C7.268,3 6.59,3.211 6,3.555 C5.41,3.211 4.732,3 4,3 C1.791,3 0,4.791 0,7 C0,7.732 0.211,8.41 0.555,9 L2.516,9 C1.903,8.544 1.5,7.821 1.5,7 C1.5,5.621 2.622,4.5 4,4.5 C4.276,4.5 4.537,4.556 4.786,4.639 C4.298,5.302 4,6.113 4,7 C4,7.732 4.211,8.41 4.555,9 L5.485,9 L6.516,9 C6.316,8.851 6.149,8.665 6.001,8.465 C5.694,8.053 5.5,7.553 5.5,7 C5.5,6.442 5.69,5.932 6,5.515 C6.303,5.109 6.724,4.802 7.214,4.638 C7.463,4.556 7.724,4.5 8,4.5 C8.276,4.5 8.537,4.556 8.786,4.639 C9.276,4.803 9.697,5.109 10,5.516 C10.31,5.932 10.5,6.442 10.5,7 C10.5,7.553 10.306,8.053 10,8.465 C9.851,8.665 9.685,8.851 9.485,9 L10.516,9 L11.446,9 C11.789,8.41 12,7.732 12,7 C12,6.113 11.702,5.302 11.214,4.639 C11.463,4.556 11.724,4.5 12,4.5 C13.378,4.5 14.5,5.621 14.5,7 C14.5,7.821 14.097,8.544 13.485,9 L15.446,9 C15.789,8.41 16,7.732 16,7 C16,4.791 14.209,3 12,3 L12,3 Z" id="Shape" fill="#F7AB00"></path>
                    <path d="M7,13 L7,30 C3.134,30 0,26.866 0,23 L0,13 L7,13 L7,13 Z" id="Path" fill="#D2251A"></path>
                    <path d="M4.998,17 C4.998,17 5,16.748 5,16.742 C5,15.914 4.328,15.121 3.5,15.121 C2.672,15.121 2,15.732 2,16.561 C2,17.39 2.672,18.031 3.5,18.031 C3.676,18.031 3.843,17.965 4,17.909 L4,27 L5,27 L5,17 L4.998,17 L4.998,17 Z" id="Path" fill="#F7AB00"></path>
                    <path d="M15,19.5 C15,18.119 13.881,17 12.5,17 C11.119,17 10,18.119 10,19.5 C10,20.709 10.859,21.718 12,21.95 L12,23 L11,23 L11,24 L12,24 L13,24 L14,24 L14,23 L13,23 L13,21.95 C14.141,21.718 15,20.709 15,19.5 L15,19.5 Z" id="Path" fill="#6B9101"></path>
                </g>
            </g>
        </g>
    </g>
</svg>