<?xml version="1.0" encoding="UTF-8" standalone="no"?>
<svg width="48px" height="49px" viewBox="0 0 48 49" version="1.1" xmlns="http://www.w3.org/2000/svg" xmlns:xlink="http://www.w3.org/1999/xlink">
    <!-- Generator: sketchtool 3.8.3 (29802) - http://www.bohemiancoding.com/sketch -->
    <title>445BC2A1-3DE0-4334-88A7-35EA54F72C43</title>
    <desc>Created with sketchtool.</desc>
    <defs></defs>
    <g id="Style-guide" stroke="none" stroke-width="1" fill="none" fill-rule="evenodd">
        <g id="Icons" transform="translate(-936.000000, -884.000000)" fill="#000000">
            <path d="M966.7725,928.5302 C966.7725,930.1882 968.1145,931.5302 969.7725,931.5302 C971.4305,931.5302 972.7725,930.1882 972.7725,928.5302 C972.7725,926.8722 969.7725,922.5302 969.7725,922.5302 C969.7725,922.5302 966.7725,926.8722 966.7725,928.5302 M984,896.6407 C984,892.0317 980.25,888.2837 975.641,888.2837 C975.416,888.2837 975.193,888.2927 974.971,888.3107 C972.803,885.6057 969.535,883.9997 966,883.9997 C962.467,883.9997 959.197,885.6057 957.029,888.3107 C956.807,888.2927 956.582,888.2837 956.355,888.2837 C951.75,888.2837 948,892.0317 948,896.6407 C948,897.1227 948.064,897.5877 948.141,898.0507 C948.09,898.1177 948.029,898.1777 947.98,898.2457 C947.49,898.1757 946.998,898.1407 946.5,898.1407 C940.711,898.1407 936,902.8517 936,908.6407 C936,914.0587 940.126,918.5307 945.401,919.0827 C945.156,919.4717 944.883,919.9207 944.612,920.3947 C944.041,921.3937 943.498,922.4817 943.3,923.2847 C943.251,923.4857 943.217,923.6737 943.217,923.8317 C943.217,925.4907 944.559,926.8317 946.217,926.8317 C947.607,926.8317 948.763,925.8837 949.104,924.6017 C949.17,924.3547 949.217,924.0997 949.217,923.8317 C949.217,923.1297 948.677,921.9447 948.056,920.8127 C947.721,920.2027 947.364,919.6117 947.053,919.1157 C948.144,919.0577 949.21,918.8407 950.223,918.4527 C952.114,920.1027 954.367,921.2287 956.778,921.7697 L958.206,923.1967 L955.206,932.1967 L964.206,923.1967 L962.862,921.8527 C965.41,921.3487 967.791,920.1847 969.777,918.4527 C970.961,918.9067 972.217,919.1407 973.5,919.1407 C979.289,919.1407 984,914.4297 984,908.6407 C984,906.2327 983.152,904.0387 981.781,902.2657 C983.148,900.7757 984,898.8127 984,896.6407" id="cubierto-con-tormenta"></path>
        </g>
    </g>
</svg>