<?xml version="1.0" encoding="UTF-8" standalone="no"?>
<svg width="48px" height="49px" viewBox="0 0 48 49" version="1.1" xmlns="http://www.w3.org/2000/svg" xmlns:xlink="http://www.w3.org/1999/xlink">
    <!-- Generator: sketchtool 3.8.3 (29802) - http://www.bohemiancoding.com/sketch -->
    <title>DEFC5B0A-F0A8-493D-8B38-93D79E97FD27</title>
    <desc>Created with sketchtool.</desc>
    <defs></defs>
    <g id="Style-guide" stroke="none" stroke-width="1" fill="none" fill-rule="evenodd">
        <g id="Icons" transform="translate(-216.000000, -1024.000000)" fill="#000000">
            <path d="M246.7725,1068.5305 C246.7725,1070.1885 248.1145,1071.5305 249.7725,1071.5305 C251.4305,1071.5305 252.7725,1070.1885 252.7725,1068.5305 C252.7725,1066.8725 249.7725,1062.5305 249.7725,1062.5305 C249.7725,1062.5305 246.7725,1066.8725 246.7725,1068.5305 Z M264,1036.641 C264,1032.032 260.25,1028.284 255.641,1028.284 C255.416,1028.284 255.193,1028.293 254.971,1028.311 C252.803,1025.606 249.535,1024 246,1024 C242.467,1024 239.197,1025.606 237.029,1028.311 C236.807,1028.293 236.582,1028.284 236.355,1028.284 C231.75,1028.284 228,1032.032 228,1036.641 C228,1037.123 228.064,1037.588 228.141,1038.051 C228.09,1038.118 228.029,1038.178 227.98,1038.246 C227.49,1038.176 226.998,1038.141 226.5,1038.141 C220.711,1038.141 216,1042.852 216,1048.641 C216,1054.43 220.711,1059.141 226.5,1059.141 C227.783,1059.141 229.039,1058.907 230.223,1058.453 C232.114,1060.103 234.367,1061.229 236.778,1061.77 L238.206,1063.197 L235.206,1072.197 L244.206,1063.197 L242.862,1061.853 C245.41,1061.349 247.791,1060.185 249.777,1058.453 C250.961,1058.907 252.217,1059.141 253.5,1059.141 C259.289,1059.141 264,1054.43 264,1048.641 C264,1046.233 263.152,1044.039 261.781,1042.266 C263.148,1040.776 264,1038.813 264,1036.641 Z" id="cubierto-con-tormenta-y-lluvia-escasa"></path>
        </g>
    </g>
</svg>