<?xml version="1.0" encoding="UTF-8" standalone="no"?>
<svg width="48px" height="43px" viewBox="0 0 48 43" version="1.1" xmlns="http://www.w3.org/2000/svg" xmlns:xlink="http://www.w3.org/1999/xlink">
    <!-- Generator: sketchtool 3.8.3 (29802) - http://www.bohemiancoding.com/sketch -->
    <title>0A934866-DEE8-4637-A109-4F52E97BAC24</title>
    <desc>Created with sketchtool.</desc>
    <defs></defs>
    <g id="Style-guide" stroke="none" stroke-width="1" fill="none" fill-rule="evenodd">
        <g id="Icons" transform="translate(-456.000000, -888.000000)" fill="#000000">
            <path d="M480.1966,924.1537 C479.2826,924.1537 478.5386,923.4097 478.5386,922.4957 C478.5386,921.5817 479.2826,920.8407 480.1966,920.8407 C481.1106,920.8407 481.8526,921.5817 481.8526,922.4957 C481.8526,923.4097 481.1106,924.1537 480.1966,924.1537 M486.7626,924.3707 L485.0756,923.3977 C485.1266,923.1047 485.1656,922.8057 485.1656,922.4957 C485.1656,922.1847 485.1266,921.8857 485.0716,921.5927 L486.7626,920.6187 C487.5516,920.1577 487.8216,919.1437 487.3686,918.3587 C486.9116,917.5637 485.8996,917.2927 485.1066,917.7497 L483.4016,918.7337 C482.9446,918.3447 482.4286,918.0407 481.8546,917.8337 L481.8546,915.8747 C481.8546,914.9587 481.1106,914.2157 480.1966,914.2157 C479.2826,914.2157 478.5406,914.9587 478.5406,915.8747 L478.5406,917.8317 C477.9656,918.0367 477.4486,918.3447 476.9916,918.7337 L475.2906,917.7497 C474.4956,917.2927 473.4816,917.5617 473.0246,918.3567 C472.5676,919.1457 472.8426,920.1617 473.6336,920.6187 L475.3176,921.5907 C475.2626,921.8857 475.2276,922.1847 475.2276,922.4957 C475.2276,922.8057 475.2626,923.1047 475.3176,923.3977 L473.6336,924.3707 C472.8406,924.8277 472.5676,925.8467 473.0246,926.6377 C473.4816,927.4287 474.4956,927.6987 475.2866,927.2417 L476.9896,926.2627 C477.4466,926.6497 477.9646,926.9547 478.5406,927.1597 L478.5406,929.1227 C478.5406,930.0367 479.2826,930.7747 480.1966,930.7747 C481.1106,930.7747 481.8546,930.0367 481.8546,929.1227 L481.8546,927.1597 C482.4286,926.9547 482.9506,926.6497 483.4036,926.2577 L485.1066,927.2417 C485.8996,927.6987 486.9116,927.4287 487.3686,926.6377 C487.8256,925.8467 487.5556,924.8337 486.7626,924.3707 M465.5002,923.1908 C465.1152,923.5758 464.4922,923.5758 464.1062,923.1908 C463.7252,922.8078 463.7252,922.1808 464.1062,921.7998 C464.4922,921.4178 465.1152,921.4178 465.5002,921.7998 C465.8852,922.1828 465.8812,922.8078 465.5002,923.1908 M468.3482,920.5228 L467.2342,920.8218 C467.1312,920.6808 467.0242,920.5388 466.8932,920.4058 C466.7602,920.2768 466.6192,920.1658 466.4732,920.0658 L466.7712,918.9468 C466.9122,918.4208 466.6002,917.8798 466.0802,917.7418 C465.5532,917.6008 465.0142,917.9138 464.8732,918.4368 L464.5682,919.5678 C464.2112,919.5968 463.8692,919.6848 463.5432,919.8388 L462.7172,919.0168 C462.3302,918.6298 461.7092,918.6318 461.3262,919.0168 C460.9412,919.4018 460.9412,920.0248 461.3262,920.4098 L462.1492,921.2318 C461.9942,921.5598 461.9042,921.9058 461.8772,922.2608 L460.7482,922.5618 C460.2212,922.7068 459.9082,923.2418 460.0492,923.7688 C460.1912,924.2928 460.7302,924.6008 461.2582,924.4638 L462.3712,924.1618 C462.4712,924.3118 462.5822,924.4528 462.7172,924.5838 C462.8462,924.7118 462.9862,924.8278 463.1332,924.9228 L462.8342,926.0388 C462.6932,926.5658 463.0062,927.1088 463.5292,927.2498 C464.0572,927.3898 464.5922,927.0778 464.7332,926.5518 L465.0372,925.4268 C465.3952,925.3978 465.7402,925.3078 466.0682,925.1518 L466.8932,925.9758 C467.2752,926.3628 467.8962,926.3548 468.2832,925.9718 C468.6642,925.5908 468.6702,924.9678 468.2832,924.5838 L467.4572,923.7568 C467.6152,923.4328 467.7092,923.0838 467.7332,922.7258 L468.8632,922.4268 C469.3852,922.2848 469.6972,921.7478 469.5572,921.2198 C469.4162,920.6988 468.8772,920.3858 468.3482,920.5228 M496.2893,923.1898 C495.9023,923.5768 495.2793,923.5748 494.8943,923.1898 C494.5143,922.8088 494.5103,922.1838 494.8943,921.7968 C495.2793,921.4148 495.9043,921.4148 496.2893,921.7968 C496.6703,922.1818 496.6703,922.8088 496.2893,923.1898 M499.6503,922.5628 L498.5183,922.2618 C498.4903,921.9028 498.4043,921.5608 498.2463,921.2328 L499.0683,920.4108 C499.4553,920.0238 499.4533,919.3988 499.0683,919.0178 C498.6853,918.6328 498.0643,918.6308 497.6783,919.0178 L496.8533,919.8378 C496.5293,919.6858 496.1843,919.5978 495.8263,919.5688 L495.5253,918.4378 C495.3853,917.9148 494.8463,917.5998 494.3183,917.7408 C493.7933,917.8828 493.4863,918.4218 493.6233,918.9478 L493.9243,920.0628 C493.7753,920.1648 493.6353,920.2778 493.5023,920.4068 C493.3733,920.5398 493.2643,920.6798 493.1623,920.8248 L492.0473,920.5238 C491.5213,920.3828 490.9783,920.6998 490.8383,921.2208 C490.6973,921.7488 491.0143,922.2858 491.5333,922.4278 L492.6583,922.7308 C492.6893,923.0848 492.7793,923.4298 492.9373,923.7578 L492.1113,924.5848 C491.7283,924.9688 491.7303,925.5898 492.1153,925.9728 C492.4983,926.3558 493.1193,926.3598 493.5023,925.9768 L494.3303,925.1488 C494.6543,925.3088 495.0023,925.3988 495.3613,925.4258 L495.6583,926.5528 C495.8033,927.0788 496.3383,927.3908 496.8653,927.2508 C497.3893,927.1098 497.7053,926.5708 497.5643,926.0398 L497.2643,924.9238 C497.4043,924.8248 497.5493,924.7128 497.6823,924.5848 C497.8103,924.4538 497.9203,924.3088 498.0213,924.1648 L499.1393,924.4648 C499.6643,924.6058 500.2053,924.2918 500.3443,923.7698 C500.4843,923.2468 500.1743,922.7078 499.6503,922.5628 M504,900.6407 C504,896.0317 500.25,892.2837 495.641,892.2837 C495.416,892.2837 495.193,892.2927 494.971,892.3107 C492.803,889.6057 489.535,887.9997 486,887.9997 C482.467,887.9997 479.197,889.6057 477.029,892.3107 C476.807,892.2927 476.582,892.2837 476.356,892.2837 C471.75,892.2837 468,896.0317 468,900.6407 C468,901.1227 468.065,901.5877 468.141,902.0507 C468.09,902.1177 468.029,902.1777 467.981,902.2457 C467.49,902.1757 466.998,902.1407 466.5,902.1407 C460.711,902.1407 456,906.8517 456,912.6407 C456,915.2527 456.965,917.6387 458.549,919.4787 C458.603,918.6667 458.937,917.8707 459.554,917.2537 C460.213,916.5917 461.089,916.2277 462.021,916.2277 C462.422,916.2277 462.813,916.2947 463.18,916.4247 C463.828,915.6717 464.785,915.2077 465.825,915.2077 C466.128,915.2077 466.431,915.2477 466.725,915.3257 C467.624,915.5667 468.376,916.1437 468.841,916.9527 C469.04,917.2997 469.176,917.6697 469.248,918.0517 C469.651,918.1277 470.027,918.2807 470.373,918.4847 C470.454,918.0067 470.609,917.5407 470.857,917.1107 C471.596,915.8257 472.977,915.0267 474.461,915.0267 C475.014,915.0267 475.562,915.1387 476.073,915.3527 C476.33,913.3057 478.081,911.7157 480.197,911.7157 C482.313,911.7157 484.065,913.3057 484.322,915.3537 C484.831,915.1387 485.379,915.0277 485.933,915.0277 C487.416,915.0277 488.796,915.8267 489.534,917.1087 C489.786,917.5457 489.944,918.0117 490.024,918.4837 C490.37,918.2787 490.749,918.1247 491.154,918.0497 C491.398,916.7777 492.343,915.6867 493.674,915.3247 C493.968,915.2467 494.27,915.2067 494.573,915.2067 C495.613,915.2067 496.57,915.6697 497.218,916.4247 C497.584,916.2957 497.974,916.2287 498.374,916.2287 C499.306,916.2287 500.182,916.5927 500.827,917.2407 C501.333,917.7417 501.663,918.3717 501.793,919.0567 C503.171,917.2797 504,915.0577 504,912.6407 C504,910.2327 503.152,908.0387 501.781,906.2657 C503.148,904.7757 504,902.8127 504,900.6407" id="cubierto-con-nieve"></path>
        </g>
    </g>
</svg>