<?xml version="1.0" encoding="UTF-8" standalone="no"?>
<svg width="48px" height="40px" viewBox="0 0 48 40" version="1.1" xmlns="http://www.w3.org/2000/svg" xmlns:xlink="http://www.w3.org/1999/xlink">
    <!-- Generator: sketchtool 3.8.3 (29802) - http://www.bohemiancoding.com/sketch -->
    <title>F2422BEA-2FA4-493E-9253-70E7D5EE8924</title>
    <desc>Created with sketchtool.</desc>
    <defs></defs>
    <g id="Style-guide" stroke="none" stroke-width="1" fill="none" fill-rule="evenodd">
        <g id="Icons" transform="translate(-1176.000000, -749.000000)" fill="#000000">
            <path d="M1199.7451,781.5573 C1198.8311,781.5573 1198.0871,780.8133 1198.0871,779.8993 C1198.0871,778.9853 1198.8311,778.2443 1199.7451,778.2443 C1200.6591,778.2443 1201.4011,778.9853 1201.4011,779.8993 C1201.4011,780.8133 1200.6591,781.5573 1199.7451,781.5573 M1206.3111,781.7743 L1204.6241,780.8013 C1204.6751,780.5083 1204.7141,780.2093 1204.7141,779.8993 C1204.7141,779.5883 1204.6751,779.2893 1204.6201,778.9963 L1206.3111,778.0223 C1207.1001,777.5613 1207.3701,776.5473 1206.9171,775.7623 C1206.4601,774.9673 1205.4481,774.6963 1204.6551,775.1533 L1202.9501,776.1373 C1202.4931,775.7483 1201.9771,775.4443 1201.4031,775.2373 L1201.4031,773.2783 C1201.4031,772.3623 1200.6591,771.6193 1199.7451,771.6193 C1198.8311,771.6193 1198.0891,772.3623 1198.0891,773.2783 L1198.0891,775.2353 C1197.5151,775.4403 1196.9971,775.7483 1196.5401,776.1373 L1194.8391,775.1533 C1194.0441,774.6963 1193.0301,774.9653 1192.5731,775.7603 C1192.1161,776.5493 1192.3911,777.5653 1193.1831,778.0223 L1194.8661,778.9943 C1194.8111,779.2893 1194.7761,779.5883 1194.7761,779.8993 C1194.7761,780.2093 1194.8111,780.5083 1194.8661,780.8013 L1193.1831,781.7743 C1192.3901,782.2313 1192.1161,783.2503 1192.5731,784.0413 C1193.0301,784.8323 1194.0441,785.1023 1194.8351,784.6453 L1196.5381,783.6663 C1196.9951,784.0533 1197.5131,784.3583 1198.0891,784.5633 L1198.0891,786.5263 C1198.0891,787.4403 1198.8311,788.1783 1199.7451,788.1783 C1200.6591,788.1783 1201.4031,787.4403 1201.4031,786.5263 L1201.4031,784.5633 C1201.9771,784.3583 1202.4991,784.0533 1202.9521,783.6613 L1204.6551,784.6453 C1205.4481,785.1023 1206.4601,784.8323 1206.9171,784.0413 C1207.3741,783.2503 1207.1041,782.2373 1206.3111,781.7743 M1224,761.6407 C1224,757.0317 1220.25,753.2837 1215.641,753.2837 C1215.416,753.2837 1215.193,753.2927 1214.971,753.3107 C1212.803,750.6057 1209.535,748.9997 1206,748.9997 C1202.467,748.9997 1199.197,750.6057 1197.029,753.3107 C1196.807,753.2927 1196.582,753.2837 1196.355,753.2837 C1191.75,753.2837 1188,757.0317 1188,761.6407 C1188,762.1227 1188.064,762.5877 1188.141,763.0507 C1188.09,763.1177 1188.029,763.1777 1187.98,763.2457 C1187.49,763.1757 1186.998,763.1407 1186.5,763.1407 C1180.711,763.1407 1176,767.8517 1176,773.6407 C1176,779.4297 1180.711,784.1407 1186.5,784.1407 C1187.783,784.1407 1189.039,783.9067 1190.223,783.4527 C1190.225,783.4547 1190.227,783.4557 1190.228,783.4577 C1190.19,782.9967 1190.217,782.5287 1190.341,782.0677 C1190.59,781.1407 1191.144,780.3487 1191.916,779.8037 C1191.145,779.2597 1190.592,778.4707 1190.343,777.5477 C1190.06,776.4977 1190.203,775.4027 1190.743,774.4697 C1191.464,773.2157 1192.812,772.4367 1194.26,772.4367 C1194.844,772.4367 1195.422,772.5647 1195.956,772.8097 C1196.146,770.7467 1197.885,769.1257 1199.995,769.1257 C1202.106,769.1257 1203.846,770.7467 1204.036,772.8097 C1204.567,772.5657 1205.146,772.4377 1205.731,772.4377 C1207.178,772.4377 1208.526,773.2167 1209.246,774.4687 C1210.294,776.2867 1209.765,778.5987 1208.076,779.8037 C1209.274,780.6537 1209.876,782.0677 1209.758,783.4687 C1209.764,783.4637 1209.771,783.4587 1209.777,783.4527 C1210.961,783.9067 1212.217,784.1407 1213.5,784.1407 C1219.289,784.1407 1224,779.4297 1224,773.6407 C1224,771.2327 1223.152,769.0387 1221.781,767.2657 C1223.148,765.7757 1224,763.8127 1224,761.6407" id="cubierto-con-nieve-escasa"></path>
        </g>
    </g>
</svg>