<?xml version="1.0" encoding="UTF-8" standalone="no"?>
<svg width="39px" height="39px" viewBox="0 0 39 39" version="1.1" xmlns="http://www.w3.org/2000/svg" xmlns:xlink="http://www.w3.org/1999/xlink">
    <!-- Generator: sketchtool 3.8.3 (29802) - http://www.bohemiancoding.com/sketch -->
    <title>379F08BD-B0BB-4712-9246-4A33A9D329E5</title>
    <desc>Created with sketchtool.</desc>
    <defs></defs>
    <g id="Style-guide" stroke="none" stroke-width="1" fill="none" fill-rule="evenodd">
        <g id="Icons" transform="translate(-61.000000, -609.000000)" fill="#1D1D1B">
            <path d="M80.5,618 C74.7109375,618 70,622.710938 70,628.5 C70,634.289062 74.7109375,639 80.5,639 C86.2890625,639 91,634.289062 91,628.5 C91,622.710938 86.2890625,618 80.5,618 L80.5,618 Z M80.5,636 C76.357375,636 73,632.642625 73,628.5 C73,624.357375 76.357375,621 80.5,621 C84.642625,621 88,624.357375 88,628.5 C88,632.642625 84.642625,636 80.5,636 L80.5,636 Z M80.5,615 C81.3280937,615 82,614.328094 82,613.5 L82,610.5 C82,609.671906 81.3280937,609 80.5,609 C79.6719063,609 79,609.671906 79,610.5 L79,613.5 C79,614.328094 79.6719063,615 80.5,615 L80.5,615 Z M80.5,642 C79.6719063,642 79,642.671906 79,643.5 L79,646.5 C79,647.328094 79.6719063,648 80.5,648 C81.3280937,648 82,647.328094 82,646.5 L82,643.5 C82,642.671906 81.3280937,642 80.5,642 L80.5,642 Z M92.1660625,618.953156 L94.2871562,616.832063 C94.8730937,616.246125 94.8730937,615.296906 94.2871562,614.710969 C93.7012187,614.125031 92.752,614.125031 92.1660625,614.710969 L90.0449687,616.832063 C89.4590312,617.418 89.4590312,618.367219 90.0449687,618.953156 C90.6308125,619.539094 91.580125,619.539094 92.1660625,618.953156 L92.1660625,618.953156 Z M68.8339375,638.046938 L66.7128438,640.168031 C66.1269063,640.753875 66.1269063,641.703094 66.7128438,642.289031 C67.2987813,642.874969 68.248,642.874969 68.8339375,642.289031 L70.9550313,640.168031 C71.5409688,639.580125 71.5409688,638.632781 70.9550313,638.046938 C70.3691875,637.460906 69.419875,637.458938 68.8339375,638.046938 L68.8339375,638.046938 Z M67,628.5 C67,627.671906 66.3280937,627 65.5,627 L62.5,627 C61.6719062,627 61,627.671906 61,628.5 C61,629.328094 61.6719062,630 62.5,630 L65.5,630 C66.3280937,630 67,629.328094 67,628.5 L67,628.5 Z M98.5,627 L95.5,627 C94.6719063,627 94,627.671906 94,628.5 C94,629.328094 94.6719063,630 95.5,630 L98.5,630 C99.3280937,630 100,629.328094 100,628.5 C100,627.671906 99.3280937,627 98.5,627 L98.5,627 Z M68.8319688,618.953156 C69.418,619.539094 70.3672188,619.539094 70.9530625,618.953156 C71.5390938,618.367219 71.5390938,617.418 70.9530625,616.832063 L68.8319688,614.710969 C68.2460313,614.125031 67.2969063,614.125031 66.710875,614.710969 C66.1249375,615.296906 66.1249375,616.246125 66.710875,616.832063 L68.8319688,618.953156 L68.8319688,618.953156 Z M92.1680313,638.044875 C91.580125,637.458938 90.6327813,637.458938 90.0469375,638.044875 C89.4609063,638.630813 89.4590313,639.580031 90.0469375,640.165969 L92.1680313,642.287063 C92.753875,642.873 93.7030938,642.873 94.2890313,642.287063 C94.8749688,641.701125 94.8749688,640.752 94.2890313,640.165969 L92.1680313,638.044875 L92.1680313,638.044875 Z" id="despejado"></path>
        </g>
    </g>
</svg>