<?xml version="1.0" encoding="UTF-8" standalone="no"?>
<svg width="24px" height="24px" viewBox="0 0 24 24" version="1.1" xmlns="http://www.w3.org/2000/svg" xmlns:xlink="http://www.w3.org/1999/xlink">
    <!-- Generator: sketchtool 3.8.3 (29802) - http://www.bohemiancoding.com/sketch -->
    <title>C72E32B5-B18F-45FE-890E-98EE978F0C0D</title>
    <desc>Created with sketchtool.</desc>
    <defs></defs>
    <g id="Style-guide" stroke="none" stroke-width="1" fill="none" fill-rule="evenodd">
        <g id="Icons" transform="translate(-148.000000, -616.000000)" fill="#1D1D1B">
            <path d="M168.478469,635.850381 C163.802594,640.530006 156.189437,640.530006 151.509719,635.850381 C146.830094,631.170662 146.830094,623.557412 151.509719,618.879662 C152.748063,617.643381 154.257719,616.699974 155.993969,616.084787 C156.540906,615.893349 157.146437,616.032099 157.552562,616.440287 C157.962812,616.850443 158.101469,617.455881 157.908156,617.998881 C156.732344,621.315287 157.533156,624.905068 159.994,627.366099 C162.451094,629.824974 166.040969,630.623912 169.361219,629.452037 C169.904219,629.258724 170.511625,629.397381 170.919813,629.807537 C171.330062,630.213756 171.46675,630.821162 171.273344,631.366131 C170.662,633.102381 169.716719,634.612037 168.478469,635.850381 L168.478469,635.850381 Z M153.630812,621.000756 C150.121,624.510568 150.121,630.221443 153.630812,633.729287 C157.380812,637.481256 163.767531,637.143381 167.037062,632.963631 C163.665906,633.174568 160.345656,631.957787 157.873,629.487006 C155.400344,627.016318 154.185531,623.695974 154.396375,620.324912 C154.126937,620.535943 153.871,620.760568 153.630812,621.000756 L153.630812,621.000756 Z" id="despejado-noche"></path>
        </g>
    </g>
</svg>