<?xml version="1.0" encoding="UTF-8" standalone="no"?>
<svg width="18px" height="20px" viewBox="0 0 18 20" version="1.1" xmlns="http://www.w3.org/2000/svg" xmlns:xlink="http://www.w3.org/1999/xlink">
    <!-- Generator: sketchtool 3.8.3 (29802) - http://www.bohemiancoding.com/sketch -->
    <title>883D8376-77FD-4685-B67F-083A48456DE7</title>
    <desc>Created with sketchtool.</desc>
    <defs></defs>
    <g id="Style-guide" stroke="none" stroke-width="1" fill="none" fill-rule="evenodd">
        <g id="Icons" transform="translate(-871.000000, -441.000000)">
            <g id="ic_event_black_24px" transform="translate(868.000000, 440.000000)">
                <g id="Group">
                    <path d="M17,12 L12,12 L12,17 L17,17 L17,12 L17,12 Z M16,1 L16,3 L8,3 L8,1 L6,1 L6,3 L5,3 C3.89,3 3.01,3.9 3.01,5 L3,19 C3,20.1 3.89,21 5,21 L19,21 C20.1,21 21,20.1 21,19 L21,5 C21,3.9 20.1,3 19,3 L18,3 L18,1 L16,1 L16,1 Z M19,19 L5,19 L5,8 L19,8 L19,19 L19,19 Z" id="Shape" fill="#000000"></path>
                    <polygon id="Shape" points="0 0 24 0 24 24 0 24"></polygon>
                </g>
            </g>
        </g>
    </g>
</svg>