<?xml version="1.0" encoding="UTF-8" standalone="no"?>
<svg width="20px" height="20px" viewBox="0 0 20 20" version="1.1" xmlns="http://www.w3.org/2000/svg" xmlns:xlink="http://www.w3.org/1999/xlink">
    <!-- Generator: sketchtool 3.8.3 (29802) - http://www.bohemiancoding.com/sketch -->
    <title>5ABAF604-31CE-4F6D-9F4E-273624AC3B9E</title>
    <desc>Created with sketchtool.</desc>
    <defs></defs>
    <g id="Style-guide" stroke="none" stroke-width="1" fill="none" fill-rule="evenodd">
        <g id="Icons" transform="translate(-1110.000000, -242.000000)">
            <g id="ic_info_outline_black_24px" transform="translate(1108.000000, 240.000000)">
                <g id="Group">
                    <polygon id="Shape" points="0 0 24 0 24 24 0 24"></polygon>
                    <path d="M11,17 L13,17 L13,11 L11,11 L11,17 L11,17 Z M12,2 C6.48,2 2,6.48 2,12 C2,17.52 6.48,22 12,22 C17.52,22 22,17.52 22,12 C22,6.48 17.52,2 12,2 L12,2 Z M12,20 C7.59,20 4,16.41 4,12 C4,7.59 7.59,4 12,4 C16.41,4 20,7.59 20,12 C20,16.41 16.41,20 12,20 L12,20 Z M11,9 L13,9 L13,7 L11,7 L11,9 L11,9 Z" id="Shape" fill="#000000"></path>
                </g>
            </g>
        </g>
    </g>
</svg>