<?xml version="1.0" encoding="UTF-8" standalone="no"?>
<svg width="16px" height="21px" viewBox="0 0 16 21" version="1.1" xmlns="http://www.w3.org/2000/svg" xmlns:xlink="http://www.w3.org/1999/xlink">
    <!-- Generator: sketchtool 3.8.3 (29802) - http://www.bohemiancoding.com/sketch -->
    <title>5ADD25CA-6713-46D9-8F1C-3954299E84BE</title>
    <desc>Created with sketchtool.</desc>
    <defs></defs>
    <g id="Style-guide" stroke="none" stroke-width="1" fill="none" fill-rule="evenodd">
        <g id="Icons" transform="translate(-312.000000, -341.000000)">
            <g id="ic_lock_open_black_24px" transform="translate(308.000000, 340.000000)">
                <g id="Group">
                    <polygon id="Shape" points="0 0 24 0 24 24 0 24"></polygon>
                    <path d="M12,17 C13.1,17 14,16.1 14,15 C14,13.9 13.1,13 12,13 C10.9,13 10,13.9 10,15 C10,16.1 10.9,17 12,17 L12,17 Z M18,8 L17,8 L17,6 C17,3.24 14.76,1 12,1 C9.24,1 7,3.24 7,6 L8.9,6 C8.9,4.29 10.29,2.9 12,2.9 C13.71,2.9 15.1,4.29 15.1,6 L15.1,8 L6,8 C4.9,8 4,8.9 4,10 L4,20 C4,21.1 4.9,22 6,22 L18,22 C19.1,22 20,21.1 20,20 L20,10 C20,8.9 19.1,8 18,8 L18,8 Z M18,20 L6,20 L6,10 L18,10 L18,20 L18,20 Z" id="Shape" fill="#000000"></path>
                </g>
            </g>
        </g>
    </g>
</svg>