<?xml version="1.0" encoding="UTF-8" standalone="no"?>
<svg width="20px" height="18px" viewBox="0 0 20 18" version="1.1" xmlns="http://www.w3.org/2000/svg" xmlns:xlink="http://www.w3.org/1999/xlink">
    <!-- Generator: sketchtool 3.8.3 (29802) - http://www.bohemiancoding.com/sketch -->
    <title>6254EDD9-97F1-4E59-A213-0733C3DB1C25</title>
    <desc>Created with sketchtool.</desc>
    <defs></defs>
    <g id="Style-guide" stroke="none" stroke-width="1" fill="none" fill-rule="evenodd">
        <g id="Icons" transform="translate(-1030.000000, -343.000000)">
            <g id="ic_print_black_24px" transform="translate(1028.000000, 340.000000)">
                <g id="Group">
                    <path d="M19,8 L5,8 C3.34,8 2,9.34 2,11 L2,17 L6,17 L6,21 L18,21 L18,17 L22,17 L22,11 C22,9.34 20.66,8 19,8 L19,8 Z M16,19 L8,19 L8,14 L16,14 L16,19 L16,19 Z M19,12 C18.45,12 18,11.55 18,11 C18,10.45 18.45,10 19,10 C19.55,10 20,10.45 20,11 C20,11.55 19.55,12 19,12 L19,12 Z M18,3 L6,3 L6,7 L18,7 L18,3 L18,3 Z" id="Shape" fill="#000000"></path>
                    <polygon id="Shape" points="0 0 24 0 24 24 0 24"></polygon>
                </g>
            </g>
        </g>
    </g>
</svg>