<?xml version="1.0" encoding="UTF-8" standalone="no"?>
<svg width="36px" height="41px" viewBox="0 0 36 41" version="1.1" xmlns="http://www.w3.org/2000/svg" xmlns:xlink="http://www.w3.org/1999/xlink">
    <!-- Generator: sketchtool 3.8.3 (29802) - http://www.bohemiancoding.com/sketch -->
    <title>86DBCE63-2949-45D3-B959-3D8C3BF834DF</title>
    <desc>Created with sketchtool.</desc>
    <defs></defs>
    <g id="Style-guide" stroke="none" stroke-width="1" fill="none" fill-rule="evenodd">
        <g id="Icons" transform="translate(-302.000000, -1928.000000)" fill="#000000">
            <g id="icon-cultura" transform="translate(302.000000, 1928.000000)">
                <g id="Layer_1">
                    <path d="M36,17.774 L23.226,17.774 L23.226,20.097 L23.225,25.313 C23.225,25.316 23.226,25.319 23.226,25.322 L23.226,25.331 L23.226,28.225 L23.226,28.225 L23.226,30.561 C23.226,30.705 23.22,30.847 23.215,30.99 C23.938,30.706 24.724,30.548 25.548,30.548 C28.254,30.548 30.565,32.232 31.494,34.613 L29.555,34.613 C28.742,33.231 27.267,32.29 25.549,32.29 C24.59,32.29 23.709,32.59 22.974,33.089 C22.638,34.75 21.979,36.296 21.064,37.657 C22.425,38.304 23.941,38.677 25.549,38.677 C31.321,38.677 36,34.012 36,28.24 C36,28.228 35.998,28.217 35.998,28.217 L36,17.774 L36,17.774 Z M29.613,27.065 C28.651,27.065 27.871,26.285 27.871,25.323 C27.871,24.361 28.651,23.581 29.613,23.581 C30.575,23.581 31.355,24.361 31.355,25.323 C31.355,26.285 30.575,27.065 29.613,27.065 L29.613,27.065 Z M20.903,30.562 L20.903,20.097 L0,20.097 L0,30.539 L0,30.557 C0,36.33 4.679,41 10.452,41 C16.225,41 20.903,36.334 20.903,30.562 L20.903,30.562 Z M14.516,25.903 C15.478,25.903 16.258,26.683 16.258,27.645 C16.258,28.607 15.478,29.387 14.516,29.387 C13.554,29.387 12.774,28.607 12.774,27.645 C12.774,26.683 13.554,25.903 14.516,25.903 L14.516,25.903 Z M6.387,25.903 C7.349,25.903 8.129,26.683 8.129,27.645 C8.129,28.607 7.349,29.387 6.387,29.387 C5.425,29.387 4.645,28.607 4.645,27.645 C4.645,26.683 5.425,25.903 6.387,25.903 L6.387,25.903 Z M10.452,36.935 C7.746,36.935 5.435,35.251 4.506,32.87 L6.445,32.87 C7.258,34.252 8.733,35.193 10.451,35.193 C12.169,35.193 13.645,34.252 14.457,32.87 L16.396,32.87 C15.468,35.252 13.157,36.935 10.452,36.935 L10.452,36.935 Z M20.903,12.075 C20.903,13.817 19.492,15.227 17.751,15.227 C16.009,15.227 14.599,13.816 14.599,12.075 C14.599,10.333 16.01,8.923 17.751,8.923 C18.326,8.923 18.862,9.088 19.327,9.356 L19.327,4.491 L11.306,5.968 L11.306,13.849 C11.306,15.591 9.895,17.001 8.154,17.001 C6.412,17.001 5.002,15.59 5.002,13.849 C5.002,12.107 6.413,10.697 8.154,10.697 C8.729,10.697 9.265,10.862 9.73,11.13 L9.73,2.815 L20.903,0.75 L20.903,12.075 L20.903,12.075 Z" id="Shape"></path>
                </g>
            </g>
        </g>
    </g>
</svg>