<?xml version="1.0" encoding="UTF-8" standalone="no"?>
<svg width="36px" height="35px" viewBox="0 0 36 35" version="1.1" xmlns="http://www.w3.org/2000/svg" xmlns:xlink="http://www.w3.org/1999/xlink">
    <!-- Generator: sketchtool 3.8.3 (29802) - http://www.bohemiancoding.com/sketch -->
    <title>376DB9E0-CBAE-4781-9A2F-EE0DEB64C9E3</title>
    <desc>Created with sketchtool.</desc>
    <defs></defs>
    <g id="Style-guide" stroke="none" stroke-width="1" fill="none" fill-rule="evenodd">
        <g id="Icons" transform="translate(-142.000000, -2066.000000)" fill="#000000">
            <path d="M177.301402,2085.18614 L165.201784,2097.28576 C160.438961,2102.04827 152.64588,2102.04827 147.883057,2097.28576 L143.862761,2093.26515 C142.650721,2092.05343 141.988807,2090.42635 142.000143,2088.73189 L142.145941,2070.96916 C142.145941,2070.96916 144.940025,2071.00285 145.007099,2071.02521 C145.467164,2071.0589 145.882513,2071.24973 146.219139,2071.58635 C146.466018,2071.83323 146.623152,2072.12483 146.712898,2072.4391 C146.746592,2072.49515 148.788702,2080.03568 148.788702,2080.03568 L148.806966,2080.01742 L148.806966,2080.31657 L148.806966,2091.50613 C148.806966,2092.24079 149.399917,2092.83406 150.134888,2092.83406 C150.869544,2092.83406 151.46281,2092.2411 151.46281,2091.50613 L151.46281,2086.63751 L152.347987,2086.63751 L152.347987,2094.16198 C152.347987,2094.89663 152.941254,2095.4899 153.675909,2095.4899 C154.410565,2095.4899 155.003832,2094.89695 155.003832,2094.16198 L155.003832,2086.63751 L155.889008,2086.63751 L155.889008,2095.04716 C155.889008,2095.78181 156.48196,2096.37508 157.216931,2096.37508 C157.951586,2096.37508 158.544853,2095.78213 158.544853,2095.04716 L158.544853,2086.63751 L159.43003,2086.63751 L159.43003,2092.83406 C159.43003,2093.56871 160.022982,2094.16198 160.757952,2094.16198 C161.492608,2094.16198 162.085874,2093.56903 162.085874,2092.83406 L162.085874,2082.29098 L162.165229,2082.36907 L162.153263,2082.38104 L163.275242,2083.50302 L163.294136,2083.48412 L163.358375,2083.54742 C164.095865,2084.27546 165.282398,2084.272 166.015164,2083.53923 L167.292073,2082.26232 L165.917861,2080.8604 L172.72122,2074.05704 C173.601988,2073.17627 175.03792,2073.01189 176.000246,2073.8026 C177.107426,2074.71234 177.167256,2076.34382 176.179423,2077.33134 L166.64181,2086.86927 L167.76379,2087.99125 L173.843199,2081.91184 C174.723967,2081.03107 176.159899,2080.8667 177.122226,2081.6574 C178.229405,2082.56714 178.289236,2084.19831 177.301402,2085.18614 L177.301402,2085.18614 Z M172.81317,2071.72082 C173.800688,2070.73298 173.741172,2069.10181 172.633678,2068.19207 C171.671666,2067.40137 170.235419,2067.56606 169.354651,2068.44651 L161.474344,2076.32682 L164.806903,2079.72708 L172.81317,2071.72082 L172.81317,2071.72082 Z M160.159962,2075.39724 L165.519201,2070.038 C166.506719,2069.05017 166.447204,2067.419 165.340024,2066.50926 C164.377698,2065.71856 162.941766,2065.88325 162.060998,2066.7637 L160.140753,2068.68394 L160.140753,2075.39126 C160.147051,2075.39378 160.153979,2075.39472 160.159962,2075.39724 L160.159962,2075.39724 Z" id="icon_servicios_sociales"></path>
        </g>
    </g>
</svg>