<?xml version="1.0" encoding="UTF-8" standalone="no"?>
<svg width="40px" height="32px" viewBox="0 0 40 32" version="1.1" xmlns="http://www.w3.org/2000/svg" xmlns:xlink="http://www.w3.org/1999/xlink">
    <!-- Generator: sketchtool 3.8.3 (29802) - http://www.bohemiancoding.com/sketch -->
    <title>9F42D395-BDC2-4F66-9768-806FB629E75C</title>
    <desc>Created with sketchtool.</desc>
    <defs></defs>
    <g id="Style-guide" stroke="none" stroke-width="1" fill="none" fill-rule="evenodd">
        <g id="Icons" transform="translate(-60.000000, -1932.000000)" fill="#000000">
            <g id="icon-archivo-municipal" transform="translate(60.000000, 1932.000000)">
                <g id="Layer_1">
                    <path d="M36,4 L20,4 L16,0 L4,0 C1.8,0 0.02,1.8 0.02,4 L0,28 C0,30.2 1.8,32 4,32 L36,32 C38.2,32 40,30.2 40,28 L40,8 C40,5.8 38.2,4 36,4 L36,4 Z M29,28 L11,28 L11,25.158 L29,25.158 L29,28 L29,28 Z M12.895,23.263 L12.895,16.631 L15.737,16.631 L15.737,23.263 L12.895,23.263 L12.895,23.263 Z M18.579,23.263 L18.579,16.631 L21.421,16.631 L21.421,23.263 L18.579,23.263 L18.579,23.263 Z M24.263,23.263 L24.263,16.631 L27.105,16.631 L27.105,23.263 L24.263,23.263 L24.263,23.263 Z M29,14.737 L11,14.737 L11,12.842 L20,8.105 L29,12.842 L29,14.737 L29,14.737 Z" id="Shape"></path>
                </g>
            </g>
        </g>
    </g>
</svg>