<?xml version="1.0" encoding="UTF-8" standalone="no"?>
<svg width="41px" height="41px" viewBox="0 0 41 41" version="1.1" xmlns="http://www.w3.org/2000/svg" xmlns:xlink="http://www.w3.org/1999/xlink">
    <!-- Generator: sketchtool 3.8.3 (29802) - http://www.bohemiancoding.com/sketch -->
    <title>BD86A8F2-867E-47FC-BAD2-97A305AD5534</title>
    <desc>Created with sketchtool.</desc>
    <defs></defs>
    <g id="Style-guide" stroke="none" stroke-width="1" fill="none" fill-rule="evenodd">
        <g id="Icons" transform="translate(-220.000000, -1927.000000)" fill="#000000">
            <g id="icon-contratacion" transform="translate(220.000000, 1927.000000)">
                <g id="Layer_1">
                    <path d="M40.984,30.625 L39.999,26.937 C39.941,26.705 39.719,26.56 39.487,26.58 L36.938,26.889 C36.755,26.648 36.552,26.406 36.33,26.184 C36.108,25.962 35.867,25.76 35.616,25.567 L35.926,23.019 C35.945,22.787 35.802,22.566 35.57,22.509 L31.884,21.527 C31.652,21.469 31.426,21.59 31.329,21.802 L30.335,24.168 C29.717,24.245 29.139,24.42 28.55,24.662 L26.554,23.168 C26.371,23.042 26.182,23.144 26.018,23.308 L23.315,26.011 C23.151,26.175 23.05,26.364 23.185,26.557 L24.638,28.512 C24.406,29.091 24.242,29.7 24.165,30.317 L21.809,31.321 C21.597,31.418 21.481,31.649 21.539,31.881 L22.524,35.569 C22.582,35.801 22.804,35.946 23.036,35.926 L25.585,35.617 C25.768,35.858 25.971,36.1 26.193,36.322 C26.415,36.544 26.656,36.747 26.907,36.94 L26.598,39.489 C26.579,39.721 26.723,39.943 26.955,40.001 L30.643,40.986 C30.875,41.044 31.106,40.928 31.203,40.716 L32.207,38.36 C32.825,38.283 33.423,38.128 34.012,37.887 L36.049,39.422 C36.232,39.547 36.503,39.528 36.667,39.364 L39.37,36.661 C39.534,36.497 39.553,36.227 39.418,36.033 L37.883,33.996 C38.115,33.417 38.279,32.808 38.356,32.191 L40.712,31.187 C40.926,31.089 41.042,30.857 40.984,30.625 L40.984,30.625 Z M35.559,31.364 L35.559,34.212 L33.281,34.212 L32.142,34.212 L29.294,34.212 L28.724,34.212 L25.876,34.212 L25.876,31.38 L25.876,31.365 L25.895,31.365 L28.724,29.086 L28.724,31.365 L29.313,31.365 L32.142,29.086 L32.142,31.365 L33.281,31.365 L33.281,27.947 L35.559,27.947 L35.559,31.364 L35.559,31.364 Z M28.365,14.936 L24.995,13.497 C24.879,12.609 24.657,11.749 24.309,10.919 L26.501,7.994 C26.704,7.733 26.675,7.357 26.433,7.115 L22.571,3.253 C22.33,3.012 21.953,2.983 21.692,3.185 L18.767,5.377 C17.937,5.029 17.068,4.817 16.189,4.692 L14.75,1.322 C14.615,1.013 14.277,0.849 13.949,0.945 L8.677,2.355 C8.339,2.442 8.136,2.761 8.175,3.089 L8.619,6.719 C8.271,6.989 7.924,7.279 7.605,7.598 C7.286,7.917 6.997,8.264 6.726,8.612 L3.096,8.168 C2.768,8.129 2.459,8.342 2.362,8.67 L0.952,13.942 C0.855,14.27 1.039,14.608 1.329,14.743 L4.699,16.182 C4.815,17.07 5.037,17.93 5.384,18.76 L3.029,21.849 C2.826,22.11 2.691,22.65 2.933,22.891 L6.795,26.753 C7.036,26.994 7.577,26.86 7.837,26.657 L10.844,24.384 C11.674,24.732 12.584,24.903 13.463,25.029 L14.922,28.378 C15.057,28.687 15.405,28.841 15.734,28.744 L21.011,27.329 C21.339,27.232 21.554,26.921 21.516,26.593 L21.074,22.96 C21.422,22.69 21.759,22.41 22.088,22.081 C22.416,21.753 22.696,21.415 22.967,21.067 L26.597,21.511 C26.925,21.55 27.234,21.337 27.331,21.009 L28.741,15.737 C28.838,15.409 28.655,15.071 28.365,14.936 L28.365,14.936 Z M20.766,20.832 L8.607,20.832 L8.607,18.912 L20.766,18.912 L20.766,20.832 L20.766,20.832 Z M9.887,17.632 L9.887,13.153 L11.807,13.153 L11.807,17.632 L9.887,17.632 L9.887,17.632 Z M13.727,17.632 L13.727,13.153 L15.647,13.153 L15.647,17.632 L13.727,17.632 L13.727,17.632 Z M17.566,17.632 L17.566,13.153 L19.486,13.153 L19.486,17.632 L17.566,17.632 L17.566,17.632 Z M20.766,11.873 L8.607,11.873 L8.607,10.593 L14.686,7.393 L20.765,10.593 L20.765,11.873 L20.766,11.873 Z" id="Shape"></path>
                </g>
            </g>
        </g>
    </g>
</svg>