<?xml version="1.0" encoding="UTF-8" standalone="no"?>
<svg width="40px" height="38px" viewBox="0 0 40 38" version="1.1" xmlns="http://www.w3.org/2000/svg" xmlns:xlink="http://www.w3.org/1999/xlink">
    <!-- Generator: sketchtool 3.8.3 (29802) - http://www.bohemiancoding.com/sketch -->
    <title>157B71BE-22E4-43E2-A7EA-36A8EC30F4E9</title>
    <desc>Created with sketchtool.</desc>
    <defs></defs>
    <g id="Style-guide" stroke="none" stroke-width="1" fill="none" fill-rule="evenodd">
        <g id="Icons" transform="translate(-140.000000, -1929.000000)" fill="#000000">
            <g id="icon-atencion-ciudadana" transform="translate(140.000000, 1929.000000)">
                <g id="Layer_1">
                    <path d="M30,24 L26,24 L26,20 L30,20 L30,24 L30,24 Z M8,14 C8,9.58 11.58,6 16,6 C20.42,6 24,9.58 24,14 C24,18.41 20.42,22 16,22 C11.58,22 8,18.41 8,14 L8,14 Z M32,34 L32,38 L0,38 L0,34 C0,28.67 10.67,26 16,26 C21.33,26 32,28.67 32,34 L32,34 Z M29.841,12 C28.869,5.216 23.054,0 16,0 C8.946,0 3.131,5.216 2.159,12 C2.065,12.655 2,13.319 2,14 L2,16 L2.159,16 L5.191,16 L6,16 L6,12 L5.191,12 C6.135,6.888 10.618,3 16,3 C21.382,3 25.865,6.888 26.809,12 L26,12 L26,16 L26.809,16 L29.841,16 L30,16 L30,14 C30,13.319 29.935,12.655 29.841,12 L29.841,12 Z M36,20 L40,20 L40,8 L36,8 L36,20 L36,20 Z M36,4 L40,4 L40,0 L36,0 L36,4 L36,4 Z" id="Shape"></path>
                </g>
            </g>
        </g>
    </g>
</svg>