<?xml version="1.0" encoding="UTF-8" standalone="no"?>
<svg width="36px" height="27px" viewBox="0 0 36 27" version="1.1" xmlns="http://www.w3.org/2000/svg" xmlns:xlink="http://www.w3.org/1999/xlink">
    <!-- Generator: sketchtool 3.8.3 (29802) - http://www.bohemiancoding.com/sketch -->
    <title>0AE4B6DD-AF77-4852-93FB-D9921FFBAD89</title>
    <desc>Created with sketchtool.</desc>
    <defs></defs>
    <g id="Style-guide" stroke="none" stroke-width="1" fill="none" fill-rule="evenodd">
        <g id="Icons" transform="translate(-222.000000, -2070.000000)" fill="#000000">
            <path d="M225.592146,2078.51796 L232.739381,2078.51796 L232.739381,2074.92582 L228.157828,2074.92582 L228.157828,2076.97843 L225.592146,2076.97843 C224.914699,2076.97843 224.350318,2077.40947 224.134954,2078.01503 L222,2084.16272 L222,2092.37316 C222,2092.93754 222.461766,2093.39962 223.026463,2093.39962 L224.052926,2093.39962 C224.617307,2093.39962 225.079389,2092.93785 225.079389,2092.37316 L225.079389,2091.34701 L232.739698,2091.34701 L232.739698,2083.13657 L224.052926,2083.13657 L225.592146,2078.51796 L225.592146,2078.51796 Z M225.592146,2085.18918 C226.4441,2085.18918 227.131682,2085.87676 227.131682,2086.72872 C227.131682,2087.58067 226.4441,2088.26825 225.592146,2088.26825 C224.740191,2088.26825 224.052609,2087.58067 224.052609,2086.72872 C224.052609,2085.87676 224.740191,2085.18918 225.592146,2085.18918 L225.592146,2085.18918 Z M235.262941,2089.89425 C235.262941,2091.14463 235.817187,2092.26738 236.684027,2093.04902 L236.684027,2095.5786 C236.684027,2096.36024 237.323468,2096.99968 238.105113,2096.99968 L239.526199,2096.99968 C240.307844,2096.99968 240.947285,2096.36024 240.947285,2095.5786 L240.947285,2094.15751 L252.315656,2094.15751 L252.315656,2095.5786 C252.315656,2096.36024 252.955097,2096.99968 253.736742,2096.99968 L255.157828,2096.99968 C255.939473,2096.99968 256.578914,2096.36024 256.578914,2095.5786 L256.578914,2093.04902 C257.445754,2092.26738 258,2091.14495 258,2089.89425 L258,2075.68403 C258,2070.71038 252.912658,2070 246.631629,2070 C240.3506,2070 235.263258,2070.71038 235.263258,2075.68403 L235.263258,2089.89425 L235.262941,2089.89425 Z M240.236584,2091.31534 C239.057149,2091.31534 238.105113,2090.3633 238.105113,2089.18387 C238.105113,2088.00443 239.057149,2087.0524 240.236584,2087.0524 C241.416019,2087.0524 242.368054,2088.00443 242.368054,2089.18387 C242.368054,2090.3633 241.416019,2091.31534 240.236584,2091.31534 L240.236584,2091.31534 Z M253.026041,2091.31534 C251.846606,2091.31534 250.89457,2090.3633 250.89457,2089.18387 C250.89457,2088.00443 251.846606,2087.0524 253.026041,2087.0524 C254.205476,2087.0524 255.157511,2088.00443 255.157511,2089.18387 C255.157511,2090.3633 254.205476,2091.31534 253.026041,2091.31534 L253.026041,2091.31534 Z M255.157511,2082.78914 L238.105113,2082.78914 L238.105113,2075.68403 L255.157511,2075.68403 L255.157511,2082.78914 L255.157511,2082.78914 Z" id="icon_transporte"></path>
        </g>
    </g>
</svg>