<?xml version="1.0" encoding="UTF-8" standalone="no"?>
<svg width="40px" height="40px" viewBox="0 0 40 40" version="1.1" xmlns="http://www.w3.org/2000/svg" xmlns:xlink="http://www.w3.org/1999/xlink">
    <!-- Generator: sketchtool 3.8.3 (29802) - http://www.bohemiancoding.com/sketch -->
    <title>90C571B0-BFA0-4F8C-8A5A-528D937FC3C4</title>
    <desc>Created with sketchtool.</desc>
    <defs></defs>
    <g id="Style-guide" stroke="none" stroke-width="1" fill="none" fill-rule="evenodd">
        <g id="Icons" transform="translate(-60.000000, -2063.000000)" fill="#000000">
            <path d="M69.0000528,2063 C64.0244224,2063 60,2067.02442 60,2072.00005 C60,2078.75 69.0000528,2088.71429 69.0000528,2088.71429 C69.0000528,2088.71429 78.0001056,2078.75 78.0001056,2072.00005 C78.0001056,2067.02442 73.9756831,2063 69.0000528,2063 L69.0000528,2063 Z M69.0000528,2075.21438 C67.2257315,2075.21438 65.7857231,2073.77437 65.7857231,2072.00005 C65.7857231,2070.22573 67.2257315,2068.78572 69.0000528,2068.78572 C70.774374,2068.78572 72.2143825,2070.22573 72.2143825,2072.00005 C72.2143825,2073.77437 70.774374,2075.21438 69.0000528,2075.21438 L69.0000528,2075.21438 Z M73.9999648,2088.55558 L73.9999648,2103 L100,2103 L100,2082.77759 L91.3332043,2082.77759 L91.3332043,2079.88878 L86.9998065,2075.55538 L82.6664086,2079.88878 L82.6664086,2088.55558 L73.9999648,2088.55558 L73.9999648,2088.55558 Z M94.2223708,2097.22237 L97.1111854,2097.22237 L97.1111854,2100.11119 L94.2223708,2100.11119 L94.2223708,2097.22237 L94.2223708,2097.22237 Z M94.2223708,2091.44474 L97.1111854,2091.44474 L97.1111854,2094.33356 L94.2223708,2094.33356 L94.2223708,2091.44474 L94.2223708,2091.44474 Z M94.2223708,2085.66676 L97.1111854,2085.66676 L97.1111854,2088.55558 L94.2223708,2088.55558 L94.2223708,2085.66676 L94.2223708,2085.66676 Z M85.5555751,2097.22237 L88.4443897,2097.22237 L88.4443897,2100.11119 L85.5555751,2100.11119 L85.5555751,2097.22237 L85.5555751,2097.22237 Z M85.5555751,2091.44474 L88.4443897,2091.44474 L88.4443897,2094.33356 L85.5555751,2094.33356 L85.5555751,2091.44474 L85.5555751,2091.44474 Z M85.5555751,2085.66676 L88.4443897,2085.66676 L88.4443897,2088.55558 L85.5555751,2088.55558 L85.5555751,2085.66676 L85.5555751,2085.66676 Z M85.5555751,2079.88913 L88.4443897,2079.88913 L88.4443897,2082.77795 L85.5555751,2082.77795 L85.5555751,2079.88913 L85.5555751,2079.88913 Z M76.8891313,2097.22237 L79.7779459,2097.22237 L79.7779459,2100.11119 L76.8891313,2100.11119 L76.8891313,2097.22237 L76.8891313,2097.22237 Z M76.8891313,2091.44474 L79.7779459,2091.44474 L79.7779459,2094.33356 L76.8891313,2094.33356 L76.8891313,2091.44474 L76.8891313,2091.44474 Z" id="icon_seguridad"></path>
        </g>
    </g>
</svg>