<?xml version="1.0" encoding="UTF-8" standalone="no"?>
<svg width="36px" height="36px" viewBox="0 0 36 36" version="1.1" xmlns="http://www.w3.org/2000/svg" xmlns:xlink="http://www.w3.org/1999/xlink">
    <!-- Generator: sketchtool 3.8.3 (29802) - http://www.bohemiancoding.com/sketch -->
    <title>32DF33D6-4486-4E1C-9A8E-0B97810EEBFB</title>
    <desc>Created with sketchtool.</desc>
    <defs></defs>
    <g id="Style-guide" stroke="none" stroke-width="1" fill="none" fill-rule="evenodd">
        <g id="Icons" transform="translate(-302.000000, -2063.000000)" fill="#000000">
            <path d="M337.99983,2098.99905 C336.00174,2098.99905 334.885989,2098.33302 334.075858,2097.84719 C333.409828,2097.45131 332.995895,2097.19922 332.005876,2097.19922 C330.997804,2097.19922 330.601923,2097.43326 329.935893,2097.84719 C329.108027,2098.33302 328.010012,2098.99905 326.011921,2098.99905 C324.013831,2098.99905 322.89808,2098.33302 322.087949,2097.84719 C321.421919,2097.45131 321.007986,2097.19922 320.017967,2097.19922 C319.009896,2097.19922 318.614015,2097.43326 317.947985,2097.84719 C317.120119,2098.33302 316.004051,2098.99905 314.005961,2098.99905 C312.008187,2098.99905 310.89212,2098.33302 310.081989,2097.84719 C309.415959,2097.43326 309.002026,2097.19922 308.012006,2097.19922 C307.021987,2097.19922 306.608054,2097.43326 305.942024,2097.84719 C305.114158,2098.33302 303.99809,2098.99905 302,2098.99905 L302,2095.39907 C303.008071,2095.39907 303.403952,2095.16502 304.069982,2094.75109 C304.897849,2094.26495 306.013916,2093.59923 308.012006,2093.59923 C310.010097,2093.59923 311.125848,2094.26526 311.935978,2094.75109 C312.602009,2095.16502 312.997889,2095.39907 314.005961,2095.39907 C315.014032,2095.39907 315.409913,2095.16502 316.075943,2094.75109 C316.903809,2094.26495 318.019877,2093.59923 320.01765,2093.59923 C322.015741,2093.59923 323.131492,2094.26526 323.941622,2094.75109 C324.607652,2095.14697 325.021586,2095.39907 326.011605,2095.39907 C327.001624,2095.39907 327.415557,2095.16502 328.081587,2094.75109 C328.891718,2094.26495 330.007469,2093.59923 332.005559,2093.59923 C334.003649,2093.59923 335.1194,2094.26526 335.929531,2094.75109 C336.595561,2095.16502 336.991442,2095.39907 337.999513,2095.39907 L337.99983,2098.99905 L337.99983,2098.99905 Z M337.963726,2090.89933 L337.963726,2087.29934 C336.973707,2087.29934 336.559773,2087.04725 335.893743,2086.65136 C335.083613,2086.16554 333.967862,2085.49951 331.969771,2085.49951 C329.971681,2085.49951 328.85593,2086.16554 328.045799,2086.65136 C327.379769,2087.0653 326.965836,2087.29934 325.975817,2087.29934 C324.985798,2087.29934 324.571865,2087.04725 323.905835,2086.65136 C323.095704,2086.16554 321.979953,2085.49951 319.981863,2085.49951 C317.983772,2085.49951 316.868022,2086.16554 316.057891,2086.65136 C315.391861,2087.0653 314.99598,2087.29934 313.987909,2087.29934 C312.997889,2087.29934 312.583956,2087.04725 311.917926,2086.65136 C311.107795,2086.16554 309.992045,2085.49951 307.993954,2085.49951 C305.995864,2085.49951 304.880113,2086.16554 304.069982,2086.65136 C303.403952,2087.0653 303.008071,2087.29934 302,2087.29934 L302,2090.89933 C303.997774,2090.89933 305.113841,2090.2333 305.95976,2089.74747 C306.62579,2089.33354 307.039723,2089.09949 308.029742,2089.09949 C309.019761,2089.09949 309.433694,2089.35159 310.099724,2089.74747 C310.909855,2090.2333 312.025606,2090.89933 314.023696,2090.89933 C316.021786,2090.89933 317.137537,2090.2333 317.947668,2089.74747 C318.613698,2089.33354 319.009579,2089.09949 320.01765,2089.09949 C321.00767,2089.09949 321.421603,2089.35159 322.087633,2089.74747 C322.897764,2090.2333 324.013514,2090.89933 326.011605,2090.89933 C328.009695,2090.89933 329.125446,2090.2333 329.935577,2089.74747 C330.601607,2089.33354 330.997488,2089.09949 332.005559,2089.09949 C332.995578,2089.09949 333.409511,2089.35159 334.075541,2089.74747 C334.885672,2090.2333 336.001423,2090.89933 337.999513,2090.89933 L337.963726,2090.89933 L337.963726,2090.89933 Z M322.142106,2069.41059 L318.996594,2066.26508 C323.340833,2061.92084 330.379597,2061.90976 334.723836,2066.24323 C330.401449,2064.81362 325.58437,2065.96833 322.142106,2069.41059 L322.142106,2069.41059 Z M331.589409,2078.85789 L334.734921,2082.00341 C339.07916,2077.65917 339.090244,2070.6204 334.756773,2066.27616 C336.186378,2070.59855 335.031673,2075.41563 331.589409,2078.85789 L331.589409,2078.85789 Z M323.714862,2070.98335 L330.016653,2077.28514 C333.458917,2073.83179 335.163739,2069.57559 334.745689,2066.26508 L334.734604,2066.25399 C331.424406,2065.83626 327.157126,2067.54108 323.714862,2070.98335 L323.714862,2070.98335 Z M320.225725,2082.34956 L326.86354,2075.71238 L325.290785,2074.13963 L317.085914,2082.34925 L320.225725,2082.34925 L320.225725,2082.34956 Z M306.340122,2064.93049 C306.340122,2063.86889 307.208843,2063.00017 308.270438,2063.00017 C309.332032,2063.00017 310.200753,2063.86889 310.200753,2064.93049 C310.200753,2065.99208 309.332349,2066.8608 308.270438,2066.8608 C307.208526,2066.8608 306.340122,2065.99208 306.340122,2064.93049 L306.340122,2064.93049 Z M313.487198,2072.29039 L311.175887,2074.6017 L305.375123,2074.6017 L305.375123,2074.58776 L303.07743,2072.29007 L302.00095,2071.21359 L303.130319,2070.08422 L305.375123,2067.83974 L305.375123,2067.82548 L311.166069,2067.82548 L311.166069,2067.8353 L311.175887,2067.82548 L313.434625,2070.08422 L314.563678,2071.21391 L313.487198,2072.29039 L313.487198,2072.29039 Z M305.375123,2069.99301 L304.206799,2071.16102 L305.375123,2072.32934 L305.375123,2069.99301 L305.375123,2069.99301 Z M312.357829,2071.16102 L311.165752,2069.96894 L311.165752,2072.3531 L312.357829,2071.16102 L312.357829,2071.16102 Z M305.375123,2076.54025 L307.305438,2076.54025 L307.305438,2082.30364 L305.375123,2082.30364 L305.375123,2076.54025 L305.375123,2076.54025 Z M309.235754,2082.30333 L311.166069,2082.30333 L311.166069,2076.53993 L309.235754,2076.53993 L309.235754,2082.30333 L309.235754,2082.30333 Z" id="icon_turismo"></path>
        </g>
    </g>
</svg>