<?xml version="1.0" encoding="UTF-8" standalone="no"?>
<svg width="26px" height="28px" viewBox="0 0 26 28" version="1.1" xmlns="http://www.w3.org/2000/svg" xmlns:xlink="http://www.w3.org/1999/xlink">
    <!-- Generator: sketchtool 3.8.3 (29802) - http://www.bohemiancoding.com/sketch -->
    <title>CC9314AA-D21B-4EF0-AB6D-AC32BF6D4443</title>
    <desc>Created with sketchtool.</desc>
    <defs></defs>
    <g id="Style-guide" stroke="none" stroke-width="1" fill="none" fill-rule="evenodd">
        <g id="Icons" transform="translate(-704.000000, -2065.000000)" fill="#000000">
            <path d="M705.400086,2090.20007 L705.400086,2090.20007 C704.62679,2090.20007 704,2089.57328 704,2088.79999 L704,2069.20001 L706.799926,2069.20001 L706.799926,2088.79999 C706.799926,2089.57328 706.173136,2090.20007 705.400086,2090.20007 L705.400086,2090.20007 Z M729.200074,2065 L729.200074,2088.79999 C729.200074,2091.11963 727.319704,2093 725.000062,2093 L709.600099,2093 L705.400086,2093 C707.719729,2093 709.600099,2091.11963 709.600099,2088.79999 L709.600099,2065 L729.200074,2065 L729.200074,2065 Z M726.400148,2087.40015 L712.400025,2087.40015 L712.400025,2088.80023 L726.400148,2088.80023 L726.400148,2087.40015 L726.400148,2087.40015 Z M726.400148,2083.20014 L712.400025,2083.20014 L712.400025,2084.60022 L726.400148,2084.60022 L726.400148,2083.20014 L726.400148,2083.20014 Z M726.400148,2079.00012 L712.400025,2079.00012 L712.400025,2080.40021 L726.400148,2080.40021 L726.400148,2079.00012 L726.400148,2079.00012 Z M726.400148,2074.80011 L712.400025,2074.80011 L712.400025,2076.2002 L726.400148,2076.2002 L726.400148,2074.80011 L726.400148,2074.80011 Z M726.400148,2067.80017 L712.400025,2067.80017 L712.400025,2072.00019 L726.400148,2072.00019 L726.400148,2067.80017 L726.400148,2067.80017 Z" id="icon-prensa"></path>
        </g>
    </g>
</svg>