<?xml version="1.0" encoding="UTF-8" standalone="no"?>
<svg width="36px" height="36px" viewBox="0 0 36 36" version="1.1" xmlns="http://www.w3.org/2000/svg" xmlns:xlink="http://www.w3.org/1999/xlink">
    <!-- Generator: sketchtool 3.8.3 (29802) - http://www.bohemiancoding.com/sketch -->
    <title>1B3A964C-7DC1-4A13-85DA-6B3E0357565E</title>
    <desc>Created with sketchtool.</desc>
    <defs></defs>
    <g id="Style-guide" stroke="none" stroke-width="1" fill="none" fill-rule="evenodd">
        <g id="Icons" transform="translate(-1182.000000, -1928.000000)" fill="#000000">
            <path d="M1203.5917,1942.40196 L1203.5917,1949.62179 L1196.40956,1949.62179 L1196.40956,1942.40196 L1189.18974,1942.40196 L1189.18974,1935.21983 L1196.40956,1935.21983 L1196.40956,1928 L1203.5917,1928 L1203.5917,1935.21983 L1210.81153,1935.21983 L1210.81153,1942.40196 L1203.5917,1942.40196 L1203.5917,1942.40196 Z M1217.93444,1949.69432 L1211.18905,1956.43971 L1211.18905,1964 L1205.02579,1964 L1205.02579,1954.0957 L1205.02927,1954.0957 L1205.02579,1954.09222 L1211.25461,1947.86339 C1211.60395,1947.51374 1212.06223,1947.33891 1212.52052,1947.33891 C1212.54047,1947.33891 1212.56043,1947.34398 1212.58038,1947.34461 C1212.75521,1947.35031 1212.92845,1947.38388 1213.09599,1947.44089 C1213.1663,1947.46465 1213.23408,1947.49378 1213.30154,1947.52641 C1213.46623,1947.60653 1213.62269,1947.70883 1213.76141,1947.8428 L1213.76141,1947.8428 C1213.76933,1947.85041 1213.77851,1947.85547 1213.78643,1947.86339 C1214.48573,1948.5627 1214.48573,1949.69622 1213.78643,1950.39521 L1211.34931,1952.83233 L1211.9536,1953.43662 L1214.39072,1950.9995 C1214.89018,1950.50004 1215.1654,1949.83589 1215.1654,1949.1293 C1215.1654,1948.42271 1214.89018,1947.75856 1214.39072,1947.2591 C1214.33403,1947.20241 1214.26847,1947.15933 1214.20766,1947.10866 L1214.20766,1939.0375 C1214.20766,1938.00818 1215.0422,1937.17396 1216.07121,1937.17396 L1216.07311,1937.17396 C1217.10243,1937.17396 1217.93666,1938.00818 1217.93666,1939.0375 L1217.93666,1949.68323 L1217.94141,1949.68767 L1217.93666,1949.6921 L1217.93666,1949.69432 L1217.93444,1949.69432 L1217.93444,1949.69432 Z M1194.91626,1954.0919 L1194.91277,1954.09538 L1194.91626,1954.09538 L1194.91626,1963.99968 L1188.75267,1963.99968 L1188.75267,1956.43939 L1182.00728,1949.694 L1182.00475,1949.694 L1182.00475,1949.69178 L1182,1949.68735 L1182.00475,1949.68292 L1182.00475,1939.03719 C1182.00475,1938.00787 1182.83898,1937.17364 1183.8683,1937.17364 L1183.8702,1937.17364 C1184.89952,1937.17364 1185.73375,1938.00787 1185.73375,1939.03719 L1185.73375,1947.10834 C1185.67326,1947.15902 1185.60738,1947.20209 1185.55069,1947.25878 C1185.05123,1947.75824 1184.776,1948.42239 1184.776,1949.12898 C1184.776,1949.83557 1185.05123,1950.49972 1185.55069,1950.99918 L1187.98781,1953.4363 L1188.5921,1952.83201 L1186.15498,1950.39489 C1185.45567,1949.69558 1185.45567,1948.56206 1186.15498,1947.86307 C1186.1629,1947.85516 1186.17208,1947.85009 1186.18,1947.84249 L1186.18,1947.84249 C1186.31872,1947.70883 1186.47486,1947.60653 1186.63955,1947.52609 C1186.70701,1947.49315 1186.77479,1947.46433 1186.8451,1947.44058 C1187.01264,1947.38357 1187.18557,1947.35031 1187.36071,1947.3443 C1187.38066,1947.34366 1187.40062,1947.33859 1187.42057,1947.33859 C1187.87854,1947.33859 1188.33683,1947.51342 1188.68648,1947.86307 L1194.91626,1954.0919 L1194.91626,1954.0919 Z" id="icon_salud_publica"></path>
        </g>
    </g>
</svg>