<?xml version="1.0" encoding="UTF-8" standalone="no"?>
<svg width="40px" height="42px" viewBox="0 0 40 42" version="1.1" xmlns="http://www.w3.org/2000/svg" xmlns:xlink="http://www.w3.org/1999/xlink">
    <!-- Generator: sketchtool 3.8.3 (29802) - http://www.bohemiancoding.com/sketch -->
    <title>981274F9-BF26-4A8D-A215-7480B8630749</title>
    <desc>Created with sketchtool.</desc>
    <defs></defs>
    <g id="Style-guide" stroke="none" stroke-width="1" fill="none" fill-rule="evenodd">
        <g id="Icons" transform="translate(-620.000000, -1927.000000)" fill="#000000">
            <g id="icon-fiestas" transform="translate(620.000000, 1927.000000)">
                <g id="Layer_1">
                    <path d="M21,20 C21,20.552 20.552,21 20,21 C19.448,21 19,20.552 19,20 C19,19.448 19.448,19 20,19 C20.552,19 21,19.448 21,20 L21,20 Z M20,23.125 C19.448,23.125 19,23.573 19,24.125 C19,24.677 19.448,25.125 20,25.125 C20.552,25.125 21,24.677 21,24.125 C21,23.573 20.552,23.125 20,23.125 L20,23.125 Z M20,27.125 C19.448,27.125 19,27.573 19,28.125 C19,28.677 19.448,29.125 20,29.125 C20.552,29.125 21,28.677 21,28.125 C21,27.573 20.552,27.125 20,27.125 L20,27.125 Z M20,31.125 C19.448,31.125 19,31.573 19,32.125 C19,32.677 19.448,33.125 20,33.125 C20.552,33.125 21,32.677 21,32.125 C21,31.573 20.552,31.125 20,31.125 L20,31.125 Z M20,35.125 C19.448,35.125 19,35.573 19,36.125 C19,36.677 19.448,37.125 20,37.125 C20.552,37.125 21,36.677 21,36.125 C21,35.573 20.552,35.125 20,35.125 L20,35.125 Z M2,18 C0.895,18 0,18.895 0,20 C0,21.105 0.895,22 2,22 C3.105,22 4,21.105 4,20 C4,18.895 3.105,18 2,18 L2,18 Z M6,19 C5.448,19 5,19.448 5,20 C5,20.552 5.448,21 6,21 C6.552,21 7,20.552 7,20 C7,19.448 6.552,19 6,19 L6,19 Z M11,19 C10.448,19 10,19.448 10,20 C10,20.552 10.448,21 11,21 C11.552,21 12,20.552 12,20 C12,19.448 11.552,19 11,19 L11,19 Z M36,20 C36,21.105 36.895,22 38,22 C39.105,22 40,21.105 40,20 C40,18.895 39.105,18 38,18 C36.895,18 36,18.895 36,20 L36,20 Z M33,20 C33,20.552 33.448,21 34,21 C34.552,21 35,20.552 35,20 C35,19.448 34.552,19 34,19 C33.448,19 33,19.448 33,20 L33,20 Z M28,20 C28,20.552 28.448,21 29,21 C29.552,21 30,20.552 30,20 C30,19.448 29.552,19 29,19 C28.448,19 28,19.448 28,20 L28,20 Z M8.686,5.858 C7.905,5.077 6.639,5.077 5.858,5.858 C5.077,6.639 5.077,7.905 5.858,8.686 C6.639,9.467 7.905,9.467 8.686,8.686 C9.467,7.905 9.467,6.639 8.686,5.858 L8.686,5.858 Z M10.808,9.393 C10.417,9.002 9.784,9.002 9.394,9.393 C9.004,9.784 9.003,10.417 9.394,10.807 C9.785,11.198 10.418,11.198 10.808,10.807 C11.198,10.417 11.198,9.784 10.808,9.393 L10.808,9.393 Z M14.343,12.929 C13.952,12.538 13.319,12.538 12.929,12.929 C12.539,13.32 12.538,13.953 12.929,14.343 C13.32,14.733 13.953,14.734 14.343,14.343 C14.733,13.952 14.734,13.319 14.343,12.929 L14.343,12.929 Z M31.314,31.314 C30.533,32.095 30.533,33.361 31.314,34.142 C32.095,34.923 33.361,34.923 34.142,34.142 C34.923,33.361 34.923,32.095 34.142,31.314 C33.361,30.533 32.095,30.533 31.314,31.314 L31.314,31.314 Z M29.192,29.192 C28.801,29.583 28.801,30.216 29.192,30.606 C29.583,30.997 30.216,30.997 30.606,30.606 C30.996,30.215 30.997,29.582 30.606,29.192 C30.216,28.802 29.583,28.802 29.192,29.192 L29.192,29.192 Z M25.657,25.657 C25.266,26.048 25.266,26.681 25.657,27.071 C26.048,27.461 26.681,27.462 27.071,27.071 C27.461,26.68 27.462,26.047 27.071,25.657 C26.68,25.267 26.047,25.266 25.657,25.657 L25.657,25.657 Z M5.858,31.314 C5.077,32.095 5.077,33.361 5.858,34.142 C6.639,34.923 7.905,34.923 8.686,34.142 C9.467,33.361 9.467,32.095 8.686,31.314 C7.905,30.533 6.639,30.533 5.858,31.314 L5.858,31.314 Z M9.393,29.192 C9.002,29.583 9.002,30.216 9.393,30.606 C9.784,30.996 10.417,30.997 10.807,30.606 C11.198,30.215 11.198,29.582 10.807,29.192 C10.417,28.802 9.784,28.802 9.393,29.192 L9.393,29.192 Z M12.929,25.657 C12.538,26.048 12.538,26.681 12.929,27.071 C13.32,27.461 13.953,27.462 14.343,27.071 C14.733,26.68 14.734,26.047 14.343,25.657 C13.952,25.267 13.319,25.266 12.929,25.657 L12.929,25.657 Z M31.314,8.686 C32.095,9.467 33.361,9.467 34.142,8.686 C34.923,7.905 34.923,6.639 34.142,5.858 C33.361,5.077 32.095,5.077 31.314,5.858 C30.533,6.639 30.533,7.905 31.314,8.686 L31.314,8.686 Z M29.192,10.808 C29.583,11.199 30.216,11.199 30.606,10.808 C30.997,10.417 30.997,9.784 30.606,9.394 C30.215,9.004 29.582,9.003 29.192,9.394 C28.802,9.784 28.802,10.417 29.192,10.808 L29.192,10.808 Z M25.657,14.343 C26.048,14.734 26.681,14.734 27.071,14.343 C27.461,13.952 27.462,13.319 27.071,12.929 C26.68,12.539 26.047,12.538 25.657,12.929 C25.267,13.32 25.266,13.953 25.657,14.343 L25.657,14.343 Z M20,4 C21.105,4 22,3.105 22,2 C22,0.895 21.105,0 20,0 C18.895,0 18,0.895 18,2 C18,3.105 18.895,4 20,4 L20,4 Z M20,7 C20.552,7 21,6.552 21,6 C21,5.448 20.552,5 20,5 C19.448,5 19,5.448 19,6 C19,6.552 19.448,7 20,7 L20,7 Z M20,12 C20.552,12 21,11.552 21,11 C21,10.448 20.552,10 20,10 C19.448,10 19,10.448 19,11 C19,11.552 19.448,12 20,12 L20,12 Z M20,39.125 C19.448,39.125 19,39.573 19,40.125 C19,40.677 19.448,41.125 20,41.125 C20.552,41.125 21,40.677 21,40.125 C21,39.573 20.552,39.125 20,39.125 L20,39.125 Z" id="Shape"></path>
                </g>
            </g>
        </g>
    </g>
</svg>