<?xml version="1.0" encoding="UTF-8" standalone="no"?>
<svg width="37px" height="37px" viewBox="0 0 37 37" version="1.1" xmlns="http://www.w3.org/2000/svg" xmlns:xlink="http://www.w3.org/1999/xlink">
    <!-- Generator: sketchtool 3.8.3 (29802) - http://www.bohemiancoding.com/sketch -->
    <title>52B61EB6-2050-4C32-B4CD-1E839584E053</title>
    <desc>Created with sketchtool.</desc>
    <defs></defs>
    <g id="Style-guide" stroke="none" stroke-width="1" fill="none" fill-rule="evenodd">
        <g id="Icons" transform="translate(-940.000000, -1930.000000)" fill="#000000">
            <path d="M965.226991,1953.54537 C968.018926,1953.54537 970.255543,1951.29177 970.255543,1948.49984 C970.255543,1945.7079 968.0186,1943.45431 965.226991,1943.45431 C962.435382,1943.45431 960.181462,1945.7079 960.181462,1948.49984 C960.181462,1951.29177 962.435382,1953.54537 965.226991,1953.54537 L965.226991,1953.54537 Z M951.772683,1953.54537 C954.564618,1953.54537 956.801235,1951.29177 956.801235,1948.49984 C956.801235,1945.7079 954.564292,1943.45431 951.772683,1943.45431 C948.981074,1943.45431 946.727154,1945.7079 946.727154,1948.49984 C946.727154,1951.29177 948.980747,1953.54537 951.772683,1953.54537 L951.772683,1953.54537 Z M951.772683,1956.90894 C947.854114,1956.90894 940,1958.87655 940,1962.79512 L940,1966.99967 L963.545039,1966.99967 L963.545039,1962.79512 C963.545366,1958.87655 955.691252,1956.90894 951.772683,1956.90894 L951.772683,1956.90894 Z M965.226991,1956.90894 C964.739251,1956.90894 964.184259,1956.94257 963.595641,1956.99317 C965.546601,1958.40579 966.908616,1960.30615 966.908616,1962.79545 L966.908616,1967 L976.999347,1967 L976.999347,1962.79545 C976.999674,1958.87655 969.14556,1956.90894 965.226991,1956.90894 L965.226991,1956.90894 Z M975.149592,1931.29509 L975.149592,1939.06498 C975.149592,1939.77732 974.56685,1940.36007 973.854502,1940.36007 L959.239608,1940.36007 L956.649755,1942.94992 L956.649755,1931.29509 C956.649755,1930.58274 957.232497,1930 957.944845,1930 L973.854502,1930 C974.56685,1930 975.149592,1930.58274 975.149592,1931.29509 L975.149592,1931.29509 Z" id="icon_participacion"></path>
        </g>
    </g>
</svg>