<?xml version="1.0" encoding="UTF-8" standalone="no"?>
<svg width="31px" height="40px" viewBox="0 0 31 40" version="1.1" xmlns="http://www.w3.org/2000/svg" xmlns:xlink="http://www.w3.org/1999/xlink">
    <!-- Generator: sketchtool 3.8.3 (29802) - http://www.bohemiancoding.com/sketch -->
    <title>4B54BBB9-8D6E-49DC-B6AD-2B5466C63622</title>
    <desc>Created with sketchtool.</desc>
    <defs></defs>
    <g id="Style-guide" stroke="none" stroke-width="1" fill="none" fill-rule="evenodd">
        <g id="Icons" transform="translate(-705.000000, -1928.000000)" fill="#000000">
            <g id="icon-juventud" transform="translate(705.000000, 1928.000000)">
                <g id="Layer_1">
                    <path d="M2.875,40 L2.875,26.364 L0.148,26.364 L0.148,16.364 C0.148,14.364 1.784,12.728 3.784,12.728 L9.239,12.728 C11.239,12.728 12.875,14.364 12.875,16.364 L12.875,26.364 L10.148,26.364 L10.148,40 L2.875,40 L2.875,40 Z M25.545,40 L25.545,29.091 L31,29.091 L26.382,15.218 C25.873,13.727 24.491,12.727 22.927,12.727 L22.709,12.727 C21.145,12.727 19.745,13.727 19.254,15.218 L14.636,29.091 L20.091,29.091 L20.091,40 L25.545,40 L25.545,40 Z M6.511,10.909 C9.538,10.909 11.966,8.482 11.966,5.454 C11.966,2.426 9.539,0 6.511,0 C3.483,0 1.056,2.427 1.056,5.455 C1.056,8.483 3.484,10.909 6.511,10.909 L6.511,10.909 Z M22.818,10.909 C25.845,10.909 28.273,8.482 28.273,5.454 C28.273,2.426 25.845,0 22.818,0 C19.791,0 17.363,2.427 17.363,5.455 C17.363,8.483 19.791,10.909 22.818,10.909 L22.818,10.909 Z" id="Shape"></path>
                </g>
            </g>
        </g>
    </g>
</svg>