<?xml version="1.0" encoding="UTF-8" standalone="no"?>
<svg width="28px" height="28px" viewBox="0 0 28 28" version="1.1" xmlns="http://www.w3.org/2000/svg" xmlns:xlink="http://www.w3.org/1999/xlink">
    <!-- Generator: sketchtool 3.8.3 (29802) - http://www.bohemiancoding.com/sketch -->
    <title>0DEB6574-4712-4243-B888-E369BAD62BC6</title>
    <desc>Created with sketchtool.</desc>
    <defs></defs>
    <g id="Style-guide" stroke="none" stroke-width="1" fill="none" fill-rule="evenodd">
        <g id="Icons" transform="translate(-865.000000, -2069.000000)">
            <g id="icon_estadisticas" transform="translate(861.000000, 2065.000000)">
                <g id="Group">
                    <path d="M28.5,4.5 L7.5,4.5 C5.85,4.5 4.5,5.85 4.5,7.5 L4.5,28.5 C4.5,30.15 5.85,31.5 7.5,31.5 L28.5,31.5 C30.15,31.5 31.5,30.15 31.5,28.5 L31.5,7.5 C31.5,5.85 30.15,4.5 28.5,4.5 L28.5,4.5 Z M13.5,25.5 L10.5,25.5 L10.5,15 L13.5,15 L13.5,25.5 L13.5,25.5 Z M19.5,25.5 L16.5,25.5 L16.5,10.5 L19.5,10.5 L19.5,25.5 L19.5,25.5 Z M25.5,25.5 L22.5,25.5 L22.5,19.5 L25.5,19.5 L25.5,25.5 L25.5,25.5 Z" id="Shape" fill="#000000"></path>
                    <polygon id="Shape" points="0 0 36 0 36 36 0 36"></polygon>
                </g>
            </g>
        </g>
    </g>
</svg>