<?xml version="1.0" encoding="UTF-8" standalone="no"?>
<svg width="36px" height="36px" viewBox="0 0 36 36" version="1.1" xmlns="http://www.w3.org/2000/svg" xmlns:xlink="http://www.w3.org/1999/xlink">
    <!-- Generator: sketchtool 3.8.3 (29802) - http://www.bohemiancoding.com/sketch -->
    <title>36DE30AC-5B63-49E7-B9B1-8E7FAF1FC346</title>
    <desc>Created with sketchtool.</desc>
    <defs></defs>
    <g id="Style-guide" stroke="none" stroke-width="1" fill="none" fill-rule="evenodd">
        <g id="Icons" transform="translate(-1102.000000, -1928.000000)" fill="#000000">
            <path d="M1102,1948.66404 L1115.49996,1935.14603 L1122.69983,1942.34591 L1135.46185,1928 L1138,1930.53783 L1122.70015,1947.74589 L1115.50028,1940.54602 L1104.70031,1951.36404 L1102,1948.66404 L1102,1948.66404 Z M1130.79981,1964 L1137.99968,1964 L1137.99968,1942.48273 L1130.79981,1942.48273 L1130.79981,1964 L1130.79981,1964 Z M1117.78442,1964 L1124.95643,1964 L1124.95643,1949.66423 L1117.78442,1949.66423 L1117.78442,1964 L1117.78442,1964 Z M1104.73135,1964 L1111.94991,1964 L1111.94991,1953.13827 L1104.73135,1953.13827 L1104.73135,1964 L1104.73135,1964 Z" id="icon_promo_economica"></path>
        </g>
    </g>
</svg>