<?xml version="1.0" encoding="UTF-8" standalone="no"?>
<svg width="36px" height="42px" viewBox="0 0 36 42" version="1.1" xmlns="http://www.w3.org/2000/svg" xmlns:xlink="http://www.w3.org/1999/xlink">
    <!-- Generator: sketchtool 3.8.3 (29802) - http://www.bohemiancoding.com/sketch -->
    <title>F509E0E4-DEF3-49FB-9290-E7987E8BB9F4</title>
    <desc>Created with sketchtool.</desc>
    <defs></defs>
    <g id="Style-guide" stroke="none" stroke-width="1" fill="none" fill-rule="evenodd">
        <g id="Icons" transform="translate(-382.000000, -1927.000000)" fill="#000000">
            <g id="icon-deportes" transform="translate(382.000000, 1927.000000)">
                <g id="Layer_1">
                    <path d="M30,26 C27.381,26 25.161,27.679 24.342,30.017 C24.228,30.011 24.115,30 24,30 C23.885,30 23.772,30.011 23.658,30.017 C22.839,27.679 20.619,26 18,26 C15.381,26 13.161,27.679 12.342,30.017 C12.228,30.011 12.115,30 12,30 C11.885,30 11.772,30.011 11.658,30.017 C10.839,27.679 8.619,26 6,26 C2.685,26 0,28.685 0,32 C0,35.307 2.685,38 6,38 C6.116,38 6.229,37.989 6.343,37.983 C7.163,40.318 9.382,42 12,42 C14.618,42 16.837,40.318 17.657,37.983 C17.771,37.989 17.884,38 18,38 C18.116,38 18.229,37.989 18.343,37.983 C19.163,40.318 21.382,42 24,42 C26.618,42 28.837,40.318 29.657,37.983 C29.771,37.989 29.884,38 30,38 C33.315,38 36,35.307 36,32 C36,28.685 33.315,26 30,26 L30,26 Z M2,32 C2,29.794 3.794,28 6,28 C7.661,28 9.086,29.018 9.69,30.462 C7.523,31.366 6,33.504 6,36 C3.794,36 2,34.206 2,32 L2,32 Z M9.94,32.589 C9.761,33.788 9.056,34.807 8.059,35.412 C8.239,34.212 8.944,33.193 9.94,32.589 L9.94,32.589 Z M12,40 C10.339,40 8.913,38.982 8.309,37.537 C10.477,36.631 12,34.491 12,32 C12,34.491 13.523,36.631 15.691,37.537 C15.087,38.982 13.661,40 12,40 L12,40 Z M14.06,32.589 C15.057,33.193 15.762,34.212 15.941,35.412 C14.944,34.807 14.239,33.788 14.06,32.589 L14.06,32.589 Z M14.31,30.462 C14.914,29.018 16.339,28 18,28 C19.661,28 21.086,29.018 21.69,30.462 C19.523,31.366 18,33.504 18,36 C18,33.504 16.477,31.366 14.31,30.462 L14.31,30.462 Z M21.94,32.589 C21.761,33.788 21.056,34.807 20.059,35.412 C20.239,34.212 20.944,33.193 21.94,32.589 L21.94,32.589 Z M24,40 C22.339,40 20.913,38.982 20.309,37.537 C22.477,36.631 24,34.491 24,32 C24,34.491 25.523,36.631 27.691,37.537 C27.087,38.982 25.661,40 24,40 L24,40 Z M26.06,32.589 C27.057,33.193 27.762,34.212 27.941,35.412 C26.944,34.807 26.239,33.788 26.06,32.589 L26.06,32.589 Z M30,36 C30,33.504 28.477,31.366 26.31,30.462 C26.914,29.018 28.339,28 30,28 C32.206,28 34,29.794 34,32 C34,34.206 32.206,36 30,36 L30,36 Z M19.976,4.519 C21.219,4.519 22.236,3.502 22.236,2.259 C22.236,1.016 21.219,0 19.976,0 C18.733,0 17.716,1.017 17.716,2.26 C17.716,3.503 18.734,4.519 19.976,4.519 L19.976,4.519 Z M15.909,20.224 L16.982,15.253 L19.411,17.513 L19.411,24.292 L21.671,24.292 L21.671,15.762 L19.355,13.446 L20.033,10.056 C21.502,11.864 23.705,12.994 26.191,12.994 L26.191,10.734 C24.101,10.734 22.293,9.604 21.276,7.966 L20.203,6.158 C19.808,5.48 19.073,5.085 18.282,5.085 C18,5.085 17.717,5.141 17.435,5.254 L11.503,7.683 L11.503,12.993 L13.763,12.993 L13.763,9.208 L15.74,8.417 L13.989,17.512 L8.453,16.439 L8,18.643 C8,18.643 15.909,20.168 15.909,20.224 L15.909,20.224 Z" id="Shape"></path>
                </g>
            </g>
        </g>
    </g>
</svg>