<?xml version="1.0" encoding="UTF-8" standalone="no"?>
<svg width="29px" height="32px" viewBox="0 0 29 32" version="1.1" xmlns="http://www.w3.org/2000/svg" xmlns:xlink="http://www.w3.org/1999/xlink">
    <!-- Generator: sketchtool 3.8.3 (29802) - http://www.bohemiancoding.com/sketch -->
    <title>C6BC2376-F458-4B83-AE2C-2E03C47781C2</title>
    <desc>Created with sketchtool.</desc>
    <defs></defs>
    <g id="Style-guide" stroke="none" stroke-width="1" fill="none" fill-rule="evenodd">
        <g id="Icons" transform="translate(-1026.000000, -1932.000000)" fill="#000000">
            <path d="M1029.04758,1945.71425 L1029.04758,1956.38091 L1033.61909,1956.38091 L1033.61909,1945.71425 L1029.04758,1945.71425 L1029.04758,1945.71425 Z M1038.19032,1945.71425 L1038.19032,1956.38091 L1042.76183,1956.38091 L1042.76183,1945.71425 L1038.19032,1945.71425 L1038.19032,1945.71425 Z M1026,1964 L1054.95215,1964 L1054.95215,1959.42849 L1026,1959.42849 L1026,1964 L1026,1964 Z M1047.33306,1945.71425 L1047.33306,1956.38091 L1051.90457,1956.38091 L1051.90457,1945.71425 L1047.33306,1945.71425 L1047.33306,1945.71425 Z M1040.47607,1932 L1026,1939.61909 L1026,1942.66667 L1054.95215,1942.66667 L1054.95215,1939.61909 L1040.47607,1932 L1040.47607,1932 Z" id="icon_patrimonio"></path>
        </g>
    </g>
</svg>