<?xml version="1.0" encoding="UTF-8" standalone="no"?>
<svg width="41px" height="40px" viewBox="0 0 41 40" version="1.1" xmlns="http://www.w3.org/2000/svg" xmlns:xlink="http://www.w3.org/1999/xlink">
    <!-- Generator: sketchtool 3.8.3 (29802) - http://www.bohemiancoding.com/sketch -->
    <title>A997698A-436D-421A-A16F-C06AA08B834C</title>
    <desc>Created with sketchtool.</desc>
    <defs></defs>
    <g id="Style-guide" stroke="none" stroke-width="1" fill="none" fill-rule="evenodd">
        <g id="Icons" transform="translate(-780.000000, -1928.000000)" fill="#000000">
            <g id="icon-medioambiente" transform="translate(780.000000, 1928.000000)">
                <g id="Layer_1">
                    <path d="M21.418,15.724 C18.106,15.724 15.418,18.412 15.418,21.724 C15.418,25.036 18.106,27.724 21.418,27.724 C24.73,27.724 27.418,25.036 27.418,21.724 C27.418,18.412 24.73,15.724 21.418,15.724 L21.418,15.724 Z M20.818,26.482 C18.448,26.188 16.618,24.172 16.618,21.724 C16.618,21.352 16.666,20.998 16.744,20.65 L19.618,23.524 L19.618,24.124 C19.618,24.784 20.158,25.324 20.818,25.324 L20.818,26.482 L20.818,26.482 Z M24.958,24.958 C24.802,24.472 24.358,24.124 23.818,24.124 L23.218,24.124 L23.218,22.324 C23.218,21.994 22.948,21.724 22.618,21.724 L19.018,21.724 L19.018,20.524 L20.218,20.524 C20.548,20.524 20.818,20.254 20.818,19.924 L20.818,18.724 L22.018,18.724 C22.678,18.724 23.218,18.184 23.218,17.524 L23.218,17.278 C24.976,17.992 26.218,19.714 26.218,21.724 C26.218,22.972 25.738,24.106 24.958,24.958 L24.958,24.958 Z M10.537,29.754 L17.992,29.754 L17.992,36.585 L6.607,36.585 L6.607,36.56 L10.537,29.754 L10.537,29.754 Z M11.45,23.906 L4.9,34.877 L0.915,28.046 L5.531,20.488 L2.582,18.786 L11.913,16.286 L14.413,25.617 L11.45,23.906 L11.45,23.906 Z M27.694,29.754 L40.799,29.754 L36.814,36.585 L27.702,36.585 L27.707,40 L20.876,33.169 L27.689,26.338 L27.694,29.754 L27.694,29.754 Z M29.483,21.225 L35.393,17.801 L41,27.477 L33.106,27.477 L29.483,21.225 L29.483,21.225 Z M24.8,11.893 L18.561,0.724 L25.961,0.724 L30.693,8.48 L33.66,6.762 L31.16,16.093 L21.838,13.608 L24.8,11.893 L24.8,11.893 Z M16.168,1.512 L20.115,8.349 L16.512,14.612 L10.591,11.206 L16.168,1.512 L16.168,1.512 Z" id="Shape"></path>
                </g>
            </g>
        </g>
    </g>
</svg>