<?xml version="1.0" encoding="UTF-8" standalone="no"?>
<svg width="28px" height="32px" viewBox="0 0 28 32" version="1.1" xmlns="http://www.w3.org/2000/svg" xmlns:xlink="http://www.w3.org/1999/xlink">
    <!-- Generator: sketchtool 3.8.3 (29802) - http://www.bohemiancoding.com/sketch -->
    <title>0CC78685-F880-4901-B0CD-E48FBAC0F174</title>
    <desc>Created with sketchtool.</desc>
    <defs></defs>
    <g id="Style-guide" stroke="none" stroke-width="1" fill="none" fill-rule="evenodd">
        <g id="Icons" transform="translate(-784.000000, -2068.000000)">
            <g id="icon_proyectos_destacados" transform="translate(780.000000, 2065.000000)">
                <g id="Group">
                    <polygon id="Shape" points="0 0 36 0 36 36 0 36"></polygon>
                    <path d="M28.5,3 L7.5,3 C5.85,3 4.5,4.35 4.5,6 L4.5,27 C4.5,28.65 5.85,30 7.5,30 L13.5,30 L18,34.5 L22.5,30 L28.5,30 C30.15,30 31.5,28.65 31.5,27 L31.5,6 C31.5,4.35 30.15,3 28.5,3 L28.5,3 Z M20.82,19.32 L18,25.5 L15.18,19.32 L9,16.5 L15.18,13.68 L18,7.5 L20.82,13.68 L27,16.5 L20.82,19.32 L20.82,19.32 Z" id="Shape" fill="#000000"></path>
                </g>
            </g>
        </g>
    </g>
</svg>