<?xml version="1.0" encoding="UTF-8" standalone="no"?>
<svg width="40px" height="42px" viewBox="0 0 40 42" version="1.1" xmlns="http://www.w3.org/2000/svg" xmlns:xlink="http://www.w3.org/1999/xlink">
    <!-- Generator: sketchtool 3.8.3 (29802) - http://www.bohemiancoding.com/sketch -->
    <title>01C498B6-DA9B-4F25-BC27-3901F35E5456</title>
    <desc>Created with sketchtool.</desc>
    <defs></defs>
    <g id="Style-guide" stroke="none" stroke-width="1" fill="none" fill-rule="evenodd">
        <g id="Icons" transform="translate(-860.000000, -1927.000000)" fill="#000000">
            <path d="M870.744362,1930.90704 C870.744362,1928.75817 872.50253,1927 874.651402,1927 C876.800275,1927 878.558443,1928.75817 878.558443,1930.90704 C878.558443,1933.05591 876.800275,1934.81408 874.651402,1934.81408 C872.50253,1934.81408 870.744362,1933.05591 870.744362,1930.90704 L870.744362,1930.90704 Z M873.674642,1949.46514 L873.47929,1950.4419 L877.581683,1954.34894 L877.581683,1969 L873.674642,1969 L873.674642,1957.27888 L869.57225,1953.37184 L866.055913,1968.99966 L861.95352,1968.99966 L865.832752,1949.4648 L863.907041,1949.4648 L860,1949.4648 L860,1940.28325 L870.158306,1935.98551 C870.744362,1935.98551 871.135066,1935.79015 871.721122,1935.79015 C873.088586,1935.79015 874.260698,1936.57156 875.042106,1937.74368 L876.995627,1940.86931 C878.558443,1943.60424 881.684075,1945.55776 885.395764,1945.55776 L885.395764,1947.51128 L889.302805,1947.51128 L889.302805,1943.60424 L892.233085,1943.60424 C894.930248,1943.60424 897.116886,1945.79087 897.116886,1948.48804 C897.116886,1951.1852 894.930248,1953.37184 892.233085,1953.37184 L889.302805,1953.37184 L889.302805,1949.4648 L873.674642,1949.4648 L873.674642,1949.46514 Z M874.065346,1947.51162 L878.216491,1947.51162 C876.85864,1946.72197 875.647045,1945.73045 874.651059,1944.58134 L874.065346,1947.51162 L874.065346,1947.51162 Z M866.220709,1947.51162 L867.423377,1941.45571 L863.907041,1942.82317 L863.907041,1947.51162 L866.220709,1947.51162 L866.220709,1947.51162 Z M895.354941,1962.5654 C894.249091,1960.64999 891.484293,1960.64999 890.378442,1962.5654 L886.663321,1969 L899.06972,1969 L895.354941,1962.5654 L895.354941,1962.5654 Z" id="icon-obras"></path>
        </g>
    </g>
</svg>