<?xml version="1.0" encoding="UTF-8" standalone="no"?>
<svg width="31px" height="32px" viewBox="0 0 31 32" version="1.1" xmlns="http://www.w3.org/2000/svg" xmlns:xlink="http://www.w3.org/1999/xlink">
    <!-- Generator: sketchtool 3.8.3 (29802) - http://www.bohemiancoding.com/sketch -->
    <title>D01302A0-B271-46AE-8160-6E89087795F7</title>
    <desc>Created with sketchtool.</desc>
    <defs></defs>
    <g id="Style-guide" stroke="none" stroke-width="1" fill="none" fill-rule="evenodd">
        <g id="Icons" transform="translate(-385.000000, -2067.000000)" fill="#000000">
            <path d="M405.210464,2082.15785 L405.210464,2072.05262 L400.157848,2067 L395.105232,2072.05262 L395.105232,2075.42093 L385,2075.42093 L385,2099 L415.315696,2099 L415.315696,2082.15785 L405.210464,2082.15785 L405.210464,2082.15785 Z M391.73692,2095.63169 L388.368609,2095.63169 L388.368609,2092.26338 L391.73692,2092.26338 L391.73692,2095.63169 L391.73692,2095.63169 Z M391.73692,2088.89477 L388.368609,2088.89477 L388.368609,2085.52646 L391.73692,2085.52646 L391.73692,2088.89477 L391.73692,2088.89477 Z M391.73692,2082.15785 L388.368609,2082.15785 L388.368609,2078.78954 L391.73692,2078.78954 L391.73692,2082.15785 L391.73692,2082.15785 Z M401.842152,2095.63169 L398.473841,2095.63169 L398.473841,2092.26338 L401.842152,2092.26338 L401.842152,2095.63169 L401.842152,2095.63169 Z M401.842152,2088.89477 L398.473841,2088.89477 L398.473841,2085.52646 L401.842152,2085.52646 L401.842152,2088.89477 L401.842152,2088.89477 Z M401.842152,2082.15785 L398.473841,2082.15785 L398.473841,2078.78954 L401.842152,2078.78954 L401.842152,2082.15785 L401.842152,2082.15785 Z M401.842152,2075.42122 L398.473841,2075.42122 L398.473841,2072.05291 L401.842152,2072.05291 L401.842152,2075.42122 L401.842152,2075.42122 Z M411.947384,2095.63169 L408.579073,2095.63169 L408.579073,2092.26338 L411.947384,2092.26338 L411.947384,2095.63169 L411.947384,2095.63169 Z M411.947384,2088.89477 L408.579073,2088.89477 L408.579073,2085.52646 L411.947384,2085.52646 L411.947384,2088.89477 L411.947384,2088.89477 Z" id="icon_urbanismo"></path>
        </g>
    </g>
</svg>