<?xml version="1.0" encoding="UTF-8" standalone="no"?>
<svg width="40px" height="40px" viewBox="0 0 40 40" version="1.1" xmlns="http://www.w3.org/2000/svg" xmlns:xlink="http://www.w3.org/1999/xlink">
    <!-- Generator: sketchtool 3.8.3 (29802) - http://www.bohemiancoding.com/sketch -->
    <title>1B8E0EE6-97B8-4923-81B9-F8ED8969F312</title>
    <desc>Created with sketchtool.</desc>
    <defs></defs>
    <g id="Style-guide" stroke="none" stroke-width="1" fill="none" fill-rule="evenodd">
        <g id="Icons" transform="translate(-540.000000, -1928.000000)" fill="#000000">
            <g id="icon-educacion" transform="translate(540.000000, 1928.000000)">
                <g id="Layer_1">
                    <path d="M18.4,31.2 L18.4,40 L15.2,40 L15.2,32 L7.2,32 C5.44,32 4,30.56 4,28.8 L4,19.344 C4,17.664 5.216,16.176 6.896,16.032 C6.999,16.023 7.1,16.018 7.2,16.018 C7.785,16.018 8.322,16.175 8.8,16.448 L8.816,16.448 C8.832,16.448 8.832,16.464 8.848,16.464 C9.216,16.64 9.552,16.88 9.824,17.184 L11.888,19.472 C13.436,21.178 15.873,22.401 18.306,22.401 C18.337,22.401 18.369,22.401 18.4,22.4 L18.4,25.6 C15.6,25.584 12.464,24.192 10.4,22.48 L10.4,28 L15.2,28 C16.96,28 18.4,29.44 18.4,31.2 L18.4,31.2 Z M40,0 L40,18.079 L12.652,18.079 L10.938,16.179 C10.549,15.744 10.066,15.385 9.505,15.115 C9.473,15.099 9.44,15.083 9.406,15.069 C8.716,14.703 7.975,14.517 7.2,14.517 C7.055,14.517 6.909,14.524 6.76,14.537 C4.795,14.705 3.194,16.176 2.685,18.078 L0,18.078 L0,0 L40,0 L40,0 Z M28,4 C28,5.105 28.895,6 30,6 C31.105,6 32,5.105 32,4 C32,2.895 31.105,2 30,2 C28.895,2 28,2.895 28,4 L28,4 Z M14.4,10.8 C14.4,9.033 12.967,7.6 11.2,7.6 C9.433,7.6 8,9.033 8,10.8 C8,12.567 9.433,14 11.2,14 C12.967,14 14.4,12.567 14.4,10.8 L14.4,10.8 Z M32,14 C32,12.895 31.105,12 30,12 C28.895,12 28,12.895 28,14 C28,15.105 28.895,16 30,16 C31.105,16 32,15.105 32,14 L32,14 Z M36,8 L24,8 L24,9.982 L36,9.982 L36,8 L36,8 Z M31.99,24.024 L31.99,24 L22.844,24 L25.539,21.305 L24.125,19.891 L20.015,24 L20,24 L20,26 L30,26 L30,38 L22,38 L22,40 L30,40 L32,40 L32,38 L32,24.024 L31.99,24.024 L31.99,24.024 Z" id="Shape"></path>
                </g>
            </g>
        </g>
    </g>
</svg>