<?xml version="1.0" encoding="UTF-8" standalone="no"?>
<svg width="48px" height="48px" viewBox="0 0 48 48" version="1.1" xmlns="http://www.w3.org/2000/svg" xmlns:xlink="http://www.w3.org/1999/xlink">
    <!-- Generator: sketchtool 3.8.3 (29802) - http://www.bohemiancoding.com/sketch -->
    <title>7F3A7AB6-BAE8-4175-BC2D-30923E3DBBA6</title>
    <desc>Created with sketchtool.</desc>
    <defs></defs>
    <g id="Style-guide" stroke="none" stroke-width="1" fill="none" fill-rule="evenodd">
        <g id="Icons" transform="translate(-376.000000, -744.000000)" fill="#000000">
            <path d="M398.7325,785.737939 C396.6195,786.169939 394.4525,785.912939 392.6225,785.405939 C392.8715,786.387939 392.7125,787.621939 392.1255,788.370939 C394.1765,788.989939 396.1615,789.147939 398.2175,788.852939 C398.0795,788.498939 398.0815,787.923939 398.1205,787.461939 C398.1745,786.823939 398.6735,785.802939 398.7325,785.737939 M395.8643,780.035239 C395.9303,779.788239 395.9763,779.533239 395.9763,779.265239 C395.9763,778.562239 395.4363,777.378239 394.8153,776.246239 C393.9713,774.707239 392.9763,773.265239 392.9763,773.265239 C392.9763,773.265239 392.1553,774.456239 391.3713,775.828239 C390.8013,776.827239 390.2573,777.915239 390.0603,778.718239 C390.0103,778.919239 389.9763,779.107239 389.9763,779.265239 C389.9763,780.923239 391.3183,782.265239 392.9763,782.265239 C394.3663,782.265239 395.5233,781.317239 395.8643,780.035239 M401.5323,788.963439 C401.5323,790.621439 402.8743,791.963439 404.5323,791.963439 C406.1903,791.963439 407.5323,790.621439 407.5323,788.963439 C407.5323,787.305439 404.5323,782.963439 404.5323,782.963439 C404.5323,782.963439 401.5323,787.305439 401.5323,788.963439 M385.9767,780.265239 C385.9767,780.265239 385.1547,781.456239 384.3717,782.828239 C383.8007,783.827239 383.2577,784.915239 383.0597,785.718239 C383.0107,785.919239 382.9767,786.107239 382.9767,786.265239 C382.9767,787.923239 384.3187,789.265239 385.9767,789.265239 C387.3667,789.265239 388.5227,788.317239 388.8647,787.035239 C388.9307,786.788239 388.9767,786.533239 388.9767,786.265239 C388.9767,785.562239 388.4367,784.378239 387.8157,783.246239 C386.9717,781.707239 385.9767,780.265239 385.9767,780.265239 M410.545,764.192639 C408.281,761.912639 405.35,760.416639 402.143,759.950639 C401.63,759.904639 401.258,759.904639 401.258,759.904639 C401.117,759.841639 400.783,759.077639 400.679,758.797639 C400.68,758.797639 400.68,758.798639 400.68,758.798639 C399.335,755.538639 399.972,751.646639 402.618,749.000639 C402.858,748.760639 403.114,748.535639 403.383,748.324639 C403.172,751.695639 404.387,755.016639 406.86,757.486639 C409.333,759.957639 412.653,761.174639 416.024,760.963639 C414.621,762.757639 412.642,763.834639 410.545,764.192639 M387.98,765.885639 C387.49,765.815639 386.998,765.779639 386.5,765.779639 C383.574,765.779639 380.927,766.985639 379.022,768.921639 C379.245,765.624639 381.993,763.006639 385.345,763.006639 C385.644,763.006639 385.943,763.028639 386.238,763.071639 C387.935,760.766639 390.601,759.381639 393.502,759.381639 C394.73,759.381639 395.912,759.643639 397.002,760.105639 L397.002,760.105639 C393.398,760.845639 390.186,762.882639 387.98,765.885639 M414.75,765.861639 C415.722,765.330639 416.643,764.673639 417.465,763.850639 C418.704,762.611639 419.649,761.102639 420.26,759.365639 C420.454,758.820639 420.317,758.213639 419.907,757.807639 C419.499,757.397639 418.891,757.258639 418.348,757.451639 C415.028,758.623639 411.438,757.824639 408.981,755.365639 C406.52,752.904639 405.719,749.315639 406.895,745.998639 C407.088,745.455639 406.95,744.850639 406.54,744.440639 C406.133,744.031639 405.528,743.893639 404.981,744.084639 C403.245,744.699639 401.735,745.643639 400.497,746.879639 C397.753,749.621639 396.628,753.370639 397.104,756.947639 L397.105,756.947639 C395.95,756.580639 394.736,756.381639 393.502,756.381639 C390.261,756.381639 387.156,757.715639 384.908,760.016639 C379.957,760.247639 376,764.346639 376,769.352639 C376,770.539639 376.231,771.670639 376.636,772.715639 C376.636,772.715639 376.636,772.715639 376.636,772.714639 C376.232,773.830639 376,775.026639 376,776.279639 C376,779.659639 377.617,782.652639 380.107,784.570639 C380.329,783.783639 380.833,782.770639 381.372,781.828639 C381.383,781.808639 381.394,781.789639 381.406,781.769639 C379.928,780.402639 379,778.452639 379,776.279639 C379,772.137639 382.357,768.779639 386.5,768.779639 C387.513,768.779639 388.474,768.986639 389.353,769.350639 C391.343,765.467639 395.339,762.779639 400,762.779639 C404.66,762.779639 408.656,765.467639 410.644,769.350639 C411.525,768.986639 412.488,768.779639 413.5,768.779639 C417.642,768.779639 421,772.137639 421,776.279639 C421,780.422639 417.642,783.779639 413.5,783.779639 C411.894,783.779639 410.018,783.150639 408.797,782.290639 C408.787,782.302639 410.757,786.409639 410.757,786.409639 C411.646,786.652639 412.565,786.779639 413.5,786.779639 C419.289,786.779639 424,782.069639 424,776.279639 C424,770.914639 419.951,766.482639 414.75,765.861639" id="intervalos-nubosos-con-lluvia-noche"></path>
        </g>
    </g>
</svg>