<?xml version="1.0" encoding="UTF-8" standalone="no"?>
<svg width="49px" height="48px" viewBox="0 0 49 48" version="1.1" xmlns="http://www.w3.org/2000/svg" xmlns:xlink="http://www.w3.org/1999/xlink">
    <!-- Generator: sketchtool 3.8.3 (29802) - http://www.bohemiancoding.com/sketch -->
    <title>53BD1974-39A5-461B-A4A4-EF0730E2045E</title>
    <desc>Created with sketchtool.</desc>
    <defs></defs>
    <g id="Style-guide" stroke="none" stroke-width="1" fill="none" fill-rule="evenodd">
        <g id="Icons" transform="translate(-1016.000000, -604.000000)" fill="#000000">
            <path d="M1064.1018,630.9581 C1064.1018,625.9521 1060.1468,621.8521 1055.1998,621.6221 C1052.9518,619.3211 1049.8438,617.9871 1046.5998,617.9871 C1045.9018,617.9871 1045.2118,618.0611 1044.5338,618.1811 C1042.7078,615.0851 1039.3478,613.0001 1035.4998,613.0001 C1029.7108,613.0001 1024.9998,617.7111 1024.9998,623.5001 C1024.9998,625.0911 1025.3658,626.5941 1026.0018,627.9471 C1020.4928,628.2611 1016.1018,632.8301 1016.1018,638.4161 C1016.1018,644.2061 1020.8128,648.9161 1026.6018,648.9161 C1027.8848,648.9161 1029.1408,648.6821 1030.3248,648.2291 C1033.0388,650.5961 1036.4928,651.9161 1040.1018,651.9161 C1041.5278,651.9161 1042.9218,651.6871 1044.2618,651.2921 C1043.8148,650.7681 1043.5348,650.0971 1043.5348,649.3541 C1043.5348,649.0761 1043.6248,648.7191 1043.7648,648.3231 C1042.6128,648.7031 1041.3858,648.9161 1040.1018,648.9161 C1036.3868,648.9161 1033.1098,647.1941 1030.9088,644.5411 C1029.6898,645.4011 1028.2068,645.9161 1026.6018,645.9161 C1022.4588,645.9161 1019.1018,642.5591 1019.1018,638.4161 C1019.1018,634.2741 1022.4588,630.9161 1026.6018,630.9161 C1027.6158,630.9161 1028.5768,631.1231 1029.4548,631.4871 C1031.4458,627.6041 1035.4418,624.9161 1040.1018,624.9161 C1044.7618,624.9161 1048.7578,627.6041 1050.7468,631.4871 C1051.6268,631.1231 1052.5898,630.9161 1053.6018,630.9161 C1057.7448,630.9161 1061.1018,634.2741 1061.1018,638.4161 C1061.1018,642.2341 1058.689,645.4451 1055,645.9161 C1055.44,646.4841 1055.6328,647.9971 1055.6888,648.7021 C1060.4808,647.7311 1064.1018,643.4911 1064.1018,638.4161 C1064.1018,637.0641 1063.8358,635.7751 1063.3678,634.5861 C1063.8408,633.4711 1064.1018,632.2441 1064.1018,630.9581 Z M1034.8744,639.5316 C1034.3034,640.5306 1033.7604,641.6186 1033.5634,642.4216 C1033.5134,642.6226 1033.4794,642.8106 1033.4794,642.9686 C1033.4794,644.6266 1034.8214,645.9686 1036.4794,645.9686 C1037.8694,645.9686 1039.0264,645.0206 1039.3674,643.7386 C1039.4334,643.4916 1039.4794,643.2366 1039.4794,642.9686 C1039.4794,642.2656 1038.9394,641.0816 1038.3184,639.9496 C1037.4744,638.4106 1036.4794,636.9686 1036.4794,636.9686 C1036.4794,636.9686 1035.6574,638.1596 1034.8744,639.5316 M1047.035,648.6667 C1047.035,650.3247 1048.377,651.6667 1050.035,651.6667 C1051.693,651.6667 1053.035,650.3247 1053.035,648.6667 C1053.035,647.0087 1050.035,642.6667 1050.035,642.6667 C1050.035,642.6667 1047.035,647.0087 1047.035,648.6667 M1035.5,610 C1036.328,610 1037,609.328 1037,608.5 L1037,605.5 C1037,604.672 1036.328,604 1035.5,604 C1034.672,604 1034,604.672 1034,605.5 L1034,608.5 C1034,609.328 1034.672,610 1035.5,610 M1047.166,613.953 L1049.287,611.832 C1049.873,611.246 1049.873,610.297 1049.287,609.711 C1048.701,609.125 1047.752,609.125 1047.166,609.711 L1045.045,611.832 C1044.459,612.418 1044.459,613.367 1045.045,613.953 C1045.631,614.539 1046.58,614.539 1047.166,613.953 M1017.5,625 L1020.5,625 C1021.328,625 1022,624.328 1022,623.5 C1022,622.672 1021.328,622 1020.5,622 L1017.5,622 C1016.672,622 1016,622.672 1016,623.5 C1016,624.328 1016.672,625 1017.5,625 M1023.832,613.953 C1024.418,614.539 1025.367,614.539 1025.953,613.953 C1026.539,613.367 1026.539,612.418 1025.953,611.832 L1023.832,609.711 C1023.246,609.125 1022.297,609.125 1021.711,609.711 C1021.125,610.297 1021.125,611.246 1021.711,611.832 L1023.832,613.953 Z M1061.0958,631.0761 C1059.1888,629.1291 1056.5358,627.9161 1053.6018,627.9161 C1053.1038,627.9161 1052.6118,627.9521 1052.1218,628.0221 C1049.7548,624.7971 1046.2268,622.6811 1042.2958,622.0971 L1042.2968,622.0971 C1043.5938,621.3871 1045.0608,620.9871 1046.5998,620.9871 C1049.4998,620.9871 1052.1718,622.3721 1053.8658,624.6771 C1054.1588,624.6341 1054.4568,624.6121 1054.7618,624.6121 C1058.2598,624.6121 1061.1018,627.4601 1061.1018,630.9581 C1061.1018,630.9981 1061.0968,631.0361 1061.0958,631.0761 M1038.0058,621.6221 C1035.4868,621.7391 1033.2278,622.8621 1031.6138,624.5931 C1030.6148,625.2891 1029.7038,626.1131 1028.8908,627.0451 C1028.3228,625.9891 1027.9998,624.7831 1027.9998,623.5001 C1027.9998,619.3571 1031.3578,616.0001 1035.4998,616.0001 C1038.0038,616.0001 1040.2138,617.2291 1041.5738,619.1151 C1040.2528,619.7281 1039.0368,620.5671 1038.0058,621.6221" id="intervalos-nubosos-con-lluvia-escasa"></path>
        </g>
    </g>
</svg>