<?xml version="1.0" encoding="UTF-8" standalone="no"?>
<svg width="48px" height="48px" viewBox="0 0 48 48" version="1.1" xmlns="http://www.w3.org/2000/svg" xmlns:xlink="http://www.w3.org/1999/xlink">
    <!-- Generator: sketchtool 3.8.3 (29802) - http://www.bohemiancoding.com/sketch -->
    <title>72EC7118-1914-465A-972B-61E1D9ED8CE6</title>
    <desc>Created with sketchtool.</desc>
    <defs></defs>
    <g id="Style-guide" stroke="none" stroke-width="1" fill="none" fill-rule="evenodd">
        <g id="Icons" transform="translate(-1096.000000, -885.000000)" fill="#000000">
            <path d="M1115.5003,920.874452 L1118.5003,923.874452 L1115.5003,932.874452 L1124.5003,923.874452 L1121.5003,920.874452 L1124.5003,911.874452 L1115.5003,920.874452 Z M1128.0777,929.666152 C1128.0777,931.324152 1129.4197,932.666152 1131.0777,932.666152 C1132.7357,932.666152 1134.0777,931.324152 1134.0777,929.666152 C1134.0777,928.008152 1131.0777,923.666152 1131.0777,923.666152 C1131.0777,923.666152 1128.0777,928.008152 1128.0777,929.666152 M1105.346,904.006452 C1105.645,904.006452 1105.944,904.027452 1106.239,904.071452 C1107.936,901.766452 1110.602,900.381452 1113.502,900.381452 C1114.731,900.381452 1115.912,900.643452 1117.002,901.104452 L1117.002,901.104452 C1113.398,901.845452 1110.186,903.881452 1107.981,906.885452 C1107.491,906.814452 1106.998,906.779452 1106.5,906.779452 C1103.575,906.779452 1100.928,907.984452 1099.022,909.921452 C1099.245,906.624452 1101.993,904.006452 1105.346,904.006452 M1122.618,890.000452 C1122.859,889.760452 1123.115,889.535452 1123.384,889.324452 C1123.173,892.695452 1124.388,896.015452 1126.861,898.486452 C1129.333,900.957452 1132.654,902.174452 1136.025,901.963452 C1134.621,903.756452 1132.643,904.833452 1130.547,905.191452 C1128.248,902.881452 1125.266,901.366452 1122.004,900.925452 L1122.004,900.925452 C1121.592,900.513452 1121.144,900.144452 1120.68,899.797452 L1120.681,899.797452 C1119.335,896.537452 1119.972,892.646452 1122.618,890.000452 M1097.504,922.999452 L1101.288,922.999452 C1099.879,920.999452 1099,919.562452 1099,917.446452 C1099,913.303452 1102.358,909.862452 1106.5,909.862452 C1107.514,909.862452 1108.475,910.028452 1109.354,910.391452 C1111.344,906.508452 1115.34,903.800452 1120,903.800452 C1124.66,903.800452 1128.657,906.477452 1130.645,910.360452 C1131.526,909.996452 1132.489,909.784452 1133.5,909.784452 C1137.643,909.784452 1141,913.306452 1141,917.448452 C1141,919.564452 1140.121,920.999452 1138.712,922.999452 L1142.496,922.999452 C1143.444,920.999452 1144,919.416452 1144,917.446452 C1144,912.080452 1139.951,907.565452 1134.75,906.944452 C1135.723,906.413452 1136.644,905.714452 1137.466,904.891452 C1138.704,903.653452 1139.65,902.122452 1140.261,900.386452 C1140.454,899.841452 1140.318,899.223452 1139.908,898.817452 C1139.499,898.407452 1138.892,898.263452 1138.349,898.456452 C1135.029,899.628452 1131.439,898.827452 1128.982,896.368452 C1126.521,893.907452 1125.72,890.316452 1126.896,886.999452 C1127.089,886.456452 1126.95,885.850452 1126.54,885.440452 C1126.134,885.032452 1125.529,884.893452 1124.982,885.084452 C1123.245,885.699452 1121.736,886.643452 1120.497,887.879452 C1117.754,890.621452 1116.628,894.370452 1117.105,897.947452 L1117.105,897.947452 C1115.95,897.579452 1114.737,897.381452 1113.502,897.381452 C1110.262,897.381452 1107.157,898.715452 1104.909,901.016452 C1099.957,901.246452 1096,905.346452 1096,910.352452 C1096,911.538452 1096.231,912.670452 1096.637,913.715452 L1096.637,913.714452 C1096.232,914.829452 1096,916.193452 1096,917.446452 C1096,919.416452 1096.556,920.999452 1097.504,922.999452" id="intervalos-nubosos-con-tormenta-y-lluvia-escasa-noche"></path>
        </g>
    </g>
</svg>