<?xml version="1.0" encoding="UTF-8" standalone="no"?>
<svg width="49px" height="48px" viewBox="0 0 49 48" version="1.1" xmlns="http://www.w3.org/2000/svg" xmlns:xlink="http://www.w3.org/1999/xlink">
    <!-- Generator: sketchtool 3.8.3 (29802) - http://www.bohemiancoding.com/sketch -->
    <title>2627812E-A262-4E36-8851-75758B1882BA</title>
    <desc>Created with sketchtool.</desc>
    <defs></defs>
    <g id="Style-guide" stroke="none" stroke-width="1" fill="none" fill-rule="evenodd">
        <g id="Icons" transform="translate(-376.000000, -602.000000)" fill="#000000">
            <path d="M395.0023,608 C395.8303,608 396.5023,607.328 396.5023,606.5 L396.5023,603.5 C396.5023,602.672 395.8303,602 395.0023,602 C394.1743,602 393.5023,602.672 393.5023,603.5 L393.5023,606.5 C393.5023,607.328 394.1743,608 395.0023,608 M407.166,611.953 L409.287,609.832 C409.873,609.246 409.873,608.297 409.287,607.711 C408.701,607.125 407.752,607.125 407.166,607.711 L405.045,609.832 C404.459,610.418 404.459,611.367 405.045,611.953 C405.631,612.539 406.58,612.539 407.166,611.953 M377.5,622.5666 L380.5,622.5666 C381.328,622.5666 382,621.8946 382,621.0666 C382,620.2386 381.328,619.5666 380.5,619.5666 L377.5,619.5666 C376.672,619.5666 376,620.2386 376,621.0666 C376,621.8946 376.672,622.5666 377.5,622.5666 M383.832,611.953 C384.418,612.539 385.367,612.539 385.953,611.953 C386.539,611.367 386.539,610.418 385.953,609.832 L383.832,607.711 C383.246,607.125 382.297,607.125 381.711,607.711 C381.125,608.297 381.125,609.246 381.711,609.832 L383.832,611.953 Z M421.0958,629.0761 C419.1888,627.1291 416.5358,625.9161 413.6018,625.9161 C413.1038,625.9161 412.6118,625.9521 412.1218,626.0221 C409.7548,622.7971 406.2268,620.6811 402.2958,620.0971 L402.2968,620.0971 C403.5938,619.3871 405.0608,618.9871 406.5998,618.9871 C409.4998,618.9871 412.1718,620.3721 413.8658,622.6771 C414.1588,622.6341 414.4568,622.6121 414.7618,622.6121 C418.2598,622.6121 421.1018,625.4601 421.1018,628.9581 C421.1018,628.9981 421.0968,629.0361 421.0958,629.0761 M413.6018,643.9161 C411.9968,643.9161 410.5158,643.4011 409.2948,642.5411 C407.0938,645.1941 403.8168,646.9161 400.1018,646.9161 C396.3868,646.9161 393.1098,645.1941 390.9088,642.5411 C389.6898,643.4011 388.2068,643.9161 386.6018,643.9161 C382.4588,643.9161 379.1018,640.5591 379.1018,636.4161 C379.1018,632.2741 382.4588,628.9161 386.6018,628.9161 C387.6158,628.9161 388.5768,629.1231 389.4548,629.4871 C391.4458,625.6041 395.4418,622.9161 400.1018,622.9161 C404.7618,622.9161 408.7578,625.6041 410.7468,629.4871 C411.6268,629.1231 412.5898,628.9161 413.6018,628.9161 C417.7448,628.9161 421.1018,632.2741 421.1018,636.4161 C421.1018,640.5591 417.7448,643.9161 413.6018,643.9161 M395.4998,614.0001 C398.0038,614.0001 400.2138,615.2291 401.5738,617.1151 C400.2528,617.7281 399.0368,618.5671 398.0058,619.6221 C395.4868,619.7391 393.2278,620.8621 391.6138,622.5931 C390.6148,623.2891 389.7038,624.1131 388.8908,625.0451 C388.3228,623.9891 387.9998,622.7831 387.9998,621.5001 C387.9998,617.3571 391.3578,614.0001 395.4998,614.0001 M423.3688,632.5871 C423.8408,631.4711 424.1018,630.2441 424.1018,628.9581 C424.1018,623.9521 420.1468,619.8521 415.1998,619.6221 C412.9518,617.3211 409.8438,615.9871 406.5998,615.9871 C405.9018,615.9871 405.2118,616.0611 404.5338,616.1811 C402.7078,613.0851 399.3478,611.0001 395.4998,611.0001 C389.7108,611.0001 384.9998,615.7111 384.9998,621.5001 C384.9998,623.0911 385.3658,624.5941 386.0018,625.9471 C380.4928,626.2611 376.1018,630.8301 376.1018,636.4161 C376.1018,642.2061 380.8128,646.9161 386.6018,646.9161 C387.8848,646.9161 389.1408,646.6821 390.3248,646.2291 C393.0388,648.5961 396.4928,649.9161 400.1018,649.9161 C403.7148,649.9161 407.1638,648.5961 409.8788,646.2291 C411.0628,646.6821 412.3188,646.9161 413.6018,646.9161 C419.3908,646.9161 424.1018,642.2061 424.1018,636.4161 C424.1018,635.0641 423.8358,633.7751 423.3678,632.5861 C423.3678,632.5871 423.3678,632.5871 423.3688,632.5871" id="Intervalos-nubosos"></path>
        </g>
    </g>
</svg>