<?xml version="1.0" encoding="UTF-8" standalone="no"?>
<svg width="48px" height="48px" viewBox="0 0 48 48" version="1.1" xmlns="http://www.w3.org/2000/svg" xmlns:xlink="http://www.w3.org/1999/xlink">
    <!-- Generator: sketchtool 3.8.3 (29802) - http://www.bohemiancoding.com/sketch -->
    <title>DF96A741-530D-4C7A-BE31-8267066A6084</title>
    <desc>Created with sketchtool.</desc>
    <defs></defs>
    <g id="Style-guide" stroke="none" stroke-width="1" fill="none" fill-rule="evenodd">
        <g id="Icons" transform="translate(-536.000000, -884.000000)" fill="#000000">
            <path d="M555.5,890 C556.328,890 557,889.328 557,888.5 L557,885.5 C557,884.672 556.328,884 555.5,884 C554.672,884 554,884.672 554,885.5 L554,888.5 C554,889.328 554.672,890 555.5,890 M567.166,893.953 L569.287,891.832 C569.873,891.246 569.873,890.297 569.287,889.711 C568.701,889.125 567.752,889.125 567.166,889.711 L565.045,891.832 C564.459,892.418 564.459,893.367 565.045,893.953 C565.631,894.539 566.58,894.539 567.166,893.953 M537.5,905 L540.5,905 C541.328,905 542,904.328 542,903.5 C542,902.672 541.328,902 540.5,902 L537.5,902 C536.672,902 536,902.672 536,903.5 C536,904.328 536.672,905 537.5,905 M543.832,893.953 C544.418,894.539 545.367,894.539 545.953,893.953 C546.539,893.367 546.539,892.418 545.953,891.832 L543.832,889.711 C543.246,889.125 542.297,889.125 541.711,889.711 C541.125,890.297 541.125,891.246 541.711,891.832 L543.832,893.953 Z M555.4576,919.875 L558.4576,922.875 L555.4576,931.875 L564.4576,922.875 L561.4576,919.875 L564.4576,910.875 L555.4576,919.875 Z M568.035,928.6667 C568.035,930.3247 569.377,931.6667 571.035,931.6667 C572.693,931.6667 574.035,930.3247 574.035,928.6667 C574.035,927.0087 571.035,922.6667 571.035,922.6667 C571.035,922.6667 568.035,927.0087 568.035,928.6667 M545.8744,918.5315 C545.3034,919.5305 544.7604,920.6185 544.5634,921.4215 C544.5134,921.6225 544.4794,921.8105 544.4794,921.9685 C544.4794,923.6265 545.8214,924.9685 547.4794,924.9685 C548.8694,924.9685 550.0264,924.0205 550.3674,922.7385 C550.4334,922.4915 550.4794,922.2365 550.4794,921.9685 C550.4794,921.2655 549.9394,920.0815 549.3184,918.9495 C548.4744,917.4105 547.4794,915.9685 547.4794,915.9685 C547.4794,915.9685 546.6574,917.1595 545.8744,918.5315 M555.5,896 C558.003,896 560.214,897.23 561.574,899.115 C560.253,899.728 559.036,900.568 558.006,901.622 C555.487,901.739 553.228,902.862 551.614,904.593 C550.615,905.289 549.704,906.113 548.891,907.045 C548.323,905.99 548,904.783 548,903.5 C548,899.357 551.357,896 555.5,896 L555.5,896 Z M562.296,902.097 C563.594,901.387 565.061,900.987 566.6,900.987 C569.5,900.987 572.172,902.372 573.865,904.677 C574.158,904.634 574.457,904.612 574.762,904.612 C578.26,904.612 581.102,907.46 581.102,910.958 C581.102,910.998 581.097,911.036 581.096,911.076 C579.189,909.13 576.535,907.917 573.602,907.917 C573.104,907.917 572.612,907.952 572.121,908.022 C569.755,904.797 566.227,902.681 562.296,902.097 L562.296,902.097 Z M539.85,922 C539.375,921 539.102,919.749 539.102,918.583 C539.102,914.441 542.459,911 546.602,911 C547.615,911 548.576,911.165 549.455,911.529 C551.446,907.646 555.442,904.937 560.102,904.937 C564.762,904.937 568.758,907.615 570.746,911.497 C571.627,911.134 572.59,910.922 573.602,910.922 C577.744,910.922 581.102,914.443 581.102,918.586 C581.102,919.752 580.828,921 580.353,922 L583.581,922 C583.915,921 583.918,919.718 583.918,918.583 C583.918,917.231 584,915.858 583,914.67 L583,914.629 C584,913.513 583.918,912.265 583.918,910.979 C583.918,905.973 580.055,901.863 575.107,901.633 C572.859,899.332 569.798,897.993 566.554,897.993 C565.855,897.993 565.189,898.064 564.51,898.184 C562.685,895.088 559.336,893.001 555.488,893.001 C549.699,893.001 544.994,897.712 544.994,903.501 C544.994,905.091 545.363,906.595 545.999,907.947 C540.49,908.261 536.1,912.997 536.1,918.583 C536.1,919.718 536.288,921 536.623,922 L539.85,922 Z" id="intervalos-nubosos-con-tormenta"></path>
        </g>
    </g>
</svg>