<?xml version="1.0" encoding="UTF-8" standalone="no"?>
<svg width="49px" height="48px" viewBox="0 0 49 48" version="1.1" xmlns="http://www.w3.org/2000/svg" xmlns:xlink="http://www.w3.org/1999/xlink">
    <!-- Generator: sketchtool 3.8.3 (29802) - http://www.bohemiancoding.com/sketch -->
    <title>98EA2652-5581-40CB-8AD0-B6779C1D85CD</title>
    <desc>Created with sketchtool.</desc>
    <defs></defs>
    <g id="Style-guide" stroke="none" stroke-width="1" fill="none" fill-rule="evenodd">
        <g id="Icons" transform="translate(-56.000000, -884.000000)" fill="#000000">
            <path d="M80.25,924.9076 C79.336,924.9076 78.592,924.1636 78.592,923.2496 C78.592,922.3356 79.336,921.5946 80.25,921.5946 C81.164,921.5946 81.906,922.3356 81.906,923.2496 C81.906,924.1636 81.164,924.9076 80.25,924.9076 M86.816,925.1246 L85.129,924.1516 C85.18,923.8586 85.219,923.5596 85.219,923.2496 C85.219,922.9386 85.18,922.6396 85.125,922.3466 L86.816,921.3726 C87.605,920.9116 87.875,919.8976 87.422,919.1126 C86.965,918.3176 85.953,918.0466 85.16,918.5036 L83.455,919.4876 C82.998,919.0986 82.482,918.7946 81.908,918.5876 L81.908,916.6286 C81.908,915.7126 81.164,914.9696 80.25,914.9696 C79.336,914.9696 78.594,915.7126 78.594,916.6286 L78.594,918.5856 C78.02,918.7906 77.502,919.0986 77.045,919.4876 L75.344,918.5036 C74.549,918.0466 73.535,918.3156 73.078,919.1106 C72.621,919.8996 72.896,920.9156 73.688,921.3726 L75.371,922.3446 C75.316,922.6396 75.281,922.9386 75.281,923.2496 C75.281,923.5596 75.316,923.8586 75.371,924.1516 L73.688,925.1246 C72.895,925.5816 72.621,926.6006 73.078,927.3916 C73.535,928.1826 74.549,928.4526 75.34,927.9956 L77.043,927.0166 C77.5,927.4036 78.018,927.7086 78.594,927.9136 L78.594,929.8766 C78.594,930.7906 79.336,931.5286 80.25,931.5286 C81.164,931.5286 81.908,930.7906 81.908,929.8766 L81.908,927.9136 C82.482,927.7086 83.004,927.4036 83.457,927.0116 L85.16,927.9956 C85.953,928.4526 86.965,928.1826 87.422,927.3916 C87.879,926.6006 87.609,925.5876 86.816,925.1246 M65.5536,923.9447 C65.1686,924.3297 64.5456,924.3297 64.1586,923.9447 C63.7786,923.5617 63.7786,922.9347 64.1586,922.5537 C64.5456,922.1717 65.1686,922.1717 65.5536,922.5537 C65.9386,922.9367 65.9346,923.5617 65.5536,923.9447 M68.4016,921.2767 L67.2876,921.5757 C67.1846,921.4347 67.0766,921.2927 66.9466,921.1597 C66.8136,921.0307 66.6726,920.9197 66.5266,920.8197 L66.8246,919.7007 C66.9656,919.1747 66.6536,918.6337 66.1336,918.4957 C65.6066,918.3547 65.0676,918.6677 64.9266,919.1907 L64.6216,920.3217 C64.2646,920.3507 63.9226,920.4387 63.5966,920.5927 L62.7706,919.7707 C62.3836,919.3837 61.7626,919.3857 61.3796,919.7707 C60.9946,920.1557 60.9946,920.7787 61.3796,921.1637 L62.2016,921.9857 C62.0476,922.3137 61.9576,922.6597 61.9306,923.0147 L60.8016,923.3157 C60.2746,923.4607 59.9616,923.9957 60.1026,924.5227 C60.2446,925.0467 60.7836,925.3547 61.3116,925.2177 L62.4246,924.9157 C62.5246,925.0657 62.6356,925.2067 62.7706,925.3377 C62.8996,925.4657 63.0396,925.5817 63.1866,925.6767 L62.8876,926.7927 C62.7466,927.3197 63.0596,927.8627 63.5826,928.0037 C64.1106,928.1437 64.6456,927.8317 64.7856,927.3057 L65.0906,926.1807 C65.4486,926.1517 65.7936,926.0617 66.1216,925.9057 L66.9466,926.7297 C67.3286,927.1167 67.9496,927.1087 68.3366,926.7257 C68.7176,926.3447 68.7236,925.7217 68.3366,925.3377 L67.5106,924.5107 C67.6686,924.1867 67.7626,923.8377 67.7856,923.4797 L68.9166,923.1807 C69.4386,923.0387 69.7506,922.5017 69.6106,921.9737 C69.4696,921.4527 68.9306,921.1397 68.4016,921.2767 M96.3427,923.9437 C95.9557,924.3307 95.3327,924.3287 94.9477,923.9437 C94.5677,923.5627 94.5637,922.9377 94.9477,922.5507 C95.3327,922.1687 95.9577,922.1687 96.3427,922.5507 C96.7237,922.9357 96.7237,923.5627 96.3427,923.9437 M99.7037,923.3167 L98.5717,923.0157 C98.5437,922.6567 98.4577,922.3147 98.2997,921.9867 L99.1217,921.1647 C99.5087,920.7777 99.5067,920.1527 99.1217,919.7717 C98.7387,919.3867 98.1177,919.3847 97.7317,919.7717 L96.9067,920.5917 C96.5827,920.4397 96.2377,920.3517 95.8797,920.3227 L95.5787,919.1917 C95.4387,918.6687 94.8997,918.3537 94.3717,918.4947 C93.8467,918.6367 93.5397,919.1757 93.6767,919.7017 L93.9777,920.8167 C93.8287,920.9187 93.6887,921.0317 93.5557,921.1607 C93.4267,921.2937 93.3177,921.4337 93.2157,921.5787 L92.1007,921.2777 C91.5747,921.1367 91.0317,921.4537 90.8917,921.9747 C90.7507,922.5027 91.0677,923.0397 91.5867,923.1817 L92.7117,923.4847 C92.7427,923.8387 92.8327,924.1837 92.9907,924.5117 L92.1647,925.3387 C91.7817,925.7227 91.7837,926.3437 92.1687,926.7267 C92.5517,927.1097 93.1727,927.1137 93.5557,926.7307 L94.3837,925.9027 C94.7077,926.0627 95.0557,926.1527 95.4147,926.1797 L95.7117,927.3067 C95.8567,927.8327 96.3917,928.1447 96.9187,928.0047 C97.4427,927.8637 97.7587,927.3247 97.6177,926.7937 L97.3177,925.6777 C97.4577,925.5787 97.6027,925.4667 97.7357,925.3387 C97.8637,925.2077 97.9737,925.0627 98.0747,924.9187 L99.1927,925.2187 C99.7177,925.3597 100.2587,925.0457 100.3977,924.5237 C100.5377,924.0007 100.2277,923.4617 99.7037,923.3167 M75.5,890 C76.328,890 77,889.328 77,888.5 L77,885.5 C77,884.672 76.328,884 75.5,884 C74.672,884 74,884.672 74,885.5 L74,888.5 C74,889.328 74.672,890 75.5,890 M87.166,893.9531 L89.287,891.8321 C89.873,891.2461 89.873,890.2971 89.287,889.7111 C88.701,889.1251 87.752,889.1251 87.166,889.7111 L85.045,891.8321 C84.459,892.4181 84.459,893.3671 85.045,893.9531 C85.631,894.5391 86.58,894.5391 87.166,893.9531 M57.5,905 L60.5,905 C61.328,905 62,904.328 62,903.5 C62,902.672 61.328,902 60.5,902 L57.5,902 C56.672,902 56,902.672 56,903.5 C56,904.328 56.672,905 57.5,905 M63.832,893.9531 C64.418,894.5391 65.367,894.5391 65.953,893.9531 C66.539,893.3671 66.539,892.4181 65.953,891.8321 L63.832,889.7111 C63.246,889.1251 62.297,889.1251 61.711,889.7111 C61.125,890.2971 61.125,891.2461 61.711,891.8321 L63.832,893.9531 Z M75.5,896 C78.003,896 80.214,897.23 81.574,899.115 C80.253,899.728 79.036,900.568 78.006,901.622 C75.487,901.739 73.228,902.862 71.614,904.593 C70.615,905.289 69.704,906.113 68.891,907.045 C68.323,905.99 68,904.783 68,903.5 C68,899.357 71.357,896 75.5,896 L75.5,896 Z M82.296,902.097 C83.594,901.387 85.061,900.987 86.6,900.987 C89.5,900.987 92.172,902.372 93.865,904.677 C94.158,904.634 94.457,904.612 94.762,904.612 C98.26,904.612 101.102,907.46 101.102,910.958 C101.102,910.998 101.097,911.036 101.096,911.076 C99.189,909.13 96.535,907.917 93.602,907.917 C93.104,907.917 92.612,907.952 92.121,908.022 C89.755,904.797 86.227,902.681 82.296,902.097 L82.296,902.097 Z M59.164,919 C59.127,919 59.102,918.56 59.102,918.247 C59.102,914.104 62.459,910.832 66.602,910.832 C67.615,910.832 68.576,911.081 69.455,911.444 C71.446,907.562 75.442,904.895 80.102,904.895 C84.762,904.895 88.758,907.594 90.746,911.476 C91.627,911.113 92.59,910.911 93.602,910.911 C97.744,910.911 101.102,914.101 101.102,918.244 C101.102,918.557 101.077,919 101.039,919 L104.055,919 C104.082,919 104.102,918.558 104.102,918.247 C104.102,916.894 103.836,915.69 103.368,914.502 L103.368,914.545 C103.84,913.429 104.102,912.223 104.102,910.937 C104.102,905.931 100.147,901.842 95.199,901.612 C92.951,899.311 89.844,897.982 86.6,897.982 C85.901,897.982 85.212,898.059 84.533,898.179 C82.708,895.083 79.347,892.999 75.5,892.999 C69.711,892.999 65,897.71 65,903.499 C65,905.09 65.366,906.594 66.002,907.947 C60.493,908.26 56.102,912.66 56.102,918.247 C56.102,918.558 56.122,919 56.149,919 L59.164,919 Z" id="intervalos-nubosos-con-nieve"></path>
        </g>
    </g>
</svg>