<?xml version="1.0" encoding="UTF-8" standalone="no"?>
<svg width="48px" height="48px" viewBox="0 0 48 48" version="1.1" xmlns="http://www.w3.org/2000/svg" xmlns:xlink="http://www.w3.org/1999/xlink">
    <!-- Generator: sketchtool 3.8.3 (29802) - http://www.bohemiancoding.com/sketch -->
    <title>09BB1DE0-3213-454A-9B05-9D78A15A1094</title>
    <desc>Created with sketchtool.</desc>
    <defs></defs>
    <g id="Style-guide" stroke="none" stroke-width="1" fill="none" fill-rule="evenodd">
        <g id="Icons" transform="translate(-1016.000000, -884.000000)" fill="#000000">
            <path d="M1035.5,890 C1036.328,890 1037,889.328 1037,888.5 L1037,885.5 C1037,884.672 1036.328,884 1035.5,884 C1034.672,884 1034,884.672 1034,885.5 L1034,888.5 C1034,889.328 1034.672,890 1035.5,890 M1047.166,893.953 L1049.287,891.832 C1049.873,891.246 1049.873,890.297 1049.287,889.711 C1048.701,889.125 1047.752,889.125 1047.166,889.711 L1045.045,891.832 C1044.459,892.418 1044.459,893.367 1045.045,893.953 C1045.631,894.539 1046.58,894.539 1047.166,893.953 M1017.5,905 L1020.5,905 C1021.328,905 1022,904.328 1022,903.5 C1022,902.672 1021.328,902 1020.5,902 L1017.5,902 C1016.672,902 1016,902.672 1016,903.5 C1016,904.328 1016.672,905 1017.5,905 M1023.832,893.953 C1024.418,894.539 1025.367,894.539 1025.953,893.953 C1026.539,893.367 1026.539,892.418 1025.953,891.832 L1023.832,889.711 C1023.246,889.125 1022.297,889.125 1021.711,889.711 C1021.125,890.297 1021.125,891.246 1021.711,891.832 L1023.832,893.953 Z M1035.4576,919.875 L1038.4576,922.875 L1035.4576,931.875 L1044.4576,922.875 L1041.4576,919.875 L1044.4576,910.875 L1035.4576,919.875 Z M1048.035,928.6667 C1048.035,930.3247 1049.377,931.6667 1051.035,931.6667 C1052.693,931.6667 1054.035,930.3247 1054.035,928.6667 C1054.035,927.0087 1051.035,922.6667 1051.035,922.6667 C1051.035,922.6667 1048.035,927.0087 1048.035,928.6667 M1035.5,896 C1038.003,896 1040.214,897.23 1041.574,899.115 C1040.253,899.728 1039.036,900.568 1038.006,901.622 C1035.487,901.739 1033.228,902.862 1031.614,904.593 C1030.615,905.289 1029.704,906.113 1028.891,907.045 C1028.323,905.99 1028,904.783 1028,903.5 C1028,899.357 1031.357,896 1035.5,896 L1035.5,896 Z M1042.296,902.097 C1043.594,901.387 1045.061,900.987 1046.6,900.987 C1049.5,900.987 1052.172,902.372 1053.865,904.677 C1054.158,904.634 1054.457,904.612 1054.762,904.612 C1058.26,904.612 1061.102,907.46 1061.102,910.958 C1061.102,910.998 1061.097,911.036 1061.096,911.076 C1059.189,909.13 1056.535,907.917 1053.602,907.917 C1053.104,907.917 1052.612,907.952 1052.121,908.022 C1049.755,904.797 1046.227,902.681 1042.296,902.097 L1042.296,902.097 Z M1019.85,922 C1019.375,921 1019.102,919.749 1019.102,918.583 C1019.102,914.441 1022.459,911 1026.602,911 C1027.615,911 1028.576,911.165 1029.455,911.529 C1031.446,907.646 1035.442,904.937 1040.102,904.937 C1044.762,904.937 1048.758,907.615 1050.746,911.497 C1051.627,911.134 1052.59,910.922 1053.602,910.922 C1057.744,910.922 1061.102,914.443 1061.102,918.586 C1061.102,919.752 1060.828,921 1060.353,922 L1063.581,922 C1063.915,921 1063.918,919.718 1063.918,918.583 C1063.918,917.231 1064,915.858 1063,914.67 L1063,914.629 C1064,913.513 1063.918,912.265 1063.918,910.979 C1063.918,905.973 1060.055,901.863 1055.107,901.633 C1052.859,899.332 1049.798,897.993 1046.554,897.993 C1045.855,897.993 1045.189,898.064 1044.51,898.184 C1042.685,895.088 1039.336,893.001 1035.488,893.001 C1029.699,893.001 1024.994,897.712 1024.994,903.501 C1024.994,905.091 1025.363,906.595 1025.999,907.947 C1020.49,908.261 1016.1,912.997 1016.1,918.583 C1016.1,919.718 1016.288,921 1016.623,922 L1019.85,922 Z" id="intervalos-nubosos-con-tormenta-y-lluvia-escasa"></path>
        </g>
    </g>
</svg>