<?xml version="1.0" encoding="UTF-8" standalone="no"?>
<svg width="48px" height="48px" viewBox="0 0 48 48" version="1.1" xmlns="http://www.w3.org/2000/svg" xmlns:xlink="http://www.w3.org/1999/xlink">
    <!-- Generator: sketchtool 3.8.3 (29802) - http://www.bohemiancoding.com/sketch -->
    <title>BDB6C8F1-A014-4026-92CB-6F4103206319</title>
    <desc>Created with sketchtool.</desc>
    <defs></defs>
    <g id="Style-guide" stroke="none" stroke-width="1" fill="none" fill-rule="evenodd">
        <g id="Icons" transform="translate(-136.000000, -885.000000)" fill="#000000">
            <path d="M159.9622,925.788339 C159.0482,925.788339 158.3042,925.044339 158.3042,924.130339 C158.3042,923.216339 159.0482,922.475339 159.9622,922.475339 C160.8762,922.475339 161.6182,923.216339 161.6182,924.130339 C161.6182,925.044339 160.8762,925.788339 159.9622,925.788339 M166.5282,926.005339 L164.8412,925.032339 C164.8922,924.739339 164.9312,924.440339 164.9312,924.130339 C164.9312,923.819339 164.8922,923.520339 164.8372,923.227339 L166.5282,922.253339 C167.3172,921.792339 167.5872,920.778339 167.1342,919.993339 C166.6772,919.198339 165.6652,918.927339 164.8722,919.384339 L163.1672,920.368339 C162.7102,919.979339 162.1942,919.675339 161.6202,919.468339 L161.6202,917.509339 C161.6202,916.593339 160.8762,915.850339 159.9622,915.850339 C159.0482,915.850339 158.3062,916.593339 158.3062,917.509339 L158.3062,919.466339 C157.7312,919.671339 157.2142,919.979339 156.7572,920.368339 L155.0562,919.384339 C154.2612,918.927339 153.2472,919.196339 152.7902,919.991339 C152.3332,920.780339 152.6082,921.796339 153.3992,922.253339 L155.0832,923.225339 C155.0282,923.520339 154.9932,923.819339 154.9932,924.130339 C154.9932,924.440339 155.0282,924.739339 155.0832,925.032339 L153.3992,926.005339 C152.6062,926.462339 152.3332,927.481339 152.7902,928.272339 C153.2472,929.063339 154.2612,929.333339 155.0522,928.876339 L156.7552,927.897339 C157.2122,928.284339 157.7302,928.589339 158.3062,928.794339 L158.3062,930.757339 C158.3062,931.671339 159.0482,932.409339 159.9622,932.409339 C160.8762,932.409339 161.6202,931.671339 161.6202,930.757339 L161.6202,928.794339 C162.1942,928.589339 162.7162,928.284339 163.1692,927.892339 L164.8722,928.876339 C165.6652,929.333339 166.6772,929.063339 167.1342,928.272339 C167.5912,927.481339 167.3212,926.468339 166.5282,926.005339 M145.2658,924.825439 C144.8808,925.210439 144.2578,925.210439 143.8708,924.825439 C143.4908,924.442439 143.4908,923.815439 143.8708,923.434439 C144.2578,923.052439 144.8808,923.052439 145.2658,923.434439 C145.6508,923.817439 145.6468,924.442439 145.2658,924.825439 M148.1138,922.157439 L146.9998,922.456439 C146.8968,922.315439 146.7898,922.173439 146.6588,922.040439 C146.5258,921.911439 146.3848,921.800439 146.2388,921.700439 L146.5368,920.581439 C146.6778,920.055439 146.3658,919.514439 145.8458,919.376439 C145.3188,919.235439 144.7798,919.548439 144.6388,920.071439 L144.3338,921.202439 C143.9768,921.231439 143.6348,921.319439 143.3088,921.473439 L142.4828,920.651439 C142.0958,920.264439 141.4748,920.266439 141.0918,920.651439 C140.7068,921.036439 140.7068,921.659439 141.0918,922.044439 L141.9148,922.866439 C141.7598,923.194439 141.6698,923.540439 141.6428,923.895439 L140.5138,924.196439 C139.9868,924.341439 139.6738,924.876439 139.8148,925.403439 C139.9568,925.927439 140.4958,926.235439 141.0238,926.098439 L142.1368,925.796439 C142.2368,925.946439 142.3478,926.087439 142.4828,926.218439 C142.6118,926.346439 142.7518,926.462439 142.8988,926.557439 L142.5998,927.673439 C142.4588,928.200439 142.7718,928.743439 143.2948,928.884439 C143.8228,929.024439 144.3578,928.712439 144.4988,928.186439 L144.8028,927.061439 C145.1608,927.032439 145.5058,926.942439 145.8338,926.786439 L146.6588,927.610439 C147.0408,927.997439 147.6618,927.989439 148.0488,927.606439 C148.4298,927.225439 148.4358,926.602439 148.0488,926.218439 L147.2228,925.391439 C147.3808,925.067439 147.4748,924.718439 147.4988,924.360439 L148.6288,924.061439 C149.1508,923.919439 149.4628,923.382439 149.3228,922.854439 C149.1818,922.333439 148.6428,922.020439 148.1138,922.157439 M176.0549,924.824439 C175.6679,925.211439 175.0449,925.209439 174.6599,924.824439 C174.2799,924.443439 174.2759,923.818439 174.6599,923.431439 C175.0449,923.049439 175.6699,923.049439 176.0549,923.431439 C176.4359,923.816439 176.4359,924.443439 176.0549,924.824439 M179.4159,924.197439 L178.2839,923.896439 C178.2559,923.537439 178.1699,923.195439 178.0119,922.867439 L178.8339,922.045439 C179.2209,921.658439 179.2189,921.033439 178.8339,920.652439 C178.4509,920.267439 177.8299,920.265439 177.4439,920.652439 L176.6189,921.472439 C176.2949,921.320439 175.9499,921.232439 175.5919,921.203439 L175.2909,920.072439 C175.1509,919.549439 174.6119,919.234439 174.0839,919.375439 C173.5589,919.517439 173.2519,920.056439 173.3889,920.582439 L173.6899,921.697439 C173.5409,921.799439 173.4009,921.912439 173.2679,922.041439 C173.1389,922.174439 173.0299,922.314439 172.9279,922.459439 L171.8129,922.158439 C171.2869,922.017439 170.7439,922.334439 170.6039,922.855439 C170.4629,923.383439 170.7799,923.920439 171.2989,924.062439 L172.4239,924.365439 C172.4549,924.719439 172.5449,925.064439 172.7029,925.392439 L171.8769,926.219439 C171.4939,926.603439 171.4959,927.224439 171.8809,927.607439 C172.2639,927.990439 172.8849,927.994439 173.2679,927.611439 L174.0959,926.783439 C174.4199,926.943439 174.7679,927.033439 175.1269,927.060439 L175.4239,928.187439 C175.5689,928.713439 176.1039,929.025439 176.6309,928.885439 C177.1549,928.744439 177.4709,928.205439 177.3299,927.674439 L177.0299,926.558439 C177.1699,926.459439 177.3149,926.347439 177.4479,926.219439 C177.5759,926.088439 177.6859,925.943439 177.7869,925.799439 L178.9049,926.099439 C179.4299,926.240439 179.9709,925.926439 180.1099,925.404439 C180.2499,924.881439 179.9399,924.342439 179.4159,924.197439 M145.346,904.007639 C145.645,904.007639 145.944,904.028639 146.239,904.072639 C147.936,901.767639 150.602,900.382639 153.502,900.382639 C154.731,900.382639 155.912,900.644639 157.002,901.105639 L157.002,901.105639 C153.398,901.846639 150.186,903.882639 147.981,906.886639 C147.491,906.815639 146.998,906.780639 146.5,906.780639 C143.575,906.780639 140.928,907.985639 139.022,909.922639 C139.245,906.625639 141.993,904.007639 145.346,904.007639 M162.618,890.001639 C162.859,889.761639 163.115,889.536639 163.384,889.325639 C163.173,892.696639 164.388,896.016639 166.861,898.487639 C169.333,900.958639 172.654,902.175639 176.025,901.964639 C174.621,903.757639 172.643,904.834639 170.547,905.192639 C168.248,902.882639 165.266,901.367639 162.004,900.926639 L162.004,900.926639 C161.592,900.514639 161.144,900.145639 160.68,899.798639 L160.681,899.798639 C159.335,896.538639 159.972,892.647639 162.618,890.001639 M136.427,919.880639 L139.599,919.880639 C139.214,918.880639 139,918.154639 139,917.110639 C139,912.968639 142.358,909.695639 146.5,909.695639 C147.514,909.695639 148.475,909.945639 149.354,910.308639 C151.344,906.425639 155.34,903.759639 160,903.759639 C164.66,903.759639 168.657,906.457639 170.645,910.340639 C171.526,909.976639 172.489,909.775639 173.5,909.775639 C177.643,909.775639 181,912.965639 181,917.107639 C181,918.151639 180.786,918.880639 180.401,919.880639 L183.573,919.880639 C183.847,918.880639 184,918.131639 184,917.110639 C184,911.745639 179.951,907.398639 174.75,906.777639 C175.723,906.246639 176.644,905.631639 177.466,904.808639 C178.704,903.570639 179.65,902.081639 180.261,900.345639 C180.454,899.800639 180.318,899.203639 179.908,898.797639 C179.499,898.387639 178.892,898.253639 178.349,898.447639 C175.029,899.619639 171.439,898.822639 168.982,896.363639 C166.521,893.902639 165.72,890.314639 166.896,886.998639 C167.089,886.455639 166.95,885.850639 166.54,885.440639 C166.134,885.031639 165.529,884.893639 164.982,885.084639 C163.245,885.700639 161.736,886.643639 160.497,887.880639 C157.754,890.622639 156.628,894.371639 157.105,897.947639 L157.105,897.948639 C155.95,897.580639 154.737,897.382639 153.502,897.382639 C150.262,897.382639 147.157,898.716639 144.909,901.017639 C139.957,901.247639 136,905.347639 136,910.353639 C136,911.539639 136.231,912.671639 136.637,913.716639 L136.637,913.715639 C136.232,914.830639 136,915.857639 136,917.110639 C136,918.131639 136.154,918.880639 136.427,919.880639" id="intervalos-nubosos-con-nieve-noche"></path>
        </g>
    </g>
</svg>