<?xml version="1.0" encoding="UTF-8" standalone="no"?>
<svg width="48px" height="47px" viewBox="0 0 48 47" version="1.1" xmlns="http://www.w3.org/2000/svg" xmlns:xlink="http://www.w3.org/1999/xlink">
    <!-- Generator: sketchtool 3.8.3 (29802) - http://www.bohemiancoding.com/sketch -->
    <title>96462DC9-7B39-4DC1-8164-773277E0BB10</title>
    <desc>Created with sketchtool.</desc>
    <defs></defs>
    <g id="Style-guide" stroke="none" stroke-width="1" fill="none" fill-rule="evenodd">
        <g id="Icons" transform="translate(-855.000000, -746.000000)" fill="#000000">
            <path d="M879.1353,785.5465 C878.2213,785.5465 877.4773,784.8025 877.4773,783.8885 C877.4773,782.9745 878.2213,782.2335 879.1353,782.2335 C880.0493,782.2335 880.7913,782.9745 880.7913,783.8885 C880.7913,784.8025 880.0493,785.5465 879.1353,785.5465 M885.7013,785.7635 L884.0143,784.7905 C884.0653,784.4975 884.1043,784.1985 884.1043,783.8885 C884.1043,783.5775 884.0653,783.2785 884.0103,782.9865 L885.7013,782.0115 C886.4903,781.5505 886.7603,780.5365 886.3073,779.7515 C885.8503,778.9565 884.8383,778.6855 884.0453,779.1425 L882.1933,780.1265 C881.7363,779.7375 881.5003,779.4335 880.5003,779.2265 L880.5003,777.2675 C880.5003,776.3515 879.9133,775.6085 878.9993,775.6085 C878.0853,775.6085 877.5003,776.3515 877.5003,777.2675 L877.5003,779.2245 C876.5003,779.4295 876.3973,779.7375 875.9403,780.1265 L874.2343,779.1425 C873.4393,778.6855 872.4233,778.9545 871.9663,779.7495 C871.5093,780.5385 871.7833,781.5545 872.5743,782.0115 L874.2573,782.9835 C874.2023,783.2785 874.1673,783.5775 874.1673,783.8885 C874.1673,784.1985 874.2023,784.4975 874.2563,784.7905 L872.5733,785.7635 C871.7803,786.2205 871.5063,787.2395 871.9633,788.0305 C872.4203,788.8215 873.4343,789.0915 874.2253,788.6345 L875.9383,787.6555 C876.3963,788.0425 876.5003,788.3475 877.5003,788.5525 L877.5003,790.5155 C877.5003,791.4295 878.0853,792.1675 878.9993,792.1675 C879.9133,792.1675 880.5003,791.4295 880.5003,790.5155 L880.5003,788.5525 C881.5003,788.3475 881.7423,788.0425 882.1953,787.6505 L883.9723,788.6345 C884.7653,789.0915 885.8133,788.8215 886.2703,788.0305 C886.7273,787.2395 886.4943,786.2265 885.7013,785.7635 M889.5464,766.1925 C887.2484,763.8815 884.2664,762.3675 881.0034,761.9265 L881.0044,761.9265 C880.5914,761.5135 880.1434,761.1445 879.6794,760.7975 L879.6804,760.7985 C878.3354,757.5385 878.9724,753.6465 881.6184,751.0005 C881.8584,750.7605 882.1144,750.5365 882.3834,750.3255 C882.1724,753.6965 883.3874,757.0165 885.8604,759.4875 C888.3334,761.9575 891.6534,763.1745 895.0244,762.9635 C893.6214,764.7575 891.6424,765.8345 889.5464,766.1925 M866.9804,767.8855 C866.4904,767.8155 865.9984,767.7805 865.5004,767.7805 C862.5754,767.7805 859.9274,768.9855 858.0224,770.9225 C858.2454,767.6245 860.9934,765.0075 864.3454,765.0075 C864.6444,765.0075 864.9434,765.0285 865.2384,765.0715 C866.9354,762.7665 869.6014,761.3825 872.5024,761.3825 C873.7304,761.3825 874.9124,761.6435 876.0024,762.1055 L876.0024,762.1055 C872.3974,762.8455 869.1864,764.8825 866.9804,767.8855 M893.7504,767.8615 C894.7224,767.3305 895.6434,766.6735 896.4654,765.8505 C897.7044,764.6125 898.6494,763.1025 899.2604,761.3665 C899.4544,760.8215 899.3174,760.2135 898.9074,759.8075 C898.4994,759.3975 897.8914,759.2585 897.3484,759.4515 C894.0284,760.6235 890.4384,759.8255 887.9814,757.3665 C885.5204,754.9055 884.7194,751.3155 885.8954,747.9985 C886.0884,747.4555 885.9504,746.8505 885.5404,746.4405 C885.1334,746.0325 884.5284,745.8935 883.9814,746.0845 C882.2454,746.7005 880.7354,747.6435 879.4974,748.8795 C876.7534,751.6225 875.6284,755.3705 876.1044,758.9475 L876.1054,758.9475 C874.9504,758.5805 873.7374,758.3825 872.5024,758.3825 C869.2614,758.3825 866.1564,759.7155 863.9084,762.0165 C858.9574,762.2475 855.0004,766.3465 855.0004,771.3525 C855.0004,772.5395 855.2314,773.6705 855.6364,774.7155 L855.6364,774.7155 C855.2324,775.8305 855.0004,777.0275 855.0004,778.2805 C855.0004,784.0695 859.7114,788.7805 865.5004,788.7805 C866.5174,788.7805 867.5914,788.6265 868.5854,788.3405 C868.8334,786.7495 870.4214,785.3495 870.8014,785.2885 C870.4884,785.0065 870.1884,784.7145 869.9314,784.4055 C868.7134,785.2645 867.1684,785.7805 865.5624,785.7805 C861.4204,785.7805 858.0314,782.4225 858.0314,778.2805 C858.0314,774.1375 861.3734,770.7805 865.5154,770.7805 C866.5294,770.7805 867.4824,770.9875 868.3614,771.3505 C870.3514,767.4675 874.3434,764.7805 879.0044,764.7805 C883.6644,764.7805 887.6584,767.4675 889.6464,771.3505 C890.5274,770.9875 891.4894,770.7805 892.5014,770.7805 C896.6434,770.7805 900.0004,774.1375 900.0004,778.2805 C900.0004,782.4225 896.6424,785.7805 892.5004,785.7805 C890.8944,785.7805 889.4144,785.2645 888.1934,784.4055 C887.9254,784.7275 887.6414,785.0345 887.3424,785.3285 C887.4064,785.3625 887.4424,785.3855 887.4374,785.3905 C888.0434,785.7855 888.5554,786.2975 888.9224,786.9425 C889.1764,787.3775 889.4464,787.8405 889.5464,788.3085 C889.5564,788.3115 889.5444,788.3245 889.5364,788.3445 C890.4924,788.6285 891.4864,788.7805 892.5004,788.7805 C898.2894,788.7805 903.0004,784.0695 903.0004,778.2805 C903.0004,772.9145 898.9514,768.4825 893.7504,767.8615" id="intervalos-nubosos-con-nieve-escasa-noche"></path>
        </g>
    </g>
</svg>