<?xml version="1.0" encoding="UTF-8" standalone="no"?>
<svg width="49px" height="49px" viewBox="0 0 49 49" version="1.1" xmlns="http://www.w3.org/2000/svg" xmlns:xlink="http://www.w3.org/1999/xlink">
    <!-- Generator: sketchtool 3.8.3 (29802) - http://www.bohemiancoding.com/sketch -->
    <title>9FCAF1D6-6692-4E10-B7DA-4FF512286482</title>
    <desc>Created with sketchtool.</desc>
    <defs></defs>
    <g id="Style-guide" stroke="none" stroke-width="1" fill="none" fill-rule="evenodd">
        <g id="Icons" transform="translate(-776.000000, -744.000000)" fill="#000000">
            <path d="M800.1377,785.7497 C799.2237,785.7497 798.4797,785.0057 798.4797,784.0917 C798.4797,783.1777 799.2237,782.4367 800.1377,782.4367 C801.0517,782.4367 801.7937,783.1777 801.7937,784.0917 C801.7937,785.0057 801.0517,785.7497 800.1377,785.7497 M807.3097,779.9547 C806.8527,779.1597 805.8407,778.8887 805.0477,779.3457 L803.1957,780.3297 C802.7387,779.9407 802.5027,779.6367 801.5027,779.4297 L801.5027,777.4707 C801.5027,776.5547 800.9157,775.8117 800.0017,775.8117 C799.0877,775.8117 798.5027,776.5547 798.5027,777.4707 L798.5027,779.4277 C797.5027,779.6327 797.3997,779.9407 796.9427,780.3297 L795.2367,779.3457 C794.4417,778.8887 793.4257,779.1577 792.9687,779.9527 C792.5117,780.7417 792.7857,781.7577 793.5767,782.2147 L795.2597,783.1867 C795.2047,783.4817 795.1687,783.7807 795.1687,784.0917 C795.1687,784.4017 795.2047,784.7007 795.2587,784.9937 L793.5757,785.9667 C792.7827,786.4237 792.5087,787.4427 792.9657,788.2337 C793.4227,789.0247 794.4367,789.2947 795.2277,788.8377 L796.9407,787.8587 C797.3977,788.2457 797.5027,788.5507 798.5027,788.7557 L798.5027,790.7187 C798.5027,791.6327 799.0877,792.3707 800.0017,792.3707 C800.9157,792.3707 801.5027,791.6327 801.5027,790.7187 L801.5027,788.7557 C802.5027,788.5507 802.7447,788.2457 803.1977,787.8537 L804.9747,788.8377 C805.7677,789.2947 806.8157,789.0247 807.2727,788.2337 C807.7297,787.4427 807.4967,786.4297 806.7037,785.9667 L805.0167,784.9937 C805.0677,784.7007 805.1067,784.4017 805.1067,784.0917 C805.1067,783.7807 805.0677,783.4817 805.0127,783.1897 L806.7037,782.2147 C807.4927,781.7537 807.7627,780.7397 807.3097,779.9547 M795.0024,750 C795.8304,750 796.5024,749.328 796.5024,748.5 L796.5024,745.5 C796.5024,744.672 795.8304,744 795.0024,744 C794.1744,744 793.5024,744.672 793.5024,745.5 L793.5024,748.5 C793.5024,749.328 794.1744,750 795.0024,750 M807.166,753.953 L809.287,751.832 C809.873,751.246 809.873,750.297 809.287,749.711 C808.701,749.125 807.752,749.125 807.166,749.711 L805.045,751.832 C804.459,752.418 804.459,753.367 805.045,753.953 C805.631,754.539 806.58,754.539 807.166,753.953 M777.5,764.5667 L780.5,764.5667 C781.328,764.5667 782,763.8947 782,763.0667 C782,762.2387 781.328,761.5667 780.5,761.5667 L777.5,761.5667 C776.672,761.5667 776,762.2387 776,763.0667 C776,763.8947 776.672,764.5667 777.5,764.5667 M783.832,753.953 C784.418,754.539 785.367,754.539 785.953,753.953 C786.539,753.367 786.539,752.418 785.953,751.832 L783.832,749.711 C783.246,749.125 782.297,749.125 781.711,749.711 C781.125,750.297 781.125,751.246 781.711,751.832 L783.832,753.953 Z M821.0959,771.0761 C819.1889,769.1291 816.5359,767.9161 813.6019,767.9161 C813.1039,767.9161 812.6119,767.9521 812.1219,768.0221 C809.7549,764.7971 806.2269,762.6811 802.2959,762.0971 C803.5939,761.3871 805.0609,760.9871 806.5999,760.9871 C809.5009,760.9871 812.1719,762.3721 813.8659,764.6771 C814.1589,764.6341 814.4579,764.6121 814.7619,764.6121 C818.2599,764.6121 821.1019,767.4601 821.1019,770.9581 C821.1019,770.9981 821.0969,771.0361 821.0959,771.0761 M798.0059,761.6221 C795.4869,761.7391 793.2279,762.8621 791.6139,764.5931 C790.6149,765.2891 789.7039,766.1131 788.8909,767.0451 C788.3229,765.9891 787.9999,764.7831 787.9999,763.5001 C787.9999,759.3571 791.3569,756.0001 795.4999,756.0001 C798.0029,756.0001 800.2139,757.2291 801.5739,759.1151 C800.2529,759.7281 799.0369,760.5671 798.0059,761.6221 M823.3689,774.5871 C823.8409,773.4711 824.1019,772.2441 824.1019,770.9581 C824.1019,765.9521 820.1469,761.8521 815.1999,761.6221 C812.9519,759.3211 809.8439,757.9871 806.5999,757.9871 C805.9019,757.9871 805.2119,758.0611 804.5339,758.1811 C802.7089,755.0851 799.3479,753.0001 795.4999,753.0001 C789.7109,753.0001 784.9999,757.7111 784.9999,763.5001 C784.9999,765.0911 785.3659,766.5941 786.0019,767.9471 C780.4929,768.2611 776.1019,772.8301 776.1019,778.4161 C776.1019,784.2061 780.8129,788.9161 786.6019,788.9161 C787.6979,788.9161 788.7719,788.7351 789.7999,788.4031 C789.8109,788.3981 789.8149,788.3901 789.8269,788.3861 C789.9269,787.9101 790.1029,787.4451 790.3509,787.0131 C790.7079,786.3921 791.2229,785.8951 791.8029,785.5081 C791.4879,785.2021 791.1889,784.8801 790.9089,784.5411 C789.6899,785.4011 788.2079,785.9161 786.6019,785.9161 C782.4599,785.9161 779.1019,782.5591 779.1019,778.4161 C779.1019,774.2741 782.4599,770.9161 786.6019,770.9161 C787.6159,770.9161 788.5769,771.1231 789.4559,771.4871 C791.4459,767.6041 795.4419,764.9161 800.1019,764.9161 C804.7619,764.9161 808.7579,767.6041 810.7469,771.4871 C811.6269,771.1231 812.5899,770.9161 813.6019,770.9161 C817.7449,770.9161 821.1019,774.2741 821.1019,778.4161 C821.1019,782.5591 817.7449,785.9161 813.6019,785.9161 C811.9969,785.9161 810.5159,785.4011 809.2949,784.5411 C809.0789,784.8021 808.8439,785.0461 808.6069,785.2891 C808.5619,785.3531 808.5169,785.4161 808.4659,785.4661 C809.0709,785.8611 809.5709,786.3751 809.9389,787.0191 C810.1919,787.4551 810.4559,787.9181 810.5559,788.3861 C810.5739,788.3921 810.6089,788.4291 810.6539,788.4861 C811.6059,788.7671 812.5949,788.9161 813.6019,788.9161 C819.3909,788.9161 824.1019,784.2061 824.1019,778.4161 C824.1019,777.0641 823.8359,775.7751 823.3679,774.5861 C823.3679,774.5871 823.3679,774.5871 823.3689,774.5871" id="intervalos-nubosos-con-nieve-escasa"></path>
        </g>
    </g>
</svg>