<?xml version="1.0" encoding="UTF-8" standalone="no"?>
<svg width="24px" height="24px" viewBox="0 0 24 24" version="1.1" xmlns="http://www.w3.org/2000/svg" xmlns:xlink="http://www.w3.org/1999/xlink">
    <!-- Generator: sketchtool 3.8.3 (29802) - http://www.bohemiancoding.com/sketch -->
    <title>1EC72166-7AD5-44D5-82CE-E1F11B7C76F4</title>
    <desc>Created with sketchtool.</desc>
    <defs></defs>
    <g id="Style-guide" stroke="none" stroke-width="1" fill="none" fill-rule="evenodd">
        <g id="Icons" transform="translate(-868.000000, -1538.000000)">
            <g id="logo_servicios_cambio-divisas" transform="translate(868.000000, 1538.000000)">
                <g id="Group">
                    <polygon id="Shape" fill="#004481" points="0 0 24 0 24 24 0 24"></polygon>
                    <path d="M7.91375,19.005 C5.325,17.7858333 3.4725,15.2683333 3.1875,12.2916667 L2,12.2916667 C2.40375,17.1683333 6.48083333,21 11.4604167,21 L11.9829167,20.97625 L8.96666667,17.96 L7.91375,19.005 L7.91375,19.005 Z M11.4604167,2 L10.9379167,2.02375 L13.9541667,5.04 L15.0070833,3.98708333 C17.5958333,5.21416667 19.4483333,7.72375 19.7254167,10.7004167 L20.9129167,10.7004167 C20.5170833,5.83166667 16.44,2 11.4604167,2 L11.4604167,2 Z" id="Shape" fill="#FFFFFF"></path>
                    <path d="M12.2916667,14.9305556 C10.9669444,14.9305556 9.82166667,14.1811111 9.25166667,13.0833333 L12.2916667,13.0833333 L12.2916667,12.0277778 L8.90333333,12.0277778 C8.87694444,11.8536111 8.86111111,11.6794444 8.86111111,11.5 C8.86111111,11.3205556 8.87694444,11.1463889 8.90333333,10.9722222 L12.2916667,10.9722222 L12.2916667,9.91666667 L9.25166667,9.91666667 C9.82166667,8.81888889 10.9722222,8.06944444 12.2916667,8.06944444 C13.1413889,8.06944444 13.9225,8.38083333 14.5241667,8.89805556 L15.4583333,7.96388889 C14.6191667,7.20916667 13.5055556,6.75 12.2916667,6.75 C10.2227778,6.75 8.47055556,8.07472222 7.81611111,9.91666667 L5.95833333,9.91666667 L5.95833333,10.9722222 L7.57333333,10.9722222 C7.55222222,11.1463889 7.54166667,11.3205556 7.54166667,11.5 C7.54166667,11.6794444 7.55222222,11.8536111 7.57333333,12.0277778 L5.95833333,12.0277778 L5.95833333,13.0833333 L7.81611111,13.0833333 C8.47055556,14.9252778 10.2227778,16.25 12.2916667,16.25 C13.5108333,16.25 14.6191667,15.7908333 15.4583333,15.0361111 L14.5188889,14.1019444 C13.9225,14.6191667 13.1466667,14.9305556 12.2916667,14.9305556 L12.2916667,14.9305556 Z" id="Shape" fill="#FFFFFF"></path>
                </g>
            </g>
        </g>
    </g>
</svg>