<?xml version="1.0" encoding="UTF-8" standalone="no"?>
<svg width="24px" height="24px" viewBox="0 0 24 24" version="1.1" xmlns="http://www.w3.org/2000/svg" xmlns:xlink="http://www.w3.org/1999/xlink">
    <!-- Generator: sketchtool 3.8.3 (29802) - http://www.bohemiancoding.com/sketch -->
    <title>E8D85CDD-DC5D-4454-B21F-D3F9E8BC5474</title>
    <desc>Created with sketchtool.</desc>
    <defs></defs>
    <g id="Style-guide" stroke="none" stroke-width="1" fill="none" fill-rule="evenodd">
        <g id="Icons" transform="translate(-548.000000, -1713.000000)">
            <g id="logo_servicios-habitacion_wifi" transform="translate(548.000000, 1713.000000)">
                <g id="Group">
                    <polygon id="Shape" fill="#004481" points="0 0 24 0 24 24 0 24"></polygon>
                    <path d="M6.36363636,16.8181818 C7.57090909,16.8181818 8.54545455,15.8436364 8.54545455,14.6363636 C8.54545455,13.4290909 7.57090909,12.4545455 6.36363636,12.4545455 C5.15636364,12.4545455 4.18181818,13.4290909 4.18181818,14.6363636 C4.18181818,15.8436364 5.15636364,16.8181818 6.36363636,16.8181818 L6.36363636,16.8181818 Z M15.0909091,12.4545455 L9.27272727,12.4545455 L9.27272727,17.5454545 L3.45454545,17.5454545 L3.45454545,11 L2,11 L2,21.9090909 L3.45454545,21.9090909 L3.45454545,19.7272727 L16.5454545,19.7272727 L16.5454545,21.9090909 L18,21.9090909 L18,15.3636364 C18,13.7563636 16.6981818,12.4545455 15.0909091,12.4545455 L15.0909091,12.4545455 Z" id="Shape" fill="#FFFFFF"></path>
                </g>
                <path d="M12,5.06931818 L12.9090909,5.97840909 C15.1681818,3.71931818 18.8318182,3.71931818 21.0909091,5.97840909 L22,5.06931818 C19.2409091,2.31022727 14.7636364,2.31022727 12,5.06931818 L12,5.06931818 Z M15.6363636,8.70568182 L17,10.0693182 L18.3636364,8.70568182 C17.6136364,7.95113636 16.3909091,7.95113636 15.6363636,8.70568182 L15.6363636,8.70568182 Z M13.8181818,6.8875 L14.7272727,7.79659091 C15.9818182,6.54204545 18.0181818,6.54204545 19.2727273,7.79659091 L20.1818182,6.8875 C18.4272727,5.13295455 15.5772727,5.13295455 13.8181818,6.8875 L13.8181818,6.8875 Z" id="Shape" fill="#FFFFFF"></path>
            </g>
        </g>
    </g>
</svg>