<?xml version="1.0" encoding="UTF-8" standalone="no"?>
<svg width="24px" height="24px" viewBox="0 0 24 24" version="1.1" xmlns="http://www.w3.org/2000/svg" xmlns:xlink="http://www.w3.org/1999/xlink">
    <!-- Generator: sketchtool 3.8.3 (29802) - http://www.bohemiancoding.com/sketch -->
    <title>A7DBC658-9BBF-4BE5-9B38-C88D7041F87C</title>
    <desc>Created with sketchtool.</desc>
    <defs></defs>
    <g id="Style-guide" stroke="none" stroke-width="1" fill="none" fill-rule="evenodd">
        <g id="Icons" transform="translate(-68.000000, -1538.000000)">
            <g id="logo_instalaciones-deportivas_squash" transform="translate(68.000000, 1538.000000)">
                <g id="Group">
                    <polygon id="Shape" fill="#004481" points="0 0 24 0 24 24 0 24"></polygon>
                    <path d="M16.2962501,11.2046323 L19.0676909,11.2046323 C19.2760874,10.603697 19.836442,10.1705269 20.4904732,10.1705269 C21.3207129,10.1705269 22,10.8685481 22,11.721685 C22,12.5748219 21.3207129,13.2728431 20.4904732,13.2728431 C19.836442,13.2728431 19.2760874,12.839673 19.0676909,12.2387377 L16.2962501,12.2387377 L16.2962501,12.6 C14.8895485,12.6 13.7133892,12.1261991 12.7677722,11.3314719 C12.2642621,11.1617032 11.7918988,10.9227392 11.3640058,10.6282709 L9.83446005,12.2 L11.5472237,14.04 L11.5472237,19 L9.99016583,19 L9.99016583,15 L8.19253844,13.3836963 L7.44970245,16.7423162 L2,15.6223162 L2.31141157,14.0223162 L6.12620328,14.8223162 L7.06320441,11.1407581 L7.13304083,11.0892977 C7.21052627,10.8848266 7.33247043,10.6909921 7.49887329,10.52 L9.67875426,8.28 C9.91231294,7.96 10.3015774,7.8 10.7686948,7.8 C11.2358121,7.8 11.6250766,7.96 12.014341,8.28 L13.493546,9.8 C13.5313328,9.83882893 13.5697989,9.87695986 13.6089442,9.91435514 C13.9037725,9.98469765 14.2135527,10.0223162 14.5343156,10.0223162 L14.5343156,10.5804017 C15.0464645,10.845529 15.633776,11 16.2962501,11 L16.2962501,11.2046323 Z M13.4460149,8.2 C14.2762546,8.2 14.9555417,7.48 14.9555417,6.6 C14.9555417,5.72 14.2762546,5 13.4460149,5 C12.6157752,5 11.9364881,5.72 11.9364881,6.6 C11.9364881,7.48 12.6157752,8.2 13.4460149,8.2 Z M17.5952678,15.3069485 C17.8714102,15.3069485 18.0952678,15.0830908 18.0952678,14.8069485 C18.0952678,14.5308061 17.8714102,14.3069485 17.5952678,14.3069485 C17.3191254,14.3069485 17.0952678,14.5308061 17.0952678,14.8069485 C17.0952678,15.0830908 17.3191254,15.3069485 17.5952678,15.3069485 Z" id="Combined-Shape" fill="#FFFFFF"></path>
                </g>
            </g>
        </g>
    </g>
</svg>