<?xml version="1.0" encoding="UTF-8" standalone="no"?>
<svg width="24px" height="24px" viewBox="0 0 24 24" version="1.1" xmlns="http://www.w3.org/2000/svg" xmlns:xlink="http://www.w3.org/1999/xlink">
    <!-- Generator: sketchtool 3.8.3 (29802) - http://www.bohemiancoding.com/sketch -->
    <title>34582B21-F33E-414B-824D-19D881717C9A</title>
    <desc>Created with sketchtool.</desc>
    <defs></defs>
    <g id="Style-guide" stroke="none" stroke-width="1" fill="none" fill-rule="evenodd">
        <g id="Icons" transform="translate(-946.000000, -1538.000000)">
            <g id="logo_servicios_internet" transform="translate(946.000000, 1538.000000)">
                <rect id="Rectangle-621" fill="#004481" x="0" y="0" width="24" height="24"></rect>
                <path d="M16.6914062,6.07421875 C17.3476595,6.73047203 17.8618145,7.51708526 18.2338867,8.43408203 C18.6059589,9.3510788 18.7919922,10.377924 18.7919922,11.5146484 C18.7919922,12.334965 18.6748059,13.1684528 18.4404297,14.0151367 C18.2060535,14.8618206 17.9130877,15.5634738 17.5615234,16.1201172 L13.1142578,16.1201172 L12.9736328,15.4345703 C12.6396468,15.6572277 12.3173844,15.834472 12.0068359,15.9663086 C11.6962875,16.0981452 11.2480498,16.1640625 10.6621094,16.1640625 C9.70702647,16.1640625 8.93359671,15.7700235 8.34179688,14.9819336 C7.74999704,14.1938437 7.45410156,13.1318426 7.45410156,11.7958984 C7.45410156,11.0810511 7.55370994,10.4555691 7.75292969,9.91943359 C7.95214943,9.3832981 8.22460765,8.91601762 8.5703125,8.51757812 C8.89257974,8.14257625 9.28222428,7.84961043 9.73925781,7.63867188 C10.1962913,7.42773332 10.6503884,7.32226562 11.1015625,7.32226562 C11.4882832,7.32226562 11.8310532,7.39404225 12.1298828,7.53759766 C12.4287124,7.68115306 12.6601554,7.83203046 12.8242188,7.99023438 L12.8242188,7.4453125 L14.8632812,7.4453125 L14.8632812,14.6171875 L16.3574219,14.6171875 C16.5683604,14.1542946 16.7250971,13.6518582 16.8276367,13.1098633 C16.9301763,12.5678684 16.9814453,12.0478541 16.9814453,11.5498047 C16.9814453,10.5595654 16.8437514,9.6909217 16.5683594,8.94384766 C16.2929674,8.19677361 15.9121118,7.5771509 15.4257812,7.08496094 C14.9277319,6.58105217 14.3447299,6.20605592 13.6767578,5.95996094 C13.0087857,5.71386596 12.2851601,5.59082031 11.5058594,5.59082031 C10.761715,5.59082031 10.0542026,5.73730322 9.38330078,6.03027344 C8.71239899,6.32324365 8.12207286,6.71874751 7.61230469,7.21679688 C7.09081771,7.72656505 6.66748209,8.36523054 6.34228516,9.1328125 C6.01708822,9.90039446 5.85449219,10.7412064 5.85449219,11.6552734 C5.85449219,12.6513722 6.00829924,13.5331993 6.31591797,14.3007812 C6.62353669,15.0683632 7.03222401,15.7070287 7.54199219,16.2167969 C8.05176036,16.7207056 8.64355132,17.1044909 9.31738281,17.3681641 C9.99121431,17.6318373 10.7031212,17.7636719 11.453125,17.7636719 C11.9511744,17.7636719 12.5180632,17.7182622 13.1538086,17.6274414 C13.789554,17.5366206 14.3535132,17.4179695 14.8457031,17.2714844 L14.8457031,18.9765625 C14.3007785,19.09961 13.7587918,19.1933591 13.2197266,19.2578125 C12.6806614,19.3222659 12.0918001,19.3544922 11.453125,19.3544922 C10.380854,19.3544922 9.38916471,19.1699237 8.47802734,18.8007812 C7.56688998,18.4316388 6.77734709,17.90723 6.109375,17.2275391 C5.44726231,16.5537076 4.93017764,15.7392626 4.55810547,14.7841797 C4.1860333,13.8290968 4,12.7861385 4,11.6552734 C4,10.5654242 4.19335744,9.55615699 4.58007812,8.62744141 C4.96679881,7.69872583 5.4999966,6.88867533 6.1796875,6.19726562 C6.84180019,5.51757473 7.63427273,4.98144728 8.55712891,4.58886719 C9.47998508,4.1962871 10.4599558,4 11.4970703,4 C12.5283255,4 13.4907182,4.18163881 14.3842773,4.54492188 C15.2778365,4.90820494 16.0468718,5.41796547 16.6914062,6.07421875 L16.6914062,6.07421875 Z M12.7802734,13.7910156 L12.7802734,9.36132812 C12.5400379,9.23828063 12.3173838,9.14892606 12.1123047,9.09326172 C11.9072255,9.03759738 11.6757825,9.00976562 11.4179688,9.00976562 C10.8554659,9.00976562 10.4218765,9.25585691 10.1171875,9.74804688 C9.81249848,10.2402368 9.66015625,10.9140582 9.66015625,11.7695312 C9.66015625,12.6953171 9.78613155,13.3808571 10.0380859,13.8261719 C10.2900403,14.2714866 10.7060518,14.4941406 11.2861328,14.4941406 C11.5908218,14.4941406 11.8574207,14.4340826 12.0859375,14.3139648 C12.3144543,14.1938471 12.5458973,14.0195324 12.7802734,13.7910156 L12.7802734,13.7910156 Z" id="@" fill="#FFFFFF"></path>
            </g>
        </g>
    </g>
</svg>