<?xml version="1.0" encoding="UTF-8" standalone="no"?>
<svg width="24px" height="24px" viewBox="0 0 24 24" version="1.1" xmlns="http://www.w3.org/2000/svg" xmlns:xlink="http://www.w3.org/1999/xlink">
    <!-- Generator: sketchtool 3.8.3 (29802) - http://www.bohemiancoding.com/sketch -->
    <title>7D984D75-0424-4531-B545-B5CE1526EAB4</title>
    <desc>Created with sketchtool.</desc>
    <defs></defs>
    <g id="Style-guide" stroke="none" stroke-width="1" fill="none" fill-rule="evenodd">
        <g id="Icons" transform="translate(-1108.000000, -1400.000000)">
            <g id="logo_instalaciones-deportivas_ping_pong" transform="translate(1108.000000, 1400.000000)">
                <g id="Group">
                    <polygon id="Shape" fill="#004481" points="0 0 24 0 24 24 0 24"></polygon>
                    <path d="M19.17,10.17 C19.17,6.3 16.04,3.17 12.17,3.17 C8.3,3.17 5.17,6.3 5.17,10.17 C5.17,13.64 7.69,16.51 11,17.06 L11,21 L13,21 L13,17.12 C16.47,16.71 19.17,13.76 19.17,10.17 Z M14.5,10 C15.3284271,10 16,9.32842712 16,8.5 C16,7.67157288 15.3284271,7 14.5,7 C13.6715729,7 13,7.67157288 13,8.5 C13,9.32842712 13.6715729,10 14.5,10 Z" id="Combined-Shape" fill="#FFFFFF" transform="translate(12.170000, 12.085000) rotate(45.000000) translate(-12.170000, -12.085000) "></path>
                </g>
            </g>
        </g>
    </g>
</svg>