<?xml version="1.0" encoding="UTF-8" standalone="no"?>
<svg width="24px" height="24px" viewBox="0 0 24 24" version="1.1" xmlns="http://www.w3.org/2000/svg" xmlns:xlink="http://www.w3.org/1999/xlink">
    <!-- Generator: sketchtool 3.8.3 (29802) - http://www.bohemiancoding.com/sketch -->
    <title>E9BC3BDB-13BE-4477-83FA-3BEB13308F63</title>
    <desc>Created with sketchtool.</desc>
    <defs>
        <polygon id="path-1" points="0 0 24 0 24 24 0 24"></polygon>
        <mask id="mask-2" maskContentUnits="userSpaceOnUse" maskUnits="objectBoundingBox" x="0" y="0" width="24" height="24" fill="white">
            <use xlink:href="#path-1"></use>
        </mask>
    </defs>
    <g id="Style-guide" stroke="none" stroke-width="1" fill="none" fill-rule="evenodd">
        <g id="Icons" transform="translate(-548.000000, -1262.000000)">
            <g id="logo_accesibilidad-habitacion_accesible" transform="translate(548.000000, 1262.000000)">
                <g id="Group">
                    <use id="Shape" stroke="#6B9101" mask="url(#mask-2)" stroke-width="2" fill="#FFFFFF" xlink:href="#path-1"></use>
                    <circle id="Oval" fill="#6B9101" cx="9" cy="4" r="2"></circle>
                    <path d="M16,13 L16,11 C14.46,11.02 12.91,10.25 11.93,9.17 L10.64,7.74 C10.47,7.55 10.26,7.4 10.03,7.29 C10.02,7.29 10.02,7.28 10.01,7.28 L10,7.28 C9.65,7.08 9.25,6.98 8.81,7.02 C7.76,7.11 7,8.04 7,9.09 L7,15 C7,16.1 7.9,17 9,17 L14,17 L14,22 L16,22 L16,16.5 C16,15.4 15.1,14.5 14,14.5 L11,14.5 L11,11.05 C12.29,12.12 14.25,12.99 16,13 L16,13 Z M9.83,18 C9.42,19.16 8.31,20 7,20 C5.34,20 4,18.66 4,17 C4,15.69 4.84,14.59 6,14.17 L6,12.1 C3.72,12.56 2,14.58 2,17 C2,19.76 4.24,22 7,22 C9.42,22 11.44,20.28 11.9,18 L9.83,18 L9.83,18 Z" id="Shape" fill="#6B9101"></path>
                </g>
                <g id="Group" transform="translate(19.000000, 6.000000) rotate(90.000000) translate(-19.000000, -6.000000) translate(15.000000, 2.000000)">
                    <polygon id="Shape" points="0 0 8 0 8 8 0 8"></polygon>
                    <path d="M4.21666667,3.33333333 C3.94333333,2.55666667 3.20333333,2 2.33333333,2 C1.23,2 0.333333333,2.89666667 0.333333333,4 C0.333333333,5.10333333 1.23,6 2.33333333,6 C3.20333333,6 3.94333333,5.44333333 4.21666667,4.66666667 L5.66666667,4.66666667 L5.66666667,6 L7,6 L7,4.66666667 L7.66666667,4.66666667 L7.66666667,3.33333333 L4.21666667,3.33333333 L4.21666667,3.33333333 Z M2.33333333,4.66666667 C1.96666667,4.66666667 1.66666667,4.36666667 1.66666667,4 C1.66666667,3.63333333 1.96666667,3.33333333 2.33333333,3.33333333 C2.7,3.33333333 3,3.63333333 3,4 C3,4.36666667 2.7,4.66666667 2.33333333,4.66666667 L2.33333333,4.66666667 Z" id="Shape" fill="#6B9101"></path>
                </g>
            </g>
        </g>
    </g>
</svg>