<?xml version="1.0" encoding="UTF-8" standalone="no"?>
<svg width="24px" height="24px" viewBox="0 0 24 24" version="1.1" xmlns="http://www.w3.org/2000/svg" xmlns:xlink="http://www.w3.org/1999/xlink">
    <!-- Generator: sketchtool 3.8.3 (29802) - http://www.bohemiancoding.com/sketch -->
    <title>0F7F9955-6381-4F84-B2B5-084C6FC826B4</title>
    <desc>Created with sketchtool.</desc>
    <defs></defs>
    <g id="Style-guide" stroke="none" stroke-width="1" fill="none" fill-rule="evenodd">
        <g id="Icons" transform="translate(-468.000000, -1713.000000)">
            <g id="logo_servicios-habitacion_television" transform="translate(468.000000, 1713.000000)">
                <g id="Group">
                    <polygon id="Shape" fill="#004481" points="0 0 24 0 24 24 0 24"></polygon>
                    <path d="M6.36363636,16.8181818 C7.57090909,16.8181818 8.54545455,15.8436364 8.54545455,14.6363636 C8.54545455,13.4290909 7.57090909,12.4545455 6.36363636,12.4545455 C5.15636364,12.4545455 4.18181818,13.4290909 4.18181818,14.6363636 C4.18181818,15.8436364 5.15636364,16.8181818 6.36363636,16.8181818 L6.36363636,16.8181818 Z M15.0909091,12.4545455 L9.27272727,12.4545455 L9.27272727,17.5454545 L3.45454545,17.5454545 L3.45454545,11 L2,11 L2,21.9090909 L3.45454545,21.9090909 L3.45454545,19.7272727 L16.5454545,19.7272727 L16.5454545,21.9090909 L18,21.9090909 L18,15.3636364 C18,13.7563636 16.6981818,12.4545455 15.0909091,12.4545455 L15.0909091,12.4545455 Z" id="Shape" fill="#FFFFFF"></path>
                </g>
                <path d="M21,2 L12,2 C11.45,2 11,2.45 11,3 L11,9 C11,9.55 11.45,10 12,10 L14.5,10 L14.5,11 L18.5,11 L18.5,10 L21,10 C21.55,10 21.995,9.55 21.995,9 L22,3 C22,2.45 21.55,2 21,2 L21,2 Z M21,9 L12,9 L12,3 L21,3 L21,9 L21,9 Z" id="Shape" fill="#FFFFFF"></path>
            </g>
        </g>
    </g>
</svg>