<?xml version="1.0" encoding="UTF-8" standalone="no"?>
<svg width="24px" height="24px" viewBox="0 0 24 24" version="1.1" xmlns="http://www.w3.org/2000/svg" xmlns:xlink="http://www.w3.org/1999/xlink">
    <!-- Generator: sketchtool 3.8.3 (29802) - http://www.bohemiancoding.com/sketch -->
    <title>AA80FBD5-E783-4568-B28B-1A959E87B4C9</title>
    <desc>Created with sketchtool.</desc>
    <defs></defs>
    <g id="Style-guide" stroke="none" stroke-width="1" fill="none" fill-rule="evenodd">
        <g id="Icons" transform="translate(-868.000000, -1713.000000)">
            <g id="logo_servicios-instalaciones_parking" transform="translate(868.000000, 1713.000000)">
                <g id="Group">
                    <polygon id="Shape" fill="#004481" points="0 0 24 0 24 24 0 24"></polygon>
                    <path d="M13,3 L6,3 L6,21 L10,21 L10,15 L13,15 C16.31,15 19,12.31 19,9 C19,5.69 16.31,3 13,3 L13,3 Z M13.2,11 L10,11 L10,7 L13.2,7 C14.3,7 15.2,7.9 15.2,9 C15.2,10.1 14.3,11 13.2,11 L13.2,11 Z" id="Shape" fill="#FFFFFF"></path>
                </g>
            </g>
        </g>
    </g>
</svg>