<?xml version="1.0" encoding="UTF-8" standalone="no"?>
<svg width="24px" height="24px" viewBox="0 0 24 24" version="1.1" xmlns="http://www.w3.org/2000/svg" xmlns:xlink="http://www.w3.org/1999/xlink">
    <!-- Generator: sketchtool 3.8.3 (29802) - http://www.bohemiancoding.com/sketch -->
    <title>5C9E42D4-D0CF-43E7-BD7C-866002CF74CF</title>
    <desc>Created with sketchtool.</desc>
    <defs>
        <polygon id="path-1" points="0 0 24 0 24 24 0 24"></polygon>
        <mask id="mask-2" maskContentUnits="userSpaceOnUse" maskUnits="objectBoundingBox" x="0" y="0" width="24" height="24" fill="white">
            <use xlink:href="#path-1"></use>
        </mask>
    </defs>
    <g id="Style-guide" stroke="none" stroke-width="1" fill="none" fill-rule="evenodd">
        <g id="Icons" transform="translate(-308.000000, -1262.000000)">
            <g id="logo_accesibilidad-acceso_accesible" transform="translate(308.000000, 1262.000000)">
                <g id="Group">
                    <use id="Shape" stroke="#6B9101" mask="url(#mask-2)" stroke-width="2" fill="#FFFFFF" xlink:href="#path-1"></use>
                    <circle id="Oval" fill="#6B9101" cx="9" cy="4" r="2"></circle>
                    <path d="M16,13 L16,11 C14.46,11.02 12.91,10.25 11.93,9.17 L10.64,7.74 C10.47,7.55 10.26,7.4 10.03,7.29 C10.02,7.29 10.02,7.28 10.01,7.28 L10,7.28 C9.65,7.08 9.25,6.98 8.81,7.02 C7.76,7.11 7,8.04 7,9.09 L7,15 C7,16.1 7.9,17 9,17 L14,17 L14,22 L16,22 L16,16.5 C16,15.4 15.1,14.5 14,14.5 L11,14.5 L11,11.05 C12.29,12.12 14.25,12.99 16,13 L16,13 Z M9.83,18 C9.42,19.16 8.31,20 7,20 C5.34,20 4,18.66 4,17 C4,15.69 4.84,14.59 6,14.17 L6,12.1 C3.72,12.56 2,14.58 2,17 C2,19.76 4.24,22 7,22 C9.42,22 11.44,20.28 11.9,18 L9.83,18 L9.83,18 Z" id="Shape" fill="#6B9101"></path>
                </g>
                <polygon id="Path" fill="#6B9101" points="18.4609091 4.875 14 4.875 14 6.125 18.4609091 6.125 18.4609091 8 21 5.5 18.4609091 3"></polygon>
            </g>
        </g>
    </g>
</svg>