<?xml version="1.0" encoding="UTF-8" standalone="no"?>
<svg width="24px" height="24px" viewBox="0 0 24 24" version="1.1" xmlns="http://www.w3.org/2000/svg" xmlns:xlink="http://www.w3.org/1999/xlink">
    <!-- Generator: sketchtool 3.8.3 (29802) - http://www.bohemiancoding.com/sketch -->
    <title>E89EF0E0-B934-49AE-BA20-ADF3407BCD30</title>
    <desc>Created with sketchtool.</desc>
    <defs></defs>
    <g id="Style-guide" stroke="none" stroke-width="1" fill="none" fill-rule="evenodd">
        <g id="Icons" transform="translate(-468.000000, -1538.000000)">
            <g id="logo_servicios_admiten-animales" transform="translate(468.000000, 1538.000000)">
                <polygon id="Shape" fill="#004481" points="0 0 24 0 24 24 0 24"></polygon>
                <g id="Group" transform="translate(2.000000, 3.000000)" fill="#FFFFFF">
                    <circle id="Oval" cx="2.5" cy="6.5" r="2.5"></circle>
                    <circle id="Oval" cx="7" cy="2.5" r="2.5"></circle>
                    <circle id="Oval" cx="13" cy="2.5" r="2.5"></circle>
                    <circle id="Oval" cx="17.5" cy="6.5" r="2.5"></circle>
                    <path d="M15.34,11.86 C14.47,10.84 13.74,9.97 12.86,8.95 C12.4,8.41 11.81,7.87 11.11,7.63 C11,7.59 10.89,7.56 10.78,7.54 C10.53,7.5 10.26,7.5 10,7.5 C9.74,7.5 9.47,7.5 9.21,7.55 C9.1,7.57 8.99,7.6 8.88,7.64 C8.18,7.88 7.6,8.42 7.13,8.96 C6.26,9.98 5.53,10.85 4.65,11.87 C3.34,13.18 1.73,14.63 2.03,16.66 C2.32,17.68 3.05,18.69 4.36,18.98 C5.09,19.13 7.42,18.54 9.9,18.54 L10.08,18.54 C12.56,18.54 14.89,19.12 15.62,18.98 C16.93,18.69 17.66,17.67 17.95,16.66 C18.26,14.62 16.65,13.17 15.34,11.86 L15.34,11.86 Z" id="Shape"></path>
                </g>
            </g>
        </g>
    </g>
</svg>