<?xml version="1.0" encoding="UTF-8" standalone="no"?>
<svg width="24px" height="24px" viewBox="0 0 24 24" version="1.1" xmlns="http://www.w3.org/2000/svg" xmlns:xlink="http://www.w3.org/1999/xlink">
    <!-- Generator: sketchtool 3.8.3 (29802) - http://www.bohemiancoding.com/sketch -->
    <title>B720D966-7F55-44FE-819A-7CA4F8430677</title>
    <desc>Created with sketchtool.</desc>
    <defs></defs>
    <g id="Style-guide" stroke="none" stroke-width="1" fill="none" fill-rule="evenodd">
        <g id="Icons" transform="translate(-867.000000, -1262.000000)">
            <g id="logo_accesibilidad-wc_inaccesible" transform="translate(867.000000, 1262.000000)">
                <g id="Group">
                    <polygon id="Shape" fill="#D2251A" points="0 0 24 0 24 24 0 24"></polygon>
                    <circle id="Oval" fill="#FFFFFF" cx="9" cy="4" r="2"></circle>
                    <path d="M16,13 L16,11 C14.46,11.02 12.91,10.25 11.93,9.17 L10.64,7.74 C10.47,7.55 10.26,7.4 10.03,7.29 C10.02,7.29 10.02,7.28 10.01,7.28 L10,7.28 C9.65,7.08 9.25,6.98 8.81,7.02 C7.76,7.11 7,8.04 7,9.09 L7,15 C7,16.1 7.9,17 9,17 L14,17 L14,22 L16,22 L16,16.5 C16,15.4 15.1,14.5 14,14.5 L11,14.5 L11,11.05 C12.29,12.12 14.25,12.99 16,13 L16,13 Z M9.83,18 C9.42,19.16 8.31,20 7,20 C5.34,20 4,18.66 4,17 C4,15.69 4.84,14.59 6,14.17 L6,12.1 C3.72,12.56 2,14.58 2,17 C2,19.76 4.24,22 7,22 C9.42,22 11.44,20.28 11.9,18 L9.83,18 L9.83,18 Z" id="Shape" fill="#FFFFFF"></path>
                </g>
                <path d="M17.9209961,3.63769531 L16.7461914,8 L15.5010742,8 L14.7188477,5.15820312 L13.9571289,8 L12.7120117,8 L11.537207,3.63769531 L12.7120117,3.63769531 L13.3829102,6.640625 L14.1856445,3.63769531 L15.3077148,3.63769531 L16.0723633,6.640625 L16.7754883,3.63769531 L17.9209961,3.63769531 Z M19.8426758,8.08496094 C19.5184554,8.08496094 19.219142,8.03710985 18.9447266,7.94140625 C18.6703111,7.84570265 18.4344736,7.70312595 18.237207,7.51367188 C18.0399404,7.3242178 17.8871099,7.08789204 17.7787109,6.8046875 C17.670312,6.52148296 17.6161133,6.19433779 17.6161133,5.82324219 C17.6161133,5.47753733 17.6678706,5.16406391 17.7713867,4.8828125 C17.8749029,4.60156109 18.025292,4.36035257 18.2225586,4.15917969 C18.4120127,3.96581935 18.6468736,3.81640678 18.9271484,3.7109375 C19.2074233,3.60546822 19.5135726,3.55273438 19.8456055,3.55273438 C20.0292001,3.55273438 20.1947258,3.56298818 20.3421875,3.58349609 C20.4896492,3.60400401 20.6258783,3.63085921 20.7508789,3.6640625 C20.8817389,3.70117206 21.0003901,3.74267555 21.1068359,3.78857422 C21.2132818,3.83447289 21.3065426,3.87695293 21.3866211,3.91601562 L21.3866211,4.97363281 L21.2577148,4.97363281 C21.2030271,4.92675758 21.1341801,4.87109407 21.0511719,4.80664062 C20.9681636,4.74218718 20.8739263,4.67871125 20.768457,4.61621094 C20.6610346,4.55371062 20.5448248,4.50097678 20.4198242,4.45800781 C20.2948236,4.41503885 20.1610359,4.39355469 20.018457,4.39355469 C19.8602531,4.39355469 19.709864,4.41845678 19.5672852,4.46826172 C19.4247063,4.51806666 19.2928717,4.60058536 19.1717773,4.71582031 C19.0565424,4.82714899 18.9632816,4.97460846 18.8919922,5.15820312 C18.8207028,5.34179779 18.7850586,5.56445182 18.7850586,5.82617188 C18.7850586,6.09961074 18.8236324,6.32812408 18.9007812,6.51171875 C18.9779301,6.69531342 19.0750971,6.83984322 19.1922852,6.9453125 C19.3114264,7.05273491 19.4442375,7.1293943 19.5907227,7.17529297 C19.7372078,7.22119164 19.8817376,7.24414062 20.0243164,7.24414062 C20.1610358,7.24414062 20.2962884,7.22363302 20.4300781,7.18261719 C20.5638679,7.14160136 20.6874018,7.08593785 20.8006836,7.015625 C20.8963872,6.95898409 20.9852535,6.89843782 21.0672852,6.83398438 C21.1493168,6.76953093 21.2166989,6.71386742 21.2694336,6.66699219 L21.3866211,6.66699219 L21.3866211,7.70996094 C21.2772455,7.75878931 21.1727544,7.80468729 21.0731445,7.84765625 C20.9735347,7.89062521 20.8690435,7.92773422 20.759668,7.95898438 C20.6170891,8.00000021 20.4833014,8.03124989 20.3583008,8.05273438 C20.2333002,8.07421886 20.0614269,8.08496094 19.8426758,8.08496094 L19.8426758,8.08496094 Z" id="WC" fill="#FFFFFF"></path>
            </g>
        </g>
    </g>
</svg>