<?xml version="1.0" encoding="UTF-8" standalone="no"?>
<svg width="24px" height="24px" viewBox="0 0 24 24" version="1.1" xmlns="http://www.w3.org/2000/svg" xmlns:xlink="http://www.w3.org/1999/xlink">
    <!-- Generator: sketchtool 3.8.3 (29802) - http://www.bohemiancoding.com/sketch -->
    <title>034C8189-DF25-497C-A093-10D84C2CDEBF</title>
    <desc>Created with sketchtool.</desc>
    <defs></defs>
    <g id="Style-guide" stroke="none" stroke-width="1" fill="none" fill-rule="evenodd">
        <g id="Icons" transform="translate(-308.000000, -1538.000000)">
            <g id="logo_num_habitaciones" transform="translate(308.000000, 1538.000000)">
                <g id="Group">
                    <polygon id="Shape" fill="#004481" points="0 0 24 0 24 24 0 24"></polygon>
                    <path d="M12.65,10 C11.83,7.67 9.61,6 7,6 C3.69,6 1,8.69 1,12 C1,15.31 3.69,18 7,18 C9.61,18 11.83,16.33 12.65,14 L17,14 L17,18 L21,18 L21,14 L23,14 L23,10 L12.65,10 L12.65,10 Z M7,14 C5.9,14 5,13.1 5,12 C5,10.9 5.9,10 7,10 C8.1,10 9,10.9 9,12 C9,13.1 8.1,14 7,14 L7,14 Z" id="Shape" fill="#FFFFFF"></path>
                </g>
            </g>
        </g>
    </g>
</svg>