<?xml version="1.0" encoding="UTF-8" standalone="no"?>
<svg width="24px" height="24px" viewBox="0 0 24 24" version="1.1" xmlns="http://www.w3.org/2000/svg" xmlns:xlink="http://www.w3.org/1999/xlink">
    <!-- Generator: sketchtool 3.8.3 (29802) - http://www.bohemiancoding.com/sketch -->
    <title>0E8EB2D8-72C5-4E9C-87CF-3EECD46863EF</title>
    <desc>Created with sketchtool.</desc>
    <defs>
        <polygon id="path-1" points="0 0 24 0 24 24 0 24"></polygon>
        <mask id="mask-2" maskContentUnits="userSpaceOnUse" maskUnits="objectBoundingBox" x="0" y="0" width="24" height="24" fill="white">
            <use xlink:href="#path-1"></use>
        </mask>
    </defs>
    <g id="Style-guide" stroke="none" stroke-width="1" fill="none" fill-rule="evenodd">
        <g id="Icons" transform="translate(-68.000000, -1262.000000)">
            <g id="logo_accesibilidad_accesible" transform="translate(68.000000, 1262.000000)">
                <g id="Group">
                    <use id="Shape" stroke="#6B9101" mask="url(#mask-2)" stroke-width="2" fill="#FFFFFF" xlink:href="#path-1"></use>
                    <circle id="Oval" fill="#6B9101" cx="12" cy="4" r="2"></circle>
                    <path d="M19,13 L19,11 C17.46,11.02 15.91,10.25 14.93,9.17 L13.64,7.74 C13.47,7.55 13.26,7.4 13.03,7.29 C13.02,7.29 13.02,7.28 13.01,7.28 L13,7.28 C12.65,7.08 12.25,6.98 11.81,7.02 C10.76,7.11 10,8.04 10,9.09 L10,15 C10,16.1 10.9,17 12,17 L17,17 L17,22 L19,22 L19,16.5 C19,15.4 18.1,14.5 17,14.5 L14,14.5 L14,11.05 C15.29,12.12 17.25,12.99 19,13 L19,13 Z M12.83,18 C12.42,19.16 11.31,20 10,20 C8.34,20 7,18.66 7,17 C7,15.69 7.84,14.59 9,14.17 L9,12.1 C6.72,12.56 5,14.58 5,17 C5,19.76 7.24,22 10,22 C12.42,22 14.44,20.28 14.9,18 L12.83,18 L12.83,18 Z" id="Shape" fill="#6B9101"></path>
                </g>
            </g>
        </g>
    </g>
</svg>