<?xml version="1.0" encoding="UTF-8" standalone="no"?>
<svg width="24px" height="24px" viewBox="0 0 24 24" version="1.1" xmlns="http://www.w3.org/2000/svg" xmlns:xlink="http://www.w3.org/1999/xlink">
    <!-- Generator: sketchtool 3.8.3 (29802) - http://www.bohemiancoding.com/sketch -->
    <title>176D0726-4D29-4DB6-9E20-A8F69B9655CF</title>
    <desc>Created with sketchtool.</desc>
    <defs></defs>
    <g id="Style-guide" stroke="none" stroke-width="1" fill="none" fill-rule="evenodd">
        <g id="Icons" transform="translate(-1028.000000, -1713.000000)">
            <g id="logo_servicios-instalaciones_terraza-jardin" transform="translate(1028.000000, 1713.000000)">
                <g id="Group">
                    <polygon id="Shape" fill="#004481" points="0 0 24 0 24 24 0 24"></polygon>
                    <path d="M22.17,9.17 C22.17,5.3 19.04,2.17 15.17,2.17 C11.3,2.17 8.17,5.3 8.17,9.17 C8.17,12.64 10.69,15.51 14,16.06 L14,20 L6,20 L6,17 L7,17 L7,13 C7,12.45 6.55,12 6,12 L3,12 C2.45,12 2,12.45 2,13 L2,17 L3,17 L3,22 L19,22 L19,20 L16,20 L16,16.12 C19.47,15.71 22.17,12.76 22.17,9.17 L22.17,9.17 Z M4.5,11 C5.33,11 6,10.33 6,9.5 C6,8.67 5.33,8 4.5,8 C3.67,8 3,8.67 3,9.5 C3,10.33 3.67,11 4.5,11 L4.5,11 Z" id="Shape" fill="#FFFFFF"></path>
                </g>
            </g>
        </g>
    </g>
</svg>