<?xml version="1.0" encoding="UTF-8" standalone="no"?>
<svg width="24px" height="24px" viewBox="0 0 24 24" version="1.1" xmlns="http://www.w3.org/2000/svg" xmlns:xlink="http://www.w3.org/1999/xlink">
    <!-- Generator: sketchtool 3.8.3 (29802) - http://www.bohemiancoding.com/sketch -->
    <title>48C7E20C-953E-47B7-993C-AD10125BCD84</title>
    <desc>Created with sketchtool.</desc>
    <defs></defs>
    <g id="Style-guide" stroke="none" stroke-width="1" fill="none" fill-rule="evenodd">
        <g id="Icons" transform="translate(-388.000000, -1400.000000)">
            <g id="logo_instalaciones_sala-conferencias" transform="translate(388.000000, 1400.000000)">
                <polygon id="Shape" fill="#004481" points="0 0 24 0 24 24 0 24"></polygon>
                <g id="Group" transform="translate(4.000000, 1.000000)" fill="#FFFFFF">
                    <path d="M8,18 C6.9,18 6,18.9 6,20 C6,21.1 6.9,22 8,22 C9.1,22 10,21.1 10,20 C10,18.9 9.1,18 8,18 L8,18 Z M2,6 C0.9,6 0,6.9 0,8 C0,9.1 0.9,10 2,10 C3.1,10 4,9.1 4,8 C4,6.9 3.1,6 2,6 L2,6 Z M2,12 C0.9,12 0,12.9 0,14 C0,15.1 0.9,16 2,16 C3.1,16 4,15.1 4,14 C4,12.9 3.1,12 2,12 L2,12 Z M14,12 C12.9,12 12,12.9 12,14 C12,15.1 12.9,16 14,16 C15.1,16 16,15.1 16,14 C16,12.9 15.1,12 14,12 L14,12 Z M14,6 C12.9,6 12,6.9 12,8 C12,9.1 12.9,10 14,10 C15.1,10 16,9.1 16,8 C16,6.9 15.1,6 14,6 L14,6 Z M8,0 C6.9,0 6,0.9 6,2 C6,3.1 6.9,4 8,4 C9.1,4 10,3.1 10,2 C10,0.9 9.1,0 8,0 Z M6,6 L10,6 L10,16 L6,16 L6,6 Z" id="Shape"></path>
                </g>
            </g>
        </g>
    </g>
</svg>