<?xml version="1.0" encoding="UTF-8" standalone="no"?>
<svg width="24px" height="24px" viewBox="0 0 24 24" version="1.1" xmlns="http://www.w3.org/2000/svg" xmlns:xlink="http://www.w3.org/1999/xlink">
    <!-- Generator: sketchtool 3.8.3 (29802) - http://www.bohemiancoding.com/sketch -->
    <title>8BB1D188-216C-49DD-BCCA-AA770A14D13D</title>
    <desc>Created with sketchtool.</desc>
    <defs></defs>
    <g id="Style-guide" stroke="none" stroke-width="1" fill="none" fill-rule="evenodd">
        <g id="Icons" transform="translate(-708.000000, -1538.000000)">
            <g id="logo_servicios_animacion" transform="translate(708.000000, 1538.000000)">
                <g id="Group">
                    <polygon id="Shape" fill="#004481" points="0 0 24 0 24 24 0 24"></polygon>
                    <path d="M7.25,9.3125 C6.7325,9.3125 6.3125,9.7325 6.3125,10.25 C6.3125,10.7675 6.7325,11.1875 7.25,11.1875 C7.7675,11.1875 8.1875,10.7675 8.1875,10.25 C8.1875,9.7325 7.7675,9.3125 7.25,9.3125 L7.25,9.3125 Z M11.75,9.3125 C11.2325,9.3125 10.8125,9.7325 10.8125,10.25 C10.8125,10.7675 11.2325,11.1875 11.75,11.1875 C12.2675,11.1875 12.6875,10.7675 12.6875,10.25 C12.6875,9.7325 12.2675,9.3125 11.75,9.3125 L11.75,9.3125 Z M9.5,2 C5.36,2 2,5.36 2,9.5 C2,13.64 5.36,17 9.5,17 C13.64,17 17,13.64 17,9.5 C17,5.36 13.64,2 9.5,2 L9.5,2 Z M9.5,15.5 C6.1925,15.5 3.5,12.8075 3.5,9.5 C3.5,9.2825 3.515,9.065 3.5375,8.855 C5.3075,8.0675 6.71,6.62 7.445,4.8275 C8.8025,6.7475 11.0375,8 13.565,8 C14.15,8 14.7125,7.9325 15.2525,7.805 C15.41,8.3375 15.5,8.9075 15.5,9.5 C15.5,12.8075 12.8075,15.5 9.5,15.5 L9.5,15.5 Z" id="Shape" fill="#FFFFFF"></path>
                    <path d="M19,19.1666667 C19.9683333,19.1666667 20.7441667,18.385 20.7441667,17.4166667 L20.75,13.9166667 C20.75,12.9483333 19.9683333,12.1666667 19,12.1666667 C18.0316667,12.1666667 17.25,12.9483333 17.25,13.9166667 L17.25,17.4166667 C17.25,18.385 18.0316667,19.1666667 19,19.1666667 L19,19.1666667 Z M22.0916667,17.4166667 C22.0916667,19.1666667 20.61,20.3916667 19,20.3916667 C17.39,20.3916667 15.9083333,19.1666667 15.9083333,17.4166667 L14.9166667,17.4166667 C14.9166667,19.4058333 16.5033333,21.0508333 18.4166667,21.3366667 L18.4166667,23.25 L19.5833333,23.25 L19.5833333,21.3366667 C21.4966667,21.0566667 23.0833333,19.4116667 23.0833333,17.4166667 L22.0916667,17.4166667 L22.0916667,17.4166667 Z" id="Shape" fill="#FFFFFF"></path>
                </g>
            </g>
        </g>
    </g>
</svg>