<?xml version="1.0" encoding="UTF-8" standalone="no"?>
<svg width="24px" height="24px" viewBox="0 0 24 24" version="1.1" xmlns="http://www.w3.org/2000/svg" xmlns:xlink="http://www.w3.org/1999/xlink">
    <!-- Generator: sketchtool 3.8.3 (29802) - http://www.bohemiancoding.com/sketch -->
    <title>AFA11BA0-03AE-4FB7-9129-D465842E80FF</title>
    <desc>Created with sketchtool.</desc>
    <defs></defs>
    <g id="Style-guide" stroke="none" stroke-width="1" fill="none" fill-rule="evenodd">
        <g id="Icons" transform="translate(-1108.000000, -1713.000000)">
            <g id="logo_servicios-instalaciones_wifi" transform="translate(1108.000000, 1713.000000)">
                <g id="Group">
                    <polygon id="Shape" fill="#004481" points="0 0 24 0 24 24 0 24"></polygon>
                    <path d="M1,9 L3,11 C7.97,6.03 16.03,6.03 21,11 L23,9 C16.93,2.93 7.08,2.93 1,9 L1,9 Z M9,17 L12,20 L15,17 C13.35,15.34 10.66,15.34 9,17 L9,17 Z M5,13 L7,15 C9.76,12.24 14.24,12.24 17,15 L19,13 C15.14,9.14 8.87,9.14 5,13 L5,13 Z" id="Shape" fill="#FFFFFF"></path>
                </g>
            </g>
        </g>
    </g>
</svg>