<?xml version="1.0" encoding="UTF-8" standalone="no"?>
<svg width="24px" height="24px" viewBox="0 0 24 24" version="1.1" xmlns="http://www.w3.org/2000/svg" xmlns:xlink="http://www.w3.org/1999/xlink">
    <!-- Generator: sketchtool 3.8.3 (29802) - http://www.bohemiancoding.com/sketch -->
    <title>C4842C9C-2EB9-4610-8A2F-C14B19F61205</title>
    <desc>Created with sketchtool.</desc>
    <defs></defs>
    <g id="Style-guide" stroke="none" stroke-width="1" fill="none" fill-rule="evenodd">
        <g id="Icons" transform="translate(-788.000000, -1538.000000)">
            <g id="logo_servicios_antena" transform="translate(788.000000, 1538.000000)">
                <g id="Group" fill="#004481">
                    <polygon id="Shape" points="0 0 24 0 24 24 0 24"></polygon>
                </g>
                <path d="M19,3 L5,3 C3.9,3 3,3.9 3,5 L3,19 C3,20.1 3.9,21 5,21 L19,21 C20.1,21 21,20.1 21,19 L21,5 C21,3.9 20.1,3 19,3 L19,3 Z" id="Combined-Shape" fill="#FFFFFF"></path>
                <path d="M5,4.99 L8,4.99 C8,6.65 6.66,8 5,8 L5,4.99 L5,4.99 Z" id="Shape" fill="#004481"></path>
                <path d="M5,12 L5,10 C7.76,10 10,7.75 10,4.99 L12,4.99 C12,8.86 8.87,12 5,12 L5,12 Z" id="Shape" fill="#004481"></path>
                <polygon id="TV" fill="#004481" points="13.5117188 13.3085938 11.6953125 13.3085938 11.6953125 18 10.1953125 18 10.1953125 13.3085938 8.37890625 13.3085938 8.37890625 12.1835938 13.5117188 12.1835938"></polygon>
                <polygon id="TV" fill="#004481" points="19.6875 12.1835938 17.5664062 18 15.8867188 18 13.765625 12.1835938 15.3398438 12.1835938 16.7460938 16.2695312 18.1523438 12.1835938"></polygon>
            </g>
        </g>
    </g>
</svg>