<?xml version="1.0" encoding="UTF-8" standalone="no"?>
<svg width="24px" height="24px" viewBox="0 0 24 24" version="1.1" xmlns="http://www.w3.org/2000/svg" xmlns:xlink="http://www.w3.org/1999/xlink">
    <!-- Generator: sketchtool 3.8.3 (29802) - http://www.bohemiancoding.com/sketch -->
    <title>9EF495F6-2675-4221-8422-405D27746003</title>
    <desc>Created with sketchtool.</desc>
    <defs></defs>
    <g id="Style-guide" stroke="none" stroke-width="1" fill="none" fill-rule="evenodd">
        <g id="Icons" transform="translate(-948.000000, -1713.000000)">
            <g id="logo_servicios-instalaciones_reservados" transform="translate(948.000000, 1713.000000)">
                <polygon id="Shape" fill="#004481" points="0 0 24 0 24 24 0 24"></polygon>
                <g id="Group" transform="translate(3.000000, 2.000000)"></g>
                <path d="M10.3759711,17.3740289 L14.01,21 L21,14 L19.5,12.5 L14.01,18 L11.8764559,15.8735441 L17.81,9.94 L14.06,6.19 L3,17.25 L3,21 L6.75,21 L10.3759711,17.3740289 Z M10.3759711,17.3740289 L9.5,16.5 L11,15 L11.8764559,15.8735441 L10.3759711,17.3740289 Z M20.71,7.04 C21.1,6.65 21.1,6.02 20.71,5.63 L18.37,3.29 C17.98,2.9 17.35,2.9 16.96,3.29 L15.13,5.12 L18.88,8.87 L20.71,7.04 Z" id="Combined-Shape" fill="#FFFFFF"></path>
            </g>
        </g>
    </g>
</svg>