<?xml version="1.0" encoding="UTF-8" standalone="no"?>
<svg width="24px" height="24px" viewBox="0 0 24 24" version="1.1" xmlns="http://www.w3.org/2000/svg" xmlns:xlink="http://www.w3.org/1999/xlink">
    <!-- Generator: sketchtool 3.8.3 (29802) - http://www.bohemiancoding.com/sketch -->
    <title>936B283A-DB56-4C8F-B12C-5891F53077AF</title>
    <desc>Created with sketchtool.</desc>
    <defs></defs>
    <g id="Style-guide" stroke="none" stroke-width="1" fill="none" fill-rule="evenodd">
        <g id="Icons" transform="translate(-308.000000, -1713.000000)">
            <g id="logo_servicios-habitacion_telefono-copy" transform="translate(308.000000, 1713.000000)">
                <g id="Group">
                    <polygon id="Shape" fill="#004481" points="0 0 24 0 24 24 0 24"></polygon>
                    <path d="M15.0111111,5.32777778 C15.8111111,6.9 17.1,8.18333333 18.6722222,8.98888889 L19.8944444,7.76666667 C20.0444444,7.61666667 20.2666667,7.56666667 20.4611111,7.63333333 C21.0833333,7.83888889 21.7555556,7.95 22.4444444,7.95 C22.75,7.95 23,8.2 23,8.50555556 L23,10.4444444 C23,10.75 22.75,11 22.4444444,11 C17.2277778,11 13,6.77222222 13,1.55555556 C13,1.25 13.25,1 13.5555556,1 L15.5,1 C15.8055556,1 16.0555556,1.25 16.0555556,1.55555556 C16.0555556,2.25 16.1666667,2.91666667 16.3722222,3.53888889 C16.4333333,3.73333333 16.3888889,3.95 16.2333333,4.10555556 L15.0111111,5.32777778 L15.0111111,5.32777778 Z" id="Shape" fill="#FFFFFF"></path>
                    <path d="M6.36363636,16.8181818 C7.57090909,16.8181818 8.54545455,15.8436364 8.54545455,14.6363636 C8.54545455,13.4290909 7.57090909,12.4545455 6.36363636,12.4545455 C5.15636364,12.4545455 4.18181818,13.4290909 4.18181818,14.6363636 C4.18181818,15.8436364 5.15636364,16.8181818 6.36363636,16.8181818 L6.36363636,16.8181818 Z M15.0909091,12.4545455 L9.27272727,12.4545455 L9.27272727,17.5454545 L3.45454545,17.5454545 L3.45454545,11 L2,11 L2,21.9090909 L3.45454545,21.9090909 L3.45454545,19.7272727 L16.5454545,19.7272727 L16.5454545,21.9090909 L18,21.9090909 L18,15.3636364 C18,13.7563636 16.6981818,12.4545455 15.0909091,12.4545455 L15.0909091,12.4545455 Z" id="Shape" fill="#FFFFFF"></path>
                </g>
            </g>
        </g>
    </g>
</svg>