<?xml version="1.0" encoding="UTF-8" standalone="no"?>
<svg width="24px" height="24px" viewBox="0 0 24 24" version="1.1" xmlns="http://www.w3.org/2000/svg" xmlns:xlink="http://www.w3.org/1999/xlink">
    <!-- Generator: sketchtool 3.8.3 (29802) - http://www.bohemiancoding.com/sketch -->
    <title>B796E4A6-3107-484E-9210-2F7B44DC711E</title>
    <desc>Created with sketchtool.</desc>
    <defs></defs>
    <g id="Style-guide" stroke="none" stroke-width="1" fill="none" fill-rule="evenodd">
        <g id="Icons" transform="translate(-468.000000, -1400.000000)">
            <g id="logo_instalaciones_salon-social-discoteca" transform="translate(468.000000, 1400.000000)">
                <path d="M0,0 L24,0 L24,24 L0,24 L0,0 Z M21.02,19 C21.02,20.1 20.12,21 19.02,21 L5.02,21 C3.92,21 3.02,20.1 3.02,19 L3.02,5 C3.02,3.9 3.92,3 5.02,3 L19.02,3 C20.12,3 21.02,3.9 21.02,5 L21.02,19 L21.02,19 Z" id="Shape" fill="#004481"></path>
                <g id="Group" transform="translate(3.000000, 3.000000)">
                    <path d="M16,0 L2,0 C0.9,0 0,0.9 0,2 L0,16 C0,17.1 0.9,18 2,18 L16,18 C17.1,18 18,17.1 18,16 L18,2 C18,0.9 17.1,0 16,0 L16,0 Z" id="Shape" fill="#FFFFFF"></path>
                    <path d="M13.5,6 C12.67,6 12,5.33 12,4.5 C12,3.67 12.67,3 13.5,3 C14.33,3 15,3.67 15,4.5 C15,5.33 14.33,6 13.5,6 L13.5,6 Z" id="Path" fill="#004481"></path>
                    <path d="M13.5,15 C12.67,15 12,14.33 12,13.5 C12,12.67 12.67,12 13.5,12 C14.33,12 15,12.67 15,13.5 C15,14.33 14.33,15 13.5,15 L13.5,15 Z" id="Path" fill="#004481"></path>
                    <path d="M9,10.5 C8.17,10.5 7.5,9.83 7.5,9 C7.5,8.17 8.17,7.5 9,7.5 C9.83,7.5 10.5,8.17 10.5,9 C10.5,9.83 9.83,10.5 9,10.5 L9,10.5 Z" id="Path" fill="#004481"></path>
                    <path d="M4.5,6 C3.67,6 3,5.33 3,4.5 C3,3.67 3.67,3 4.5,3 C5.33,3 6,3.67 6,4.5 C6,5.33 5.33,6 4.5,6 L4.5,6 Z" id="Path" fill="#004481"></path>
                    <path d="M4.5,15 C3.67,15 3,14.33 3,13.5 C3,12.67 3.67,12 4.5,12 C5.33,12 6,12.67 6,13.5 C6,14.33 5.33,15 4.5,15 L4.5,15 Z" id="Path" fill="#004481"></path>
                </g>
            </g>
        </g>
    </g>
</svg>