<?xml version="1.0" encoding="UTF-8" standalone="no"?>
<svg width="24px" height="24px" viewBox="0 0 24 24" version="1.1" xmlns="http://www.w3.org/2000/svg" xmlns:xlink="http://www.w3.org/1999/xlink">
    <!-- Generator: sketchtool 3.8.3 (29802) - http://www.bohemiancoding.com/sketch -->
    <title>853E254D-5C45-4D28-9DCF-B4A375BBECC4</title>
    <desc>Created with sketchtool.</desc>
    <defs></defs>
    <g id="Style-guide" stroke="none" stroke-width="1" fill="none" fill-rule="evenodd">
        <g id="Icons" transform="translate(-308.000000, -1400.000000)">
            <g id="logo_instalaciones_restaurante" transform="translate(308.000000, 1400.000000)">
                <polygon id="Shape" fill="#004481" points="0 0 24 0 24 24 0 24"></polygon>
                <g id="Group" transform="translate(3.000000, 2.000000)" fill="#FFFFFF">
                    <path d="M8,7 L6,7 L6,0 L4,0 L4,7 L2,7 L2,0 L0,0 L0,7 C0,9.12 1.66,10.84 3.75,10.97 L3.75,20 L6.25,20 L6.25,10.97 C8.34,10.84 10,9.12 10,7 L10,0 L8,0 L8,7 L8,7 Z M13,4 L13,12 L15.5,12 L15.5,20 L18,20 L18,0 C15.24,0 13,2.24 13,4 L13,4 Z" id="Shape"></path>
                </g>
            </g>
        </g>
    </g>
</svg>