<?xml version="1.0" encoding="UTF-8" standalone="no"?>
<svg width="24px" height="24px" viewBox="0 0 24 24" version="1.1" xmlns="http://www.w3.org/2000/svg" xmlns:xlink="http://www.w3.org/1999/xlink">
    <!-- Generator: sketchtool 3.8.3 (29802) - http://www.bohemiancoding.com/sketch -->
    <title>D3F0AAE1-713F-4867-99D2-8CDC34106F96</title>
    <desc>Created with sketchtool.</desc>
    <defs></defs>
    <g id="Style-guide" stroke="none" stroke-width="1" fill="none" fill-rule="evenodd">
        <g id="Icons" transform="translate(-1108.000000, -1538.000000)">
            <g id="logo_servicios_servicio-medico" transform="translate(1108.000000, 1538.000000)">
                <g id="Group">
                    <polygon id="Shape" fill="#004481" points="0 0 24 0 24 24 0 24"></polygon>
                    <path d="M19,3 L5,3 C3.9,3 3.01,3.9 3.01,5 L3,19 C3,20.1 3.9,21 5,21 L19,21 C20.1,21 21,20.1 21,19 L21,5 C21,3.9 20.1,3 19,3 L19,3 Z M18,14 L14,14 L14,18 L10,18 L10,14 L6,14 L6,10 L10,10 L10,6 L14,6 L14,10 L18,10 L18,14 L18,14 Z" id="Shape" fill="#FFFFFF"></path>
                </g>
            </g>
        </g>
    </g>
</svg>