<?xml version="1.0" encoding="UTF-8" standalone="no"?>
<svg width="24px" height="24px" viewBox="0 0 24 24" version="1.1" xmlns="http://www.w3.org/2000/svg" xmlns:xlink="http://www.w3.org/1999/xlink">
    <!-- Generator: sketchtool 3.8.3 (29802) - http://www.bohemiancoding.com/sketch -->
    <title>1C6515A6-BAF5-4F40-B1EB-40483CE8A887</title>
    <desc>Created with sketchtool.</desc>
    <defs></defs>
    <g id="Style-guide" stroke="none" stroke-width="1" fill="none" fill-rule="evenodd">
        <g id="Icons" transform="translate(-68.000000, -1400.000000)">
            <g id="logo_instalaciones_duchas" transform="translate(80.000000, 1412.000000) rotate(90.000000) translate(-80.000000, -1412.000000) translate(68.000000, 1400.000000)">
                <g id="Group">
                    <polygon id="Shape" fill="#004481" points="0 0 24 0 24 24 0 24"></polygon>
                    <path d="M3,9 L1,9 L1,15 L3,15 L3,21 L5,21 L5,3 L3,3 L3,9 Z M8.5,17.5 C9.33,17.5 10,16.83 10,16 C10,15.17 9.33,14.5 8.5,14.5 C7.67,14.5 7,15.17 7,16 C7,16.83 7.67,17.5 8.5,17.5 Z M12.5,13 C13.05,13 13.5,12.55 13.5,12 C13.5,11.45 13.05,11 12.5,11 C11.95,11 11.5,11.45 11.5,12 C11.5,12.55 11.95,13 12.5,13 Z M12.5,9 C13.05,9 13.5,8.55 13.5,8 C13.5,7.45 13.05,7 12.5,7 C11.95,7 11.5,7.45 11.5,8 C11.5,8.55 11.95,9 12.5,9 Z M8.5,9.5 C9.33,9.5 10,8.83 10,8 C10,7.17 9.33,6.5 8.5,6.5 C7.67,6.5 7,7.17 7,8 C7,8.83 7.67,9.5 8.5,9.5 Z M8.5,13.5 C9.33,13.5 10,12.83 10,12 C10,11.17 9.33,10.5 8.5,10.5 C7.67,10.5 7,11.17 7,12 C7,12.83 7.67,13.5 8.5,13.5 Z M12.5,17 C13.05,17 13.5,16.55 13.5,16 C13.5,15.45 13.05,15 12.5,15 C11.95,15 11.5,15.45 11.5,16 C11.5,16.55 11.95,17 12.5,17 Z M20.5,16.5 C20.78,16.5 21,16.28 21,16 C21,15.72 20.78,15.5 20.5,15.5 C20.22,15.5 20,15.72 20,16 C20,16.28 20.22,16.5 20.5,16.5 Z M20.5,8.5 C20.78,8.5 21,8.28 21,8 C21,7.72 20.78,7.5 20.5,7.5 C20.22,7.5 20,7.72 20,8 C20,8.28 20.22,8.5 20.5,8.5 Z M20.5,12.5 C20.78,12.5 21,12.28 21,12 C21,11.72 20.78,11.5 20.5,11.5 C20.22,11.5 20,11.72 20,12 C20,12.28 20.22,12.5 20.5,12.5 Z M16.5,9 C17.05,9 17.5,8.55 17.5,8 C17.5,7.45 17.05,7 16.5,7 C15.95,7 15.5,7.45 15.5,8 C15.5,8.55 15.95,9 16.5,9 Z M16.5,13 C17.05,13 17.5,12.55 17.5,12 C17.5,11.45 17.05,11 16.5,11 C15.95,11 15.5,11.45 15.5,12 C15.5,12.55 15.95,13 16.5,13 Z M16.5,17 C17.05,17 17.5,16.55 17.5,16 C17.5,15.45 17.05,15 16.5,15 C15.95,15 15.5,15.45 15.5,16 C15.5,16.55 15.95,17 16.5,17 Z" id="Combined-Shape" fill="#FFFFFF"></path>
                </g>
            </g>
        </g>
    </g>
</svg>