<?xml version="1.0" encoding="UTF-8" standalone="no"?>
<svg width="24px" height="24px" viewBox="0 0 24 24" version="1.1" xmlns="http://www.w3.org/2000/svg" xmlns:xlink="http://www.w3.org/1999/xlink">
    <!-- Generator: sketchtool 3.8.3 (29802) - http://www.bohemiancoding.com/sketch -->
    <title>72F5EAC4-2369-49C6-A376-C8756155A48A</title>
    <desc>Created with sketchtool.</desc>
    <defs></defs>
    <g id="Style-guide" stroke="none" stroke-width="1" fill="none" fill-rule="evenodd">
        <g id="Icons" transform="translate(-868.000000, -1400.000000)">
            <g id="logo_instalaciones-deportivas_futbol" transform="translate(868.000000, 1400.000000)">
                <g id="Group" transform="translate(12.000000, 12.000000) scale(-1, 1) translate(-12.000000, -12.000000) ">
                    <polygon id="Shape" fill="#004481" points="0 0 24 0 24 24 0 24"></polygon>
                    <path d="M13.49,5.48 C14.59,5.48 15.49,4.58 15.49,3.48 C15.49,2.38 14.59,1.48 13.49,1.48 C12.39,1.48 11.49,2.38 11.49,3.48 C11.49,4.58 12.39,5.48 13.49,5.48 L13.49,5.48 Z M19.49,22.48 C20.59,22.48 21.49,21.58 21.49,20.48 C21.49,19.38 20.59,18.48 19.49,18.48 C18.39,18.48 17.49,19.38 17.49,20.48 C17.49,21.58 18.39,22.48 19.49,22.48 L19.49,22.48 Z M9.89,19.38 L10.89,14.98 L12.99,16.98 L12.99,22.98 L14.99,22.98 L14.99,15.48 L12.89,13.48 L13.49,10.48 C14.79,11.98 16.79,12.98 18.99,12.98 L18.99,10.98 C17.09,10.98 15.49,9.98 14.69,8.58 L13.69,6.98 C13.29,6.38 12.69,5.98 11.99,5.98 C11.69,5.98 11.49,6.08 11.19,6.08 L5.99,8.28 L5.99,12.98 L7.99,12.98 L7.99,9.58 L9.79,8.88 L8.19,16.98 L3.29,15.98 L2.89,17.98 L9.89,19.38 L9.89,19.38 Z" id="Shape" fill="#FFFFFF"></path>
                </g>
            </g>
        </g>
    </g>
</svg>