<?xml version="1.0" encoding="UTF-8" standalone="no"?>
<svg width="48px" height="47px" viewBox="0 0 48 47" version="1.1" xmlns="http://www.w3.org/2000/svg" xmlns:xlink="http://www.w3.org/1999/xlink">
    <!-- Generator: sketchtool 3.8.3 (29802) - http://www.bohemiancoding.com/sketch -->
    <title>80D9FF29-9565-4E72-8791-B1DEC695ACFE</title>
    <desc>Created with sketchtool.</desc>
    <defs></defs>
    <g id="Style-guide" stroke="none" stroke-width="1" fill="none" fill-rule="evenodd">
        <g id="Icons" transform="translate(-135.000000, -746.000000)" fill="#000000">
            <path d="M164.4219,789.5532 C164.4219,791.2112 165.7639,792.5532 167.4219,792.5532 C169.0799,792.5532 170.4219,791.2112 170.4219,789.5532 C170.4219,787.8952 167.4219,783.5532 167.4219,783.5532 C167.4219,783.5532 164.4219,787.8952 164.4219,789.5532 M154.8662,777.8551 C154.8662,777.8551 154.0442,779.0461 153.2612,780.4181 C152.6902,781.4171 152.1472,782.5051 151.9492,783.3081 C151.9002,783.5091 151.8662,783.6971 151.8662,783.8551 C151.8662,785.5131 153.2082,786.8551 154.8662,786.8551 C156.2562,786.8551 157.4132,785.9071 157.7542,784.6251 C157.8202,784.3781 157.8662,784.1231 157.8662,783.8551 C157.8662,783.1521 157.3262,781.9681 156.7052,780.8361 C155.8612,779.2971 154.8662,777.8551 154.8662,777.8551 M178.6465,762.1679 C176.9145,760.9059 174.8025,760.1409 172.5005,760.1409 C172.0015,760.1409 171.5095,760.1759 171.0195,760.2459 C168.2185,756.4299 163.7985,754.1409 159.0005,754.1409 C155.8005,754.1409 152.7835,755.1759 150.2865,756.9849 C150.9885,754.8419 152.9805,753.2829 155.3555,753.2829 C156.0815,753.2829 156.7675,753.4299 157.3945,753.6889 C158.8185,750.9179 161.6715,748.9999 165.0005,748.9999 C168.3275,748.9999 171.1835,750.9179 172.6015,753.6889 C173.2325,753.4299 173.9215,753.2829 174.6405,753.2829 C177.6015,753.2829 180.0005,755.6819 180.0005,758.6409 C180.0005,759.9979 179.4785,761.2229 178.6465,762.1679 M183.0005,758.6409 C183.0005,754.0309 179.2505,750.2829 174.6405,750.2829 C174.4165,750.2829 174.1935,750.2929 173.9705,750.3109 C171.8025,747.6049 168.5355,745.9999 165.0005,745.9999 C161.4665,745.9999 158.1975,747.6049 156.0295,750.3109 C155.8065,750.2929 155.5815,750.2829 155.3555,750.2829 C150.7505,750.2829 147.0005,754.0309 147.0005,758.6409 C147.0005,759.1229 147.0645,759.5879 147.1405,760.0509 C147.0895,760.1169 147.0295,760.1779 146.9805,760.2459 C146.4905,760.1759 145.9975,760.1409 145.5005,760.1409 C139.7105,760.1409 135.0005,764.8519 135.0005,770.6409 C135.0005,776.4299 139.7105,781.1409 145.5005,781.1409 C146.7835,781.1409 148.0395,780.9059 149.2225,780.4529 C149.2285,780.4579 149.2345,780.4619 149.2395,780.4659 C149.5025,779.8199 149.8715,779.1009 150.2615,778.4179 C150.4015,778.1719 150.5425,777.9359 150.6805,777.7079 C150.3735,777.4089 150.0805,777.0959 149.8065,776.7659 C148.5875,777.6249 147.1055,778.1409 145.5005,778.1409 C141.3575,778.1409 138.0005,774.7829 138.0005,770.6409 C138.0005,766.4979 141.3575,763.1409 145.5005,763.1409 C146.5135,763.1409 147.4745,763.3459 148.3535,763.7089 C148.4065,763.6099 148.4705,763.5219 148.5235,763.4259 C149.0505,762.4629 149.7015,761.5799 150.4605,760.7969 C152.6255,758.5549 155.6325,757.1409 159.0005,757.1409 C163.6605,757.1409 167.6565,759.8279 169.6445,763.7089 C170.1735,763.4919 170.7385,763.3519 171.3205,763.2579 L172.5005,763.1409 C173.6565,763.1409 174.7385,763.4259 175.7165,763.8909 C176.7775,764.3989 177.6875,765.1449 178.4025,766.0639 C179.3865,767.3319 180.0005,768.9099 180.0005,770.6409 C180.0005,774.7829 176.6425,778.1409 172.5005,778.1409 C170.8945,778.1409 169.4145,777.6249 168.1935,776.7659 C166.3935,778.9349 163.8665,780.4639 160.9765,780.9549 C161.3445,782.2669 161.5805,783.4539 161.6635,783.8979 C164.2875,783.4159 166.7395,782.2299 168.7775,780.4529 C169.9605,780.9059 171.2165,781.1409 172.5005,781.1409 C178.2895,781.1409 183.0005,776.4299 183.0005,770.6409 C183.0005,768.2329 182.1525,766.0389 180.7815,764.2659 C182.1485,762.7749 183.0005,760.8129 183.0005,758.6409" id="muy-nuboso-con-lluvia-escasa"></path>
        </g>
    </g>
</svg>