<?xml version="1.0" encoding="UTF-8" standalone="no"?>
<svg width="48px" height="48px" viewBox="0 0 48 48" version="1.1" xmlns="http://www.w3.org/2000/svg" xmlns:xlink="http://www.w3.org/1999/xlink">
    <!-- Generator: sketchtool 3.8.3 (29802) - http://www.bohemiancoding.com/sketch -->
    <title>A8884BB0-02B2-4760-96D9-C743A2AC0286</title>
    <desc>Created with sketchtool.</desc>
    <defs></defs>
    <g id="Style-guide" stroke="none" stroke-width="1" fill="none" fill-rule="evenodd">
        <g id="Icons" transform="translate(-856.000000, -885.000000)" fill="#000000">
            <path d="M875.5003,920.8076 L878.5003,923.8076 L875.5003,932.8076 L884.5003,923.8076 L881.4993,920.8076 L884.5003,911.8076 L875.5003,920.8076 Z M887.0669,929.8073 C887.0669,931.4653 888.4089,932.8073 890.0669,932.8073 C891.7249,932.8073 893.0669,931.4653 893.0669,929.8073 C893.0669,928.1493 890.0669,923.8073 890.0669,923.8073 C890.0669,923.8073 887.0669,928.1493 887.0669,929.8073 M899.6465,901.1679 C897.9145,899.9059 895.8025,899.1409 893.5005,899.1409 C893.0025,899.1409 892.5095,899.1759 892.0195,899.2459 C889.2185,895.4299 884.7985,893.1409 880.0005,893.1409 C876.8005,893.1409 873.7835,894.1759 871.2875,895.9849 C871.9885,893.8419 873.9805,892.2829 876.3555,892.2829 C877.0825,892.2829 877.7675,892.4299 878.3945,892.6889 C879.8185,889.9179 882.6725,887.9999 886.0005,887.9999 C889.3285,887.9999 892.1835,889.9179 893.6015,892.6889 C894.2325,892.4299 894.9225,892.2829 895.6405,892.2829 C898.6015,892.2829 901.0005,894.6819 901.0005,897.6409 C901.0005,898.9979 900.4785,900.2229 899.6465,901.1679 M865.845422,920.120698 C860.359396,919.781365 856.0005,915.209953 856.0005,909.6409 C856.0005,903.8519 860.7105,899.1409 866.5005,899.1409 C866.9985,899.1409 867.4905,899.1759 867.9805,899.2459 C868.0295,899.1779 868.0895,899.1169 868.1405,899.0509 C868.0645,898.5879 868.0005,898.1229 868.0005,897.6409 C868.0005,893.0309 871.7505,889.2829 876.3555,889.2829 C876.5825,889.2829 876.8065,889.2929 877.0295,889.3109 C879.1975,886.6049 882.4665,884.9999 886.0005,884.9999 C889.5355,884.9999 892.8025,886.6049 894.9705,889.3109 C895.1935,889.2929 895.4165,889.2829 895.6405,889.2829 C900.2505,889.2829 904.0005,893.0309 904.0005,897.6409 C904.0005,899.8129 903.1485,901.7749 901.7815,903.2659 C903.1525,905.0389 904.0005,907.2329 904.0005,909.6409 C904.0005,915.4299 899.2895,920.1409 893.5005,920.1409 C892.2165,920.1409 890.9605,919.9059 889.7775,919.4529 C888.9995,920.1309 888.1485,920.6969 887.2625,921.1949 L885.0595,918.9919 C886.6605,918.2279 888.0685,917.1209 889.1935,915.7659 C890.4145,916.6249 891.8945,917.1409 893.5005,917.1409 C897.6425,917.1409 901.0005,913.7829 901.0005,909.6409 C901.0005,907.9099 900.3865,906.3319 899.4025,905.0639 C898.6875,904.1449 897.7775,903.3989 896.7165,902.8909 C895.7385,902.4259 894.6565,902.1409 893.5005,902.1409 L892.3205,902.2579 C891.7385,902.3519 891.1735,902.4919 890.6445,902.7089 C888.6565,898.8279 884.6605,896.1409 880.0005,896.1409 C876.6325,896.1409 873.6255,897.5549 871.4605,899.7969 C870.7015,900.5799 870.0505,901.4629 869.5235,902.4259 C869.4705,902.5219 869.4065,902.6099 869.3535,902.7089 C868.4745,902.3459 867.5135,902.1409 866.5005,902.1409 C862.3575,902.1409 859.0005,905.4979 859.0005,909.6409 C859.0005,913.7829 862.3575,917.1409 866.5005,917.1409 C868.1055,917.1409 869.5875,916.6249 870.8065,915.7659 C871.5055,916.6079 872.3225,917.3409 873.2205,917.9669 L871.0035,920.0759 C870.7395,919.8749 870.4745,919.6729 870.2225,919.4529 C869.247928,919.826088 868.223813,920.051326 867.175873,920.119109 C867.520818,920.660616 867.95229,921.364628 868.3502,922.0902 C868.9712,923.2222 869.5112,924.4062 869.5112,925.1092 C869.5112,925.3772 869.4652,925.6322 869.3992,925.8792 C869.0582,927.1612 867.9012,928.1092 866.5112,928.1092 C864.8532,928.1092 863.5112,926.7672 863.5112,925.1092 C863.5112,924.9512 863.5452,924.7632 863.5942,924.5622 C863.7922,923.7592 864.3352,922.6712 864.9062,921.6722 C865.233408,921.098855 865.567426,920.557119 865.845422,920.120698 Z" id="muy-nuboso-con-tormenta"></path>
        </g>
    </g>
</svg>