<?xml version="1.0" encoding="UTF-8" standalone="no"?>
<svg width="48px" height="39px" viewBox="0 0 48 39" version="1.1" xmlns="http://www.w3.org/2000/svg" xmlns:xlink="http://www.w3.org/1999/xlink">
    <!-- Generator: sketchtool 3.8.3 (29802) - http://www.bohemiancoding.com/sketch -->
    <title>75A98403-3702-4F05-BE41-1AFF9C7EA616</title>
    <desc>Created with sketchtool.</desc>
    <defs></defs>
    <g id="Style-guide" stroke="none" stroke-width="1" fill="none" fill-rule="evenodd">
        <g id="Icons" transform="translate(-696.000000, -609.000000)" fill="#000000">
            <path d="M739.646,625.168 C737.914,623.906 735.802,623.141 733.5,623.141 C733.002,623.141 732.509,623.176 732.019,623.246 C729.218,619.43 724.798,617.141 720,617.141 C716.8,617.141 713.783,618.176 711.287,619.984 C711.988,617.842 713.98,616.283 716.355,616.283 C717.082,616.283 717.767,616.43 718.394,616.689 C719.818,613.918 722.671,612 726,612 C729.328,612 732.183,613.918 733.601,616.689 C734.232,616.43 734.921,616.283 735.64,616.283 C738.601,616.283 741,618.682 741,621.641 C741,622.998 740.478,624.223 739.646,625.168 M733.5,641.141 C731.894,641.141 730.414,640.625 729.193,639.766 C726.992,642.418 723.714,644.141 720,644.141 C716.285,644.141 713.007,642.418 710.806,639.766 C709.587,640.625 708.105,641.141 706.5,641.141 C702.357,641.141 699,637.783 699,633.641 C699,629.498 702.357,626.141 706.5,626.141 C707.513,626.141 708.474,626.346 709.353,626.709 C709.406,626.609 709.47,626.522 709.523,626.426 C710.05,625.463 710.701,624.58 711.46,623.797 C713.625,621.555 716.632,620.141 720,620.141 C724.66,620.141 728.656,622.828 730.644,626.709 C731.173,626.492 731.738,626.352 732.32,626.258 L733.5,626.141 C734.656,626.141 735.738,626.426 736.716,626.891 C737.777,627.398 738.687,628.145 739.402,629.064 C740.386,630.332 741,631.91 741,633.641 C741,637.783 737.642,641.141 733.5,641.141 M744,621.641 C744,617.031 740.25,613.283 735.64,613.283 C735.416,613.283 735.193,613.293 734.97,613.311 C732.802,610.605 729.535,609 726,609 C722.466,609 719.197,610.605 717.029,613.311 C716.806,613.293 716.582,613.283 716.355,613.283 C711.75,613.283 708,617.031 708,621.641 C708,622.123 708.064,622.588 708.14,623.051 C708.089,623.117 708.029,623.178 707.98,623.246 C707.49,623.176 706.998,623.141 706.5,623.141 C700.71,623.141 696,627.852 696,633.641 C696,639.43 700.71,644.141 706.5,644.141 C707.783,644.141 709.039,643.906 710.222,643.453 C712.937,645.82 716.39,647.141 720,647.141 C723.613,647.141 727.062,645.82 729.777,643.453 C730.96,643.906 732.216,644.141 733.5,644.141 C739.289,644.141 744,639.43 744,633.641 C744,631.232 743.152,629.039 741.781,627.266 C743.148,625.775 744,623.813 744,621.641" id="muy-nuboso"></path>
        </g>
    </g>
</svg>