<?xml version="1.0" encoding="UTF-8" standalone="no"?>
<svg width="48px" height="43px" viewBox="0 0 48 43" version="1.1" xmlns="http://www.w3.org/2000/svg" xmlns:xlink="http://www.w3.org/1999/xlink">
    <!-- Generator: sketchtool 3.8.3 (29802) - http://www.bohemiancoding.com/sketch -->
    <title>5520FA35-9C04-4EFE-AED7-E5BA477A1C22</title>
    <desc>Created with sketchtool.</desc>
    <defs></defs>
    <g id="Style-guide" stroke="none" stroke-width="1" fill="none" fill-rule="evenodd">
        <g id="Icons" transform="translate(-376.000000, -887.000000)" fill="#000000">
            <path d="M399.6041,923.1538 C398.6901,923.1538 397.9461,922.4098 397.9461,921.4958 C397.9461,920.5818 398.6901,919.8408 399.6041,919.8408 C400.5181,919.8408 401.2601,920.5818 401.2601,921.4958 C401.2601,922.4098 400.5181,923.1538 399.6041,923.1538 M406.1701,923.3708 L404.4831,922.3978 C404.5341,922.1048 404.5731,921.8058 404.5731,921.4958 C404.5731,921.1848 404.5341,920.8858 404.4791,920.5928 L406.1701,919.6188 C406.9591,919.1578 407.2291,918.1438 406.7761,917.3588 C406.3191,916.5638 405.3071,916.2928 404.5141,916.7498 L402.8091,917.7338 C402.3521,917.3448 401.8361,917.0408 401.2621,916.8338 L401.2621,914.8748 C401.2621,913.9588 400.5181,913.2158 399.6041,913.2158 C398.6901,913.2158 397.9481,913.9588 397.9481,914.8748 L397.9481,916.8318 C397.3731,917.0368 396.8561,917.3448 396.3991,917.7338 L394.6981,916.7498 C393.9031,916.2928 392.8891,916.5618 392.4321,917.3568 C391.9751,918.1458 392.2501,919.1618 393.0411,919.6188 L394.7251,920.5908 C394.6701,920.8858 394.6351,921.1848 394.6351,921.4958 C394.6351,921.8058 394.6701,922.1048 394.7251,922.3978 L393.0411,923.3708 C392.2481,923.8278 391.9751,924.8468 392.4321,925.6378 C392.8891,926.4288 393.9031,926.6988 394.6941,926.2418 L396.3971,925.2628 C396.8541,925.6498 397.3721,925.9548 397.9481,926.1598 L397.9481,928.1228 C397.9481,929.0368 398.6901,929.7748 399.6041,929.7748 C400.5181,929.7748 401.2621,929.0368 401.2621,928.1228 L401.2621,926.1598 C401.8361,925.9548 402.3581,925.6498 402.8111,925.2578 L404.5141,926.2418 C405.3071,926.6988 406.3191,926.4288 406.7761,925.6378 C407.2331,924.8468 406.9631,923.8338 406.1701,923.3708 M384.9076,922.1909 C384.5226,922.5759 383.8996,922.5759 383.5126,922.1909 C383.1326,921.8079 383.1326,921.1809 383.5126,920.7999 C383.8996,920.4179 384.5226,920.4179 384.9076,920.7999 C385.2926,921.1829 385.2886,921.8079 384.9076,922.1909 M387.7556,919.5229 L386.6416,919.8219 C386.5386,919.6809 386.4316,919.5389 386.3006,919.4059 C386.1676,919.2769 386.0266,919.1659 385.8806,919.0659 L386.1786,917.9469 C386.3196,917.4209 386.0076,916.8799 385.4876,916.7419 C384.9606,916.6009 384.4216,916.9139 384.2806,917.4369 L383.9756,918.5679 C383.6186,918.5969 383.2766,918.6849 382.9506,918.8389 L382.1246,918.0169 C381.7376,917.6299 381.1166,917.6319 380.7336,918.0169 C380.3486,918.4019 380.3486,919.0249 380.7336,919.4099 L381.5566,920.2319 C381.4016,920.5599 381.3116,920.9059 381.2846,921.2609 L380.1556,921.5619 C379.6286,921.7069 379.3156,922.2419 379.4566,922.7689 C379.5986,923.2929 380.1376,923.6009 380.6656,923.4639 L381.7786,923.1619 C381.8786,923.3119 381.9896,923.4529 382.1246,923.5839 C382.2536,923.7119 382.3936,923.8279 382.5406,923.9229 L382.2416,925.0389 C382.1006,925.5659 382.4136,926.1089 382.9366,926.2499 C383.4646,926.3899 383.9996,926.0779 384.1406,925.5519 L384.4446,924.4269 C384.8026,924.3979 385.1476,924.3079 385.4756,924.1519 L386.3006,924.9759 C386.6826,925.3629 387.3036,925.3549 387.6906,924.9719 C388.0716,924.5909 388.0776,923.9679 387.6906,923.5839 L386.8646,922.7569 C387.0226,922.4329 387.1166,922.0839 387.1406,921.7259 L388.2706,921.4269 C388.7926,921.2849 389.1046,920.7479 388.9646,920.2199 C388.8236,919.6989 388.2846,919.3859 387.7556,919.5229 M415.6967,922.1899 C415.3097,922.5769 414.6867,922.5749 414.3017,922.1899 C413.9217,921.8089 413.9177,921.1839 414.3017,920.7969 C414.6867,920.4149 415.3117,920.4149 415.6967,920.7969 C416.0777,921.1819 416.0777,921.8089 415.6967,922.1899 M419.0577,921.5629 L417.9257,921.2619 C417.8977,920.9029 417.8117,920.5609 417.6537,920.2329 L418.4757,919.4109 C418.8627,919.0239 418.8607,918.3989 418.4757,918.0179 C418.0927,917.6329 417.4717,917.6309 417.0857,918.0179 L416.2607,918.8379 C415.9367,918.6859 415.5917,918.5979 415.2337,918.5689 L414.9327,917.4379 C414.7927,916.9149 414.2537,916.5999 413.7257,916.7409 C413.2007,916.8829 412.8937,917.4219 413.0307,917.9479 L413.3317,919.0629 C413.1827,919.1649 413.0427,919.2779 412.9097,919.4069 C412.7807,919.5399 412.6717,919.6799 412.5697,919.8249 L411.4547,919.5239 C410.9287,919.3829 410.3857,919.6999 410.2457,920.2209 C410.1047,920.7489 410.4217,921.2859 410.9407,921.4279 L412.0657,921.7309 C412.0967,922.0849 412.1867,922.4299 412.3447,922.7579 L411.5187,923.5849 C411.1357,923.9689 411.1377,924.5899 411.5227,924.9729 C411.9057,925.3559 412.5267,925.3599 412.9097,924.9769 L413.7377,924.1489 C414.0617,924.3089 414.4097,924.3989 414.7687,924.4259 L415.0657,925.5529 C415.2107,926.0789 415.7457,926.3909 416.2727,926.2509 C416.7967,926.1099 417.1127,925.5709 416.9717,925.0399 L416.6717,923.9239 C416.8117,923.8249 416.9567,923.7129 417.0897,923.5849 C417.2177,923.4539 417.3277,923.3089 417.4287,923.1649 L418.5467,923.4649 C419.0717,923.6059 419.6127,923.2919 419.7517,922.7699 C419.8917,922.2469 419.5817,921.7079 419.0577,921.5629 M419.646,903.168 C417.914,901.906 415.802,901.141 413.5,901.141 C413.001,901.141 412.509,901.176 412.019,901.246 C409.218,897.43 404.798,895.141 400,895.141 C396.8,895.141 393.783,896.176 391.287,897.984 C391.988,895.842 393.98,894.283 396.355,894.283 C397.082,894.283 397.767,894.43 398.394,894.689 C399.818,891.918 402.671,890 406,890 C409.328,890 412.183,891.918 413.601,894.689 C414.232,894.43 414.921,894.283 415.64,894.283 C418.601,894.283 421,896.682 421,899.641 C421,900.998 420.478,902.223 419.646,903.168 M424,899.641 C424,895.031 420.25,891.283 415.64,891.283 C415.416,891.283 415.193,891.293 414.97,891.311 C412.802,888.605 409.535,887 406,887 C402.466,887 399.197,888.605 397.029,891.311 C396.806,891.293 396.582,891.283 396.355,891.283 C391.75,891.283 388,895.031 388,899.641 C388,900.123 388.064,900.588 388.14,901.051 C388.089,901.117 388.029,901.178 387.98,901.246 C387.49,901.176 386.998,901.141 386.5,901.141 C380.71,901.141 376,905.995 376,911.784 C376,913.324 376.341,914.246 376.94,916.246 L380.374,916.246 C379.511,914.246 379,913.394 379,911.784 C379,907.642 382.357,904.212 386.5,904.212 C387.513,904.212 388.474,904.382 389.353,904.745 C389.406,904.645 389.47,904.54 389.523,904.444 C390.05,903.481 390.701,902.589 391.46,901.806 C393.625,899.564 396.632,898.145 400,898.145 C404.66,898.145 408.656,900.83 410.644,904.711 C411.173,904.495 411.738,904.353 412.32,904.259 L413.5,904.141 C414.656,904.141 415.738,904.426 416.716,904.891 C417.777,905.399 418.687,906.145 419.402,907.065 C420.386,908.332 421,910.054 421,911.784 C421,913.394 420.488,914.246 419.625,916.246 L423.059,916.246 C423.658,914.246 424,913.324 424,911.784 C424,909.376 423.152,907.111 421.781,905.337 C423.148,903.847 424,901.813 424,899.641" id="muy-nuboso-con-nieve"></path>
        </g>
    </g>
</svg>