<?xml version="1.0" encoding="UTF-8" standalone="no"?>
<svg width="48px" height="39px" viewBox="0 0 48 39" version="1.1" xmlns="http://www.w3.org/2000/svg" xmlns:xlink="http://www.w3.org/1999/xlink">
    <!-- Generator: sketchtool 3.8.3 (29802) - http://www.bohemiancoding.com/sketch -->
    <title>0B67DFB8-A6BD-4880-978B-5A0288FD6892</title>
    <desc>Created with sketchtool.</desc>
    <defs></defs>
    <g id="Style-guide" stroke="none" stroke-width="1" fill="none" fill-rule="evenodd">
        <g id="Icons" transform="translate(-1096.000000, -750.000000)" fill="#000000">
            <path d="M1120.1376,781.9737 C1119.2236,781.9737 1118.4796,781.2297 1118.4796,780.3157 C1118.4796,779.4017 1119.2236,778.6607 1120.1376,778.6607 C1121.0516,778.6607 1121.7936,779.4017 1121.7936,780.3157 C1121.7936,781.2297 1121.0516,781.9737 1120.1376,781.9737 M1126.7036,782.1907 L1125.0166,781.2177 C1125.0676,780.9247 1125.1066,780.6257 1125.1066,780.3157 C1125.1066,780.0047 1125.0676,779.7057 1125.0126,779.4127 L1126.7036,778.4387 C1127.4926,777.9777 1127.7626,776.9637 1127.3096,776.1787 C1126.8526,775.3837 1125.8406,775.1127 1125.0476,775.5697 L1123.3426,776.5537 C1122.8856,776.1647 1122.3696,775.8607 1121.7956,775.6537 L1121.7956,773.6947 C1121.7956,772.7787 1121.0516,772.0357 1120.1376,772.0357 C1119.2236,772.0357 1118.4816,772.7787 1118.4816,773.6947 L1118.4816,775.6517 C1117.9066,775.8567 1117.3896,776.1647 1116.9326,776.5537 L1115.2316,775.5697 C1114.4366,775.1127 1113.4226,775.3817 1112.9656,776.1767 C1112.5086,776.9657 1112.7836,777.9817 1113.5746,778.4387 L1115.2586,779.4107 C1115.2036,779.7057 1115.1686,780.0047 1115.1686,780.3157 C1115.1686,780.6257 1115.2036,780.9247 1115.2586,781.2177 L1113.5746,782.1907 C1112.7816,782.6477 1112.5086,783.6667 1112.9656,784.4577 C1113.4226,785.2487 1114.4366,785.5187 1115.2276,785.0617 L1116.9306,784.0827 C1117.3876,784.4697 1117.9056,784.7747 1118.4816,784.9797 L1118.4816,786.9427 C1118.4816,787.8567 1119.2236,788.5947 1120.1376,788.5947 C1121.0516,788.5947 1121.7956,787.8567 1121.7956,786.9427 L1121.7956,784.9797 C1122.3696,784.7747 1122.8916,784.4697 1123.3446,784.0777 L1125.0476,785.0617 C1125.8406,785.5187 1126.8526,785.2487 1127.3096,784.4577 C1127.7666,783.6667 1127.4966,782.6537 1126.7036,782.1907 M1139.6484,765.9354 C1137.9184,764.6784 1135.7974,763.9284 1133.5004,763.9284 C1133.0024,763.9284 1132.5094,763.9634 1132.0194,764.0344 C1129.2184,760.2174 1124.7984,757.9284 1120.0004,757.9284 C1116.7504,757.9284 1113.6884,758.9984 1111.1714,760.8614 C1111.9084,758.7844 1113.8604,757.2834 1116.1894,757.2834 C1116.9154,757.2834 1117.6014,757.4294 1118.2284,757.6894 C1119.6514,754.9184 1122.5054,753.0004 1125.8334,753.0004 C1129.1614,753.0004 1132.0174,754.9184 1133.4354,757.6894 C1134.0654,757.4294 1134.7554,757.2834 1135.4744,757.2834 C1138.4354,757.2834 1140.8334,759.6814 1140.8334,762.6404 C1140.8334,763.8944 1140.3734,765.0244 1139.6484,765.9354 M1141.8074,768.0324 C1143.0574,766.5724 1143.8334,764.7044 1143.8334,762.6404 C1143.8334,758.0314 1140.0834,754.2834 1135.4744,754.2834 C1135.2494,754.2834 1135.0264,754.2934 1134.8044,754.3104 C1132.6364,751.6054 1129.3684,750.0004 1125.8334,750.0004 C1122.3004,750.0004 1119.0304,751.6054 1116.8624,754.3104 C1116.6404,754.2934 1116.4154,754.2834 1116.1894,754.2834 C1111.5834,754.2834 1107.8334,758.0314 1107.8334,762.6404 C1107.8334,763.1174 1107.8974,763.5764 1107.9714,764.0334 C1107.4844,763.9634 1106.9954,763.9284 1106.5004,763.9284 C1100.7104,763.9284 1096.0004,768.6394 1096.0004,774.4284 C1096.0004,780.2174 1100.7104,784.9284 1106.5004,784.9284 C1107.6074,784.9284 1108.6874,784.7214 1109.7284,784.3814 C1109.8284,783.9054 1109.9844,783.4404 1110.2324,783.0084 C1110.6014,782.3654 1111.1284,781.8544 1111.7324,781.4614 C1111.4214,781.1594 1111.0824,780.8894 1110.8064,780.5534 C1109.5874,781.4124 1108.1054,781.9284 1106.5004,781.9284 C1102.3574,781.9284 1099.0004,778.5714 1099.0004,774.4284 C1099.0004,770.2854 1102.3574,766.9284 1106.5004,766.9284 C1107.5134,766.9284 1108.4744,767.1354 1109.3534,767.4984 C1111.3434,763.6154 1115.3394,760.9284 1120.0004,760.9284 C1124.6604,760.9284 1128.6564,763.6154 1130.6444,767.4984 C1131.5254,767.1354 1132.4884,766.9284 1133.5004,766.9284 C1137.6424,766.9284 1141.0004,770.2854 1141.0004,774.4284 C1141.0004,778.5714 1137.6424,781.9284 1133.5004,781.9284 C1131.8944,781.9284 1130.4144,781.4124 1129.1934,780.5534 C1128.9184,780.8894 1128.5744,781.1594 1128.2654,781.4614 C1128.8714,781.8564 1129.4024,782.3694 1129.7694,783.0144 C1130.0234,783.4494 1130.1774,783.9124 1130.2774,784.3814 C1131.3144,784.7214 1132.3924,784.9284 1133.5004,784.9284 C1139.2894,784.9284 1144.0004,780.2174 1144.0004,774.4284 C1144.0004,772.0204 1143.1764,769.8054 1141.8074,768.0324" id="muy-nuboso-con-nieve-escasa"></path>
        </g>
    </g>
</svg>