<?xml version="1.0" encoding="UTF-8" standalone="no"?>
<svg width="49px" height="48px" viewBox="0 0 49 48" version="1.1" xmlns="http://www.w3.org/2000/svg" xmlns:xlink="http://www.w3.org/1999/xlink">
    <!-- Generator: sketchtool 3.8.3 (29802) - http://www.bohemiancoding.com/sketch -->
    <title>CD220BCF-9B0E-4A20-AE7D-43695B7B509A</title>
    <desc>Created with sketchtool.</desc>
    <defs></defs>
    <g id="Style-guide" stroke="none" stroke-width="1" fill="none" fill-rule="evenodd">
        <g id="Icons" transform="translate(-536.000000, -602.000000)" fill="#000000">
            <path d="M537.5,622.5666 L540.5,622.5666 C541.328,622.5666 542,621.8946 542,621.0666 C542,620.2386 541.328,619.5666 540.5,619.5666 L537.5,619.5666 C536.672,619.5666 536,620.2386 536,621.0666 C536,621.8946 536.672,622.5666 537.5,622.5666 M567.166,611.953 L569.287,609.832 C569.873,609.246 569.873,608.297 569.287,607.711 C568.701,607.125 567.752,607.125 567.166,607.711 L565.045,609.832 C564.459,610.418 564.459,611.367 565.045,611.953 C565.631,612.539 566.58,612.539 567.166,611.953 M555.0023,608 C555.8303,608 556.5023,607.328 556.5023,606.5 L556.5023,603.5 C556.5023,602.672 555.8303,602 555.0023,602 C554.1743,602 553.5023,602.672 553.5023,603.5 L553.5023,606.5 C553.5023,607.328 554.1743,608 555.0023,608 M543.832,611.953 C544.418,612.539 545.367,612.539 545.953,611.953 C546.539,611.367 546.539,610.418 545.953,609.832 L543.832,607.711 C543.246,607.125 542.297,607.125 541.711,607.711 C541.125,608.297 541.125,609.246 541.711,609.832 L543.832,611.953 Z M555.4998,613.9996 C558.0038,613.9996 560.2138,615.2296 561.5738,617.1146 C560.2528,617.7276 559.0368,618.5676 558.0058,619.6226 C555.4868,619.7396 553.2278,620.8616 551.6138,622.5926 C550.6148,623.2886 549.7038,624.1136 548.8908,625.0456 C548.3228,623.9896 547.9998,622.7826 547.9998,621.4996 C547.9998,617.3576 551.3578,613.9996 555.4998,613.9996 M573.6018,643.9166 C571.9968,643.9166 570.5158,643.4006 569.2948,642.5416 C567.0938,645.1936 563.8168,646.9166 560.1018,646.9166 C556.3868,646.9166 553.1098,645.1936 550.9088,642.5416 C549.6898,643.4006 548.2068,643.9166 546.6018,643.9166 C542.4588,643.9166 539.1018,640.5596 539.1018,636.4166 C539.1018,632.2736 542.4588,628.9166 546.6018,628.9166 C547.6158,628.9166 548.5768,629.1236 549.4558,629.4866 C551.4458,625.6046 555.4418,622.9166 560.1018,622.9166 C564.7618,622.9166 568.7578,625.6046 570.7468,629.4866 C571.6268,629.1236 572.5898,628.9166 573.6018,628.9166 C577.7448,628.9166 581.1018,632.2736 581.1018,636.4166 C581.1018,640.5596 577.7448,643.9166 573.6018,643.9166 M583.3688,632.5876 C583.8408,631.4706 584.1018,630.2446 584.1018,628.9586 C584.1018,623.9526 580.1468,619.8526 575.1998,619.6226 C572.9518,617.3216 569.8438,615.9876 566.5998,615.9876 C565.9018,615.9876 565.2118,616.0616 564.5338,616.1816 C562.7078,613.0856 559.3478,610.9996 555.4998,610.9996 C549.7108,610.9996 544.9998,615.7106 544.9998,621.4996 C544.9998,623.0906 545.3658,624.5946 546.0018,625.9466 C540.4928,626.2606 536.1018,630.8296 536.1018,636.4166 C536.1018,642.2056 540.8128,646.9166 546.6018,646.9166 C547.8848,646.9166 549.1408,646.6826 550.3248,646.2296 C553.0398,648.5966 556.4928,649.9166 560.1018,649.9166 C563.7148,649.9166 567.1648,648.5966 569.8788,646.2296 C571.0628,646.6826 572.3188,646.9166 573.6018,646.9166 C579.3908,646.9166 584.1018,642.2056 584.1018,636.4166 C584.1018,635.0646 583.8358,633.7746 583.3678,632.5866 C583.3678,632.5866 583.3678,632.5876 583.3688,632.5876" id="Nuboso"></path>
        </g>
    </g>
</svg>