<?xml version="1.0" encoding="UTF-8" standalone="no"?>
<svg width="48px" height="48px" viewBox="0 0 48 48" version="1.1" xmlns="http://www.w3.org/2000/svg" xmlns:xlink="http://www.w3.org/1999/xlink">
    <!-- Generator: sketchtool 3.8.3 (29802) - http://www.bohemiancoding.com/sketch -->
    <title>3CDD16FA-B809-4ED8-9F2A-767962263557</title>
    <desc>Created with sketchtool.</desc>
    <defs></defs>
    <g id="Style-guide" stroke="none" stroke-width="1" fill="none" fill-rule="evenodd">
        <g id="Icons" transform="translate(-776.000000, -885.000000)" fill="#000000">
            <path d="M795.5003,920.874452 L798.5003,923.874452 L795.5003,932.874452 L804.5003,923.874452 L801.5003,920.874452 L804.5003,911.874452 L795.5003,920.874452 Z M808.0777,929.666152 C808.0777,931.324152 809.4197,932.666152 811.0777,932.666152 C812.7357,932.666152 814.0777,931.324152 814.0777,929.666152 C814.0777,928.008152 811.0777,923.666152 811.0777,923.666152 C811.0777,923.666152 808.0777,928.008152 808.0777,929.666152 M785.9171,919.530952 C785.3461,920.529952 784.8031,921.617952 784.6061,922.420952 C784.5561,922.621952 784.5221,922.809952 784.5221,922.967952 C784.5221,924.625952 785.8641,925.967952 787.5221,925.967952 C788.9121,925.967952 790.0691,925.019952 790.4101,923.737952 C790.4761,923.490952 790.5221,923.235952 790.5221,922.967952 C790.5221,922.264952 789.9821,921.080952 789.3611,919.948952 C788.5171,918.409952 787.5221,916.967952 787.5221,916.967952 C787.5221,916.967952 786.7001,918.158952 785.9171,919.530952 M802.618,890.000452 C802.859,889.760452 803.115,889.535452 803.384,889.324452 C803.173,892.695452 804.388,896.015452 806.861,898.486452 C809.333,900.957452 812.654,902.174452 816.025,901.963452 C814.621,903.756452 812.643,904.833452 810.547,905.191452 C808.248,902.881452 805.266,901.366452 802.004,900.925452 L802.004,900.925452 C801.592,900.513452 801.144,900.144452 800.68,899.797452 L800.681,899.797452 C799.335,896.537452 799.972,892.646452 802.618,890.000452 M777.504,922.999452 L781.288,922.999452 C779.879,920.999452 779,919.562452 779,917.446452 C779,913.303452 782.358,909.862452 786.5,909.862452 C787.514,909.862452 788.475,910.028452 789.354,910.391452 C791.344,906.508452 795.34,903.800452 800,903.800452 C804.66,903.800452 808.657,906.477452 810.645,910.360452 C811.526,909.996452 812.489,909.784452 813.5,909.784452 C817.643,909.784452 821,913.306452 821,917.448452 C821,919.564452 820.121,920.999452 818.712,922.999452 L822.496,922.999452 C823.444,920.999452 824,919.416452 824,917.446452 C824,912.080452 819.951,907.565452 814.75,906.944452 C815.723,906.413452 816.644,905.714452 817.466,904.891452 C818.704,903.653452 819.65,902.122452 820.261,900.386452 C820.454,899.841452 820.318,899.223452 819.908,898.817452 C819.499,898.407452 818.892,898.263452 818.349,898.456452 C815.029,899.628452 811.439,898.827452 808.982,896.368452 C806.521,893.907452 805.72,890.316452 806.896,886.999452 C807.089,886.456452 806.95,885.850452 806.54,885.440452 C806.134,885.032452 805.529,884.893452 804.982,885.084452 C803.245,885.699452 801.736,886.643452 800.497,887.879452 C797.754,890.621452 796.628,894.370452 797.105,897.947452 L797.105,897.947452 C795.95,897.579452 794.737,897.381452 793.502,897.381452 C790.262,897.381452 787.157,898.715452 784.909,901.016452 C779.957,901.246452 776,905.346452 776,910.352452 C776,911.538452 776.231,912.670452 776.637,913.715452 L776.637,913.714452 C776.232,914.829452 776,916.193452 776,917.446452 C776,919.416452 776.556,920.999452 777.504,922.999452" id="nuboso-con-tormenta-noche"></path>
        </g>
    </g>
</svg>