<?xml version="1.0" encoding="UTF-8" standalone="no"?>
<svg width="48px" height="48px" viewBox="0 0 48 48" version="1.1" xmlns="http://www.w3.org/2000/svg" xmlns:xlink="http://www.w3.org/1999/xlink">
    <!-- Generator: sketchtool 3.8.3 (29802) - http://www.bohemiancoding.com/sketch -->
    <title>9A9C1F18-9F93-4EFC-87AA-CC2DEC10F4D1</title>
    <desc>Created with sketchtool.</desc>
    <defs></defs>
    <g id="Style-guide" stroke="none" stroke-width="1" fill="none" fill-rule="evenodd">
        <g id="Icons" transform="translate(-1176.000000, -884.000000)" fill="#000000">
            <path d="M1195.5,890 C1196.328,890 1197,889.328 1197,888.5 L1197,885.5 C1197,884.672 1196.328,884 1195.5,884 C1194.672,884 1194,884.672 1194,885.5 L1194,888.5 C1194,889.328 1194.672,890 1195.5,890 M1207.166,893.953 L1209.287,891.832 C1209.873,891.246 1209.873,890.297 1209.287,889.711 C1208.701,889.125 1207.752,889.125 1207.166,889.711 L1205.045,891.832 C1204.459,892.418 1204.459,893.367 1205.045,893.953 C1205.631,894.539 1206.58,894.539 1207.166,893.953 M1177.5,905 L1180.5,905 C1181.328,905 1182,904.328 1182,903.5 C1182,902.672 1181.328,902 1180.5,902 L1177.5,902 C1176.672,902 1176,902.672 1176,903.5 C1176,904.328 1176.672,905 1177.5,905 M1183.832,893.953 C1184.418,894.539 1185.367,894.539 1185.953,893.953 C1186.539,893.367 1186.539,892.418 1185.953,891.832 L1183.832,889.711 C1183.246,889.125 1182.297,889.125 1181.711,889.711 C1181.125,890.297 1181.125,891.246 1181.711,891.832 L1183.832,893.953 Z M1195.4576,919.875 L1198.4576,922.875 L1195.4576,931.875 L1204.4576,922.875 L1201.4576,919.875 L1204.4576,910.875 L1195.4576,919.875 Z M1208.035,928.6667 C1208.035,930.3247 1209.377,931.6667 1211.035,931.6667 C1212.693,931.6667 1214.035,930.3247 1214.035,928.6667 C1214.035,927.0087 1211.035,922.6667 1211.035,922.6667 C1211.035,922.6667 1208.035,927.0087 1208.035,928.6667 M1195.5,896 C1198.003,896 1200.214,897.23 1201.574,899.115 C1200.253,899.728 1199.036,900.568 1198.006,901.622 C1195.487,901.739 1193.228,902.862 1191.614,904.593 C1190.615,905.289 1189.704,906.113 1188.891,907.045 C1188.323,905.99 1188,904.783 1188,903.5 C1188,899.357 1191.357,896 1195.5,896 L1195.5,896 Z M1179.85,922 C1179.375,921 1179.102,919.749 1179.102,918.583 C1179.102,914.441 1182.459,911 1186.602,911 C1187.615,911 1188.576,911.165 1189.455,911.529 C1191.446,907.646 1195.442,904.937 1200.102,904.937 C1204.762,904.937 1208.758,907.615 1210.746,911.497 C1211.627,911.134 1212.59,910.922 1213.602,910.922 C1217.744,910.922 1221.102,914.443 1221.102,918.586 C1221.102,919.752 1220.828,921 1220.353,922 L1223.581,922 C1223.915,921 1223.918,919.718 1223.918,918.583 C1223.918,917.231 1224,915.858 1223,914.67 L1223,914.629 C1224,913.513 1223.918,912.265 1223.918,910.979 C1223.918,905.973 1220.055,901.863 1215.107,901.633 C1212.859,899.332 1209.798,897.993 1206.554,897.993 C1205.855,897.993 1205.189,898.064 1204.51,898.184 C1202.685,895.088 1199.336,893.001 1195.488,893.001 C1189.699,893.001 1184.994,897.712 1184.994,903.501 C1184.994,905.091 1185.363,906.595 1185.999,907.947 C1180.49,908.261 1176.1,912.997 1176.1,918.583 C1176.1,919.718 1176.288,921 1176.623,922 L1179.85,922 Z" id="nuboso-con-tormenta-y-lluvia-escasa"></path>
        </g>
    </g>
</svg>