<?xml version="1.0" encoding="UTF-8" standalone="no"?>
<svg width="48px" height="48px" viewBox="0 0 48 48" version="1.1" xmlns="http://www.w3.org/2000/svg" xmlns:xlink="http://www.w3.org/1999/xlink">
    <!-- Generator: sketchtool 3.8.3 (29802) - http://www.bohemiancoding.com/sketch -->
    <title>EA78E8A5-2525-4C78-9547-2DF8BF481058</title>
    <desc>Created with sketchtool.</desc>
    <defs></defs>
    <g id="Style-guide" stroke="none" stroke-width="1" fill="none" fill-rule="evenodd">
        <g id="Icons" transform="translate(-536.000000, -744.000000)" fill="#000000">
            <path d="M558.7325,785.737939 C556.6195,786.169939 554.4525,785.912939 552.6225,785.405939 C552.8715,786.387939 552.7125,787.621939 552.1255,788.370939 C554.1765,788.989939 556.1615,789.147939 558.2175,788.852939 C558.0795,788.498939 558.0815,787.923939 558.1205,787.461939 C558.1745,786.823939 558.6735,785.802939 558.7325,785.737939 M555.8643,780.035239 C555.9303,779.788239 555.9763,779.533239 555.9763,779.265239 C555.9763,778.562239 555.4363,777.378239 554.8153,776.246239 C553.9713,774.707239 552.9763,773.265239 552.9763,773.265239 C552.9763,773.265239 552.1553,774.456239 551.3713,775.828239 C550.8013,776.827239 550.2573,777.915239 550.0603,778.718239 C550.0103,778.919239 549.9763,779.107239 549.9763,779.265239 C549.9763,780.923239 551.3183,782.265239 552.9763,782.265239 C554.3663,782.265239 555.5233,781.317239 555.8643,780.035239 M561.5323,788.963439 C561.5323,790.621439 562.8743,791.963439 564.5323,791.963439 C566.1903,791.963439 567.5323,790.621439 567.5323,788.963439 C567.5323,787.305439 564.5323,782.963439 564.5323,782.963439 C564.5323,782.963439 561.5323,787.305439 561.5323,788.963439 M545.9767,780.265239 C545.9767,780.265239 545.1547,781.456239 544.3717,782.828239 C543.8007,783.827239 543.2577,784.915239 543.0597,785.718239 C543.0107,785.919239 542.9767,786.107239 542.9767,786.265239 C542.9767,787.923239 544.3187,789.265239 545.9767,789.265239 C547.3667,789.265239 548.5227,788.317239 548.8647,787.035239 C548.9307,786.788239 548.9767,786.533239 548.9767,786.265239 C548.9767,785.562239 548.4367,784.378239 547.8157,783.246239 C546.9717,781.707239 545.9767,780.265239 545.9767,780.265239 M570.545,764.192639 C568.281,761.912639 565.35,760.416639 562.143,759.950639 C561.63,759.904639 561.258,759.904639 561.258,759.904639 C561.117,759.841639 560.783,759.077639 560.679,758.797639 C560.68,758.797639 560.68,758.798639 560.68,758.798639 C559.335,755.538639 559.972,751.646639 562.618,749.000639 C562.858,748.760639 563.114,748.535639 563.383,748.324639 C563.172,751.695639 564.387,755.016639 566.86,757.486639 C569.333,759.957639 572.653,761.174639 576.024,760.963639 C574.621,762.757639 572.642,763.834639 570.545,764.192639 M574.75,765.861639 C575.722,765.330639 576.643,764.673639 577.465,763.850639 C578.704,762.611639 579.649,761.102639 580.26,759.365639 C580.454,758.820639 580.317,758.213639 579.907,757.807639 C579.499,757.397639 578.891,757.258639 578.348,757.451639 C575.028,758.623639 571.438,757.824639 568.981,755.365639 C566.52,752.904639 565.719,749.315639 566.895,745.998639 C567.088,745.455639 566.95,744.850639 566.54,744.440639 C566.133,744.031639 565.528,743.893639 564.981,744.084639 C563.245,744.699639 561.735,745.643639 560.497,746.879639 C557.753,749.621639 556.628,753.370639 557.104,756.947639 L557.105,756.947639 C555.95,756.580639 554.736,756.381639 553.502,756.381639 C550.261,756.381639 547.156,757.715639 544.908,760.016639 C539.957,760.247639 536,764.346639 536,769.352639 C536,770.539639 536.231,771.670639 536.636,772.715639 C536.636,772.715639 536.636,772.715639 536.636,772.714639 C536.232,773.830639 536,775.026639 536,776.279639 C536,779.659639 537.617,782.652639 540.107,784.570639 C540.329,783.783639 540.833,782.770639 541.372,781.828639 C541.383,781.808639 541.394,781.789639 541.406,781.769639 C539.928,780.402639 539,778.452639 539,776.279639 C539,772.137639 542.357,768.779639 546.5,768.779639 C547.513,768.779639 548.474,768.986639 549.353,769.350639 C551.343,765.467639 555.339,762.779639 560,762.779639 C564.66,762.779639 568.656,765.467639 570.644,769.350639 C571.525,768.986639 572.488,768.779639 573.5,768.779639 C577.642,768.779639 581,772.137639 581,776.279639 C581,780.422639 577.642,783.779639 573.5,783.779639 C571.894,783.779639 570.018,783.150639 568.797,782.290639 C568.787,782.302639 570.757,786.409639 570.757,786.409639 C571.646,786.652639 572.565,786.779639 573.5,786.779639 C579.289,786.779639 584,782.069639 584,776.279639 C584,770.914639 579.951,766.482639 574.75,765.861639" id="nuboso-con-lluvia-noche"></path>
        </g>
    </g>
</svg>