<?xml version="1.0" encoding="UTF-8" standalone="no"?>
<svg width="49px" height="48px" viewBox="0 0 49 48" version="1.1" xmlns="http://www.w3.org/2000/svg" xmlns:xlink="http://www.w3.org/1999/xlink">
    <!-- Generator: sketchtool 3.8.3 (29802) - http://www.bohemiancoding.com/sketch -->
    <title>2EF2069D-F192-4A65-A72D-754646BD299B</title>
    <desc>Created with sketchtool.</desc>
    <defs></defs>
    <g id="Style-guide" stroke="none" stroke-width="1" fill="none" fill-rule="evenodd">
        <g id="Icons" transform="translate(-456.000000, -744.000000)" fill="#000000">
            <path d="M483.7649,788.3231 C482.6129,788.7031 481.3859,788.9171 480.1019,788.9171 C478.9969,788.9171 477.9399,788.7451 476.9319,788.4571 C477.2029,789.2401 477.0939,790.6251 476.7809,791.5311 C477.6969,791.7151 479.1519,791.9171 480.1019,791.9171 C481.5279,791.9171 482.9209,791.6871 484.2609,791.2921 C483.8149,790.7681 483.5349,790.0971 483.5349,789.3541 C483.5349,789.0761 483.6249,788.7191 483.7649,788.3231 M468.2017,788.9168 C468.2017,790.5748 469.5437,791.9168 471.2017,791.9168 C472.8597,791.9168 474.2017,790.5748 474.2017,788.9168 C474.2017,787.2588 471.2017,782.9168 471.2017,782.9168 C471.2017,782.9168 468.2017,787.2588 468.2017,788.9168 M486.035,787.6667 C486.035,789.3247 487.377,790.6667 489.035,790.6667 C490.693,790.6667 492.035,789.3247 492.035,787.6667 C492.035,786.0087 489.035,781.6667 489.035,781.6667 C489.035,781.6667 486.035,786.0087 486.035,787.6667 M479.3672,781.7385 C479.4332,781.4915 479.4792,781.2365 479.4792,780.9685 C479.4792,780.2655 478.9392,779.0815 478.3182,777.9495 C477.4742,776.4105 476.4792,774.9685 476.4792,774.9685 C476.4792,774.9685 475.6582,776.1595 474.8742,777.5315 C474.3042,778.5305 473.7602,779.6185 473.5632,780.4215 C473.5132,780.6225 473.4792,780.8105 473.4792,780.9685 C473.4792,782.6265 474.8212,783.9685 476.4792,783.9685 C477.8692,783.9685 479.0262,783.0205 479.3672,781.7385 M475.0023,750 C475.8303,750 476.5023,749.328 476.5023,748.5 L476.5023,745.5 C476.5023,744.672 475.8303,744 475.0023,744 C474.1743,744 473.5023,744.672 473.5023,745.5 L473.5023,748.5 C473.5023,749.328 474.1743,750 475.0023,750 M487.166,753.9531 L489.287,751.8321 C489.873,751.2461 489.873,750.2971 489.287,749.7111 C488.701,749.1251 487.752,749.1251 487.166,749.7111 L485.045,751.8321 C484.459,752.4181 484.459,753.3671 485.045,753.9531 C485.631,754.5391 486.58,754.5391 487.166,753.9531 M457.5,764.5668 L460.5,764.5668 C461.328,764.5668 462,763.8948 462,763.0668 C462,762.2388 461.328,761.5668 460.5,761.5668 L457.5,761.5668 C456.672,761.5668 456,762.2388 456,763.0668 C456,763.8948 456.672,764.5668 457.5,764.5668 M463.832,753.9531 C464.418,754.5391 465.367,754.5391 465.953,753.9531 C466.539,753.3671 466.539,752.4181 465.953,751.8321 L463.832,749.7111 C463.246,749.1251 462.297,749.1251 461.711,749.7111 C461.125,750.2971 461.125,751.2461 461.711,751.8321 L463.832,753.9531 Z M478.0058,761.6222 C475.4868,761.7392 473.2278,762.8622 471.6138,764.5932 C470.6148,765.2892 469.7038,766.1132 468.8908,767.0452 C468.3228,765.9892 467.9998,764.7832 467.9998,763.5002 C467.9998,759.3572 471.3578,756.0002 475.4998,756.0002 C478.0038,756.0002 480.2138,757.2292 481.5738,759.1152 C480.2528,759.7282 479.0368,760.5672 478.0058,761.6222 M503.3688,774.5872 C503.8408,773.4712 504.1018,772.2442 504.1018,770.9582 C504.1018,765.9522 500.1468,761.8522 495.1998,761.6222 C492.9518,759.3212 489.8438,757.9872 486.5998,757.9872 C485.9018,757.9872 485.2118,758.0612 484.5338,758.1812 C482.7078,755.0852 479.3478,753.0002 475.4998,753.0002 C469.7108,753.0002 464.9998,757.7112 464.9998,763.5002 C464.9998,765.0912 465.3658,766.5942 466.0018,767.9472 C460.4928,768.2612 456.1018,772.8302 456.1018,778.4162 C456.1018,783.7332 460.0788,788.1302 465.2118,788.8132 C465.2568,788.1032 465.7668,786.9842 466.3588,785.9042 C462.3298,785.7752 459.1018,782.4772 459.1018,778.4162 C459.1018,774.2742 462.4588,770.9162 466.6018,770.9162 C467.6158,770.9162 468.5768,771.1232 469.4548,771.4872 C471.4458,767.6042 475.4418,764.9162 480.1018,764.9162 C484.7618,764.9162 488.7578,767.6042 490.7468,771.4872 C491.6268,771.1232 492.5898,770.9162 493.6018,770.9162 C497.7448,770.9162 501.1018,774.2742 501.1018,778.4162 C501.1018,782.2342 498.2488,785.3782 494.5598,785.8492 C494.9998,786.4172 495.6328,787.9972 495.6888,788.7022 C500.4808,787.7312 504.1018,783.4912 504.1018,778.4162 C504.1018,777.0642 503.8358,775.7752 503.3678,774.5862 C503.3678,774.5872 503.3678,774.5872 503.3688,774.5872" id="nuboso-con-lluvia"></path>
        </g>
    </g>
</svg>