<?xml version="1.0" encoding="UTF-8" standalone="no"?>
<svg width="48px" height="48px" viewBox="0 0 48 48" version="1.1" xmlns="http://www.w3.org/2000/svg" xmlns:xlink="http://www.w3.org/1999/xlink">
    <!-- Generator: sketchtool 3.8.3 (29802) - http://www.bohemiancoding.com/sketch -->
    <title>E65ACE8C-6AC6-4A39-809D-5DD3947AB2F8</title>
    <desc>Created with sketchtool.</desc>
    <defs></defs>
    <g id="Style-guide" stroke="none" stroke-width="1" fill="none" fill-rule="evenodd">
        <g id="Icons" transform="translate(-57.000000, -1024.000000)" fill="#000000">
            <path d="M76.5003,1059.87445 L79.5003,1062.87445 L76.5003,1071.87445 L85.5003,1062.87445 L82.5003,1059.87445 L85.5003,1050.87445 L76.5003,1059.87445 Z M89.0777,1068.66615 C89.0777,1070.32415 90.4197,1071.66615 92.0777,1071.66615 C93.7357,1071.66615 95.0777,1070.32415 95.0777,1068.66615 C95.0777,1067.00815 92.0777,1062.66615 92.0777,1062.66615 C92.0777,1062.66615 89.0777,1067.00815 89.0777,1068.66615 M83.618,1029.00045 C83.859,1028.76045 84.115,1028.53545 84.384,1028.32445 C84.173,1031.69545 85.388,1035.01545 87.861,1037.48645 C90.333,1039.95745 93.654,1041.17445 97.025,1040.96345 C95.621,1042.75645 93.643,1043.83345 91.547,1044.19145 C89.248,1041.88145 86.266,1040.36645 83.004,1039.92545 L83.004,1039.92545 C82.592,1039.51345 82.144,1039.14445 81.68,1038.79745 L81.681,1038.79745 C80.335,1035.53745 80.972,1031.64645 83.618,1029.00045 M58.504,1061.99945 L62.288,1061.99945 C60.879,1059.99945 60,1058.56245 60,1056.44645 C60,1052.30345 63.358,1048.86245 67.5,1048.86245 C68.514,1048.86245 69.475,1049.02845 70.354,1049.39145 C72.344,1045.50845 76.34,1042.80045 81,1042.80045 C85.66,1042.80045 89.657,1045.47745 91.645,1049.36045 C92.526,1048.99645 93.489,1048.78445 94.5,1048.78445 C98.643,1048.78445 102,1052.30645 102,1056.44845 C102,1058.56445 101.121,1059.99945 99.712,1061.99945 L103.496,1061.99945 C104.444,1059.99945 105,1058.41645 105,1056.44645 C105,1051.08045 100.951,1046.56545 95.75,1045.94445 C96.723,1045.41345 97.644,1044.71445 98.466,1043.89145 C99.704,1042.65345 100.65,1041.12245 101.261,1039.38645 C101.454,1038.84145 101.318,1038.22345 100.908,1037.81745 C100.499,1037.40745 99.892,1037.26345 99.349,1037.45645 C96.029,1038.62845 92.439,1037.82745 89.982,1035.36845 C87.521,1032.90745 86.72,1029.31645 87.896,1025.99945 C88.089,1025.45645 87.95,1024.85045 87.54,1024.44045 C87.134,1024.03245 86.529,1023.89345 85.982,1024.08445 C84.245,1024.69945 82.736,1025.64345 81.497,1026.87945 C78.754,1029.62145 77.628,1033.37045 78.105,1036.94745 L78.105,1036.94745 C76.95,1036.57945 75.737,1036.38145 74.502,1036.38145 C71.262,1036.38145 68.157,1037.71545 65.909,1040.01645 C60.957,1040.24645 57,1044.34645 57,1049.35245 C57,1050.53845 57.231,1051.67045 57.637,1052.71545 L57.637,1052.71445 C57.232,1053.82945 57,1055.19345 57,1056.44645 C57,1058.41645 57.556,1059.99945 58.504,1061.99945" id="nuboso-con-tormenta-y-lluvia-escasa-noche"></path>
        </g>
    </g>
</svg>