<?xml version="1.0" encoding="UTF-8" standalone="no"?>
<svg width="49px" height="49px" viewBox="0 0 49 49" version="1.1" xmlns="http://www.w3.org/2000/svg" xmlns:xlink="http://www.w3.org/1999/xlink">
    <!-- Generator: sketchtool 3.8.3 (29802) - http://www.bohemiancoding.com/sketch -->
    <title>5FFA8E4D-AFDB-4232-9B10-7A8D0BD72CF3</title>
    <desc>Created with sketchtool.</desc>
    <defs></defs>
    <g id="Style-guide" stroke="none" stroke-width="1" fill="none" fill-rule="evenodd">
        <g id="Icons" transform="translate(-936.000000, -744.000000)" fill="#000000">
            <path d="M955.0024,750 C955.8304,750 956.5024,749.328 956.5024,748.5 L956.5024,745.5 C956.5024,744.672 955.8304,744 955.0024,744 C954.1744,744 953.5024,744.672 953.5024,745.5 L953.5024,748.5 C953.5024,749.328 954.1744,750 955.0024,750 M967.166,753.953 L969.287,751.832 C969.873,751.246 969.873,750.297 969.287,749.711 C968.701,749.125 967.752,749.125 967.166,749.711 L965.045,751.832 C964.459,752.418 964.459,753.367 965.045,753.953 C965.631,754.539 966.58,754.539 967.166,753.953 M937.5,764.5667 L940.5,764.5667 C941.328,764.5667 942,763.8947 942,763.0667 C942,762.2387 941.328,761.5667 940.5,761.5667 L937.5,761.5667 C936.672,761.5667 936,762.2387 936,763.0667 C936,763.8947 936.672,764.5667 937.5,764.5667 M943.832,753.953 C944.418,754.539 945.367,754.539 945.953,753.953 C946.539,753.367 946.539,752.418 945.953,751.832 L943.832,749.711 C943.246,749.125 942.297,749.125 941.711,749.711 C941.125,750.297 941.125,751.246 941.711,751.832 L943.832,753.953 Z M960.1377,785.7497 C959.2237,785.7497 958.4797,785.0057 958.4797,784.0917 C958.4797,783.1777 959.2237,782.4367 960.1377,782.4367 C961.0517,782.4367 961.7937,783.1777 961.7937,784.0917 C961.7937,785.0057 961.0517,785.7497 960.1377,785.7497 M967.3097,779.9547 C966.8527,779.1597 965.8407,778.8887 965.0477,779.3457 L963.1957,780.3297 C962.7387,779.9407 962.5027,779.6367 961.5027,779.4297 L961.5027,777.4707 C961.5027,776.5547 960.9157,775.8117 960.0017,775.8117 C959.0877,775.8117 958.5027,776.5547 958.5027,777.4707 L958.5027,779.4277 C957.5027,779.6327 957.3997,779.9407 956.9427,780.3297 L955.2367,779.3457 C954.4417,778.8887 953.4257,779.1577 952.9687,779.9527 C952.5117,780.7417 952.7857,781.7577 953.5767,782.2147 L955.2597,783.1867 C955.2047,783.4817 955.1687,783.7807 955.1687,784.0917 C955.1687,784.4017 955.2047,784.7007 955.2587,784.9937 L953.5757,785.9667 C952.7827,786.4237 952.5087,787.4427 952.9657,788.2337 C953.4227,789.0247 954.4367,789.2947 955.2277,788.8377 L956.9407,787.8587 C957.3977,788.2457 957.5027,788.5507 958.5027,788.7557 L958.5027,790.7187 C958.5027,791.6327 959.0877,792.3707 960.0017,792.3707 C960.9157,792.3707 961.5027,791.6327 961.5027,790.7187 L961.5027,788.7557 C962.5027,788.5507 962.7447,788.2457 963.1977,787.8537 L964.9747,788.8377 C965.7677,789.2947 966.8157,789.0247 967.2727,788.2337 C967.7297,787.4427 967.4967,786.4297 966.7037,785.9667 L965.0167,784.9937 C965.0677,784.7007 965.1067,784.4017 965.1067,784.0917 C965.1067,783.7807 965.0677,783.4817 965.0127,783.1897 L966.7037,782.2147 C967.4927,781.7537 967.7627,780.7397 967.3097,779.9547 M958.0063,761.622 C955.4863,761.739 953.2283,762.862 951.6143,764.593 C950.6143,765.289 949.7033,766.113 948.8913,767.045 C948.3233,765.989 948.0003,764.783 948.0003,763.5 C948.0003,759.357 951.3573,756 955.5003,756 C958.0033,756 960.2143,757.229 961.5733,759.115 C960.2533,759.728 959.0363,760.567 958.0063,761.622 M983.3683,774.587 C983.8403,773.471 984.1023,772.244 984.1023,770.958 C984.1023,765.952 980.1473,761.853 975.1993,761.622 C972.9513,759.321 969.8443,757.987 966.6003,757.987 C965.9013,757.987 965.2123,758.061 964.5333,758.181 C962.7083,755.085 959.3473,753 955.5003,753 C949.7113,753 945.0003,757.711 945.0003,763.5 C945.0003,765.091 945.3663,766.594 946.0023,767.947 C940.4923,768.261 936.1023,772.83 936.1023,778.416 C936.1023,784.206 940.8133,788.916 946.6023,788.916 C947.6983,788.916 948.7713,788.735 949.7993,788.403 C949.8103,788.398 949.8153,788.39 949.8273,788.386 C949.9263,787.91 950.1023,787.445 950.3503,787.013 C950.7073,786.392 951.2233,785.895 951.8023,785.508 C951.4883,785.202 951.1893,784.88 950.9083,784.541 C949.6903,785.401 948.2073,785.916 946.6023,785.916 C942.4593,785.916 939.1023,782.559 939.1023,778.416 C939.1023,774.274 942.4593,770.916 946.6023,770.916 C947.6153,770.916 948.5763,771.124 949.4553,771.487 C951.4453,767.604 955.4423,764.916 960.1023,764.916 C964.7623,764.916 968.7583,767.604 970.7463,771.487 C971.6273,771.124 972.5903,770.916 973.6023,770.916 C977.7443,770.916 981.1023,774.274 981.1023,778.416 C981.1023,782.559 977.7443,785.916 973.6023,785.916 C971.9963,785.916 970.5163,785.401 969.2953,784.541 C969.0783,784.802 968.8433,785.046 968.6073,785.289 C968.5623,785.353 968.5173,785.416 968.4653,785.466 C969.0713,785.861 969.5713,786.375 969.9383,787.019 C970.1923,787.455 970.4563,787.918 970.5553,788.386 C970.5733,788.392 970.6093,788.429 970.6543,788.486 C971.6063,788.767 972.5943,788.916 973.6023,788.916 C979.3913,788.916 984.1023,784.206 984.1023,778.416 C984.1023,777.064 983.8363,775.775 983.3683,774.586 L983.3683,774.587" id="nuboso-con-nieve-escasa"></path>
        </g>
    </g>
</svg>