<?xml version="1.0" encoding="UTF-8" standalone="no"?>
<svg width="48px" height="48px" viewBox="0 0 48 48" version="1.1" xmlns="http://www.w3.org/2000/svg" xmlns:xlink="http://www.w3.org/1999/xlink">
    <!-- Generator: sketchtool 3.8.3 (29802) - http://www.bohemiancoding.com/sketch -->
    <title>90C33368-F05B-4BE3-829A-9F097FA1041A</title>
    <desc>Created with sketchtool.</desc>
    <defs></defs>
    <g id="Style-guide" stroke="none" stroke-width="1" fill="none" fill-rule="evenodd">
        <g id="Icons" transform="translate(-216.000000, -604.000000)" fill="#1D1D1B">
            <path d="M235.5,610 C236.328094,610 237,609.328094 237,608.5 L237,605.5 C237,604.671906 236.328094,604 235.5,604 C234.671906,604 234,604.671906 234,605.5 L234,608.5 C234,609.328094 234.671906,610 235.5,610 L235.5,610 Z M247.166062,613.953156 L249.287156,611.832063 C249.873,611.246125 249.873,610.296906 249.287156,609.710969 C248.701219,609.125031 247.752,609.125031 247.166062,609.710969 L245.044969,611.832063 C244.459031,612.418 244.459031,613.367219 245.044969,613.953156 C245.630812,614.539094 246.580125,614.539094 247.166062,613.953156 L247.166062,613.953156 Z M217.5,625 L220.5,625 C221.328094,625 222,624.328094 222,623.5 C222,622.671906 221.328094,622 220.5,622 L217.5,622 C216.671906,622 216,622.671906 216,623.5 C216,624.328094 216.671906,625 217.5,625 L217.5,625 Z M249,623.5 C249,624.328094 249.671906,625 250.5,625 L253.5,625 C254.328094,625 255,624.328094 255,623.5 C255,622.671906 254.328094,622 253.5,622 L250.5,622 C249.671906,622 249,622.671906 249,623.5 L249,623.5 Z M223.831969,613.953156 C224.418,614.539094 225.367219,614.539094 225.953062,613.953156 C226.539094,613.367219 226.539094,612.418 225.953062,611.832063 L223.831969,609.710969 C223.246031,609.125031 222.296906,609.125031 221.710875,609.710969 C221.124937,610.296906 221.124937,611.246125 221.710875,611.832063 L223.831969,613.953156 L223.831969,613.953156 Z M253.5,628 C253.002,628 252.509813,628.035156 252.0195,628.105469 C250.447219,625.960938 248.351625,624.32425 245.976562,623.277344 C245.855531,617.59375 241.212938,613 235.5,613 C229.710938,613 225,617.710938 225,623.5 C225,625.134812 225.406313,626.664062 226.078125,628.041062 C220.488281,628.269531 216,632.857375 216,638.5 C216,644.289062 220.710938,649 226.5,649 C227.78325,649 229.039125,648.765625 230.222719,648.312531 C232.937437,650.679719 236.390625,652 240,652 C243.613313,652 247.062469,650.679719 249.777281,648.312531 C250.960875,648.765625 252.21675,649 253.5,649 C259.289062,649 264,644.289062 264,638.5 C264,632.710938 259.289062,628 253.5,628 L253.5,628 Z M235.5,616 C239.232375,616 242.302687,618.734406 242.878875,622.304688 C241.939406,622.117188 240.980531,622 240,622 C235.693312,622 231.703125,623.857375 228.902344,626.992188 C228.34575,625.945281 228,624.769563 228,623.5 C228,619.357375 231.357375,616 235.5,616 L235.5,616 Z M253.5,646 C251.894531,646 250.414125,645.484375 249.193312,644.624969 C246.99225,647.277344 243.71475,649 240,649 C236.285156,649 233.00775,647.277344 230.806688,644.624969 C229.587938,645.484375 228.105469,646 226.5,646 C222.357375,646 219,642.642625 219,638.5 C219,634.357375 222.357375,631 226.5,631 C227.226562,631 227.912062,631.136687 228.574219,631.331969 C228.837844,631.406219 229.1055,631.464812 229.353469,631.568313 C229.763625,630.765625 230.27925,630.031187 230.8515,629.34175 C233.043,626.705125 236.302687,625 240,625 C240.949219,625 241.859438,625.136687 242.742188,625.347719 C243.732375,625.582 244.668,625.9375 245.539125,626.40625 C247.722656,627.566406 249.515625,629.363313 250.644469,631.568406 C251.525438,631.205125 252.488344,631 253.5,631 C257.642625,631 261,634.357375 261,638.5 C261,642.642625 257.642625,646 253.5,646 L253.5,646 Z" id="poco-nuboso"></path>
        </g>
    </g>
</svg>