<?xml version="1.0" encoding="UTF-8" standalone="no"?>
<svg width="48px" height="48px" viewBox="0 0 48 48" version="1.1" xmlns="http://www.w3.org/2000/svg" xmlns:xlink="http://www.w3.org/1999/xlink">
    <!-- Generator: sketchtool 3.8.3 (29802) - http://www.bohemiancoding.com/sketch -->
    <title>9B2F0ACD-8FE1-4261-893E-85149C0384CB</title>
    <desc>Created with sketchtool.</desc>
    <defs></defs>
    <g id="Style-guide" stroke="none" stroke-width="1" fill="none" fill-rule="evenodd">
        <g id="Icons" transform="translate(-216.000000, -747.000000)" fill="#f7d603">
            <path d="M245.437,791.7198 C245.437,793.3778 246.779,794.7198 248.437,794.7198 C250.095,794.7198 251.437,793.3778 251.437,791.7198 C251.437,790.0618 248.437,785.7198 248.437,785.7198 C248.437,785.7198 245.437,790.0618 245.437,791.7198 M264,759.6407 C264,755.0317 260.25,751.2827 255.641,751.2827 C255.416,751.2827 255.193,751.2927 254.971,751.3107 C252.803,748.6057 249.535,746.9997 246,746.9997 C242.467,746.9997 239.197,748.6057 237.029,751.3107 C236.807,751.2927 236.582,751.2827 236.355,751.2827 C231.75,751.2827 228,755.0317 228,759.6407 C228,760.1227 228.065,760.5877 228.141,761.0507 C228.09,761.1177 228.029,761.1777 227.98,761.2457 C227.49,761.1757 226.998,761.1407 226.5,761.1407 C220.711,761.1407 216,765.8517 216,771.6407 C216,777.4297 220.711,782.1407 226.5,782.1407 C227.783,782.1407 229.039,781.9067 230.223,781.4527 C231.169,782.2787 232.209,782.9677 233.31,783.5267 C233.299,783.5467 233.288,783.5647 233.276,783.5847 C232.706,784.5837 232.162,785.6717 231.965,786.4747 C231.916,786.6757 231.881,786.8637 231.881,787.0217 C231.881,788.6797 233.223,790.0217 234.881,790.0217 C236.271,790.0217 237.428,789.0737 237.769,787.7917 C237.835,787.5447 237.881,787.2897 237.881,787.0217 C237.881,786.4957 237.579,785.7007 237.167,784.8597 C238.093,785.0407 239.04,785.1407 240,785.1407 C243.613,785.1407 247.063,783.8207 249.777,781.4527 C250.961,781.9067 252.217,782.1407 253.5,782.1407 C259.289,782.1407 264,777.4297 264,771.6407 C264,769.2327 263.152,767.0387 261.781,765.2657 C263.148,763.7757 264,761.8127 264,759.6407" id="cubierto-con-lluvia-escasa"></path>
        </g>
    </g>
</svg>