<?xml version="1.0" encoding="UTF-8" standalone="no"?>
<svg width="48px" height="39px" viewBox="0 0 48 39" version="1.1" xmlns="http://www.w3.org/2000/svg" xmlns:xlink="http://www.w3.org/1999/xlink">
    <!-- Generator: sketchtool 3.8.3 (29802) - http://www.bohemiancoding.com/sketch -->
    <title>BD15535B-BE14-40D7-8117-5E6C2A41C0E4</title>
    <desc>Created with sketchtool.</desc>
    <defs></defs>
    <g id="Style-guide" stroke="none" stroke-width="1" fill="none" fill-rule="evenodd">
        <g id="Icons" transform="translate(-776.000000, -609.000000)" fill="#f7d603">
            <path d="M821.781,627.266 C823.152,629.039 824,631.233 824,633.641 C824,639.43 819.289,644.141 813.5,644.141 C812.217,644.141 810.961,643.907 809.777,643.453 C807.062,645.821 803.613,647.141 800,647.141 C796.39,647.141 792.937,645.821 790.222,643.453 C789.039,643.907 787.783,644.141 786.5,644.141 C780.711,644.141 776,639.43 776,633.641 C776,627.852 780.711,623.141 786.5,623.141 C786.998,623.141 787.49,623.176 787.98,623.246 C788.029,623.178 788.09,623.118 788.14,623.051 C788.064,622.588 788,622.123 788,621.641 C788,617.032 791.75,613.284 796.355,613.284 C796.582,613.284 796.806,613.293 797.029,613.311 C799.197,610.606 802.467,609 806,609 C809.535,609 812.802,610.606 814.97,613.311 C815.193,613.293 815.416,613.284 815.64,613.284 C820.25,613.284 824,617.032 824,621.641 C824,623.813 823.148,625.776 821.781,627.266" id="cubierto"></path>
        </g>
    </g>
</svg>