<?xml version="1.0" encoding="UTF-8" standalone="no"?>
<svg width="48px" height="48px" viewBox="0 0 48 48" version="1.1" xmlns="http://www.w3.org/2000/svg" xmlns:xlink="http://www.w3.org/1999/xlink">
    <!-- Generator: sketchtool 3.8.3 (29802) - http://www.bohemiancoding.com/sketch -->
    <title>7B14977E-2024-43C7-AC55-E98DE315E2EF</title>
    <desc>Created with sketchtool.</desc>
    <defs></defs>
    <g id="Style-guide" stroke="none" stroke-width="1" fill="none" fill-rule="evenodd">
        <g id="Icons" transform="translate(-696.000000, -744.000000)" fill="#f7d603">
            <path d="M703.437,786.7198 C703.437,788.3778 704.779,789.7198 706.437,789.7198 C708.095,789.7198 709.437,788.3778 709.437,786.7198 C709.437,785.0618 706.437,780.7198 706.437,780.7198 C706.437,780.7198 703.437,785.0618 703.437,786.7198 M725.437,788.7198 C725.437,790.3778 726.779,791.7198 728.437,791.7198 C730.095,791.7198 731.437,790.3778 731.437,788.7198 C731.437,787.0618 728.437,782.7198 728.437,782.7198 C728.437,782.7198 725.437,787.0618 725.437,788.7198 M744,756.6407 C744,752.0317 740.25,748.2827 735.641,748.2827 C735.416,748.2827 735.193,748.2927 734.971,748.3107 C732.803,745.6057 729.535,743.9997 726,743.9997 C722.467,743.9997 719.197,745.6057 717.029,748.3107 C716.807,748.2927 716.582,748.2827 716.355,748.2827 C711.75,748.2827 708,752.0317 708,756.6407 C708,757.1227 708.065,757.5877 708.141,758.0507 C708.09,758.1177 708.029,758.1777 707.98,758.2457 C707.49,758.1757 706.998,758.1407 706.5,758.1407 C700.711,758.1407 696,762.8517 696,768.6407 C696,774.4297 700.711,779.1407 706.5,779.1407 C707.783,779.1407 709.039,778.9067 710.223,778.4527 C711.169,779.2787 712.209,779.9677 713.31,780.5267 C713.299,780.5467 713.288,780.5647 713.276,780.5847 C712.706,781.5837 712.162,782.6717 711.965,783.4747 C711.916,783.6757 711.881,783.8637 711.881,784.0217 C711.881,785.6797 713.223,787.0217 714.881,787.0217 C716.271,787.0217 717.428,786.0737 717.769,784.7917 C717.835,784.5447 717.881,784.2897 717.881,784.0217 C717.881,783.4957 717.579,782.7007 717.167,781.8597 C718.093,782.0407 719.04,782.1407 720,782.1407 C723.613,782.1407 727.063,780.8207 729.777,778.4527 C730.961,778.9067 732.217,779.1407 733.5,779.1407 C739.289,779.1407 744,774.4297 744,768.6407 C744,766.2327 743.152,764.0387 741.781,762.2657 C743.148,760.7757 744,758.8127 744,756.6407" id="cubierto-con-lluvia"></path>
        </g>
    </g>
</svg>