<?xml version="1.0" encoding="UTF-8" standalone="no"?>
<svg width="48px" height="47px" viewBox="0 0 48 47" version="1.1" xmlns="http://www.w3.org/2000/svg" xmlns:xlink="http://www.w3.org/1999/xlink">
    <!-- Generator: sketchtool 3.8.3 (29802) - http://www.bohemiancoding.com/sketch -->
    <title>B17DC1F5-71A6-4DC6-BABB-E80A6F8930D0</title>
    <desc>Created with sketchtool.</desc>
    <defs></defs>
    <g id="Style-guide" stroke="none" stroke-width="1" fill="none" fill-rule="evenodd">
        <g id="Icons" transform="translate(-1096.000000, -605.000000)" fill="#f7d603">
            <path d="M1111.3724,635.828339 C1110.8014,636.827339 1110.2584,637.915339 1110.0604,638.718339 C1110.0114,638.919339 1109.9774,639.107339 1109.9774,639.265339 C1109.9774,640.923339 1111.3194,642.265339 1112.9774,642.265339 C1114.3674,642.265339 1115.5244,641.317339 1115.8654,640.035339 C1115.9314,639.788339 1115.9774,639.533339 1115.9774,639.265339 C1115.9774,638.562339 1115.4374,637.378339 1114.8164,636.246339 C1113.9724,634.707339 1112.9774,633.265339 1112.9774,633.265339 C1112.9774,633.265339 1112.1554,634.456339 1111.3724,635.828339 M1121.533,648.963439 C1121.533,650.621439 1122.875,651.963439 1124.533,651.963439 C1126.191,651.963439 1127.533,650.621439 1127.533,648.963439 C1127.533,647.305439 1124.533,642.963439 1124.533,642.963439 C1124.533,642.963439 1121.533,647.305439 1121.533,648.963439 M1130.546,625.192639 L1130.547,625.193639 C1128.283,622.912639 1125.351,621.416639 1122.143,620.950639 C1121.631,620.904639 1121.259,620.904639 1121.259,620.904639 C1121.118,620.841639 1120.784,620.077639 1120.68,619.797639 C1120.681,619.797639 1120.681,619.798639 1120.681,619.798639 C1119.335,616.538639 1119.973,612.646639 1122.619,610.000639 C1122.859,609.760639 1123.115,609.535639 1123.384,609.324639 C1123.173,612.695639 1124.388,616.016639 1126.861,618.486639 C1129.333,620.957639 1132.654,622.174639 1136.025,621.963639 C1134.621,623.757639 1132.643,624.834639 1130.546,625.192639 M1107.981,626.885639 C1107.491,626.815639 1106.998,626.779639 1106.5,626.779639 C1103.575,626.779639 1100.928,627.985639 1099.022,629.921639 C1099.245,626.624639 1101.994,624.006639 1105.346,624.006639 C1105.645,624.006639 1105.944,624.028639 1106.239,624.071639 C1107.936,621.766639 1110.602,620.381639 1113.502,620.381639 C1114.731,620.381639 1115.912,620.643639 1117.002,621.105639 L1117.003,621.105639 C1113.398,621.845639 1110.186,623.882639 1107.981,626.885639 M1134.75,626.861639 C1135.723,626.330639 1136.644,625.673639 1137.466,624.850639 C1138.704,623.611639 1139.65,622.102639 1140.261,620.365639 C1140.454,619.820639 1140.318,619.213639 1139.908,618.807639 C1139.499,618.397639 1138.892,618.258639 1138.349,618.451639 C1135.029,619.623639 1131.439,618.824639 1128.982,616.365639 C1126.521,613.904639 1125.72,610.315639 1126.896,606.998639 C1127.089,606.455639 1126.951,605.850639 1126.54,605.440639 C1126.134,605.031639 1125.529,604.893639 1124.982,605.084639 C1123.245,605.699639 1121.736,606.643639 1120.497,607.879639 C1117.754,610.621639 1116.629,614.370639 1117.105,617.947639 L1117.105,617.947639 C1115.951,617.580639 1114.737,617.381639 1113.502,617.381639 C1110.262,617.381639 1107.157,618.715639 1104.909,621.016639 C1099.957,621.247639 1096,625.346639 1096,630.352639 C1096,631.539639 1096.232,632.670639 1096.637,633.715639 C1096.637,633.715639 1096.637,633.715639 1096.637,633.714639 C1096.232,634.830639 1096,636.026639 1096,637.279639 C1096,643.069639 1100.711,647.779639 1106.5,647.779639 C1107.784,647.779639 1109.039,647.545639 1110.223,647.092639 C1112.717,649.267639 1115.837,650.544639 1119.127,650.740639 C1118.758,650.241639 1118.533,649.631639 1118.533,648.963639 C1118.533,648.634639 1118.654,648.198639 1118.843,647.713639 C1115.609,647.395639 1112.776,645.777639 1110.807,643.404639 C1109.588,644.264639 1108.106,644.779639 1106.5,644.779639 C1102.358,644.779639 1099,641.422639 1099,637.279639 C1099,633.137639 1102.358,629.779639 1106.5,629.779639 C1107.514,629.779639 1108.475,629.986639 1109.354,630.350639 C1111.344,626.467639 1115.34,623.779639 1120,623.779639 C1124.661,623.779639 1128.657,626.467639 1130.645,630.350639 C1131.526,629.986639 1132.489,629.779639 1133.5,629.779639 C1137.643,629.779639 1141,633.137639 1141,637.279639 C1141,641.422639 1137.643,644.779639 1133.5,644.779639 C1131.895,644.779639 1130.414,644.264639 1129.194,643.404639 C1129.184,643.416639 1129.173,643.426639 1129.164,643.438639 L1130.758,647.409639 C1131.647,647.652639 1132.566,647.779639 1133.5,647.779639 C1139.289,647.779639 1144,643.069639 1144,637.279639 C1144,631.914639 1139.952,627.482639 1134.75,626.861639" id="intervalos-nubosos-con-lluvia-escasa-noche"></path>
        </g>
    </g>
</svg>