<?xml version="1.0" encoding="UTF-8" standalone="no"?>
<svg width="49px" height="48px" viewBox="0 0 49 48" version="1.1" xmlns="http://www.w3.org/2000/svg" xmlns:xlink="http://www.w3.org/1999/xlink">
    <!-- Generator: sketchtool 3.8.3 (29802) - http://www.bohemiancoding.com/sketch -->
    <title>92CF1783-8AAC-4C2E-8330-8ABDBA739201</title>
    <desc>Created with sketchtool.</desc>
    <defs></defs>
    <g id="Style-guide" stroke="none" stroke-width="1" fill="none" fill-rule="evenodd">
        <g id="Icons" transform="translate(-296.000000, -744.000000)" fill="#f7d603">
            <path d="M323.7649,788.3231 C322.6129,788.7031 321.3859,788.9171 320.1019,788.9171 C318.9969,788.9171 317.9399,788.7451 316.9319,788.4571 C317.2029,789.2401 317.0939,790.6251 316.7809,791.5311 C317.6969,791.7151 319.1519,791.9171 320.1019,791.9171 C321.5279,791.9171 322.9209,791.6871 324.2609,791.2921 C323.8149,790.7681 323.5349,790.0971 323.5349,789.3541 C323.5349,789.0761 323.6249,788.7191 323.7649,788.3231 M308.2017,788.9168 C308.2017,790.5748 309.5437,791.9168 311.2017,791.9168 C312.8597,791.9168 314.2017,790.5748 314.2017,788.9168 C314.2017,787.2588 311.2017,782.9168 311.2017,782.9168 C311.2017,782.9168 308.2017,787.2588 308.2017,788.9168 M326.035,787.6667 C326.035,789.3247 327.377,790.6667 329.035,790.6667 C330.693,790.6667 332.035,789.3247 332.035,787.6667 C332.035,786.0087 329.035,781.6667 329.035,781.6667 C329.035,781.6667 326.035,786.0087 326.035,787.6667 M319.3672,781.7385 C319.4332,781.4915 319.4792,781.2365 319.4792,780.9685 C319.4792,780.2655 318.9392,779.0815 318.3182,777.9495 C317.4742,776.4105 316.4792,774.9685 316.4792,774.9685 C316.4792,774.9685 315.6582,776.1595 314.8742,777.5315 C314.3042,778.5305 313.7602,779.6185 313.5632,780.4215 C313.5132,780.6225 313.4792,780.8105 313.4792,780.9685 C313.4792,782.6265 314.8212,783.9685 316.4792,783.9685 C317.8692,783.9685 319.0262,783.0205 319.3672,781.7385 M315.0023,750 C315.8303,750 316.5023,749.328 316.5023,748.5 L316.5023,745.5 C316.5023,744.672 315.8303,744 315.0023,744 C314.1743,744 313.5023,744.672 313.5023,745.5 L313.5023,748.5 C313.5023,749.328 314.1743,750 315.0023,750 M327.166,753.9531 L329.287,751.8321 C329.873,751.2461 329.873,750.2971 329.287,749.7111 C328.701,749.1251 327.752,749.1251 327.166,749.7111 L325.045,751.8321 C324.459,752.4181 324.459,753.3671 325.045,753.9531 C325.631,754.5391 326.58,754.5391 327.166,753.9531 M297.5,764.5668 L300.5,764.5668 C301.328,764.5668 302,763.8948 302,763.0668 C302,762.2388 301.328,761.5668 300.5,761.5668 L297.5,761.5668 C296.672,761.5668 296,762.2388 296,763.0668 C296,763.8948 296.672,764.5668 297.5,764.5668 M303.832,753.9531 C304.418,754.5391 305.367,754.5391 305.953,753.9531 C306.539,753.3671 306.539,752.4181 305.953,751.8321 L303.832,749.7111 C303.246,749.1251 302.297,749.1251 301.711,749.7111 C301.125,750.2971 301.125,751.2461 301.711,751.8321 L303.832,753.9531 Z M341.0958,771.0762 C339.1888,769.1292 336.5358,767.9162 333.6018,767.9162 C333.1038,767.9162 332.6118,767.9522 332.1218,768.0222 C329.7548,764.7972 326.2268,762.6812 322.2958,762.0972 L322.2968,762.0972 C323.5938,761.3872 325.0608,760.9872 326.5998,760.9872 C329.4998,760.9872 332.1718,762.3722 333.8658,764.6772 C334.1588,764.6342 334.4568,764.6122 334.7618,764.6122 C338.2598,764.6122 341.1018,767.4602 341.1018,770.9582 C341.1018,770.9982 341.0968,771.0362 341.0958,771.0762 M318.0058,761.6222 C315.4868,761.7392 313.2278,762.8622 311.6138,764.5932 C310.6148,765.2892 309.7038,766.1132 308.8908,767.0452 C308.3228,765.9892 307.9998,764.7832 307.9998,763.5002 C307.9998,759.3572 311.3578,756.0002 315.4998,756.0002 C318.0038,756.0002 320.2138,757.2292 321.5738,759.1152 C320.2528,759.7282 319.0368,760.5672 318.0058,761.6222 M343.3688,774.5872 C343.8408,773.4712 344.1018,772.2442 344.1018,770.9582 C344.1018,765.9522 340.1468,761.8522 335.1998,761.6222 C332.9518,759.3212 329.8438,757.9872 326.5998,757.9872 C325.9018,757.9872 325.2118,758.0612 324.5338,758.1812 C322.7078,755.0852 319.3478,753.0002 315.4998,753.0002 C309.7108,753.0002 304.9998,757.7112 304.9998,763.5002 C304.9998,765.0912 305.3658,766.5942 306.0018,767.9472 C300.4928,768.2612 296.1018,772.8302 296.1018,778.4162 C296.1018,783.7332 300.0788,788.1302 305.2118,788.8132 C305.2568,788.1032 305.7668,786.9842 306.3588,785.9042 C302.3298,785.7752 299.1018,782.4772 299.1018,778.4162 C299.1018,774.2742 302.4588,770.9162 306.6018,770.9162 C307.6158,770.9162 308.5768,771.1232 309.4548,771.4872 C311.4458,767.6042 315.4418,764.9162 320.1018,764.9162 C324.7618,764.9162 328.7578,767.6042 330.7468,771.4872 C331.6268,771.1232 332.5898,770.9162 333.6018,770.9162 C337.7448,770.9162 341.1018,774.2742 341.1018,778.4162 C341.1018,782.2342 338.2488,785.3782 334.5598,785.8492 C334.9998,786.4172 335.6328,787.9972 335.6888,788.7022 C340.4808,787.7312 344.1018,783.4912 344.1018,778.4162 C344.1018,777.0642 343.8358,775.7752 343.3678,774.5862 C343.3678,774.5872 343.3678,774.5872 343.3688,774.5872" id="intervalos-nubosos-con-lluvia"></path>
        </g>
    </g>
</svg>