<?xml version="1.0" encoding="UTF-8" standalone="no"?>
<svg width="48px" height="48px" viewBox="0 0 48 48" version="1.1" xmlns="http://www.w3.org/2000/svg" xmlns:xlink="http://www.w3.org/1999/xlink">
    <!-- Generator: sketchtool 3.8.3 (29802) - http://www.bohemiancoding.com/sketch -->
    <title>68A2D7FB-0964-4FE1-A63E-926FF4F7EA31</title>
    <desc>Created with sketchtool.</desc>
    <defs></defs>
    <g id="Style-guide" stroke="none" stroke-width="1" fill="none" fill-rule="evenodd">
        <g id="Icons" transform="translate(-616.000000, -885.000000)" fill="#f7d603">
            <path d="M635.5,920.8746 L638.5,923.8746 L635.5,932.8746 L644.5,923.8746 L641.5,920.8746 L644.5,911.8746 L635.5,920.8746 Z M648.0774,929.6663 C648.0774,931.3243 649.4194,932.6663 651.0774,932.6663 C652.7354,932.6663 654.0774,931.3243 654.0774,929.6663 C654.0774,928.0083 651.0774,923.6663 651.0774,923.6663 C651.0774,923.6663 648.0774,928.0083 648.0774,929.6663 M625.9168,919.5311 C625.3458,920.5301 624.8028,921.6181 624.6058,922.4211 C624.5558,922.6221 624.5218,922.8101 624.5218,922.9681 C624.5218,924.6261 625.8638,925.9681 627.5218,925.9681 C628.9118,925.9681 630.0688,925.0201 630.4098,923.7381 C630.4758,923.4911 630.5218,923.2361 630.5218,922.9681 C630.5218,922.2651 629.9818,921.0811 629.3608,919.9491 C628.5168,918.4101 627.5218,916.9681 627.5218,916.9681 C627.5218,916.9681 626.6998,918.1591 625.9168,919.5311 M625.3457,904.0066 C625.6447,904.0066 625.9437,904.0276 626.2387,904.0716 C627.9357,901.7666 630.6017,900.3816 633.5017,900.3816 C634.7307,900.3816 635.9117,900.6436 637.0017,901.1046 L637.0017,901.1046 C633.3977,901.8456 630.1857,903.8816 627.9807,906.8856 C627.4907,906.8146 626.9977,906.7796 626.4997,906.7796 C623.5747,906.7796 620.9277,907.9846 619.0217,909.9216 C619.2447,906.6246 621.9927,904.0066 625.3457,904.0066 M642.6177,890.0006 C642.8587,889.7606 643.1147,889.5356 643.3837,889.3246 C643.1727,892.6956 644.3877,896.0156 646.8607,898.4866 C649.3327,900.9576 652.6537,902.1746 656.0247,901.9636 C654.6207,903.7566 652.6427,904.8336 650.5467,905.1916 C648.2477,902.8816 645.2657,901.3666 642.0037,900.9256 L642.0037,900.9256 C641.5917,900.5136 641.1437,900.1446 640.6797,899.7976 L640.6807,899.7976 C639.3347,896.5376 639.9717,892.6466 642.6177,890.0006 M617.5037,922.9996 L621.2877,922.9996 C619.8787,920.9996 618.9997,919.5626 618.9997,917.4466 C618.9997,913.3036 622.3577,909.8626 626.4997,909.8626 C627.5137,909.8626 628.4747,910.0286 629.3537,910.3916 C631.3437,906.5086 635.3397,903.8006 639.9997,903.8006 C644.6597,903.8006 648.6567,906.4776 650.6447,910.3606 C651.5257,909.9966 652.4887,909.7846 653.4997,909.7846 C657.6427,909.7846 660.9997,913.3066 660.9997,917.4486 C660.9997,919.5646 660.1207,920.9996 658.7117,922.9996 L662.4957,922.9996 C663.4437,920.9996 663.9997,919.4166 663.9997,917.4466 C663.9997,912.0806 659.9507,907.5656 654.7497,906.9446 C655.7227,906.4136 656.6437,905.7146 657.4657,904.8916 C658.7037,903.6536 659.6497,902.1226 660.2607,900.3866 C660.4537,899.8416 660.3177,899.2236 659.9077,898.8176 C659.4987,898.4076 658.8917,898.2636 658.3487,898.4566 C655.0287,899.6286 651.4387,898.8276 648.9817,896.3686 C646.5207,893.9076 645.7197,890.3166 646.8957,886.9996 C647.0887,886.4566 646.9497,885.8506 646.5397,885.4406 C646.1337,885.0326 645.5287,884.8936 644.9817,885.0846 C643.2447,885.6996 641.7357,886.6436 640.4967,887.8796 C637.7537,890.6216 636.6277,894.3706 637.1047,897.9476 L637.1047,897.9476 C635.9497,897.5796 634.7367,897.3816 633.5017,897.3816 C630.2617,897.3816 627.1567,898.7156 624.9087,901.0166 C619.9567,901.2466 615.9997,905.3466 615.9997,910.3526 C615.9997,911.5386 616.2307,912.6706 616.6367,913.7156 L616.6367,913.7146 C616.2317,914.8296 615.9997,916.1936 615.9997,917.4466 C615.9997,919.4166 616.5557,920.9996 617.5037,922.9996" id="intervalos-nubosos-con-tormenta-noche"></path>
        </g>
    </g>
</svg>