<?xml version="1.0" encoding="UTF-8" standalone="no"?>
<svg width="48px" height="46px" viewBox="0 0 48 46" version="1.1" xmlns="http://www.w3.org/2000/svg" xmlns:xlink="http://www.w3.org/1999/xlink">
    <!-- Generator: sketchtool 3.8.3 (29802) - http://www.bohemiancoding.com/sketch -->
    <title>FA0DEECE-8FD7-4B9B-89B9-CEA22CD68F8C</title>
    <desc>Created with sketchtool.</desc>
    <defs></defs>
    <g id="Style-guide" stroke="none" stroke-width="1" fill="none" fill-rule="evenodd">
        <g id="Icons" transform="translate(-456.000000, -604.000000)" fill="#f7d603">
            <path d="M493.5,643.780106 C491.895,643.780106 490.414,643.264106 489.193,642.405106 C486.992,645.057106 483.715,646.780106 480,646.780106 C476.285,646.780106 473.008,645.057106 470.807,642.405106 C469.588,643.264106 468.105,643.780106 466.5,643.780106 C462.357,643.780106 459,640.423106 459,636.280106 C459,632.137106 462.357,628.780106 466.5,628.780106 C467.514,628.780106 468.475,628.987106 469.354,629.350106 C471.344,625.468106 475.34,622.780106 480,622.780106 C484.66,622.780106 488.656,625.468106 490.645,629.350106 C491.525,628.987106 492.488,628.780106 493.5,628.780106 C497.643,628.780106 501,632.137106 501,636.280106 C501,640.423106 497.643,643.780106 493.5,643.780106 M465.346,623.007106 C465.645,623.007106 465.943,623.028106 466.238,623.072106 C467.936,620.767106 470.602,619.382106 473.502,619.382106 C474.731,619.382106 475.912,619.644106 477.002,620.105106 L477.002,620.105106 C473.398,620.846106 470.186,622.882106 467.98,625.886106 C467.49,625.815106 466.998,625.780106 466.5,625.780106 C463.575,625.780106 460.928,626.985106 459.022,628.922106 C459.245,625.625106 461.993,623.007106 465.346,623.007106 M482.618,609.001106 C482.858,608.761106 483.114,608.536106 483.384,608.325106 C483.173,611.696106 484.388,615.016106 486.86,617.487106 C489.333,619.958106 492.653,621.175106 496.024,620.964106 C494.621,622.757106 492.643,623.834106 490.546,624.192106 C488.248,621.882106 485.266,620.367106 482.003,619.926106 L482.004,619.926106 C481.592,619.514106 481.143,619.145106 480.68,618.798106 L480.681,618.798106 C479.335,615.538106 479.972,611.647106 482.618,609.001106 M494.75,625.862106 C495.723,625.331106 496.644,624.673106 497.466,623.850106 C498.704,622.612106 499.649,621.102106 500.261,619.366106 C500.454,618.821106 500.318,618.214106 499.907,617.807106 C499.499,617.397106 498.892,617.259106 498.349,617.452106 C495.028,618.624106 491.439,617.825106 488.981,615.366106 C486.521,612.905106 485.72,609.315106 486.896,605.999106 C487.089,605.456106 486.95,604.850106 486.54,604.440106 C486.134,604.032106 485.528,603.893106 484.981,604.085106 C483.245,604.700106 481.735,605.643106 480.497,606.880106 C477.754,609.622106 476.628,613.371106 477.104,616.947106 C477.105,616.947106 477.105,616.948106 477.105,616.948106 C475.95,616.580106 474.737,616.382106 473.502,616.382106 C470.262,616.382106 467.156,617.716106 464.908,620.017106 C459.957,620.247106 456,624.347106 456,629.353106 C456,630.539106 456.231,631.671106 456.636,632.716106 C456.636,632.716106 456.636,632.715106 456.637,632.715106 C456.232,633.830106 456,635.027106 456,636.280106 C456,642.069106 460.711,646.780106 466.5,646.780106 C467.783,646.780106 469.039,646.546106 470.223,646.093106 C472.938,648.460106 476.391,649.780106 480,649.780106 C483.613,649.780106 487.063,648.460106 489.777,646.093106 C490.961,646.546106 492.217,646.780106 493.5,646.780106 C499.289,646.780106 504,642.069106 504,636.280106 C504,630.915106 499.951,626.483106 494.75,625.862106" id="intervalos-nubosos-noche"></path>
        </g>
    </g>
</svg>