<?xml version="1.0" encoding="UTF-8" standalone="no"?>
<svg width="48px" height="47px" viewBox="0 0 48 47" version="1.1" xmlns="http://www.w3.org/2000/svg" xmlns:xlink="http://www.w3.org/1999/xlink">
    <!-- Generator: sketchtool 3.8.3 (29802) - http://www.bohemiancoding.com/sketch -->
    <title>8BE95B91-8BB8-457A-976D-D61438E94A1F</title>
    <desc>Created with sketchtool.</desc>
    <defs></defs>
    <g id="Style-guide" stroke="none" stroke-width="1" fill="none" fill-rule="evenodd">
        <g id="Icons" transform="translate(-616.000000, -745.000000)" fill="#f7d603">
            <path d="M645.4219,788.5532 C645.4219,790.2112 646.7639,791.5532 648.4219,791.5532 C650.0799,791.5532 651.4219,790.2112 651.4219,788.5532 C651.4219,786.8952 648.4219,782.5532 648.4219,782.5532 C648.4219,782.5532 645.4219,786.8952 645.4219,788.5532 M625.4219,787.5532 C625.4219,789.2112 626.7639,790.5532 628.4219,790.5532 C630.0799,790.5532 631.4219,789.2112 631.4219,787.5532 C631.4219,785.8952 628.4219,781.5532 628.4219,781.5532 C628.4219,781.5532 625.4219,785.8952 625.4219,787.5532 M635.8662,776.8551 C635.8662,776.8551 635.0442,778.0461 634.2612,779.4181 C633.6902,780.4171 633.1472,781.5051 632.9492,782.3081 C632.9002,782.5091 632.8662,782.6971 632.8662,782.8551 C632.8662,784.5131 634.2082,785.8551 635.8662,785.8551 C637.2562,785.8551 638.4132,784.9071 638.7542,783.6251 C638.8202,783.3781 638.8662,783.1231 638.8662,782.8551 C638.8662,782.1521 638.3262,780.9681 637.7052,779.8361 C636.8612,778.2971 635.8662,776.8551 635.8662,776.8551 M659.6465,761.1679 C657.9145,759.9059 655.8025,759.1409 653.5005,759.1409 C653.0015,759.1409 652.5095,759.1759 652.0195,759.2459 C649.2185,755.4299 644.7985,753.1409 640.0005,753.1409 C636.8005,753.1409 633.7835,754.1759 631.2865,755.9849 C631.9885,753.8419 633.9805,752.2829 636.3555,752.2829 C637.0815,752.2829 637.7675,752.4299 638.3945,752.6889 C639.8185,749.9179 642.6715,747.9999 646.0005,747.9999 C649.3275,747.9999 652.1835,749.9179 653.6015,752.6889 C654.2325,752.4299 654.9215,752.2829 655.6405,752.2829 C658.6015,752.2829 661.0005,754.6819 661.0005,757.6409 C661.0005,758.9979 660.4785,760.2229 659.6465,761.1679 M664.0005,757.6409 C664.0005,753.0309 660.2505,749.2829 655.6405,749.2829 C655.4165,749.2829 655.1935,749.2929 654.9705,749.3109 C652.8025,746.6049 649.5355,744.9999 646.0005,744.9999 C642.4665,744.9999 639.1975,746.6049 637.0295,749.3109 C636.8065,749.2929 636.5815,749.2829 636.3555,749.2829 C631.7505,749.2829 628.0005,753.0309 628.0005,757.6409 C628.0005,758.1229 628.0645,758.5879 628.1405,759.0509 C628.0895,759.1169 628.0295,759.1779 627.9805,759.2459 C627.4905,759.1759 626.9975,759.1409 626.5005,759.1409 C620.7105,759.1409 616.0005,763.8519 616.0005,769.6409 C616.0005,775.4299 620.7105,780.1409 626.5005,780.1409 C627.7835,780.1409 629.0395,779.9059 630.2225,779.4529 C630.2285,779.4579 630.2345,779.4619 630.2395,779.4659 C630.5025,778.8199 630.8715,778.1009 631.2615,777.4179 C631.4015,777.1719 631.5425,776.9359 631.6805,776.7079 C631.3735,776.4089 631.0805,776.0959 630.8065,775.7659 C629.5875,776.6249 628.1055,777.1409 626.5005,777.1409 C622.3575,777.1409 619.0005,773.7829 619.0005,769.6409 C619.0005,765.4979 622.3575,762.1409 626.5005,762.1409 C627.5135,762.1409 628.4745,762.3459 629.3535,762.7089 C629.4065,762.6099 629.4705,762.5219 629.5235,762.4259 C630.0505,761.4629 630.7015,760.5799 631.4605,759.7969 C633.6255,757.5549 636.6325,756.1409 640.0005,756.1409 C644.6605,756.1409 648.6565,758.8279 650.6445,762.7089 C651.1735,762.4919 651.7385,762.3519 652.3205,762.2579 L653.5005,762.1409 C654.6565,762.1409 655.7385,762.4259 656.7165,762.8909 C657.7775,763.3989 658.6875,764.1449 659.4025,765.0639 C660.3865,766.3319 661.0005,767.9099 661.0005,769.6409 C661.0005,773.7829 657.6425,777.1409 653.5005,777.1409 C651.8945,777.1409 650.4145,776.6249 649.1935,775.7659 C647.3935,777.9349 644.8665,779.4639 641.9765,779.9549 C642.3445,781.2669 642.5805,782.4539 642.6635,782.8979 C645.2875,782.4159 647.7395,781.2299 649.7775,779.4529 C650.9605,779.9059 652.2165,780.1409 653.5005,780.1409 C659.2895,780.1409 664.0005,775.4299 664.0005,769.6409 C664.0005,767.2329 663.1525,765.0389 661.7815,763.2659 C663.1485,761.7749 664.0005,759.8129 664.0005,757.6409" id="muy-nuboso-con-lluvia"></path>
        </g>
    </g>
</svg>