<?xml version="1.0" encoding="UTF-8" standalone="no"?>
<svg width="48px" height="48px" viewBox="0 0 48 48" version="1.1" xmlns="http://www.w3.org/2000/svg" xmlns:xlink="http://www.w3.org/1999/xlink">
    <!-- Generator: sketchtool 3.8.3 (29802) - http://www.bohemiancoding.com/sketch -->
    <title>ECB01344-0C1A-425F-BD6E-4FAD39207ACF</title>
    <desc>Created with sketchtool.</desc>
    <defs></defs>
    <g id="Style-guide" stroke="none" stroke-width="1" fill="none" fill-rule="evenodd">
        <g id="Icons" transform="translate(-135.000000, -1024.000000)" fill="#f7d603">
            <path d="M154.4998,1059.8077 L157.4998,1062.8077 L154.4998,1071.8077 L163.4998,1062.8077 L160.4988,1059.8077 L163.4998,1050.8077 L154.4998,1059.8077 Z M166.0664,1068.8074 C166.0664,1070.4654 167.4084,1071.8074 169.0664,1071.8074 C170.7244,1071.8074 172.0664,1070.4654 172.0664,1068.8074 C172.0664,1067.1494 169.0664,1062.8074 169.0664,1062.8074 C169.0664,1062.8074 166.0664,1067.1494 166.0664,1068.8074 M178.646,1040.168 C176.914,1038.906 174.802,1038.141 172.5,1038.141 C172.002,1038.141 171.509,1038.176 171.019,1038.246 C168.218,1034.43 163.798,1032.141 159,1032.141 C155.8,1032.141 152.783,1033.176 150.287,1034.985 C150.988,1032.842 152.98,1031.283 155.355,1031.283 C156.082,1031.283 156.767,1031.43 157.394,1031.689 C158.818,1028.918 161.672,1027 165,1027 C168.328,1027 171.183,1028.918 172.601,1031.689 C173.232,1031.43 173.922,1031.283 174.64,1031.283 C177.601,1031.283 180,1033.682 180,1036.641 C180,1037.998 179.478,1039.223 178.646,1040.168 M183,1036.641 C183,1032.031 179.25,1028.283 174.64,1028.283 C174.416,1028.283 174.193,1028.293 173.97,1028.311 C171.802,1025.605 168.535,1024 165,1024 C161.466,1024 158.197,1025.605 156.029,1028.311 C155.806,1028.293 155.582,1028.283 155.355,1028.283 C150.75,1028.283 147,1032.031 147,1036.641 C147,1037.123 147.064,1037.588 147.14,1038.051 C147.089,1038.117 147.029,1038.178 146.98,1038.246 C146.49,1038.176 145.998,1038.141 145.5,1038.141 C139.71,1038.141 135,1042.852 135,1048.641 C135,1054.43 139.71,1059.141 145.5,1059.141 C146.783,1059.141 148.039,1058.906 149.222,1058.453 C149.474,1058.673 149.739,1058.875 150.003,1059.076 L152.22,1056.967 C151.322,1056.341 150.505,1055.608 149.806,1054.766 C148.587,1055.625 147.105,1056.141 145.5,1056.141 C141.357,1056.141 138,1052.783 138,1048.641 C138,1044.498 141.357,1041.141 145.5,1041.141 C146.513,1041.141 147.474,1041.346 148.353,1041.709 C148.406,1041.61 148.47,1041.522 148.523,1041.426 C149.05,1040.463 149.701,1039.58 150.46,1038.797 C152.625,1036.555 155.632,1035.141 159,1035.141 C163.66,1035.141 167.656,1037.828 169.644,1041.709 C170.173,1041.492 170.738,1041.352 171.32,1041.258 L172.5,1041.141 C173.656,1041.141 174.738,1041.426 175.716,1041.891 C176.777,1042.399 177.687,1043.145 178.402,1044.064 C179.386,1045.332 180,1046.91 180,1048.641 C180,1052.783 176.642,1056.141 172.5,1056.141 C170.894,1056.141 169.414,1055.625 168.193,1054.766 C167.068,1056.121 165.66,1057.228 164.059,1057.992 L166.262,1060.195 C167.148,1059.697 167.999,1059.131 168.777,1058.453 C169.96,1058.906 171.216,1059.141 172.5,1059.141 C178.289,1059.141 183,1054.43 183,1048.641 C183,1046.233 182.152,1044.039 180.781,1042.266 C182.148,1040.775 183,1038.813 183,1036.641" id="muy-nuboso-con-tormenta-y-lluvia-escasa"></path>
        </g>
    </g>
</svg>