<?xml version="1.0" encoding="UTF-8" standalone="no"?>
<svg width="45px" height="39px" viewBox="0 0 45 39" version="1.1" xmlns="http://www.w3.org/2000/svg" xmlns:xlink="http://www.w3.org/1999/xlink">
    <!-- Generator: sketchtool 3.8.3 (29802) - http://www.bohemiancoding.com/sketch -->
    <title>A97D468A-0689-4939-96F6-5E4D48D5C6BD</title>
    <desc>Created with sketchtool.</desc>
    <defs></defs>
    <g id="Style-guide" stroke="none" stroke-width="1" fill="none" fill-rule="evenodd">
        <g id="Icons" transform="translate(-858.000000, -608.000000)" fill="#f7d603">
            <path d="M867.7839,637.0469 L865.6629,639.1679 C865.0769,639.7539 865.0769,640.7029 865.6629,641.2889 C866.2489,641.8749 867.1979,641.8749 867.7839,641.2889 L869.9049,639.1679 C870.4909,638.5799 870.4909,637.6329 869.9049,637.0469 C869.3189,636.4609 868.3699,636.4589 867.7839,637.0469 M891.116,617.9531 L893.237,615.8321 C893.823,615.2461 893.823,614.2971 893.237,613.7111 C892.651,613.1251 891.702,613.1251 891.116,613.7111 L888.995,615.8321 C888.409,616.4181 888.409,617.3671 888.995,617.9531 C889.581,618.5391 890.53,618.5391 891.116,617.9531 M879.25,641 C878.422,641 877.75,641.672 877.75,642.5 L877.75,645.5 C877.75,646.328 878.422,647 879.25,647 C880.078,647 880.75,646.328 880.75,645.5 L880.75,642.5 C880.75,641.672 880.078,641 879.25,641 M879.25,614 C880.078,614 880.75,613.328 880.75,612.5 L880.75,609.5 C880.75,608.672 880.078,608 879.25,608 C878.422,608 877.75,608.672 877.75,609.5 L877.75,612.5 C877.75,613.328 878.422,614 879.25,614 M891.1179,637.0449 C890.5299,636.4589 889.5829,636.4589 888.9969,637.0449 C888.4109,637.6309 888.4089,638.5799 888.9969,639.1659 L891.1179,641.2869 C891.7039,641.8729 892.6529,641.8729 893.2389,641.2869 C893.8249,640.7009 893.8249,639.7519 893.2389,639.1659 L891.1179,637.0449 Z M859.394118,616.65 L876.355882,616.65 C877.125435,616.65 877.75,615.978 877.75,615.15 C877.75,614.322 877.125435,613.65 876.355882,613.65 L859.394118,613.65 C858.624565,613.65 858,614.322 858,615.15 C858,615.978 858.624565,616.65 859.394118,616.65 M879.45,634.8572 C875.307,634.8572 871.95,631.4282 871.95,627.2862 C871.95,625.6152 872.542,624.1502 873.426,622.6502 L885.463,622.6502 C886.063,623.1912 886.556,624.6992 886.784,625.6502 L882.75,625.6502 C881.922,625.6502 881.25,626.3222 881.25,627.1502 C881.25,627.9782 881.922,628.6502 882.75,628.6502 L886.809,628.6502 C886.139,632.6502 883.101,634.8572 879.45,634.8572 M901,625.6502 L889.82,625.6502 C889.675,624.6952 889.397,623.6502 889.008,622.6502 L890.667,622.6502 C891.495,622.6502 892.167,621.9782 892.167,621.1502 C892.167,620.3222 891.495,619.6502 890.667,619.6502 L886.918,619.6502 C885.016,617.6502 882.374,616.5722 879.45,616.5722 C876.575,616.5722 873.967,617.6502 872.069,619.6502 L859.5,619.6502 C858.672,619.6502 858,620.3222 858,621.1502 C858,621.9782 858.672,622.6502 859.5,622.6502 L869.968,622.6502 C869.322,624.6502 868.95,625.6822 868.95,627.2862 C868.95,633.0752 873.661,637.7502 879.45,637.7502 C884.751,637.7502 889.136,633.6502 889.84,628.6502 L901,628.6502 C901.828,628.6502 902.5,627.9782 902.5,627.1502 C902.5,626.3222 901.828,625.6502 901,625.6502 Z M865.95,627.15 C865.95,626.322 865.278,625.65 864.45,625.65 L861.45,625.65 C860.622,625.65 859.95,626.322 859.95,627.15 C859.95,627.978 860.622,628.65 861.45,628.65 L864.45,628.65 C865.278,628.65 865.95,627.978 865.95,627.15 Z" id="nubes-altas"></path>
        </g>
    </g>
</svg>