<?xml version="1.0" encoding="UTF-8" standalone="no"?>
<svg width="45px" height="27px" viewBox="0 0 45 27" version="1.1" xmlns="http://www.w3.org/2000/svg" xmlns:xlink="http://www.w3.org/1999/xlink">
    <!-- Generator: sketchtool 3.8.3 (29802) - http://www.bohemiancoding.com/sketch -->
    <title>C9E66533-541D-4167-8C3D-5DF3386A1735</title>
    <desc>Created with sketchtool.</desc>
    <defs></defs>
    <g id="Style-guide" stroke="none" stroke-width="1" fill="none" fill-rule="evenodd">
        <g id="Icons" transform="translate(-938.000000, -616.000000)" fill="#f7d603">
            <path d="M939.5002,619 L952.7712,619 C953.5992,619 954.2712,618.328 954.2712,617.5 C954.2712,616.672 953.5992,616 952.7712,616 L939.5002,616 C938.6722,616 938.0002,616.672 938.0002,617.5 C938.0002,618.328 938.6722,619 939.5002,619 M967.437,635.9635 C964.167,640.1435 957.781,640.4205 954.031,636.6685 C950.872,633.5115 950.566,628.9995 953.093,624.9995 L954.835,624.9995 C954.928,625.9995 955.147,627.1665 955.513,628.1555 C954.904,628.3455 954.458,628.8685 954.458,629.5405 C954.458,630.3685 955.13,630.9995 955.958,630.9995 L957.115,630.9995 C958.849,633.5465 963.662,636.1095 967.437,635.9635 M981,627.9995 L958.768,627.9995 C958.284,626.9995 957.979,625.9995 957.855,624.9995 L970.667,624.9995 C971.495,624.9995 972.167,624.3285 972.167,623.4995 C972.167,622.6715 971.495,621.9995 970.667,621.9995 L957.996,621.9995 C958.079,621.9995 958.177,621.3295 958.308,620.9585 C958.501,620.4155 958.363,619.8505 957.953,619.4405 C957.546,619.0315 956.941,618.9135 956.394,619.1045 C954.658,619.7195 953.148,620.5935 951.91,621.8295 C951.833,621.9065 951.767,621.9995 951.692,621.9995 L939.5,621.9995 C938.672,621.9995 938,622.6715 938,623.4995 C938,624.3285 938.672,624.9995 939.5,624.9995 L949.614,624.9995 C947.443,629.9995 948.201,635.1005 951.91,638.8105 C956.589,643.4895 964.203,643.5295 968.878,638.8505 C970.117,637.6115 971.062,636.1225 971.673,634.3855 C971.867,633.8405 971.73,633.2435 971.32,632.8375 C970.912,632.4275 970.304,632.2135 969.761,632.4065 C966.812,633.4475 963.655,632.9995 961.263,630.9995 L981,630.9995 C981.828,630.9995 982.5,630.3285 982.5,629.4995 C982.5,628.6715 981.828,627.9995 981,627.9995" id="nubes-altas-noche"></path>
        </g>
    </g>
</svg>