<?xml version="1.0" encoding="UTF-8" standalone="no"?>
<svg width="48px" height="46px" viewBox="0 0 48 46" version="1.1" xmlns="http://www.w3.org/2000/svg" xmlns:xlink="http://www.w3.org/1999/xlink">
    <!-- Generator: sketchtool 3.8.3 (29802) - http://www.bohemiancoding.com/sketch -->
    <title>430005A3-111B-41AD-9C1C-17FDB6398975</title>
    <desc>Created with sketchtool.</desc>
    <defs></defs>
    <g id="Style-guide" stroke="none" stroke-width="1" fill="none" fill-rule="evenodd">
        <g id="Icons" transform="translate(-616.000000, -604.000000)" fill="#f7d603">
            <path d="M653.5,643.780106 C651.895,643.780106 650.414,643.264106 649.193,642.405106 C646.992,645.057106 643.715,646.780106 640,646.780106 C636.285,646.780106 633.008,645.057106 630.807,642.405106 C629.588,643.264106 628.105,643.780106 626.5,643.780106 C622.357,643.780106 619,640.423106 619,636.280106 C619,632.137106 622.357,628.780106 626.5,628.780106 C627.514,628.780106 628.475,628.987106 629.354,629.350106 C631.344,625.468106 635.34,622.780106 640,622.780106 C644.66,622.780106 648.656,625.468106 650.645,629.350106 C651.525,628.987106 652.488,628.780106 653.5,628.780106 C657.643,628.780106 661,632.137106 661,636.280106 C661,640.423106 657.643,643.780106 653.5,643.780106 M642.618,609.001106 C642.858,608.761106 643.114,608.536106 643.384,608.325106 C643.173,611.696106 644.388,615.016106 646.86,617.487106 C649.333,619.958106 652.653,621.175106 656.024,620.964106 C654.621,622.757106 652.643,623.834106 650.546,624.192106 C648.248,621.882106 645.266,620.367106 642.003,619.926106 L642.004,619.926106 C641.592,619.514106 641.143,619.145106 640.68,618.798106 L640.681,618.798106 C639.335,615.538106 639.972,611.647106 642.618,609.001106 M654.75,625.862106 C655.723,625.331106 656.644,624.673106 657.466,623.850106 C658.704,622.612106 659.649,621.102106 660.261,619.366106 C660.454,618.821106 660.318,618.214106 659.907,617.807106 C659.499,617.397106 658.892,617.259106 658.349,617.452106 C655.028,618.624106 651.439,617.825106 648.981,615.366106 C646.521,612.905106 645.72,609.315106 646.896,605.999106 C647.089,605.456106 646.95,604.850106 646.54,604.440106 C646.134,604.032106 645.528,603.893106 644.981,604.085106 C643.245,604.700106 641.735,605.643106 640.497,606.880106 C637.754,609.622106 636.628,613.371106 637.104,616.947106 C637.105,616.947106 637.105,616.948106 637.105,616.948106 C635.95,616.580106 634.737,616.382106 633.502,616.382106 C630.262,616.382106 627.156,617.716106 624.908,620.017106 C619.957,620.247106 616,624.347106 616,629.353106 C616,630.539106 616.231,631.671106 616.636,632.716106 C616.636,632.716106 616.636,632.715106 616.637,632.715106 C616.232,633.830106 616,635.027106 616,636.280106 C616,642.069106 620.711,646.780106 626.5,646.780106 C627.783,646.780106 629.039,646.546106 630.223,646.093106 C632.938,648.460106 636.391,649.780106 640,649.780106 C643.613,649.780106 647.063,648.460106 649.777,646.093106 C650.961,646.546106 652.217,646.780106 653.5,646.780106 C659.289,646.780106 664,642.069106 664,636.280106 C664,630.915106 659.951,626.483106 654.75,625.862106" id="nuboso-noche"></path>
        </g>
    </g>
</svg>