<?xml version="1.0" encoding="UTF-8" standalone="no"?>
<svg width="48px" height="47px" viewBox="0 0 48 47" version="1.1" xmlns="http://www.w3.org/2000/svg" xmlns:xlink="http://www.w3.org/1999/xlink">
    <!-- Generator: sketchtool 3.8.3 (29802) - http://www.bohemiancoding.com/sketch -->
    <title>27A01AC6-97E2-4224-884A-40018819D73D</title>
    <desc>Created with sketchtool.</desc>
    <defs></defs>
    <g id="Style-guide" stroke="none" stroke-width="1" fill="none" fill-rule="evenodd">
        <g id="Icons" transform="translate(-1017.000000, -746.000000)" fill="#f7d603">
            <path d="M1041.1349,785.546452 C1040.2209,785.546452 1039.4769,784.802452 1039.4769,783.888452 C1039.4769,782.974452 1040.2209,782.233452 1041.1349,782.233452 C1042.0489,782.233452 1042.7909,782.974452 1042.7909,783.888452 C1042.7909,784.802452 1042.0489,785.546452 1041.1349,785.546452 M1047.7009,785.763452 L1046.0139,784.790452 C1046.0649,784.497452 1046.1039,784.198452 1046.1039,783.888452 C1046.1039,783.577452 1046.0649,783.278452 1046.0099,782.986452 L1047.7009,782.011452 C1048.4899,781.550452 1048.7599,780.536452 1048.3069,779.751452 C1047.8499,778.956452 1046.8379,778.685452 1046.0449,779.142452 L1044.1929,780.126452 C1043.7359,779.737452 1043.4999,779.433452 1042.4999,779.226452 L1042.4999,777.267452 C1042.4999,776.351452 1041.9129,775.608452 1040.9989,775.608452 C1040.0849,775.608452 1039.4999,776.351452 1039.4999,777.267452 L1039.4999,779.224452 C1038.4999,779.429452 1038.3969,779.737452 1037.9399,780.126452 L1036.2339,779.142452 C1035.4389,778.685452 1034.4229,778.954452 1033.9659,779.749452 C1033.5089,780.538452 1033.7829,781.554452 1034.5739,782.011452 L1036.2569,782.983452 C1036.2019,783.278452 1036.1669,783.577452 1036.1669,783.888452 C1036.1669,784.198452 1036.2019,784.497452 1036.2559,784.790452 L1034.5729,785.763452 C1033.7799,786.220452 1033.5059,787.239452 1033.9629,788.030452 C1034.4199,788.821452 1035.4339,789.091452 1036.2249,788.634452 L1037.9379,787.655452 C1038.3959,788.042452 1038.4999,788.347452 1039.4999,788.552452 L1039.4999,790.515452 C1039.4999,791.429452 1040.0849,792.167452 1040.9989,792.167452 C1041.9129,792.167452 1042.4999,791.429452 1042.4999,790.515452 L1042.4999,788.552452 C1043.4999,788.347452 1043.7419,788.042452 1044.1949,787.650452 L1045.9719,788.634452 C1046.7649,789.091452 1047.8129,788.821452 1048.2699,788.030452 C1048.7269,787.239452 1048.4939,786.226452 1047.7009,785.763452 M1051.546,766.192452 C1049.248,763.881452 1046.266,762.367452 1043.003,761.926452 L1043.004,761.926452 C1042.591,761.513452 1042.143,761.144452 1041.679,760.797452 L1041.68,760.798452 C1040.335,757.538452 1040.972,753.646452 1043.618,751.000452 C1043.858,750.760452 1044.114,750.536452 1044.383,750.325452 C1044.172,753.696452 1045.387,757.016452 1047.86,759.487452 C1050.333,761.957452 1053.653,763.174452 1057.024,762.963452 C1055.621,764.757452 1053.642,765.834452 1051.546,766.192452 M1055.75,767.861452 C1056.722,767.330452 1057.643,766.673452 1058.465,765.850452 C1059.704,764.612452 1060.649,763.102452 1061.26,761.366452 C1061.454,760.821452 1061.317,760.213452 1060.907,759.807452 C1060.499,759.397452 1059.891,759.258452 1059.348,759.451452 C1056.028,760.623452 1052.438,759.825452 1049.981,757.366452 C1047.52,754.905452 1046.719,751.315452 1047.895,747.998452 C1048.088,747.455452 1047.95,746.850452 1047.54,746.440452 C1047.133,746.032452 1046.528,745.893452 1045.981,746.084452 C1044.245,746.700452 1042.735,747.643452 1041.497,748.879452 C1038.753,751.622452 1037.628,755.370452 1038.104,758.947452 L1038.105,758.947452 C1036.95,758.580452 1035.737,758.382452 1034.502,758.382452 C1031.261,758.382452 1028.156,759.715452 1025.908,762.016452 C1020.957,762.247452 1017,766.346452 1017,771.352452 C1017,772.539452 1017.231,773.670452 1017.636,774.715452 L1017.636,774.715452 C1017.232,775.830452 1017,777.027452 1017,778.280452 C1017,784.069452 1021.711,788.780452 1027.5,788.780452 C1028.517,788.780452 1029.591,788.626452 1030.585,788.340452 C1030.833,786.749452 1032.421,785.349452 1032.801,785.288452 C1032.488,785.006452 1032.188,784.714452 1031.931,784.405452 C1030.713,785.264452 1029.168,785.780452 1027.562,785.780452 C1023.42,785.780452 1020.031,782.422452 1020.031,778.280452 C1020.031,774.137452 1023.373,770.780452 1027.515,770.780452 C1028.529,770.780452 1029.482,770.987452 1030.361,771.350452 C1032.351,767.467452 1036.343,764.780452 1041.004,764.780452 C1045.664,764.780452 1049.658,767.467452 1051.646,771.350452 C1052.527,770.987452 1053.489,770.780452 1054.501,770.780452 C1058.643,770.780452 1062,774.137452 1062,778.280452 C1062,782.422452 1058.642,785.780452 1054.5,785.780452 C1052.894,785.780452 1051.414,785.264452 1050.193,784.405452 C1049.925,784.727452 1049.641,785.034452 1049.342,785.328452 C1049.406,785.362452 1049.442,785.385452 1049.437,785.390452 C1050.043,785.785452 1050.555,786.297452 1050.922,786.942452 C1051.176,787.377452 1051.446,787.840452 1051.546,788.308452 C1051.556,788.311452 1051.544,788.324452 1051.536,788.344452 C1052.492,788.628452 1053.486,788.780452 1054.5,788.780452 C1060.289,788.780452 1065,784.069452 1065,778.280452 C1065,772.914452 1060.951,768.482452 1055.75,767.861452" id="nuboso-con-nieve-escasa-noche"></path>
        </g>
    </g>
</svg>