<?xml version="1.0" encoding="UTF-8" standalone="no"?>
<svg width="49px" height="48px" viewBox="0 0 49 48" version="1.1" xmlns="http://www.w3.org/2000/svg" xmlns:xlink="http://www.w3.org/1999/xlink">
    <!-- Generator: sketchtool 3.8.3 (29802) - http://www.bohemiancoding.com/sketch -->
    <title>62082CBD-7BC2-4B81-8EC4-F8665839F6FC</title>
    <desc>Created with sketchtool.</desc>
    <defs></defs>
    <g id="Style-guide" stroke="none" stroke-width="1" fill="none" fill-rule="evenodd">
        <g id="Icons" transform="translate(-216.000000, -886.000000)" fill="#f7d603">
            <path d="M235.0023,891.9999 C235.8303,891.9999 236.5023,891.3279 236.5023,890.4999 L236.5023,887.4999 C236.5023,886.6719 235.8303,885.9999 235.0023,885.9999 C234.1743,885.9999 233.5023,886.6719 233.5023,887.4999 L233.5023,890.4999 C233.5023,891.3279 234.1743,891.9999 235.0023,891.9999 M247.166,895.953 L249.287,893.832 C249.873,893.246 249.873,892.297 249.287,891.711 C248.701,891.125 247.752,891.125 247.166,891.711 L245.045,893.832 C244.459,894.418 244.459,895.367 245.045,895.953 C245.631,896.539 246.58,896.539 247.166,895.953 M217.5,906.4467 L220.5,906.4467 C221.328,906.4467 222,905.7747 222,904.9467 C222,904.1187 221.328,903.4467 220.5,903.4467 L217.5,903.4467 C216.672,903.4467 216,904.1187 216,904.9467 C216,905.7747 216.672,906.4467 217.5,906.4467 M223.832,895.953 C224.418,896.539 225.367,896.539 225.953,895.953 C226.539,895.367 226.539,894.418 225.953,893.832 L223.832,891.711 C223.246,891.125 222.297,891.125 221.711,891.711 C221.125,892.297 221.125,893.246 221.711,893.832 L223.832,895.953 Z M256.1414,925.8237 C255.7544,926.2107 255.1314,926.2087 254.7464,925.8237 C254.3664,925.4427 254.3624,924.8177 254.7464,924.4307 C255.1314,924.0487 255.7564,924.0487 256.1414,924.4307 C256.5224,924.8157 256.5224,925.4427 256.1414,925.8237 M259.5024,925.1967 L258.3704,924.8957 C258.3424,924.5367 258.2564,924.1947 258.0984,923.8667 L258.9204,923.0447 C259.3074,922.6577 259.3054,922.0327 258.9204,921.6517 C258.5374,921.2667 257.9164,921.2647 257.5304,921.6517 L256.7054,922.4717 C256.3814,922.3197 256.0364,922.2317 255.6784,922.2027 L255.3774,921.0717 C255.2374,920.5487 254.6984,920.2337 254.1704,920.3747 C253.6454,920.5167 253.3384,921.0557 253.4754,921.5817 L253.7764,922.6967 C253.6274,922.7987 253.4874,922.9117 253.3544,923.0407 C253.2254,923.1737 253.1164,923.3137 253.0144,923.4587 L251.8994,923.1577 C251.3734,923.0167 250.8304,923.3337 250.6904,923.8547 C250.5494,924.3827 250.8664,924.9197 251.3854,925.0617 L252.5104,925.3647 C252.5414,925.7187 252.6314,926.0637 252.7894,926.3917 L251.9634,927.2187 C251.5804,927.6027 251.5824,928.2237 251.9674,928.6067 C252.3504,928.9897 252.9714,928.9937 253.3544,928.6107 L254.1824,927.7827 C254.5064,927.9427 254.8544,928.0327 255.2134,928.0597 L255.5104,929.1867 C255.6554,929.7127 256.1904,930.0247 256.7174,929.8847 C257.2414,929.7437 257.5574,929.2047 257.4164,928.6737 L257.1164,927.5577 C257.2564,927.4587 257.4014,927.3467 257.5344,927.2187 C257.6624,927.0877 257.7724,926.9427 257.8734,926.7987 L258.9914,927.0987 C259.5164,927.2397 260.0574,926.9257 260.1964,926.4037 C260.3364,925.8807 260.0264,925.3417 259.5024,925.1967 M225.3523,925.8247 C224.9673,926.2097 224.3443,926.2097 223.9573,925.8247 C223.5773,925.4417 223.5773,924.8147 223.9573,924.4337 C224.3443,924.0517 224.9673,924.0517 225.3523,924.4337 C225.7373,924.8167 225.7333,925.4417 225.3523,925.8247 M228.2003,923.1567 L227.0863,923.4557 C226.9833,923.3147 226.8753,923.1727 226.7453,923.0397 C226.6123,922.9107 226.4713,922.7997 226.3253,922.6997 L226.6233,921.5807 C226.7643,921.0547 226.4523,920.5137 225.9323,920.3757 C225.4053,920.2347 224.8663,920.5477 224.7253,921.0707 L224.4203,922.2017 C224.0633,922.2307 223.7213,922.3187 223.3953,922.4727 L222.5693,921.6507 C222.1823,921.2637 221.5613,921.2657 221.1783,921.6507 C220.7933,922.0357 220.7933,922.6587 221.1783,923.0437 L222.0003,923.8657 C221.8463,924.1937 221.7563,924.5397 221.7293,924.8947 L220.6003,925.1957 C220.0733,925.3407 219.7603,925.8757 219.9013,926.4027 C220.0433,926.9267 220.5823,927.2347 221.1103,927.0977 L222.2233,926.7957 C222.3233,926.9457 222.4343,927.0867 222.5693,927.2177 C222.6983,927.3457 222.8383,927.4617 222.9853,927.5567 L222.6863,928.6727 C222.5453,929.1997 222.8583,929.7427 223.3813,929.8837 C223.9093,930.0237 224.4443,929.7117 224.5843,929.1857 L224.8893,928.0607 C225.2473,928.0317 225.5923,927.9417 225.9203,927.7857 L226.7453,928.6097 C227.1273,928.9967 227.7483,928.9887 228.1353,928.6057 C228.5163,928.2247 228.5223,927.6017 228.1353,927.2177 L227.3093,926.3907 C227.4673,926.0667 227.5613,925.7177 227.5843,925.3597 L228.7153,925.0607 C229.2373,924.9187 229.5493,924.3817 229.4093,923.8537 C229.2683,923.3327 228.7293,923.0197 228.2003,923.1567 M240.0487,926.7876 C239.1347,926.7876 238.3907,926.0436 238.3907,925.1296 C238.3907,924.2156 239.1347,923.4746 240.0487,923.4746 C240.9627,923.4746 241.7047,924.2156 241.7047,925.1296 C241.7047,926.0436 240.9627,926.7876 240.0487,926.7876 M246.6147,927.0046 L244.9277,926.0316 C244.9787,925.7386 245.0177,925.4396 245.0177,925.1296 C245.0177,924.8186 244.9787,924.5196 244.9237,924.2266 L246.6147,923.2526 C247.4037,922.7916 247.6737,921.7776 247.2207,920.9926 C246.7637,920.1976 245.7517,919.9266 244.9587,920.3836 L243.2537,921.3676 C242.7967,920.9786 242.2807,920.6746 241.7067,920.4676 L241.7067,918.5086 C241.7067,917.5926 240.9627,916.8496 240.0487,916.8496 C239.1347,916.8496 238.3927,917.5926 238.3927,918.5086 L238.3927,920.4656 C237.8187,920.6706 237.3007,920.9786 236.8437,921.3676 L235.1427,920.3836 C234.3477,919.9266 233.3337,920.1956 232.8767,920.9906 C232.4197,921.7796 232.6947,922.7956 233.4867,923.2526 L235.1697,924.2246 C235.1147,924.5196 235.0797,924.8186 235.0797,925.1296 C235.0797,925.4396 235.1147,925.7386 235.1697,926.0316 L233.4867,927.0046 C232.6937,927.4616 232.4197,928.4806 232.8767,929.2716 C233.3337,930.0626 234.3477,930.3326 235.1387,929.8756 L236.8417,928.8966 C237.2987,929.2836 237.8167,929.5886 238.3927,929.7936 L238.3927,931.7566 C238.3927,932.6706 239.1347,933.4086 240.0487,933.4086 C240.9627,933.4086 241.7067,932.6706 241.7067,931.7566 L241.7067,929.7936 C242.2807,929.5886 242.8027,929.2836 243.2557,928.8916 L244.9587,929.8756 C245.7517,930.3326 246.7637,930.0626 247.2207,929.2716 C247.6777,928.4806 247.4077,927.4676 246.6147,927.0046 M238.0062,903.6221 C235.4862,903.7391 233.2282,904.8621 231.6142,906.5931 C230.6142,907.2891 229.7032,908.1131 228.8912,909.0451 C228.3232,907.9891 228.0002,906.7831 228.0002,905.5001 C228.0002,901.3571 231.3572,898.0001 235.5002,898.0001 C238.0032,898.0001 240.2142,899.2291 241.5732,901.1151 C240.2532,901.7281 239.0362,902.5671 238.0062,903.6221 M261.0642,920.4471 L263.8142,920.4471 C263.8172,920.4471 263.8282,920.3821 263.8282,920.3571 C263.8282,919.0051 263.8242,917.4471 263.3562,916.4471 L263.3682,916.4471 C263.8402,915.4471 264.1022,914.1741 264.1022,912.8881 C264.1022,907.8821 260.1472,903.8171 255.1992,903.5871 C252.9512,901.2861 249.8442,899.9701 246.6002,899.9701 C245.9012,899.9701 245.2122,900.0521 244.5332,900.1721 C242.7082,897.0761 239.3472,894.9951 235.5002,894.9951 C229.7112,894.9951 225.0002,899.7081 225.0002,905.4981 C225.0002,907.0881 225.3662,908.5931 226.0022,909.9461 C220.4922,910.2591 216.1022,914.4431 216.1022,920.0291 C216.1022,920.3001 216.1222,920.4471 216.1422,920.4471 L219.1462,920.4471 C219.1182,920.4471 219.1022,920.3011 219.1022,920.0301 C219.1022,915.8871 222.4592,912.7231 226.6022,912.7231 C227.6152,912.7231 228.5762,913.0271 229.4552,913.3901 C231.4452,909.5071 235.4422,906.8681 240.1022,906.8681 C244.7622,906.8681 248.7582,909.5801 250.7462,913.4631 C251.6272,913.0991 252.5902,912.9041 253.6022,912.9041 C257.7442,912.9041 261.1022,915.8921 261.1022,920.0341 C261.1022,920.2801 261.0872,920.4471 261.0642,920.4471" id="nuboso-con-nieve"></path>
        </g>
    </g>
</svg>