<?xml version="1.0" encoding="UTF-8" standalone="no"?>
<svg width="48px" height="47px" viewBox="0 0 48 47" version="1.1" xmlns="http://www.w3.org/2000/svg" xmlns:xlink="http://www.w3.org/1999/xlink">
    <!-- Generator: sketchtool 3.8.3 (29802) - http://www.bohemiancoding.com/sketch -->
    <title>86AFE599-FA09-49A4-95B4-7F8CCDD2CE38</title>
    <desc>Created with sketchtool.</desc>
    <defs></defs>
    <g id="Style-guide" stroke="none" stroke-width="1" fill="none" fill-rule="evenodd">
        <g id="Icons" transform="translate(-56.000000, -745.000000)" fill="#f7d603">
            <path d="M71.3724,775.828339 C70.8014,776.827339 70.2584,777.915339 70.0604,778.718339 C70.0114,778.919339 69.9774,779.107339 69.9774,779.265339 C69.9774,780.923339 71.3194,782.265339 72.9774,782.265339 C74.3674,782.265339 75.5244,781.317339 75.8654,780.035339 C75.9314,779.788339 75.9774,779.533339 75.9774,779.265339 C75.9774,778.562339 75.4374,777.378339 74.8164,776.246339 C73.9724,774.707339 72.9774,773.265339 72.9774,773.265339 C72.9774,773.265339 72.1554,774.456339 71.3724,775.828339 M81.533,788.963439 C81.533,790.621439 82.875,791.963439 84.533,791.963439 C86.191,791.963439 87.533,790.621439 87.533,788.963439 C87.533,787.305439 84.533,782.963439 84.533,782.963439 C84.533,782.963439 81.533,787.305439 81.533,788.963439 M90.546,765.192639 L90.547,765.193639 C88.283,762.912639 85.351,761.416639 82.143,760.950639 C81.631,760.904639 81.259,760.904639 81.259,760.904639 C81.118,760.841639 80.784,760.077639 80.68,759.797639 C80.681,759.797639 80.681,759.798639 80.681,759.798639 C79.335,756.538639 79.973,752.646639 82.619,750.000639 C82.859,749.760639 83.115,749.535639 83.384,749.324639 C83.173,752.695639 84.388,756.016639 86.861,758.486639 C89.333,760.957639 92.654,762.174639 96.025,761.963639 C94.621,763.757639 92.643,764.834639 90.546,765.192639 M94.75,766.861639 C95.723,766.330639 96.644,765.673639 97.466,764.850639 C98.704,763.611639 99.65,762.102639 100.261,760.365639 C100.454,759.820639 100.318,759.213639 99.908,758.807639 C99.499,758.397639 98.892,758.258639 98.349,758.451639 C95.029,759.623639 91.439,758.824639 88.982,756.365639 C86.521,753.904639 85.72,750.315639 86.896,746.998639 C87.089,746.455639 86.951,745.850639 86.54,745.440639 C86.134,745.031639 85.529,744.893639 84.982,745.084639 C83.245,745.699639 81.736,746.643639 80.497,747.879639 C77.754,750.621639 76.629,754.370639 77.105,757.947639 L77.105,757.947639 C75.951,757.580639 74.737,757.381639 73.502,757.381639 C70.262,757.381639 67.157,758.715639 64.909,761.016639 C59.957,761.247639 56,765.346639 56,770.352639 C56,771.539639 56.232,772.670639 56.637,773.715639 C56.637,773.715639 56.637,773.715639 56.637,773.714639 C56.232,774.830639 56,776.026639 56,777.279639 C56,783.069639 60.711,787.779639 66.5,787.779639 C67.784,787.779639 69.039,787.545639 70.223,787.092639 C72.717,789.267639 75.837,790.544639 79.127,790.740639 C78.758,790.241639 78.533,789.631639 78.533,788.963639 C78.533,788.634639 78.654,788.198639 78.843,787.713639 C75.609,787.395639 72.776,785.777639 70.807,783.404639 C69.588,784.264639 68.106,784.779639 66.5,784.779639 C62.358,784.779639 59,781.422639 59,777.279639 C59,773.137639 62.358,769.779639 66.5,769.779639 C67.514,769.779639 68.475,769.986639 69.354,770.350639 C71.344,766.467639 75.34,763.779639 80,763.779639 C84.661,763.779639 88.657,766.467639 90.645,770.350639 C91.526,769.986639 92.489,769.779639 93.5,769.779639 C97.643,769.779639 101,773.137639 101,777.279639 C101,781.422639 97.643,784.779639 93.5,784.779639 C91.895,784.779639 90.414,784.264639 89.194,783.404639 C89.184,783.416639 89.173,783.426639 89.164,783.438639 L90.758,787.409639 C91.647,787.652639 92.566,787.779639 93.5,787.779639 C99.289,787.779639 104,783.069639 104,777.279639 C104,771.914639 99.952,767.482639 94.75,766.861639" id="nuboso-con-lluvia-escasa-noche"></path>
        </g>
    </g>
</svg>