<?xml version="1.0" encoding="UTF-8" standalone="no"?>
<svg width="49px" height="48px" viewBox="0 0 49 48" version="1.1" xmlns="http://www.w3.org/2000/svg" xmlns:xlink="http://www.w3.org/1999/xlink">
    <!-- Generator: sketchtool 3.8.3 (29802) - http://www.bohemiancoding.com/sketch -->
    <title>DA6ECE1C-FF4A-4A92-B838-21BF2D091B06</title>
    <desc>Created with sketchtool.</desc>
    <defs></defs>
    <g id="Style-guide" stroke="none" stroke-width="1" fill="none" fill-rule="evenodd">
        <g id="Icons" transform="translate(-1176.000000, -604.000000)" fill="#f7d603">
            <path d="M1224.1018,630.9581 C1224.1018,625.9521 1220.1468,621.8521 1215.1998,621.6221 C1212.9518,619.3211 1209.8438,617.9871 1206.5998,617.9871 C1205.9018,617.9871 1205.2118,618.0611 1204.5338,618.1811 C1202.7078,615.0851 1199.3478,613.0001 1195.4998,613.0001 C1189.7108,613.0001 1184.9998,617.7111 1184.9998,623.5001 C1184.9998,625.0911 1185.3658,626.5941 1186.0018,627.9471 C1180.4928,628.2611 1176.1018,632.8301 1176.1018,638.4161 C1176.1018,644.2061 1180.8128,648.9161 1186.6018,648.9161 C1187.8848,648.9161 1189.1408,648.6821 1190.3248,648.2291 C1193.0388,650.5961 1196.4928,651.9161 1200.1018,651.9161 C1201.5278,651.9161 1202.9218,651.6871 1204.2618,651.2921 C1203.8148,650.7681 1203.5348,650.0971 1203.5348,649.3541 C1203.5348,649.0761 1203.6248,648.7191 1203.7648,648.3231 C1202.6128,648.7031 1201.3858,648.9161 1200.1018,648.9161 C1196.3868,648.9161 1193.1098,647.1941 1190.9088,644.5411 C1189.6898,645.4011 1188.2068,645.9161 1186.6018,645.9161 C1182.4588,645.9161 1179.1018,642.5591 1179.1018,638.4161 C1179.1018,634.2741 1182.4588,630.9161 1186.6018,630.9161 C1187.6158,630.9161 1188.5768,631.1231 1189.4548,631.4871 C1191.4458,627.6041 1195.4418,624.9161 1200.1018,624.9161 C1204.7618,624.9161 1208.7578,627.6041 1210.7468,631.4871 C1211.6268,631.1231 1212.5898,630.9161 1213.6018,630.9161 C1217.7448,630.9161 1221.1018,634.2741 1221.1018,638.4161 C1221.1018,642.2341 1218.689,645.4451 1215,645.9161 C1215.44,646.4841 1215.6328,647.9971 1215.6888,648.7021 C1220.4808,647.7311 1224.1018,643.4911 1224.1018,638.4161 C1224.1018,637.0641 1223.8358,635.7751 1223.3678,634.5861 C1223.8408,633.4711 1224.1018,632.2441 1224.1018,630.9581 Z M1194.8744,639.5316 C1194.3034,640.5306 1193.7604,641.6186 1193.5634,642.4216 C1193.5134,642.6226 1193.4794,642.8106 1193.4794,642.9686 C1193.4794,644.6266 1194.8214,645.9686 1196.4794,645.9686 C1197.8694,645.9686 1199.0264,645.0206 1199.3674,643.7386 C1199.4334,643.4916 1199.4794,643.2366 1199.4794,642.9686 C1199.4794,642.2656 1198.9394,641.0816 1198.3184,639.9496 C1197.4744,638.4106 1196.4794,636.9686 1196.4794,636.9686 C1196.4794,636.9686 1195.6574,638.1596 1194.8744,639.5316 M1207.035,648.6667 C1207.035,650.3247 1208.377,651.6667 1210.035,651.6667 C1211.693,651.6667 1213.035,650.3247 1213.035,648.6667 C1213.035,647.0087 1210.035,642.6667 1210.035,642.6667 C1210.035,642.6667 1207.035,647.0087 1207.035,648.6667 M1195.5,610 C1196.328,610 1197,609.328 1197,608.5 L1197,605.5 C1197,604.672 1196.328,604 1195.5,604 C1194.672,604 1194,604.672 1194,605.5 L1194,608.5 C1194,609.328 1194.672,610 1195.5,610 M1207.166,613.953 L1209.287,611.832 C1209.873,611.246 1209.873,610.297 1209.287,609.711 C1208.701,609.125 1207.752,609.125 1207.166,609.711 L1205.045,611.832 C1204.459,612.418 1204.459,613.367 1205.045,613.953 C1205.631,614.539 1206.58,614.539 1207.166,613.953 M1177.5,625 L1180.5,625 C1181.328,625 1182,624.328 1182,623.5 C1182,622.672 1181.328,622 1180.5,622 L1177.5,622 C1176.672,622 1176,622.672 1176,623.5 C1176,624.328 1176.672,625 1177.5,625 M1183.832,613.953 C1184.418,614.539 1185.367,614.539 1185.953,613.953 C1186.539,613.367 1186.539,612.418 1185.953,611.832 L1183.832,609.711 C1183.246,609.125 1182.297,609.125 1181.711,609.711 C1181.125,610.297 1181.125,611.246 1181.711,611.832 L1183.832,613.953 Z M1198.0058,621.6221 C1195.4868,621.7391 1193.2278,622.8621 1191.6138,624.5931 C1190.6148,625.2891 1189.7038,626.1131 1188.8908,627.0451 C1188.3228,625.9891 1187.9998,624.7831 1187.9998,623.5001 C1187.9998,619.3571 1191.3578,616.0001 1195.4998,616.0001 C1198.0038,616.0001 1200.2138,617.2291 1201.5738,619.1151 C1200.2528,619.7281 1199.0368,620.5671 1198.0058,621.6221" id="nuboso-con-lluvia-escasa"></path>
        </g>
    </g>
</svg>