<?xml version="1.0" encoding="UTF-8" standalone="no"?>
<svg width="48px" height="48px" viewBox="0 0 48 48" version="1.1" xmlns="http://www.w3.org/2000/svg" xmlns:xlink="http://www.w3.org/1999/xlink">
    <!-- Generator: sketchtool 3.8.3 (29802) - http://www.bohemiancoding.com/sketch -->
    <title>EC815DBE-ADFB-4706-BEAC-64FD1A67D2BE</title>
    <desc>Created with sketchtool.</desc>
    <defs></defs>
    <g id="Style-guide" stroke="none" stroke-width="1" fill="none" fill-rule="evenodd">
        <g id="Icons" transform="translate(-296.000000, -886.000000)" fill="#f7d603">
            <path d="M319.7468,926.7886 C318.8328,926.7886 318.0888,926.0446 318.0888,925.1306 C318.0888,924.2166 318.8328,923.4756 319.7468,923.4756 C320.6608,923.4756 321.4028,924.2166 321.4028,925.1306 C321.4028,926.0446 320.6608,926.7886 319.7468,926.7886 M326.3128,927.0056 L324.6258,926.0326 C324.6768,925.7396 324.7158,925.4406 324.7158,925.1306 C324.7158,924.8196 324.6768,924.5206 324.6218,924.2276 L326.3128,923.2536 C327.1018,922.7926 327.3718,921.7786 326.9188,920.9936 C326.4618,920.1986 325.4498,919.9276 324.6568,920.3846 L322.9518,921.3686 C322.4948,920.9796 321.9788,920.6756 321.4048,920.4686 L321.4048,918.5096 C321.4048,917.5936 320.6608,916.8506 319.7468,916.8506 C318.8328,916.8506 318.0908,917.5936 318.0908,918.5096 L318.0908,920.4666 C317.5158,920.6716 316.9988,920.9796 316.5418,921.3686 L314.8408,920.3846 C314.0458,919.9276 313.0318,920.1966 312.5748,920.9916 C312.1178,921.7806 312.3928,922.7966 313.1838,923.2536 L314.8678,924.2256 C314.8128,924.5206 314.7778,924.8196 314.7778,925.1306 C314.7778,925.4406 314.8128,925.7396 314.8678,926.0326 L313.1838,927.0056 C312.3908,927.4626 312.1178,928.4816 312.5748,929.2726 C313.0318,930.0636 314.0458,930.3336 314.8368,929.8766 L316.5398,928.8976 C316.9968,929.2846 317.5148,929.5896 318.0908,929.7946 L318.0908,931.7576 C318.0908,932.6716 318.8328,933.4096 319.7468,933.4096 C320.6608,933.4096 321.4048,932.6716 321.4048,931.7576 L321.4048,929.7946 C321.9788,929.5896 322.5008,929.2846 322.9538,928.8926 L324.6568,929.8766 C325.4498,930.3336 326.4618,930.0636 326.9188,929.2726 C327.3758,928.4816 327.1058,927.4686 326.3128,927.0056 M305.0504,925.8257 C304.6654,926.2107 304.0424,926.2107 303.6554,925.8257 C303.2754,925.4427 303.2754,924.8157 303.6554,924.4347 C304.0424,924.0527 304.6654,924.0527 305.0504,924.4347 C305.4354,924.8177 305.4314,925.4427 305.0504,925.8257 M307.8984,923.1577 L306.7844,923.4567 C306.6814,923.3157 306.5734,923.1737 306.4434,923.0407 C306.3104,922.9117 306.1694,922.8007 306.0234,922.7007 L306.3214,921.5817 C306.4624,921.0557 306.1504,920.5147 305.6304,920.3767 C305.1034,920.2357 304.5644,920.5487 304.4234,921.0717 L304.1184,922.2027 C303.7614,922.2317 303.4194,922.3197 303.0934,922.4737 L302.2674,921.6517 C301.8804,921.2647 301.2594,921.2667 300.8764,921.6517 C300.4914,922.0367 300.4914,922.6597 300.8764,923.0447 L301.6984,923.8667 C301.5444,924.1947 301.4544,924.5407 301.4274,924.8957 L300.2984,925.1967 C299.7714,925.3417 299.4584,925.8767 299.5994,926.4037 C299.7414,926.9277 300.2804,927.2357 300.8084,927.0987 L301.9214,926.7967 C302.0214,926.9467 302.1324,927.0877 302.2674,927.2187 C302.3964,927.3467 302.5364,927.4627 302.6834,927.5577 L302.3844,928.6737 C302.2434,929.2007 302.5564,929.7437 303.0794,929.8847 C303.6074,930.0247 304.1424,929.7127 304.2824,929.1867 L304.5874,928.0617 C304.9454,928.0327 305.2904,927.9427 305.6184,927.7867 L306.4434,928.6107 C306.8254,928.9977 307.4464,928.9897 307.8334,928.6067 C308.2144,928.2257 308.2204,927.6027 307.8334,927.2187 L307.0074,926.3917 C307.1654,926.0677 307.2594,925.7187 307.2824,925.3607 L308.4134,925.0617 C308.9354,924.9197 309.2474,924.3827 309.1074,923.8547 C308.9664,923.3337 308.4274,923.0207 307.8984,923.1577 M335.8395,925.8247 C335.4525,926.2117 334.8295,926.2097 334.4445,925.8247 C334.0645,925.4437 334.0605,924.8187 334.4445,924.4317 C334.8295,924.0497 335.4545,924.0497 335.8395,924.4317 C336.2205,924.8167 336.2205,925.4437 335.8395,925.8247 M339.2005,925.1977 L338.0685,924.8967 C338.0405,924.5377 337.9545,924.1957 337.7965,923.8677 L338.6185,923.0457 C339.0055,922.6587 339.0035,922.0337 338.6185,921.6527 C338.2355,921.2677 337.6145,921.2657 337.2285,921.6527 L336.4035,922.4727 C336.0795,922.3207 335.7345,922.2327 335.3765,922.2037 L335.0755,921.0727 C334.9355,920.5497 334.3965,920.2347 333.8685,920.3757 C333.3435,920.5177 333.0365,921.0567 333.1735,921.5827 L333.4745,922.6977 C333.3255,922.7997 333.1855,922.9127 333.0525,923.0417 C332.9235,923.1747 332.8145,923.3147 332.7125,923.4597 L331.5975,923.1587 C331.0715,923.0177 330.5285,923.3347 330.3885,923.8557 C330.2475,924.3837 330.5645,924.9207 331.0835,925.0627 L332.2085,925.3657 C332.2395,925.7197 332.3295,926.0647 332.4875,926.3927 L331.6615,927.2197 C331.2785,927.6037 331.2805,928.2247 331.6655,928.6077 C332.0485,928.9907 332.6695,928.9947 333.0525,928.6117 L333.8805,927.7837 C334.2045,927.9437 334.5525,928.0337 334.9115,928.0607 L335.2085,929.1877 C335.3535,929.7137 335.8885,930.0257 336.4155,929.8857 C336.9395,929.7447 337.2555,929.2057 337.1145,928.6747 L336.8145,927.5587 C336.9545,927.4597 337.0995,927.3477 337.2325,927.2197 C337.3605,927.0887 337.4705,926.9437 337.5715,926.7997 L338.6895,927.0997 C339.2145,927.2407 339.7555,926.9267 339.8945,926.4047 C340.0345,925.8817 339.7245,925.3427 339.2005,925.1977 M322.6184,891.0017 C322.8584,890.7617 323.1144,890.5367 323.3844,890.3257 C323.1734,893.6967 324.3874,897.0177 326.8604,899.4877 C329.3334,901.9587 332.6534,903.1757 336.0244,902.9647 C334.6214,904.7587 332.6424,905.8357 330.5464,906.1937 C328.2484,903.8827 325.2664,902.3687 322.0034,901.9267 L322.0034,901.9267 C321.5914,901.5147 321.1434,901.1457 320.6804,900.7987 C320.6804,900.7987 320.6804,900.7987 320.6804,900.7997 C319.3354,897.5397 319.9724,893.6477 322.6184,891.0017 M296.4264,920.4477 L299.5994,920.4477 C299.2144,919.4477 299.0004,918.9377 299.0004,917.8947 C299.0004,913.7517 302.3574,910.5877 306.5004,910.5877 C307.5134,910.5877 308.4744,910.8917 309.3534,911.2547 C311.3434,907.3717 315.3394,904.7327 320.0004,904.7327 C324.6604,904.7327 328.6564,907.4447 330.6444,911.3267 C331.5254,910.9637 332.4884,910.7687 333.5004,910.7687 C337.6424,910.7687 341.0004,913.7457 341.0004,917.8887 C341.0004,918.9317 340.7864,919.4477 340.4004,920.4477 L343.5734,920.4477 C343.8464,919.4477 344.0004,918.9157 344.0004,917.8947 C344.0004,912.5287 339.9514,908.2907 334.7504,907.6697 C335.7224,907.1387 336.6434,906.5777 337.4654,905.7547 C338.7044,904.5167 339.6494,903.0547 340.2604,901.3187 C340.4544,900.7737 340.3174,900.1907 339.9074,899.7847 C339.4994,899.3737 338.8914,899.2477 338.3484,899.4407 C335.0284,900.6127 331.4384,899.8197 328.9814,897.3607 C326.5204,894.8997 325.7194,891.3127 326.8954,887.9967 C327.0894,887.4537 326.9504,886.8497 326.5404,886.4397 C326.1344,886.0317 325.5284,885.8937 324.9814,886.0847 C323.2454,886.6997 321.7354,887.6437 320.4974,888.8807 C317.7534,891.6227 316.6284,895.3717 317.1044,898.9477 C317.1044,898.9487 317.1054,898.9487 317.1054,898.9487 C315.9504,898.5807 314.7374,898.3827 313.5024,898.3827 C310.2614,898.3827 307.1564,899.7167 304.9084,902.0177 C299.9574,902.2477 296.0004,906.3477 296.0004,911.3537 C296.0004,912.5407 296.2314,913.6717 296.6364,914.7167 C296.6364,914.7167 296.6364,914.7167 296.6364,914.7157 C296.2324,915.8307 296.0004,916.6417 296.0004,917.8947 C296.0004,918.9157 296.1534,919.4477 296.4264,920.4477" id="nuboso-con-nieve-noche"></path>
        </g>
    </g>
</svg>