<?xml version="1.0" encoding="UTF-8" standalone="no"?>
<svg width="48px" height="48px" viewBox="0 0 48 48" version="1.1" xmlns="http://www.w3.org/2000/svg" xmlns:xlink="http://www.w3.org/1999/xlink">
    <!-- Generator: sketchtool 3.8.3 (29802) - http://www.bohemiancoding.com/sketch -->
    <title>8D98A272-C833-46DA-ACC2-5873EEFDC849</title>
    <desc>Created with sketchtool.</desc>
    <defs></defs>
    <g id="Style-guide" stroke="none" stroke-width="1" fill="none" fill-rule="evenodd">
        <g id="Icons" transform="translate(-696.000000, -884.000000)" fill="#f7d603">
            <path d="M715.5,890 C716.328,890 717,889.328 717,888.5 L717,885.5 C717,884.672 716.328,884 715.5,884 C714.672,884 714,884.672 714,885.5 L714,888.5 C714,889.328 714.672,890 715.5,890 M727.166,893.953 L729.287,891.832 C729.873,891.246 729.873,890.297 729.287,889.711 C728.701,889.125 727.752,889.125 727.166,889.711 L725.045,891.832 C724.459,892.418 724.459,893.367 725.045,893.953 C725.631,894.539 726.58,894.539 727.166,893.953 M697.5,905 L700.5,905 C701.328,905 702,904.328 702,903.5 C702,902.672 701.328,902 700.5,902 L697.5,902 C696.672,902 696,902.672 696,903.5 C696,904.328 696.672,905 697.5,905 M703.832,893.953 C704.418,894.539 705.367,894.539 705.953,893.953 C706.539,893.367 706.539,892.418 705.953,891.832 L703.832,889.711 C703.246,889.125 702.297,889.125 701.711,889.711 C701.125,890.297 701.125,891.246 701.711,891.832 L703.832,893.953 Z M715.4576,919.875 L718.4576,922.875 L715.4576,931.875 L724.4576,922.875 L721.4576,919.875 L724.4576,910.875 L715.4576,919.875 Z M728.035,928.6667 C728.035,930.3247 729.377,931.6667 731.035,931.6667 C732.693,931.6667 734.035,930.3247 734.035,928.6667 C734.035,927.0087 731.035,922.6667 731.035,922.6667 C731.035,922.6667 728.035,927.0087 728.035,928.6667 M705.8744,918.5315 C705.3034,919.5305 704.7604,920.6185 704.5634,921.4215 C704.5134,921.6225 704.4794,921.8105 704.4794,921.9685 C704.4794,923.6265 705.8214,924.9685 707.4794,924.9685 C708.8694,924.9685 710.0264,924.0205 710.3674,922.7385 C710.4334,922.4915 710.4794,922.2365 710.4794,921.9685 C710.4794,921.2655 709.9394,920.0815 709.3184,918.9495 C708.4744,917.4105 707.4794,915.9685 707.4794,915.9685 C707.4794,915.9685 706.6574,917.1595 705.8744,918.5315 M715.5,896 C718.003,896 720.214,897.23 721.574,899.115 C720.253,899.728 719.036,900.568 718.006,901.622 C715.487,901.739 713.228,902.862 711.614,904.593 C710.615,905.289 709.704,906.113 708.891,907.045 C708.323,905.99 708,904.783 708,903.5 C708,899.357 711.357,896 715.5,896 L715.5,896 Z M699.85,922 C699.375,921 699.102,919.749 699.102,918.583 C699.102,914.441 702.459,911 706.602,911 C707.615,911 708.576,911.165 709.455,911.529 C711.446,907.646 715.442,904.937 720.102,904.937 C724.762,904.937 728.758,907.615 730.746,911.497 C731.627,911.134 732.59,910.922 733.602,910.922 C737.744,910.922 741.102,914.443 741.102,918.586 C741.102,919.752 740.828,921 740.353,922 L743.581,922 C743.915,921 743.918,919.718 743.918,918.583 C743.918,917.231 744,915.858 743,914.67 L743,914.629 C744,913.513 743.918,912.265 743.918,910.979 C743.918,905.973 740.055,901.863 735.107,901.633 C732.859,899.332 729.798,897.993 726.554,897.993 C725.855,897.993 725.189,898.064 724.51,898.184 C722.685,895.088 719.336,893.001 715.488,893.001 C709.699,893.001 704.994,897.712 704.994,903.501 C704.994,905.091 705.363,906.595 705.999,907.947 C700.49,908.261 696.1,912.997 696.1,918.583 C696.1,919.718 696.288,921 696.623,922 L699.85,922 Z" id="nuboso-con-tormenta"></path>
        </g>
    </g>
</svg>