<?xml version="1.0" encoding="UTF-8" standalone="no"?>
<svg width="48px" height="45px" viewBox="0 0 48 45" version="1.1" xmlns="http://www.w3.org/2000/svg" xmlns:xlink="http://www.w3.org/1999/xlink">
    <!-- Generator: sketchtool 3.8.3 (29802) - http://www.bohemiancoding.com/sketch -->
    <title>7EA08205-BAEF-49CA-B848-589FDFBD5993</title>
    <desc>Created with sketchtool.</desc>
    <defs></defs>
    <g id="Style-guide" stroke="none" stroke-width="1" fill="none" fill-rule="evenodd">
        <g id="Icons" transform="translate(-296.000000, -606.000000)" fill="#f7d603">
            <path d="M336.707649,626.8991 C337.163789,626.559918 337.625731,626.226538 338.039018,625.813345 C339.274854,624.575544 340.216421,623.068737 340.826573,621.335778 C341.021474,620.793837 340.883088,620.185649 340.473637,619.780223 C340.066246,619.370866 339.461988,619.23248 338.918269,619.425415 C335.606363,620.595006 332.023485,619.799684 329.571275,617.343544 C327.115135,614.88731 326.315883,611.306492 327.489404,607.99655 C327.680468,607.452644 327.543953,606.848386 327.134596,606.43903 C326.72917,606.033603 326.122947,605.893158 325.579041,606.084316 C323.844117,606.700176 322.339275,607.639684 321.103345,608.875614 C317.965006,612.010117 316.988351,616.454562 318.064374,620.458492 C314.017591,620.975076 310.380164,623.125158 307.957146,626.427427 C307.467883,626.357252 306.976655,626.322164 306.479532,626.322164 C300.701754,626.322164 296,631.023918 296,636.80179 C296,642.579474 300.701754,647.281228 306.479532,647.281228 C307.760281,647.281228 309.013708,647.04731 310.194994,646.595006 C312.904421,648.957579 316.350877,650.27538 319.953216,650.27538 C323.559485,650.27538 327.001918,648.957579 329.711439,646.595006 C330.892725,647.04731 332.146152,647.281228 333.426901,647.281228 C339.204678,647.281228 343.906433,642.579474 343.906433,636.80179 C343.906526,632.175918 340.873357,628.285111 336.707649,626.8991 L336.707649,626.8991 Z M323.220304,610.992667 C323.458152,610.750983 323.713497,610.526796 323.982503,610.316269 C323.771977,613.682725 324.986386,616.994632 327.454222,619.460503 C329.922152,621.928339 333.233965,623.140784 336.600515,622.932223 C335.310035,624.577509 333.532257,625.600854 331.629661,626.037532 C329.068257,622.78607 325.30414,620.739287 321.154058,620.406 C320.005895,617.22855 320.678456,613.534608 323.220304,610.992667 L323.220304,610.992667 Z M333.426994,644.287076 C331.824655,644.287076 330.347135,643.772456 329.128702,642.914725 C326.931836,645.56193 323.660819,647.281228 319.95331,647.281228 C316.245708,647.281228 312.97469,645.56193 310.777918,642.914725 C309.561544,643.772456 308.082058,644.287076 306.479626,644.287076 C302.345076,644.287076 298.994246,640.936246 298.994246,636.80179 C298.994246,632.66724 302.345076,629.31641 306.479626,629.31641 C307.491275,629.31641 308.450339,629.521135 309.327626,629.883614 C311.216561,626.201275 314.918269,623.624339 319.274947,623.376667 C319.503064,623.3631 319.725193,623.327918 319.95331,623.327918 C321.161825,623.327918 322.321684,623.517018 323.415298,623.850304 C324.892819,624.302608 326.239906,625.039357 327.409497,625.98869 C328.526503,626.89517 329.462175,628.006187 330.198924,629.253813 C330.323649,629.464339 330.464094,629.66317 330.577029,629.883427 C331.456187,629.520854 332.41731,629.316223 333.426994,629.316223 C337.561544,629.316223 340.912374,632.667053 340.912374,636.801603 C340.912374,640.936152 337.561544,644.287076 333.426994,644.287076 L333.426994,644.287076 Z" id="poco-nuboso-noche"></path>
        </g>
    </g>
</svg>