<?xml version="1.0" encoding="UTF-8" standalone="no"?>
<svg width="200px" height="162px" viewBox="0 0 200 162" version="1.1" xmlns="http://www.w3.org/2000/svg" xmlns:xlink="http://www.w3.org/1999/xlink">
    <!-- Generator: sketchtool 3.8.2 (29753) - http://www.bohemiancoding.com/sketch -->
    <title>48F3C201-98CC-409A-BFC2-EC3611BDAB20</title>
    <desc>Created with sketchtool.</desc>
    <defs>
        <polygon id="path-1" points="7.61846154 11.8430769 7.61846154 0.297846154 0.454892308 0.297846154 0.454892308 11.8430769 7.61846154 11.8430769"></polygon>
        <polygon id="path-3" points="0.534215385 6.15384615 3.92313846 6.15384615 3.92313846 0.236369231 0.534215385 0.236369231 0.534215385 6.15384615"></polygon>
    </defs>
    <g id="Symbols" stroke="none" stroke-width="1" fill="none" fill-rule="evenodd">
        <g id="footer" transform="translate(-180.000000, -72.000000)">
            <g id="Logotipo-turismo" transform="translate(180.000000, 72.000000)">
                <g id="Group-112" transform="translate(0.000000, 10.830769)">
                    <path d="M4.60178462,47.2277538 C5.08855385,47.3434462 5.73778462,47.4129846 6.24793846,47.4129846 C8.14886154,47.4129846 10.5827077,46.6942154 10.5827077,43.5416 C10.5827077,40.8979077 9.07624615,40.3422154 6.68855385,40.3422154 L4.60178462,40.3422154 L4.60178462,47.2277538 Z M2.70086154,45.4886769 C2.70086154,43.4948308 2.60793846,41.4782154 2.51563077,39.4843692 C3.25716923,39.5539077 4.02209231,39.6006769 4.76424615,39.6006769 C5.50578462,39.6006769 6.98947692,39.4843692 7.63870769,39.4843692 C9.03009231,39.4843692 12.7162462,39.5305231 12.7162462,43.4025231 C12.7162462,47.4825231 8.70516923,48.2708308 6.47993846,48.2708308 C5.78455385,48.2708308 5.20486154,48.2474462 4.60178462,48.2019077 L4.60178462,49.4769846 C4.60178462,51.4702154 4.69470769,53.4874462 4.78763077,55.4806769 C4.39316923,55.4117538 4.02209231,55.3649846 3.65101538,55.3649846 C3.28055385,55.3649846 2.90947692,55.4117538 2.51563077,55.4806769 C2.60793846,53.4874462 2.70086154,51.4702154 2.70086154,49.4769846 L2.70086154,45.4886769 Z" id="Fill-1" fill="#FEFEFE"></path>
                    <path d="M14.5260923,44.6083077 C14.5260923,42.4753846 14.4799385,39.4846154 14.3408615,37.9307692 C14.6885538,38.0009231 15.0362462,38.0464615 15.3839385,38.0464615 C15.7322462,38.0464615 16.0793231,38.0009231 16.4270154,37.9307692 C16.2879385,39.4846154 16.2417846,42.4753846 16.2417846,44.6083077 L16.2417846,48.804 C16.2417846,50.9369231 16.2879385,53.9276923 16.4270154,55.4809231 C16.0793231,55.4113846 15.7322462,55.3646154 15.3839385,55.3646154 C15.0362462,55.3646154 14.6885538,55.4113846 14.3408615,55.4809231 C14.4799385,53.9276923 14.5260923,50.9369231 14.5260923,48.804 L14.5260923,44.6083077 Z" id="Fill-3" fill="#FEFEFE"></path>
                    <path d="M25.1683692,49.6385846 C23.5683692,50.1721231 20.3234462,50.0096615 20.3234462,52.5370462 C20.3234462,53.9973538 21.3203692,54.7388923 22.3400615,54.7388923 C23.5222154,54.7388923 24.5425231,53.9739692 25.0754462,53.1161231 L25.1683692,49.6385846 Z M19.4422154,45.5118154 C20.8329846,44.4687385 21.9462154,44.1678154 23.1745231,44.1678154 C25.4003692,44.1678154 26.9302154,45.5352 26.9302154,47.5979692 C26.9302154,49.3370462 26.8379077,51.0533538 26.8379077,52.9998154 C26.8379077,53.7653538 26.8379077,54.7155077 27.7419077,54.7155077 C27.8809846,54.7155077 28.0668308,54.7155077 28.2286769,54.6232 L28.2286769,55.1327385 C27.9043692,55.2724308 27.3474462,55.4576615 26.7449846,55.4576615 C25.7480615,55.4576615 25.2379077,54.8084308 25.1456,54.0207385 C24.0323692,55.1327385 23.0822154,55.7130462 21.5056,55.7130462 C19.9523692,55.7130462 18.4225231,54.6232 18.4225231,52.8613538 C18.4225231,51.0065846 19.6742154,50.0096615 21.6908308,49.6853538 C25.0526769,49.1518154 25.1683692,48.9659692 25.1683692,48.0619692 C25.1683692,46.5093538 24.4729846,45.1407385 22.6182154,45.1407385 C21.3899077,45.1407385 20.2305231,45.7204308 19.6976,46.7179692 L19.4422154,46.7179692 L19.4422154,45.5118154 Z" id="Fill-5" fill="#FEFEFE"></path>
                    <path d="M27.6969846,44.3988308 C28.0446769,44.4689846 28.4157538,44.5145231 28.7634462,44.5145231 C29.1117538,44.5145231 29.4822154,44.4689846 29.8299077,44.3988308 C30.7806769,47.3206769 32.0089846,50.2185231 33.2840615,53.3009846 C34.5591385,50.6357538 35.8114462,47.3206769 36.7388308,44.3988308 C36.9936,44.4689846 37.2483692,44.5145231 37.5037538,44.5145231 C37.7585231,44.5145231 38.0139077,44.4689846 38.2686769,44.3988308 C37.4342154,46.0917538 31.7769846,58.4246769 30.8040615,61.5779077 C30.5486769,61.5083692 30.2705231,61.4616 30.0157538,61.4616 C29.7603692,61.4616 29.4822154,61.5083692 29.2274462,61.5779077 C30.4557538,59.5606769 31.4760615,57.5212923 32.3339077,55.5040615 C31.2674462,52.7219077 28.3462154,45.8597538 27.6969846,44.3988308" id="Fill-7" fill="#FEFEFE"></path>
                    <path d="M44.7853538,49.6385846 C43.1859692,50.1721231 39.9404308,50.0096615 39.9404308,52.5370462 C39.9404308,53.9973538 40.9373538,54.7388923 41.9570462,54.7388923 C43.1392,54.7388923 44.1595077,53.9739692 44.6924308,53.1161231 L44.7853538,49.6385846 Z M39.0592,45.5118154 C40.4499692,44.4687385 41.5632,44.1678154 42.7915077,44.1678154 C45.0173538,44.1678154 46.5472,45.5352 46.5472,47.5979692 C46.5472,49.3370462 46.4548923,51.0533538 46.4548923,52.9998154 C46.4548923,53.7653538 46.4548923,54.7155077 47.3588923,54.7155077 C47.4979692,54.7155077 47.6838154,54.7155077 47.8456615,54.6232 L47.8456615,55.1327385 C47.5213538,55.2724308 46.9644308,55.4576615 46.3619692,55.4576615 C45.3650462,55.4576615 44.8548923,54.8084308 44.7625846,54.0207385 C43.6493538,55.1327385 42.6992,55.7130462 41.1225846,55.7130462 C39.5693538,55.7130462 38.0395077,54.6232 38.0395077,52.8613538 C38.0395077,51.0065846 39.2912,50.0096615 41.3078154,49.6853538 C44.6696615,49.1518154 44.7853538,48.9659692 44.7853538,48.0619692 C44.7853538,46.5093538 44.0899692,45.1407385 42.2352,45.1407385 C41.0068923,45.1407385 39.8475077,45.7204308 39.3145846,46.7179692 L39.0592,46.7179692 L39.0592,45.5118154 Z" id="Fill-9" fill="#FEFEFE"></path>
                    <path d="M58.9998154,54.8550154 C61.4108923,54.8550154 62.4539692,52.2353231 62.4539692,49.7079385 C62.4539692,46.7873231 61.2718154,45.1405538 59.0693538,45.1405538 C56.8435077,45.1405538 55.8004308,47.3436308 55.8004308,50.1485538 C55.8004308,53.8580923 57.4927385,54.8550154 58.9998154,54.8550154 L58.9998154,54.8550154 Z M62.4305846,53.2082462 L62.3844308,53.2082462 C61.9210462,54.1824 60.7382769,55.7128615 58.4662769,55.7128615 C56.1247385,55.7128615 53.7604308,53.9971692 53.7604308,50.0100923 C53.7604308,46.0685538 56.3333538,44.1676308 58.7450462,44.1676308 C60.4601231,44.1676308 61.6656615,44.9787077 62.3148923,46.4857846 L62.3610462,46.4857846 C62.3610462,43.5645538 62.3610462,39.9251692 62.2687385,37.9307077 C62.6392,37.9774769 62.9868923,38.0464 63.3118154,38.0464 C63.6361231,38.0464 63.9610462,37.9774769 64.3548923,37.9307077 C64.1462769,39.8784 64.0767385,45.9528615 64.0767385,49.9165538 C64.0767385,52.0267077 64.1228923,53.6260923 64.1462769,55.4808615 C63.7985846,55.4340923 63.5204308,55.3651692 63.2422769,55.3651692 C62.9641231,55.3651692 62.6859692,55.4340923 62.3610462,55.4808615 L62.4305846,53.2082462 Z" id="Fill-11" fill="#FEFEFE"></path>
                    <path d="M67.4403077,48.9201231 C68.3910769,48.9435077 69.4803077,48.9896615 70.4538462,48.9896615 C71.4741538,48.9896615 72.5633846,48.9435077 73.5375385,48.9201231 C73.5375385,47.2733538 73.0969231,44.9096615 70.6858462,44.9096615 C68.4138462,44.9096615 67.556,47.2512 67.4403077,48.9201231 M70.6390769,44.1675077 C73.8852308,44.1675077 75.4384615,46.3232 75.4384615,48.8967385 C75.4384615,49.1982769 75.4150769,49.4992 75.3923077,49.8007385 C73.7227692,49.7779692 72.0766154,49.7312 70.4304615,49.7312 C69.4107692,49.7312 68.4138462,49.7779692 67.3941538,49.8007385 C67.3707692,50.0327385 67.3707692,50.2413538 67.3707692,50.4499692 C67.3707692,52.8616615 68.8083077,54.7392 71.3812308,54.7392 C72.6101538,54.7392 74.0476923,54.0204308 74.8587692,53.0924308 L74.9750769,53.1625846 L74.8353846,54.2985846 C73.9086154,55.0401231 72.4015385,55.7127385 70.964,55.7127385 C67.6255385,55.7127385 65.3307692,53.3478154 65.3307692,50.2647385 C65.3307692,46.5090462 67.2316923,44.1675077 70.6390769,44.1675077" id="Fill-13" fill="#FEFEFE"></path>
                    <path d="M82.5121846,45.4886769 C82.5121846,43.4948308 82.4192615,41.4782154 82.3269538,39.4843692 C82.7208,39.5539077 83.0918769,39.6006769 83.4629538,39.6006769 C83.8334154,39.6006769 84.2044923,39.5539077 84.5989538,39.4843692 C84.5060308,41.4782154 84.4131077,43.4948308 84.4131077,45.4886769 C84.4131077,49.3834462 84.4592615,52.1194462 84.4826462,54.3908308 C86.6623385,54.3908308 88.5632615,54.3908308 90.8814154,54.0899077 C90.8118769,54.3219077 90.7651077,54.5539077 90.7651077,54.7846769 C90.7651077,55.0166769 90.8118769,55.2486769 90.8814154,55.4806769 C89.4672615,55.4117538 88.0297231,55.3649846 86.6155692,55.3649846 C85.1786462,55.3649846 83.7644923,55.4117538 82.3269538,55.4806769 C82.4192615,53.4874462 82.5121846,51.4702154 82.5121846,49.4769846 L82.5121846,45.4886769 Z" id="Fill-15" fill="#FEFEFE"></path>
                    <path d="M98.3943385,49.6385846 C96.7949538,50.1721231 93.5494154,50.0096615 93.5494154,52.5370462 C93.5494154,53.9973538 94.5463385,54.7388923 95.5660308,54.7388923 C96.7481846,54.7388923 97.7684923,53.9739692 98.3014154,53.1161231 L98.3943385,49.6385846 Z M92.6681846,45.5118154 C94.0589538,44.4687385 95.1721846,44.1678154 96.4004923,44.1678154 C98.6263385,44.1678154 100.156185,45.5352 100.156185,47.5979692 C100.156185,49.3370462 100.063877,51.0533538 100.063877,52.9998154 C100.063877,53.7653538 100.063877,54.7155077 100.967877,54.7155077 C101.107569,54.7155077 101.2928,54.7155077 101.455262,54.6232 L101.455262,55.1327385 C101.130954,55.2724308 100.574031,55.4576615 99.9709538,55.4576615 C98.9740308,55.4576615 98.4638769,54.8084308 98.3715692,54.0207385 C97.2583385,55.1327385 96.3081846,55.7130462 94.7315692,55.7130462 C93.1783385,55.7130462 91.6484923,54.6232 91.6484923,52.8613538 C91.6484923,51.0065846 92.9001846,50.0096615 94.9168,49.6853538 C98.2786462,49.1518154 98.3943385,48.9659692 98.3943385,48.0619692 C98.3943385,46.5093538 97.6989538,45.1407385 95.8441846,45.1407385 C94.6158769,45.1407385 93.4564923,45.7204308 92.9235692,46.7179692 L92.6681846,46.7179692 L92.6681846,45.5118154 Z" id="Fill-17" fill="#FEFEFE"></path>
                    <path d="M102.755446,53.2552615 C103.080369,53.8811077 104.076677,54.8552615 105.375138,54.8552615 C106.533908,54.8552615 107.623754,54.1364923 107.623754,52.7678769 C107.623754,49.8940308 102.152369,51.5863385 102.152369,47.6681846 C102.152369,45.6515692 103.543138,44.1678769 106.000985,44.1678769 C107.136369,44.1678769 107.855754,44.5851077 108.574523,44.8171077 C108.319138,45.2564923 108.064369,46.1143385 108.0176,46.4626462 L107.740062,46.4626462 C107.508062,45.7204923 106.742523,45.0257231 105.699446,45.0257231 C104.794831,45.0257231 103.7296,45.6048 103.7296,46.9721846 C103.7296,49.9863385 109.200369,48.1315692 109.200369,52.0491077 C109.200369,53.8115692 107.600369,55.7131077 105.026831,55.7131077 C103.613292,55.7131077 102.685292,55.3180308 102.036677,54.9475692 C102.221908,54.5537231 102.476677,53.7192615 102.476677,53.2552615 L102.755446,53.2552615 Z" id="Fill-19" fill="#FEFEFE"></path>
                    <path d="M120.724677,42.3125538 L118.196677,48.2017846 C119.008985,48.2017846 119.890215,48.2473231 120.701292,48.2473231 C121.559138,48.2473231 122.439754,48.2239385 123.2976,48.2017846 L120.724677,42.3125538 Z M121.488985,39.1833231 C123.7616,44.5617846 127.238523,52.9999385 128.468062,55.4805538 C128.050831,55.4116308 127.655754,55.3648615 127.238523,55.3648615 C126.821292,55.3648615 126.427446,55.4116308 126.010215,55.4805538 C125.5696,53.8811692 124.456369,51.3310154 123.621908,49.2682462 C122.6256,49.2448615 121.605292,49.2214769 120.5856,49.2214769 C119.634831,49.2214769 118.707446,49.2448615 117.757292,49.2682462 C116.783138,51.6553231 115.901908,54.0202462 115.508062,55.4805538 C115.207138,55.4116308 114.928369,55.3648615 114.650215,55.3648615 C114.372677,55.3648615 114.093908,55.4116308 113.792369,55.4805538 C116.2736,50.0559385 118.684062,44.6540923 121.0496,39.1833231 L121.488985,39.1833231 Z" id="Fill-21" fill="#FEFEFE"></path>
                    <path d="M129.5136,48.7348308 C129.5136,47.3434462 129.466831,45.7206769 129.327754,44.3988308 C129.675446,44.4689846 130.023754,44.5145231 130.371446,44.5145231 C130.602831,44.5145231 130.950523,44.4689846 131.298831,44.3988308 C131.252062,45.0252923 131.229292,45.6277538 131.229292,46.2536 L131.275446,46.2536 C132.109908,44.8394462 133.245292,44.1674462 134.728985,44.1674462 C136.306215,44.1674462 137.766523,45.1403692 138.091446,46.4622154 L138.136985,46.4622154 C138.879138,44.9785231 140.224369,44.1674462 141.869908,44.1674462 C143.887138,44.1674462 145.4176,45.2105231 145.4176,47.8302154 C145.4176,48.8966769 145.277908,50.2185231 145.277908,52.9539077 C145.277908,53.7883692 145.277908,54.5071385 145.347446,55.4806769 C145.022523,55.4117538 144.698215,55.3649846 144.351138,55.3649846 C144.002831,55.3649846 143.655138,55.4117538 143.330215,55.4806769 C143.423138,54.6228308 143.562215,52.3046769 143.562215,48.1551385 C143.562215,46.6019077 142.959754,45.3723692 141.127754,45.3723692 C140.015754,45.3723692 139.226831,45.8825231 138.8096,46.4622154 C138.323446,47.1576 138.253292,47.3896 138.253292,51.7951385 C138.253292,53.1391385 138.300062,54.0431385 138.368985,55.4806769 C138.021292,55.4117538 137.674215,55.3649846 137.349292,55.3649846 C137.024985,55.3649846 136.676677,55.4117538 136.328985,55.4806769 C136.468062,53.7416 136.5376,51.9108308 136.5376,50.2185231 C136.5376,47.3434462 136.514831,47.1576 136.120369,46.4388308 C135.795446,45.8597538 134.960985,45.3723692 134.196677,45.3723692 C132.202215,45.3723692 131.229292,46.7637538 131.229292,49.1748308 L131.229292,51.1459077 C131.229292,52.5366769 131.275446,54.1588308 131.414523,55.4806769 C131.066831,55.4117538 130.718523,55.3649846 130.371446,55.3649846 C130.023754,55.3649846 129.675446,55.4117538 129.327754,55.4806769 C129.466831,54.1588308 129.5136,52.5366769 129.5136,51.1459077 L129.5136,48.7348308 Z" id="Fill-23" fill="#FEFEFE"></path>
                    <path d="M153.858338,38.9512615 C154.183262,38.6263385 154.553723,38.3949538 154.901415,38.3949538 C155.202954,38.3949538 155.666954,38.6497231 155.666954,39.1364923 C155.666954,39.6934154 155.202954,39.9943385 154.832492,40.2263385 L151.423877,42.4054154 L150.450338,42.4054154 L153.858338,38.9512615 Z M148.781415,48.9198769 C149.731569,48.9432615 150.8208,48.9894154 151.794338,48.9894154 C152.815262,48.9894154 153.904492,48.9432615 154.878031,48.9198769 C154.878031,47.2737231 154.437415,44.9094154 152.026338,44.9094154 C149.754954,44.9094154 148.897108,47.2509538 148.781415,48.9198769 L148.781415,48.9198769 Z M151.9808,44.1678769 C155.226338,44.1678769 156.778954,46.3229538 156.778954,48.8964923 C156.778954,49.1980308 156.755569,49.4989538 156.733415,49.8004923 C155.063262,49.7777231 153.417723,49.7309538 151.770954,49.7309538 C150.751262,49.7309538 149.754954,49.7777231 148.734646,49.8004923 C148.711262,50.0324923 148.711262,50.2411077 148.711262,50.4497231 C148.711262,52.8614154 150.1488,54.7389538 152.722338,54.7389538 C153.951262,54.7389538 155.388185,54.0208 156.199877,53.0928 L156.316185,53.1629538 L156.176492,54.2983385 C155.249723,55.0404923 153.742646,55.7131077 152.304492,55.7131077 C148.966646,55.7131077 146.671877,53.3481846 146.671877,50.2644923 C146.671877,46.5094154 148.5728,44.1678769 151.9808,44.1678769 L151.9808,44.1678769 Z" id="Fill-25" fill="#FEFEFE"></path>
                    <path d="M163.365846,46.3006154 C163.203385,46.1147692 162.693231,45.9295385 162.229231,45.9295385 C160.745538,45.9295385 159.864923,47.3436923 159.864923,49.1523077 C159.864923,53.1861538 159.864923,54.4144615 159.957846,55.4809231 C159.656308,55.4113846 159.332,55.3646154 159.029846,55.3646154 C158.706154,55.3646154 158.404,55.4113846 158.056923,55.4809231 C158.149231,54.3449231 158.149231,52.5369231 158.149231,49.94 L158.149231,49.1978462 C158.149231,47.9929231 158.149231,46.3935385 158.056923,44.3990769 C158.404,44.4686154 158.706154,44.5147692 159.029846,44.5147692 C159.332,44.5147692 159.656308,44.4686154 159.957846,44.3990769 C159.841538,45.5123077 159.841538,46.0686154 159.841538,46.6476923 L159.887692,46.6710769 C160.768923,45.0021538 161.882154,44.1676923 162.948,44.1676923 C163.226154,44.1676923 163.388615,44.1898462 163.689538,44.3061538 C163.527692,44.6772308 163.527692,45.5584615 163.527692,46.1849231 L163.365846,46.3006154 Z" id="Fill-27" fill="#FEFEFE"></path>
                    <path d="M165.220923,48.7348308 C165.220923,47.3434462 165.174769,45.7206769 165.035692,44.3988308 C165.383385,44.4689846 165.731692,44.5145231 166.078769,44.5145231 C166.427077,44.5145231 166.774769,44.4689846 167.122462,44.3988308 C166.983385,45.7206769 166.936615,47.3434462 166.936615,48.7348308 L166.936615,51.1459077 C166.936615,52.5366769 166.983385,54.1588308 167.122462,55.4806769 C166.774769,55.4117538 166.427077,55.3649846 166.078769,55.3649846 C165.731692,55.3649846 165.383385,55.4117538 165.035692,55.4806769 C165.174769,54.1588308 165.220923,52.5366769 165.220923,51.1459077 L165.220923,48.7348308 Z M166.078769,39.1834462 C166.728,39.1834462 167.261538,39.7163692 167.261538,40.3656 C167.261538,41.0142154 166.728,41.5471385 166.078769,41.5471385 C165.429538,41.5471385 164.897231,41.0142154 164.897231,40.3656 C164.897231,39.7163692 165.429538,39.1834462 166.078769,39.1834462 L166.078769,39.1834462 Z" id="Fill-29" fill="#FEFEFE"></path>
                    <path d="M175.028738,44.1676923 C176.721046,44.1676923 178.181354,44.6544615 178.761662,45.1873846 C178.553046,45.6513846 178.366585,46.1615385 178.250892,46.7178462 L178.065662,46.7178462 C177.625046,45.9295385 176.558585,44.9098462 175.098277,44.9098462 C172.293354,44.9098462 171.156738,47.0649231 171.156738,49.9166154 C171.156738,53.0926154 172.594277,54.7387692 175.1672,54.7387692 C176.396738,54.7387692 177.833662,54.0206154 178.645354,53.0926154 L178.761662,53.1627692 C178.691508,53.5332308 178.645354,53.9276923 178.621969,54.2981538 C177.6952,55.0403077 176.188123,55.7129231 174.749969,55.7129231 C172.061354,55.7129231 169.117354,54.0895385 169.117354,49.94 C169.117354,45.9295385 172.061354,44.1676923 175.028738,44.1676923" id="Fill-31" fill="#FEFEFE"></path>
                    <path d="M186.296923,49.6385846 C184.698154,50.1721231 181.452,50.0096615 181.452,52.5370462 C181.452,53.9973538 182.448923,54.7388923 183.468615,54.7388923 C184.651385,54.7388923 185.671077,53.9739692 186.204,53.1161231 L186.296923,49.6385846 Z M180.570769,45.5118154 C181.961538,44.4687385 183.074769,44.1678154 184.303077,44.1678154 C186.528923,44.1678154 188.059385,45.5352 188.059385,47.5979692 C188.059385,49.3370462 187.966462,51.0533538 187.966462,52.9998154 C187.966462,53.7653538 187.966462,54.7155077 188.870462,54.7155077 C189.010154,54.7155077 189.195385,54.7155077 189.357846,54.6232 L189.357846,55.1327385 C189.033538,55.2724308 188.476615,55.4576615 187.874154,55.4576615 C186.876615,55.4576615 186.367077,54.8084308 186.274154,54.0207385 C185.160923,55.1327385 184.210769,55.7130462 182.634154,55.7130462 C181.081538,55.7130462 179.551077,54.6232 179.551077,52.8613538 C179.551077,51.0065846 180.802769,50.0096615 182.819385,49.6853538 C186.181846,49.1518154 186.296923,48.9659692 186.296923,48.0619692 C186.296923,46.5093538 185.601538,45.1407385 183.746769,45.1407385 C182.518462,45.1407385 181.359077,45.7204308 180.826154,46.7179692 L180.570769,46.7179692 L180.570769,45.5118154 Z" id="Fill-33" fill="#FEFEFE"></path>
                    <path d="M190.657231,53.2552615 C190.982154,53.8811077 191.979077,54.8552615 193.277538,54.8552615 C194.436923,54.8552615 195.525538,54.1364923 195.525538,52.7678769 C195.525538,49.8940308 190.054769,51.5863385 190.054769,47.6681846 C190.054769,45.6515692 191.445538,44.1678769 193.903385,44.1678769 C195.039385,44.1678769 195.757538,44.5851077 196.476308,44.8171077 C196.221538,45.2564923 195.966154,46.1143385 195.920615,46.4626462 L195.641846,46.4626462 C195.409846,45.7204923 194.645538,45.0257231 193.601231,45.0257231 C192.697846,45.0257231 191.631385,45.6048 191.631385,46.9721846 C191.631385,49.9863385 197.102154,48.1315692 197.102154,52.0491077 C197.102154,53.8115692 195.503385,55.7131077 192.929846,55.7131077 C191.515077,55.7131077 190.587692,55.3180308 189.938462,54.9475692 C190.123692,54.5537231 190.379077,53.7192615 190.379077,53.2552615 L190.657231,53.2552615 Z" id="Fill-35" fill="#FEFEFE"></path>
                    <path d="M33.7699692,81.2279385 C33.1902769,81.6913231 31.2659692,82.5491692 28.9478154,82.5491692 C24.0561231,82.5491692 20.4862769,79.5122462 20.4862769,74.2488615 C20.4862769,68.9867077 24.0561231,65.9497846 29.1798154,65.9497846 C31.1736615,65.9497846 32.9582769,66.4365538 34.2105846,67.0162462 C33.9785846,67.4340923 33.8161231,68.3374769 33.7238154,68.8248615 L33.5841231,68.8710154 C32.9355077,68.1522462 31.3588923,66.8076308 29.1798154,66.8076308 C25.5398154,66.8076308 22.7582769,69.1030154 22.7582769,74.2488615 C22.7582769,79.3959385 25.5398154,81.6913231 29.1798154,81.6913231 C31.3822769,81.6913231 33.0044308,80.4396308 33.8856615,79.7670154 L33.9785846,79.8593231 L33.7699692,81.2279385 Z" id="Fill-37" fill="#FEFEFE"></path>
                    <path d="M40.2632,81.7378462 C42.9992,81.7378462 43.8570462,79.3033846 43.8570462,76.7064615 C43.8570462,74.1107692 42.9992,71.6763077 40.2632,71.6763077 C37.5278154,71.6763077 36.6699692,74.1107692 36.6699692,76.7064615 C36.6699692,79.3033846 37.5278154,81.7378462 40.2632,81.7378462 M40.2632,70.9347692 C42.9530462,70.9347692 45.8970462,72.4873846 45.8970462,76.7064615 C45.8970462,80.9261538 42.9530462,82.48 40.2632,82.48 C37.5739692,82.48 34.6299692,80.9261538 34.6299692,76.7064615 C34.6299692,72.4873846 37.5739692,70.9347692 40.2632,70.9347692" id="Fill-39" fill="#FEFEFE"></path>
                    <path d="M47.1974769,80.0220923 C47.5224,80.6479385 48.5187077,81.6220923 49.8171692,81.6220923 C50.9765538,81.6220923 52.0657846,80.9033231 52.0657846,79.5353231 C52.0657846,76.6608615 46.5944,78.3531692 46.5944,74.4350154 C46.5944,72.4184 47.9857846,70.9347077 50.4430154,70.9347077 C51.5790154,70.9347077 52.2977846,71.3519385 53.0165538,71.5839385 C52.7611692,72.0233231 52.5064,72.8811692 52.4602462,73.2294769 L52.1820923,73.2294769 C51.9500923,72.4873231 51.1851692,71.7925538 50.1414769,71.7925538 C49.2374769,71.7925538 48.1716308,72.3716308 48.1716308,73.7390154 C48.1716308,76.7531692 53.6424,74.8984 53.6424,78.8159385 C53.6424,80.5784 52.0424,82.4799385 49.4694769,82.4799385 C48.0553231,82.4799385 47.1279385,82.0848615 46.4787077,81.7144 C46.6639385,81.3205538 46.9193231,80.4860923 46.9193231,80.0220923 L47.1974769,80.0220923 Z" id="Fill-41" fill="#FEFEFE"></path>
                    <path d="M57.1672,68.0596923 L57.2828923,68.0596923 C57.1905846,69.2190769 57.1444308,70.3544615 57.0976615,71.4904615 C57.4219692,71.4904615 58.4884308,71.4676923 59.5548923,71.4209231 C59.5321231,71.584 59.5321231,71.7458462 59.5321231,71.9076923 C59.5321231,72.0701538 59.5321231,72.232 59.5548923,72.3950769 C58.7438154,72.3483077 57.6539692,72.3483077 57.0976615,72.3483077 C57.0508923,72.5803077 56.9352,76.2203077 56.9352,78.2369231 C56.9352,79.9753846 56.9819692,81.7378462 58.8133538,81.7378462 C59.0681231,81.7378462 59.5548923,81.6676923 59.8564308,81.5753846 L59.8564308,82.1316923 C59.3228923,82.3169231 58.6508923,82.48 58.0712,82.48 C56.1468923,82.48 55.2201231,81.3901538 55.2201231,79.5815385 C55.2201231,77.8892308 55.3585846,75.8030769 55.3819692,72.3483077 C54.9185846,72.3483077 54.4084308,72.3483077 53.8059692,72.3950769 C53.8287385,72.2098462 53.8521231,72.0467692 53.8521231,71.8615385 C53.8521231,71.6990769 53.8287385,71.5606154 53.8059692,71.3975385 C54.5007385,71.4443077 55.0115077,71.4676923 55.3358154,71.4676923 C55.3124308,70.8646154 55.2896615,69.8683077 55.2428923,68.8707692 L57.1672,68.0596923 Z" id="Fill-43" fill="#FEFEFE"></path>
                    <path d="M66.4184615,76.4054154 C64.8184615,76.9389538 61.5735385,76.7764923 61.5735385,79.3038769 C61.5735385,80.7641846 62.5704615,81.5057231 63.5901538,81.5057231 C64.7723077,81.5057231 65.7926154,80.7408 66.3255385,79.8829538 L66.4184615,76.4054154 Z M60.6923077,72.2786462 C62.0830769,71.2355692 63.1963077,70.9346462 64.4246154,70.9346462 C66.6504615,70.9346462 68.1803077,72.3020308 68.1803077,74.3648 C68.1803077,76.1038769 68.088,77.8201846 68.088,79.7666462 C68.088,80.5321846 68.088,81.4823385 68.992,81.4823385 C69.1310769,81.4823385 69.3169231,81.4823385 69.4787692,81.3900308 L69.4787692,81.8995692 C69.1544615,82.0392615 68.5975385,82.2244923 67.9950769,82.2244923 C66.9981538,82.2244923 66.488,81.5752615 66.3956923,80.7875692 C65.2824615,81.8995692 64.3323077,82.4798769 62.7556923,82.4798769 C61.2024615,82.4798769 59.6726154,81.3900308 59.6726154,79.6281846 C59.6726154,77.7734154 60.9243077,76.7764923 62.9409231,76.4521846 C66.3021538,75.9186462 66.4184615,75.7328 66.4184615,74.8288 C66.4184615,73.2761846 65.7230769,71.9075692 63.8683077,71.9075692 C62.64,71.9075692 61.4806154,72.4872615 60.9476923,73.4848 L60.6923077,73.4848 L60.6923077,72.2786462 Z" id="Fill-45" fill="#FEFEFE"></path>
                    <path d="M80.6328615,81.6218462 C83.0439385,81.6218462 84.0870154,79.0021538 84.0870154,76.4747692 C84.0870154,73.5541538 82.9048615,71.9073846 80.7024,71.9073846 C78.4765538,71.9073846 77.4334769,74.1104615 77.4334769,76.9153846 C77.4334769,80.6249231 79.1257846,81.6218462 80.6328615,81.6218462 L80.6328615,81.6218462 Z M84.0636308,79.9750769 L84.0174769,79.9750769 C83.5540923,80.9492308 82.3713231,82.4796923 80.0993231,82.4796923 C77.7577846,82.4796923 75.3934769,80.764 75.3934769,76.7769231 C75.3934769,72.8353846 77.9664,70.9344615 80.3780923,70.9344615 C82.0931692,70.9344615 83.2987077,71.7455385 83.9479385,73.2526154 L83.9940923,73.2526154 C83.9940923,70.3313846 83.9940923,66.692 83.9017846,64.6981538 C84.2722462,64.7443077 84.6205538,64.8132308 84.9448615,64.8132308 C85.2691692,64.8132308 85.5940923,64.7443077 85.9879385,64.6981538 C85.7793231,66.6452308 85.7097846,72.7196923 85.7097846,76.6833846 C85.7097846,78.7929231 85.7559385,80.3929231 85.7793231,82.2476923 C85.4316308,82.2009231 85.1534769,82.132 84.8753231,82.132 C84.5971692,82.132 84.3190154,82.2009231 83.9940923,82.2476923 L84.0636308,79.9750769 Z" id="Fill-47" fill="#FEFEFE"></path>
                    <path d="M89.0734154,75.6868923 C90.0241846,75.7102769 91.1134154,75.7564308 92.0869538,75.7564308 C93.1072615,75.7564308 94.1964923,75.7102769 95.1706462,75.6868923 C95.1706462,74.0401231 94.7300308,71.6764308 92.3189538,71.6764308 C90.0475692,71.6764308 89.1891077,74.0179692 89.0734154,75.6868923 M92.2728,70.9342769 C95.5183385,70.9342769 97.0715692,73.0899692 97.0715692,75.6635077 C97.0715692,75.9650462 97.0481846,76.2659692 97.0254154,76.5681231 C95.3558769,76.5447385 93.7097231,76.4979692 92.0635692,76.4979692 C91.0438769,76.4979692 90.0475692,76.5447385 89.0272615,76.5681231 C89.0038769,76.7995077 89.0038769,77.0081231 89.0038769,77.2167385 C89.0038769,79.6284308 90.4414154,81.5059692 93.0149538,81.5059692 C94.2432615,81.5059692 95.6808,80.7872 96.4918769,79.8592 L96.6081846,79.9293538 L96.4684923,81.0653538 C95.5417231,81.8068923 94.0346462,82.4795077 92.5971077,82.4795077 C89.2586462,82.4795077 86.9638769,80.1145846 86.9638769,77.0315077 C86.9638769,73.2758154 88.8648,70.9342769 92.2728,70.9342769" id="Fill-49" fill="#FEFEFE"></path>
                    <path d="M98.9509538,71.3742769 C98.9509538,69.2419692 98.9048,66.2512 98.7657231,64.6985846 C99.1134154,64.7675077 99.4611077,64.8136615 99.8088,64.8136615 C100.157108,64.8136615 100.5048,64.7675077 100.852492,64.6985846 C100.713415,66.2512 100.666646,69.2419692 100.666646,71.3742769 L100.666646,75.5712 C100.666646,77.7041231 100.713415,80.6948923 100.852492,82.2475077 C100.5048,82.1785846 100.157108,82.1318154 99.8088,82.1318154 C99.4611077,82.1318154 99.1134154,82.1785846 98.7657231,82.2475077 C98.9048,80.6948923 98.9509538,77.7041231 98.9509538,75.5712 L98.9509538,71.3742769 Z" id="Fill-51" fill="#FEFEFE"></path>
                    <path d="M108.9224,79.1642462 C109.432554,80.2540923 110.591323,81.5753231 112.585169,81.5753231 C114.648554,81.5753231 115.900246,80.0682462 115.900246,78.2134769 C115.900246,73.9476308 108.597477,75.7796308 108.597477,70.3310154 C108.597477,67.7587077 110.544554,65.9500923 113.628246,65.9500923 C115.088554,65.9500923 116.132246,66.2971692 117.059631,67.0393231 C116.780862,67.5722462 116.619015,68.1057846 116.433785,68.9870154 L116.155015,68.9870154 C115.830092,68.1291692 115.135323,66.8079385 113.396246,66.8079385 C111.657785,66.8079385 110.406092,67.9894769 110.406092,69.6817846 C110.406092,74.0177846 117.708862,72.2097846 117.708862,77.3322462 C117.708862,80.1611692 115.599323,82.5488615 112.028246,82.5488615 C110.103938,82.5488615 109.015323,81.8762462 108.203015,81.2282462 C108.481785,80.5088615 108.551323,80.0454769 108.643631,79.1642462 L108.9224,79.1642462 Z" id="Fill-53" fill="#FEFEFE"></path>
                    <path d="M119.959446,75.5016615 C119.959446,74.1102769 119.912677,72.4875077 119.774215,71.1656615 C120.121292,71.2358154 120.4696,71.2813538 120.817292,71.2813538 C121.1656,71.2813538 121.512677,71.2358154 121.860369,71.1656615 C121.721292,72.4875077 121.675138,74.1102769 121.675138,75.5016615 L121.675138,77.9127385 C121.675138,79.3035077 121.721292,80.9256615 121.860369,82.2475077 C121.512677,82.1785846 121.1656,82.1318154 120.817292,82.1318154 C120.4696,82.1318154 120.121292,82.1785846 119.774215,82.2475077 C119.912677,80.9256615 119.959446,79.3035077 119.959446,77.9127385 L119.959446,75.5016615 Z M120.817292,65.9502769 C121.466523,65.9502769 122.000062,66.4832 122.000062,67.1324308 C122.000062,67.7810462 121.466523,68.3139692 120.817292,68.3139692 C120.168062,68.3139692 119.635138,67.7810462 119.635138,67.1324308 C119.635138,66.4832 120.168062,65.9502769 120.817292,65.9502769 L120.817292,65.9502769 Z" id="Fill-55" fill="#FEFEFE"></path>
                    <path d="M125.245969,71.3742769 C125.245969,69.2419692 125.1992,66.2512 125.060738,64.6985846 C125.407815,64.7675077 125.756123,64.8136615 126.103815,64.8136615 C126.452123,64.8136615 126.7992,64.7675077 127.146892,64.6985846 C127.007815,66.2512 126.961662,69.2419692 126.961662,71.3742769 L126.961662,75.5712 C126.961662,77.7041231 127.007815,80.6948923 127.146892,82.2475077 C126.7992,82.1785846 126.452123,82.1318154 126.103815,82.1318154 C125.756123,82.1318154 125.407815,82.1785846 125.060738,82.2475077 C125.1992,80.6948923 125.245969,77.7041231 125.245969,75.5712 L125.245969,71.3742769 Z" id="Fill-57" fill="#FEFEFE"></path>
                    <path d="M131.089108,75.6868923 C132.039877,75.7102769 133.128492,75.7564308 134.102646,75.7564308 C135.122954,75.7564308 136.212185,75.7102769 137.185723,75.6868923 C137.185723,74.0401231 136.745108,71.6764308 134.334646,71.6764308 C132.063262,71.6764308 131.205415,74.0179692 131.089108,75.6868923 M134.288492,70.9342769 C137.534031,70.9342769 139.086646,73.0899692 139.086646,75.6635077 C139.086646,75.9650462 139.063262,76.2659692 139.041108,76.5681231 C137.370954,76.5447385 135.725415,76.4979692 134.079262,76.4979692 C133.059569,76.4979692 132.063262,76.5447385 131.042338,76.5681231 C131.018954,76.7995077 131.018954,77.0081231 131.018954,77.2167385 C131.018954,79.6284308 132.457108,81.5059692 135.030646,81.5059692 C136.258954,81.5059692 137.695877,80.7872 138.507569,79.8592 L138.623877,79.9293538 L138.484185,81.0653538 C137.557415,81.8068923 136.050338,82.4795077 134.612185,82.4795077 C131.274338,82.4795077 128.979569,80.1145846 128.979569,77.0315077 C128.979569,73.2758154 130.880492,70.9342769 134.288492,70.9342769" id="Fill-59" fill="#FEFEFE"></path>
                    <path d="M145.394892,72.1395077 C143.2392,72.1395077 142.265662,73.5308923 142.265662,75.9413538 L142.265662,77.9124308 C142.265662,79.3038154 142.3112,80.9259692 142.450892,82.2478154 C142.102585,82.1782769 141.755508,82.1315077 141.407815,82.1315077 C141.059508,82.1315077 140.711815,82.1782769 140.364738,82.2478154 C140.5032,80.9259692 140.549969,79.3038154 140.549969,77.9124308 L140.549969,75.5019692 C140.549969,74.1105846 140.5032,72.4872 140.364738,71.1653538 C140.711815,71.2355077 141.059508,71.2816615 141.407815,71.2816615 C141.639815,71.2816615 141.986892,71.2355077 142.334585,71.1653538 C142.287815,71.7924308 142.265662,72.3948923 142.265662,73.0207385 L142.3112,73.0207385 C143.169046,71.6988923 144.351815,70.9345846 146.020738,70.9345846 C147.736431,70.9345846 149.730277,71.7690462 149.730277,74.9684308 C149.730277,76.2896615 149.637354,77.6804308 149.637354,79.2570462 C149.637354,80.2767385 149.637354,81.2502769 149.684123,82.2478154 C149.336431,82.1782769 149.034892,82.1315077 148.710585,82.1315077 C148.385662,82.1315077 148.084738,82.1782769 147.759815,82.2478154 C147.805969,80.5555077 147.921662,78.8632 147.921662,77.0779692 L147.921662,75.6638154 C147.921662,73.3912 146.925354,72.1395077 145.394892,72.1395077" id="Fill-61" fill="#FEFEFE"></path>
                    <path d="M157.220554,70.9345231 C158.912862,70.9345231 160.373169,71.4212923 160.953477,71.9542154 C160.744862,72.4182154 160.5584,72.9283692 160.442708,73.4846769 L160.257477,73.4846769 C159.816862,72.6963692 158.7504,71.6766769 157.290092,71.6766769 C154.485169,71.6766769 153.348554,73.8317538 153.348554,76.6834462 C153.348554,79.8594462 154.786092,81.5056 157.359015,81.5056 C158.588554,81.5056 160.025477,80.7874462 160.837169,79.8594462 L160.953477,79.9296 C160.883323,80.3000615 160.837169,80.6945231 160.813785,81.0649846 C159.887015,81.8071385 158.379938,82.4797538 156.941785,82.4797538 C154.253169,82.4797538 151.309169,80.8563692 151.309169,76.7068308 C151.309169,72.6963692 154.253169,70.9345231 157.220554,70.9345231" id="Fill-63" fill="#FEFEFE"></path>
                    <path d="M163.133785,75.5016615 C163.133785,74.1102769 163.087631,72.4875077 162.948554,71.1656615 C163.296246,71.2358154 163.644554,71.2813538 163.991631,71.2813538 C164.339938,71.2813538 164.687631,71.2358154 165.035323,71.1656615 C164.896246,72.4875077 164.849477,74.1102769 164.849477,75.5016615 L164.849477,77.9127385 C164.849477,79.3035077 164.896246,80.9256615 165.035323,82.2475077 C164.687631,82.1785846 164.339938,82.1318154 163.991631,82.1318154 C163.644554,82.1318154 163.296246,82.1785846 162.948554,82.2475077 C163.087631,80.9256615 163.133785,79.3035077 163.133785,77.9127385 L163.133785,75.5016615 Z M163.991631,65.9502769 C164.640862,65.9502769 165.1744,66.4832 165.1744,67.1324308 C165.1744,67.7810462 164.640862,68.3139692 163.991631,68.3139692 C163.3424,68.3139692 162.810092,67.7810462 162.810092,67.1324308 C162.810092,66.4832 163.3424,65.9502769 163.991631,65.9502769 L163.991631,65.9502769 Z" id="Fill-65" fill="#FEFEFE"></path>
                    <path d="M172.501046,81.7378462 C175.236431,81.7378462 176.094277,79.3033846 176.094277,76.7064615 C176.094277,74.1107692 175.236431,71.6763077 172.501046,71.6763077 C169.765662,71.6763077 168.907815,74.1107692 168.907815,76.7064615 C168.907815,79.3033846 169.765662,81.7378462 172.501046,81.7378462 M172.501046,70.9347692 C175.190892,70.9347692 178.134892,72.4873846 178.134892,76.7064615 C178.134892,80.9261538 175.190892,82.48 172.501046,82.48 C169.8112,82.48 166.8672,80.9261538 166.8672,76.7064615 C166.8672,72.4873846 169.8112,70.9347692 172.501046,70.9347692" id="Fill-67" fill="#FEFEFE"></path>
                    <path d="M2.08621538,101.8192 C2.57298462,101.934892 3.22221538,102.004431 3.73236923,102.004431 C5.63329231,102.004431 8.06713846,101.285662 8.06713846,98.1330462 C8.06713846,95.4893538 6.56067692,94.9336615 4.17298462,94.9336615 L2.08621538,94.9336615 L2.08621538,101.8192 Z M0.185292308,100.080123 C0.185292308,98.0862769 0.0923692308,96.0696615 6.15384616e-05,94.0758154 C0.7416,94.1453538 1.50652308,94.1921231 2.24867692,94.1921231 C2.99021538,94.1921231 4.47390769,94.0758154 5.12313846,94.0758154 C6.51452308,94.0758154 10.2006769,94.1219692 10.2006769,97.9939692 C10.2006769,102.073969 6.1896,102.862277 3.96436923,102.862277 C3.26898462,102.862277 2.68929231,102.838892 2.08621538,102.793354 L2.08621538,104.068431 C2.08621538,106.061662 2.17913846,108.078892 2.27206154,110.072123 C1.8776,110.0032 1.50652308,109.956431 1.13544615,109.956431 C0.764984615,109.956431 0.393907692,110.0032 6.15384616e-05,110.072123 C0.0923692308,108.078892 0.185292308,106.061662 0.185292308,104.068431 L0.185292308,100.080123 Z" id="Fill-69" fill="#FEFEFE"></path>
                    <path d="M12.0104615,99.1997538 C12.0104615,97.0668308 11.9643077,94.0760615 11.8252308,92.5222154 C12.1729231,92.5923692 12.5206154,92.6379077 12.8683077,92.6379077 C13.2166154,92.6379077 13.5636923,92.5923692 13.9113846,92.5222154 C13.7723077,94.0760615 13.7261538,97.0668308 13.7261538,99.1997538 L13.7261538,103.395446 C13.7261538,105.528369 13.7723077,108.519138 13.9113846,110.072369 C13.5636923,110.002831 13.2166154,109.956062 12.8683077,109.956062 C12.5206154,109.956062 12.1729231,110.002831 11.8252308,110.072369 C11.9643077,108.519138 12.0104615,105.528369 12.0104615,103.395446 L12.0104615,99.1997538 Z" id="Fill-71" fill="#FEFEFE"></path>
                    <path d="M22.6528,104.230031 C21.0528,104.763569 17.8078769,104.601108 17.8078769,107.128492 C17.8078769,108.5888 18.8048,109.330338 19.8244923,109.330338 C21.0066462,109.330338 22.0269538,108.565415 22.5598769,107.707569 L22.6528,104.230031 Z M16.9266462,100.103262 C18.3174154,99.0601846 19.4306462,98.7592615 20.6589538,98.7592615 C22.8848,98.7592615 24.4146462,100.126646 24.4146462,102.189415 C24.4146462,103.928492 24.3223385,105.6448 24.3223385,107.591262 C24.3223385,108.3568 24.3223385,109.306954 25.2263385,109.306954 C25.3654154,109.306954 25.5512615,109.306954 25.7131077,109.214646 L25.7131077,109.724185 C25.3888,109.863877 24.8318769,110.049108 24.2294154,110.049108 C23.2324923,110.049108 22.7223385,109.399877 22.6300308,108.612185 C21.5168,109.724185 20.5666462,110.304492 18.9900308,110.304492 C17.4368,110.304492 15.9069538,109.214646 15.9069538,107.4528 C15.9069538,105.598031 17.1586462,104.601108 19.1752615,104.2768 C22.5364923,103.743262 22.6528,103.557415 22.6528,102.653415 C22.6528,101.1008 21.9574154,99.7321846 20.1026462,99.7321846 C18.8743385,99.7321846 17.7149538,100.311877 17.1820308,101.309415 L16.9266462,101.309415 L16.9266462,100.103262 Z" id="Fill-73" fill="#FEFEFE"></path>
                    <path d="M25.1813538,98.9902769 C25.5290462,99.0604308 25.9001231,99.1065846 26.2478154,99.1065846 C26.5961231,99.1065846 26.9665846,99.0604308 27.3142769,98.9902769 C28.2650462,101.912123 29.4933538,104.809969 30.7684308,107.892431 C32.0435077,105.2272 33.2958154,101.912123 34.2232,98.9902769 C34.4779692,99.0604308 34.7327385,99.1065846 34.9881231,99.1065846 C35.2428923,99.1065846 35.4982769,99.0604308 35.7530462,98.9902769 C34.9185846,100.6832 29.2613538,113.016738 28.2884308,116.169354 C28.0330462,116.099815 27.7548923,116.053046 27.5001231,116.053046 C27.2447385,116.053046 26.9665846,116.099815 26.7118154,116.169354 C27.9401231,114.152123 28.9604308,112.112738 29.8182769,110.095508 C28.7518154,107.313354 25.8305846,100.4512 25.1813538,98.9902769" id="Fill-75" fill="#FEFEFE"></path>
                    <path d="M42.2697846,104.230031 C40.6704,104.763569 37.4248615,104.601108 37.4248615,107.128492 C37.4248615,108.5888 38.4217846,109.330338 39.4414769,109.330338 C40.6236308,109.330338 41.6439385,108.565415 42.1768615,107.707569 L42.2697846,104.230031 Z M36.5436308,100.103262 C37.9344,99.0601846 39.0476308,98.7592615 40.2759385,98.7592615 C42.5017846,98.7592615 44.0316308,100.126646 44.0316308,102.189415 C44.0316308,103.928492 43.9393231,105.6448 43.9393231,107.591262 C43.9393231,108.3568 43.9393231,109.306954 44.8433231,109.306954 C44.9824,109.306954 45.1682462,109.306954 45.3300923,109.214646 L45.3300923,109.724185 C45.0057846,109.863877 44.4488615,110.049108 43.8464,110.049108 C42.8494769,110.049108 42.3393231,109.399877 42.2470154,108.612185 C41.1337846,109.724185 40.1836308,110.304492 38.6070154,110.304492 C37.0537846,110.304492 35.5239385,109.214646 35.5239385,107.4528 C35.5239385,105.598031 36.7756308,104.601108 38.7922462,104.2768 C42.1540923,103.743262 42.2697846,103.557415 42.2697846,102.653415 C42.2697846,101.1008 41.5744,99.7321846 39.7196308,99.7321846 C38.4913231,99.7321846 37.3319385,100.311877 36.7990154,101.309415 L36.5436308,101.309415 L36.5436308,100.103262 Z" id="Fill-77" fill="#FEFEFE"></path>
                    <path d="M56.4841846,109.446462 C58.8952615,109.446462 59.9383385,106.826769 59.9383385,104.299385 C59.9383385,101.378769 58.7561846,99.732 56.5537231,99.732 C54.3278769,99.732 53.2848,101.935077 53.2848,104.74 C53.2848,108.449538 54.9771077,109.446462 56.4841846,109.446462 L56.4841846,109.446462 Z M59.9149538,107.799692 L59.8688,107.799692 C59.4054154,108.773846 58.2226462,110.304308 55.9506462,110.304308 C53.6091077,110.304308 51.2448,108.588615 51.2448,104.601538 C51.2448,100.66 53.8177231,98.7590769 56.2294154,98.7590769 C57.9444923,98.7590769 59.1500308,99.5701538 59.7992615,101.077231 L59.8454154,101.077231 C59.8454154,98.156 59.8454154,94.5166154 59.7531077,92.5221538 C60.1235692,92.5689231 60.4712615,92.6378462 60.7961846,92.6378462 C61.1204923,92.6378462 61.4454154,92.5689231 61.8392615,92.5221538 C61.6306462,94.4698462 61.5611077,100.544308 61.5611077,104.508 C61.5611077,106.618154 61.6072615,108.217538 61.6306462,110.072308 C61.2829538,110.025538 61.0048,109.956615 60.7266462,109.956615 C60.4484923,109.956615 60.1703385,110.025538 59.8454154,110.072308 L59.9149538,107.799692 Z" id="Fill-79" fill="#FEFEFE"></path>
                    <path d="M64.9247385,103.511569 C65.8755077,103.534954 66.9647385,103.581108 67.9382769,103.581108 C68.9585846,103.581108 70.0478154,103.534954 71.0219692,103.511569 C71.0219692,101.8648 70.5813538,99.5011077 68.1702769,99.5011077 C65.8982769,99.5011077 65.0404308,101.842646 64.9247385,103.511569 M68.1235077,98.7589538 C71.3696615,98.7589538 72.9228923,100.914646 72.9228923,103.488185 C72.9228923,103.789723 72.8995077,104.090646 72.8767385,104.392185 C71.2072,104.369415 69.5610462,104.322646 67.9148923,104.322646 C66.8952,104.322646 65.8982769,104.369415 64.8785846,104.392185 C64.8552,104.624185 64.8552,104.8328 64.8552,105.041415 C64.8552,107.453108 66.2927385,109.330646 68.8656615,109.330646 C70.0945846,109.330646 71.5321231,108.611877 72.3432,107.683877 L72.4595077,107.754031 L72.3198154,108.890031 C71.3930462,109.631569 69.8859692,110.304185 68.4484308,110.304185 C65.1099692,110.304185 62.8152,107.939262 62.8152,104.856185 C62.8152,101.100492 64.7161231,98.7589538 68.1235077,98.7589538" id="Fill-81" fill="#FEFEFE"></path>
                    <path d="M79.9966154,100.080123 C79.9966154,98.0862769 79.9036923,96.0696615 79.8113846,94.0758154 C80.2052308,94.1453538 80.5763077,94.1921231 80.9473846,94.1921231 C81.3178462,94.1921231 81.6889231,94.1453538 82.0833846,94.0758154 C81.9904615,96.0696615 81.8975385,98.0862769 81.8975385,100.080123 C81.8975385,103.974892 81.9436923,106.710892 81.9670769,108.982277 C84.1467692,108.982277 86.0476923,108.982277 88.3658462,108.681354 C88.2963077,108.913354 88.2495385,109.145354 88.2495385,109.376123 C88.2495385,109.608123 88.2963077,109.840123 88.3658462,110.072123 C86.9516923,110.0032 85.5141538,109.956431 84.1,109.956431 C82.6630769,109.956431 81.2489231,110.0032 79.8113846,110.072123 C79.9036923,108.078892 79.9966154,106.061662 79.9966154,104.068431 L79.9966154,100.080123 Z" id="Fill-83" fill="#FEFEFE"></path>
                    <path d="M94.6036308,109.562462 C97.3396308,109.562462 98.1974769,107.128 98.1974769,104.531077 C98.1974769,101.935385 97.3396308,99.5009231 94.6036308,99.5009231 C91.8682462,99.5009231 91.0104,101.935385 91.0104,104.531077 C91.0104,107.128 91.8682462,109.562462 94.6036308,109.562462 M94.6036308,98.7593846 C97.2934769,98.7593846 100.237477,100.312 100.237477,104.531077 C100.237477,108.750769 97.2934769,110.304615 94.6036308,110.304615 C91.9144,110.304615 88.9704,108.750769 88.9704,104.531077 C88.9704,100.312 91.9144,98.7593846 94.6036308,98.7593846" id="Fill-85" fill="#FEFEFE"></path>
                    <path d="M101.538338,107.846769 C101.863262,108.472615 102.859569,109.446769 104.158031,109.446769 C105.3168,109.446769 106.406646,108.728 106.406646,107.359385 C106.406646,104.485538 100.935262,106.177846 100.935262,102.259692 C100.935262,100.243077 102.326031,98.7593846 104.783877,98.7593846 C105.919262,98.7593846 106.638646,99.1766154 107.357415,99.4086154 C107.102031,99.848 106.847262,100.705846 106.800492,101.054154 L106.522954,101.054154 C106.290954,100.312 105.525415,99.6172308 104.482338,99.6172308 C103.577723,99.6172308 102.512492,100.196308 102.512492,101.563692 C102.512492,104.577846 107.983262,102.723077 107.983262,106.640615 C107.983262,108.403692 106.383262,110.304615 103.809723,110.304615 C102.396185,110.304615 101.468185,109.909538 100.819569,109.539077 C101.0048,109.145231 101.259569,108.310769 101.259569,107.846769 L101.538338,107.846769 Z" id="Fill-87" fill="#FEFEFE"></path>
                    <path d="M127.296677,109.052615 C126.716985,109.516 124.792062,110.373846 122.473908,110.373846 C117.582215,110.373846 114.012369,107.336923 114.012369,102.073538 C114.012369,96.8113846 117.582215,93.7744615 122.705908,93.7744615 C124.699754,93.7744615 126.484985,94.2612308 127.737292,94.8409231 C127.505292,95.2581538 127.342831,96.1621538 127.249908,96.6495385 L127.110831,96.6956923 C126.462215,95.9769231 124.884985,94.6323077 122.705908,94.6323077 C119.065908,94.6323077 116.284985,96.9276923 116.284985,102.073538 C116.284985,107.220615 119.065908,109.516 122.705908,109.516 C124.908369,109.516 126.531138,108.264308 127.412369,107.591692 L127.505292,107.684 L127.296677,109.052615 Z" id="Fill-89" fill="#FEFEFE"></path>
                    <path d="M134.416677,100.892123 C134.254215,100.706277 133.744062,100.521046 133.280062,100.521046 C131.796369,100.521046 130.915754,101.9352 130.915754,103.743815 C130.915754,107.777662 130.915754,109.005969 131.008677,110.072431 C130.707138,110.002892 130.382831,109.956123 130.080677,109.956123 C129.756985,109.956123 129.454831,110.002892 129.107754,110.072431 C129.200062,108.936431 129.200062,107.128431 129.200062,104.531508 L129.200062,103.789354 C129.200062,102.584431 129.200062,100.985046 129.107754,98.9905846 C129.454831,99.0601231 129.756985,99.1062769 130.080677,99.1062769 C130.382831,99.1062769 130.707138,99.0601231 131.008677,98.9905846 C130.892369,100.103815 130.892369,100.660123 130.892369,101.2392 L130.938523,101.262585 C131.819754,99.5936615 132.932985,98.7592 133.998831,98.7592 C134.2776,98.7592 134.439446,98.7819692 134.740369,98.8976615 C134.578523,99.2687385 134.578523,100.149969 134.578523,100.776431 L134.416677,100.892123 Z" id="Fill-91" fill="#FEFEFE"></path>
                    <path d="M136.271754,103.326338 C136.271754,101.934954 136.224985,100.312185 136.086523,98.9903385 C136.4336,99.0604923 136.781908,99.1060308 137.1296,99.1060308 C137.477908,99.1060308 137.824985,99.0604923 138.172677,98.9903385 C138.0336,100.312185 137.987446,101.934954 137.987446,103.326338 L137.987446,105.737415 C137.987446,107.128185 138.0336,108.750338 138.172677,110.072185 C137.824985,110.003262 137.477908,109.956492 137.1296,109.956492 C136.781908,109.956492 136.4336,110.003262 136.086523,110.072185 C136.224985,108.750338 136.271754,107.128185 136.271754,105.737415 L136.271754,103.326338 Z M137.1296,93.7749538 C137.778831,93.7749538 138.312369,94.3078769 138.312369,94.9571077 C138.312369,95.6057231 137.778831,96.1386462 137.1296,96.1386462 C136.480369,96.1386462 135.946831,95.6057231 135.946831,94.9571077 C135.946831,94.3078769 136.480369,93.7749538 137.1296,93.7749538 L137.1296,93.7749538 Z" id="Fill-93" fill="#FEFEFE"></path>
                    <path d="M140.839815,107.846769 C141.164738,108.472615 142.161662,109.446769 143.460123,109.446769 C144.619508,109.446769 145.708123,108.728 145.708123,107.359385 C145.708123,104.485538 140.237354,106.177846 140.237354,102.259692 C140.237354,100.243077 141.628123,98.7593846 144.085969,98.7593846 C145.221969,98.7593846 145.940123,99.1766154 146.658892,99.4086154 C146.404123,99.848 146.148738,100.705846 146.1032,101.054154 L145.824431,101.054154 C145.592431,100.312 144.828123,99.6172308 143.783815,99.6172308 C142.880431,99.6172308 141.813969,100.196308 141.813969,101.563692 C141.813969,104.577846 147.284738,102.723077 147.284738,106.640615 C147.284738,108.403692 145.685969,110.304615 143.112431,110.304615 C141.697662,110.304615 140.770277,109.909538 140.121046,109.539077 C140.306277,109.145231 140.561662,108.310769 140.561662,107.846769 L140.839815,107.846769 Z" id="Fill-95" fill="#FEFEFE"></path>
                    <path d="M150.809538,95.8843077 L150.925231,95.8843077 C150.832923,97.0436923 150.786769,98.1790769 150.74,99.3150769 C151.064923,99.3150769 152.131385,99.2923077 153.197846,99.2455385 C153.174462,99.4086154 153.174462,99.5704615 153.174462,99.7323077 C153.174462,99.8947692 153.174462,100.056615 153.197846,100.219692 C152.386154,100.172923 151.296923,100.172923 150.74,100.172923 C150.693231,100.404923 150.578154,104.044923 150.578154,106.061538 C150.578154,107.8 150.624308,109.562462 152.456308,109.562462 C152.710462,109.562462 153.197846,109.492308 153.499385,109.4 L153.499385,109.956308 C152.965846,110.141538 152.293231,110.304615 151.714154,110.304615 C149.789846,110.304615 148.862462,109.214769 148.862462,107.406154 C148.862462,105.713846 149.000923,103.627692 149.024308,100.172923 C148.561538,100.172923 148.050769,100.172923 147.448308,100.219692 C147.471692,100.034462 147.495077,99.8713846 147.495077,99.6861538 C147.495077,99.5236923 147.471692,99.3852308 147.448308,99.2221538 C148.143077,99.2689231 148.653846,99.2923077 148.978769,99.2923077 C148.955385,98.6892308 148.932,97.6929231 148.885231,96.6953846 L150.809538,95.8843077 Z" id="Fill-97" fill="#FEFEFE"></path>
                    <path d="M154.705846,103.326338 C154.705846,101.934954 154.659077,100.312185 154.520615,98.9903385 C154.867692,99.0604923 155.216,99.1060308 155.563692,99.1060308 C155.912,99.1060308 156.259077,99.0604923 156.606769,98.9903385 C156.467692,100.312185 156.421538,101.934954 156.421538,103.326338 L156.421538,105.737415 C156.421538,107.128185 156.467692,108.750338 156.606769,110.072185 C156.259077,110.003262 155.912,109.956492 155.563692,109.956492 C155.216,109.956492 154.867692,110.003262 154.520615,110.072185 C154.659077,108.750338 154.705846,107.128185 154.705846,105.737415 L154.705846,103.326338 Z M155.563692,93.7749538 C156.212923,93.7749538 156.746462,94.3078769 156.746462,94.9571077 C156.746462,95.6057231 156.212923,96.1386462 155.563692,96.1386462 C154.914462,96.1386462 154.380923,95.6057231 154.380923,94.9571077 C154.380923,94.3078769 154.914462,93.7749538 155.563692,93.7749538 L155.563692,93.7749538 Z" id="Fill-99" fill="#FEFEFE"></path>
                    <path d="M165.347262,104.230031 C163.748492,104.763569 160.502338,104.601108 160.502338,107.128492 C160.502338,108.5888 161.499262,109.330338 162.518954,109.330338 C163.701723,109.330338 164.721415,108.565415 165.254338,107.707569 L165.347262,104.230031 Z M159.621108,100.103262 C161.011877,99.0601846 162.125108,98.7592615 163.353415,98.7592615 C165.579262,98.7592615 167.109723,100.126646 167.109723,102.189415 C167.109723,103.928492 167.017415,105.6448 167.017415,107.591262 C167.017415,108.3568 167.017415,109.306954 167.9208,109.306954 C168.060492,109.306954 168.245723,109.306954 168.408185,109.214646 L168.408185,109.724185 C168.083877,109.863877 167.526954,110.049108 166.924492,110.049108 C165.926954,110.049108 165.417415,109.399877 165.324492,108.612185 C164.211262,109.724185 163.261108,110.304492 161.684492,110.304492 C160.131877,110.304492 158.601415,109.214646 158.601415,107.4528 C158.601415,105.598031 159.853108,104.601108 161.869723,104.2768 C165.232185,103.743262 165.347262,103.557415 165.347262,102.653415 C165.347262,101.1008 164.651877,99.7321846 162.797108,99.7321846 C161.5688,99.7321846 160.409415,100.311877 159.876492,101.309415 L159.621108,101.309415 L159.621108,100.103262 Z" id="Fill-101" fill="#FEFEFE"></path>
                    <path d="M174.854708,99.9641231 C172.6984,99.9641231 171.724246,101.355508 171.724246,103.765969 L171.724246,105.737046 C171.724246,107.128431 171.771015,108.750585 171.909477,110.072431 C171.5624,110.002892 171.214708,109.956123 170.8664,109.956123 C170.519323,109.956123 170.171631,110.002892 169.823323,110.072431 C169.963015,108.750585 170.008554,107.128431 170.008554,105.737046 L170.008554,103.326585 C170.008554,101.9352 169.963015,100.311815 169.823323,98.9899692 C170.171631,99.0601231 170.519323,99.1062769 170.8664,99.1062769 C171.0984,99.1062769 171.446708,99.0601231 171.7944,98.9899692 C171.747631,99.6170462 171.724246,100.219508 171.724246,100.845354 L171.771015,100.845354 C172.628862,99.5235077 173.811631,98.7592 175.480554,98.7592 C177.196246,98.7592 179.190092,99.5936615 179.190092,102.793046 C179.190092,104.114277 179.097169,105.505046 179.097169,107.081662 C179.097169,108.101969 179.097169,109.074892 179.143323,110.072431 C178.795015,110.002892 178.494092,109.956123 178.169169,109.956123 C177.844862,109.956123 177.543323,110.002892 177.219015,110.072431 C177.265785,108.380123 177.381477,106.687815 177.381477,104.902585 L177.381477,103.488431 C177.381477,101.215815 176.384554,99.9641231 174.854708,99.9641231" id="Fill-103" fill="#FEFEFE"></path>
                    <path d="M186.239754,109.562462 C188.975138,109.562462 189.832985,107.128 189.832985,104.531077 C189.832985,101.935385 188.975138,99.5009231 186.239754,99.5009231 C183.504369,99.5009231 182.646523,101.935385 182.646523,104.531077 C182.646523,107.128 183.504369,109.562462 186.239754,109.562462 M186.239754,98.7593846 C188.9296,98.7593846 191.8736,100.312 191.8736,104.531077 C191.8736,108.750769 188.9296,110.304615 186.239754,110.304615 C183.549908,110.304615 180.605908,108.750769 180.605908,104.531077 C180.605908,100.312 183.549908,98.7593846 186.239754,98.7593846" id="Fill-105" fill="#FEFEFE"></path>
                    <g id="Group-109" transform="translate(192.000000, 98.461538)">
                        <mask id="mask-2" fill="white">
                            <use xlink:href="#path-1"></use>
                        </mask>
                        <g id="Clip-108"></g>
                        <path d="M1.17366154,9.38523077 C1.49858462,10.0110769 2.49489231,10.9852308 3.79335385,10.9852308 C4.95212308,10.9852308 6.04196923,10.2664615 6.04196923,8.89784615 C6.04196923,6.024 0.570584615,7.71630769 0.570584615,3.79815385 C0.570584615,1.78153846 1.96135385,0.297846154 4.4192,0.297846154 C5.55458462,0.297846154 6.27396923,0.715076923 6.99273846,0.947076923 C6.73735385,1.38646154 6.48258462,2.24430769 6.43581538,2.59261538 L6.15827692,2.59261538 C5.92627692,1.85046154 5.16073846,1.15569231 4.11766154,1.15569231 C3.21304615,1.15569231 2.14781538,1.73476923 2.14781538,3.10215385 C2.14781538,6.11630769 7.61858462,4.26153846 7.61858462,8.17907692 C7.61858462,9.94215385 6.01858462,11.8430769 3.44504615,11.8430769 C2.03150769,11.8430769 1.10350769,11.448 0.454892308,11.0775385 C0.640123077,10.6836923 0.894892308,9.84923077 0.894892308,9.38523077 L1.17366154,9.38523077 Z" id="Fill-107" fill="#FEFEFE" mask="url(#mask-2)"></path>
                    </g>
                    <path d="M76.7860923,4.71981538 C83.8500923,-1.0888 90.5614769,-1.16449231 97.1110154,4.75427692 C98.0630154,5.6152 99.1085538,6.48966154 100.0384,7.37458462 C101.184862,8.74627692 99.6962462,9.64535385 96.8125538,10.1296615 C90.0494769,11.2656615 83.3627077,11.0564308 76.7522462,9.96166154 C73.4857846,9.42073846 72.9079385,8.45212308 74.1990154,7.00473846 C75.0611692,6.24289231 75.8974769,5.45027692 76.7860923,4.71981538" id="Fill-110" fill="#FFD400"></path>
                </g>
                <path d="M87.0461538,11.488 C85.8313846,11.5132308 84.6073846,11.7372308 83.3729231,12.1556923 L83.3729231,12.1556923 C81.3938462,12.8289231 79.3889231,14.0055385 77.3532308,15.6793846 L77.3532308,15.6793846 C77.1310769,15.8621538 76.912,16.048 76.6953846,16.2375385 L76.6953846,16.2375385 C76.4123077,16.4843077 76.1329231,16.736 75.8541538,16.9883077 L75.8541538,16.9883077 L75.3833846,17.4141538 C75.2147692,17.5649231 75.0455385,17.7169231 74.8756923,17.8670769 L74.8756923,17.8670769 C73.64,19.2529231 74.1926154,20.1796923 77.3206154,20.6984615 L77.3206154,20.6984615 C78.4886154,20.8916923 79.6584615,21.0553846 80.8307692,21.1883077 L80.8307692,21.1883077 C82.8098462,21.4135385 84.7963077,21.5470769 86.7901538,21.5778462 L86.7901538,21.5778462 C88.9593846,21.6116923 91.1372308,21.5224615 93.3230769,21.2941538 L93.3230769,21.2941538 C94.3889231,21.1827692 95.4566154,21.0381538 96.5267692,20.8590769 L96.5267692,20.8590769 C99.288,20.3950769 100.713846,19.5347692 99.6153846,18.2209231 L99.6153846,18.2209231 C99.4092308,18.024 99.2006154,17.8301538 98.9907692,17.6369231 L98.9907692,17.6369231 C98.7944615,17.4578462 98.5975385,17.2793846 98.3987692,17.1015385 L98.3987692,17.1015385 C98.0467692,16.7870769 97.6916923,16.4750769 97.3353846,16.1636923 L97.3353846,16.1636923 C97.0633846,15.9255385 96.7907692,15.688 96.5187692,15.4510769 L96.5187692,15.4510769 C94.6886154,13.8504615 92.8455385,12.7384615 90.984,12.1070769 L90.984,12.1070769 C89.7593846,11.6923077 88.5267692,11.4849231 87.2855385,11.4849231 L87.2855385,11.4849231 C87.2055385,11.4849231 87.1261538,11.4861538 87.0461538,11.488" id="Fill-113"></path>
                <path d="M105.616246,16.3241231 C108.933785,11.6958154 109.031631,6.92412308 105.592862,2.27796923 C105.074708,1.57766154 104.425477,0.914892308 103.829785,0.280430769 C102.906708,-0.502338462 102.293169,0.396123077 102.324554,2.48166154 C102.396554,7.29273846 102.463015,11.7795077 102.437785,16.1739692 C102.424862,18.4342769 103.104862,18.9708923 104.079015,18.0902769 C104.591015,17.5013538 105.160862,16.9592 105.616246,16.3241231" id="Fill-115" fill="#7A9B22"></path>
                <path d="M102.452308,1.67569231 C102.411077,1.98153846 102.392,2.33723077 102.397538,2.73846154 L102.397538,2.73846154 C102.410462,3.57476923 102.423385,4.40061538 102.434462,5.21723077 L102.434462,5.21723077 C102.456,6.71630769 102.475077,8.18584615 102.489231,9.63384615 L102.489231,9.63384615 C102.509538,11.7532308 102.518769,13.8258462 102.506462,15.8775385 L102.506462,15.8775385 C102.494154,18.0461538 103.146462,18.5618462 104.081231,17.7169231 L104.081231,17.7169231 C104.246769,17.5267692 104.418462,17.3415385 104.589538,17.1569231 L104.589538,17.1569231 C104.928615,16.792 105.267077,16.4264615 105.556308,16.0221538 L105.556308,16.0221538 C107.131692,13.8252308 107.950154,11.5944615 107.976,9.36184615 L107.976,9.36184615 C107.986462,8.44923077 107.865231,7.53723077 107.609231,6.62646154 L107.609231,6.62646154 C107.406154,5.90584615 107.118769,5.18646154 106.746462,4.46953846 L106.746462,4.46953846 C106.363077,3.73169231 105.910154,3.02153846 105.399385,2.36492308 L105.399385,2.36492308 C105.084923,1.96246154 104.731077,1.57230769 104.376615,1.19384615 L104.376615,1.19384615 C104.198154,1.00184615 104.017231,0.812923077 103.842462,0.626461538 L103.842462,0.626461538 C103.628308,0.444923077 103.432,0.357538462 103.257846,0.357538462 L103.257846,0.357538462 C102.854154,0.357538462 102.566769,0.824615385 102.452308,1.67569231" id="Fill-117"></path>
                <path d="M106.463446,23.9318154 C111.723754,27.9342769 117.046215,28.0813538 122.326831,23.9552 C123.106523,23.3453538 123.875754,22.6284308 124.596985,21.9515077 C125.486831,20.9022769 124.331754,20.1361231 122.094831,19.7656615 C116.848677,18.8973538 111.761292,19.0075077 106.633908,19.8450462 C104.099754,20.2585846 103.455446,21.0776615 104.456677,22.1847385 C105.1256,22.7668923 105.756985,23.3939692 106.463446,23.9318154" id="Fill-119" fill="#E11F21"></path>
                <path d="M114.157538,19.2972308 C111.603077,19.3089231 109.065231,19.5396923 106.516923,19.9550769 L106.516923,19.9550769 C104.064615,20.3556923 103.439385,21.1483077 104.409231,22.2203077 L104.409231,22.2203077 C104.499077,22.2984615 104.588308,22.3772308 104.677538,22.4578462 L104.677538,22.4578462 C104.845538,22.608 105.012308,22.7593846 105.178462,22.912 L105.178462,22.912 C105.56,23.2572308 105.942154,23.6 106.352,23.9113846 L106.352,23.9113846 C108.945846,25.8855385 111.556308,26.8904615 114.169231,26.8732308 L114.169231,26.8732308 C116.683077,26.856 119.198769,25.8923077 121.704615,23.9335385 L121.704615,23.9335385 C122.156923,23.5809231 122.604308,23.1901538 123.041231,22.7926154 L123.041231,22.7926154 C123.233231,22.6196923 123.422154,22.4436923 123.609231,22.2695385 L123.609231,22.2695385 C123.707077,22.1778462 123.804923,22.0855385 123.902769,21.9944615 L123.902769,21.9944615 C124.763077,20.9790769 123.645538,20.2375385 121.480615,19.8793846 L121.480615,19.8793846 C119.081231,19.4818462 116.714462,19.2966154 114.363077,19.2966154 L114.363077,19.2966154 C114.294154,19.2966154 114.226462,19.2966154 114.157538,19.2972308" id="Fill-121"></path>
                <path d="M98.2236923,25.0598154 C94.0175385,30.8727385 93.6741538,36.6093538 98.0544615,42.4444308 C98.7116923,43.3195077 99.5209231,44.1564308 100.268615,44.9533538 C101.428,45.9367385 102.199692,44.8081231 102.160308,42.1884308 C102.069846,36.1459692 101.986769,30.5108923 102.018769,24.9921231 C102.034769,22.1533538 101.179385,21.6856615 99.956,22.7921231 C99.3123077,23.5318154 98.7990769,24.2647385 98.2236923,25.0598154" id="Fill-123" fill="#005A9C"></path>
                <path d="M99.9483077,22.9126154 C99.8,23.0824615 99.6590769,23.2523077 99.5230769,23.4221538 L99.5230769,23.4221538 C99.1556923,23.8812308 98.8221538,24.344 98.4726154,24.8283077 L98.4726154,24.8283077 C97.9218462,25.592 97.3944615,26.368 96.9353846,27.1907692 L96.9353846,27.1907692 C96.0393846,28.7956923 95.4578462,30.3950769 95.2110769,31.9950769 L95.2110769,31.9950769 C94.7003077,35.2916923 95.6098462,38.5876923 98.1095385,41.9169231 L98.1095385,41.9169231 C98.5729231,42.5347692 99.1144615,43.1323077 99.6547692,43.7095385 L99.6547692,43.7095385 C99.8547692,43.9236923 100.054769,44.1347692 100.250462,44.3433846 L100.250462,44.3433846 C101.372308,45.2941538 102.117538,44.2030769 102.08,41.6695385 L102.08,41.6695385 C102.024,37.9156923 101.970462,34.3236923 101.947692,30.8196923 L101.947692,30.8196923 C101.934769,28.8701538 101.931692,26.9476923 101.943385,25.04 L101.943385,25.04 C101.947077,24.2603077 101.883692,23.6664615 101.763692,23.2387692 L101.763692,23.2387692 C101.597538,22.6498462 101.324308,22.3784615 100.971692,22.3784615 L100.971692,22.3784615 C100.679385,22.3784615 100.332308,22.5649231 99.9483077,22.9126154" id="Fill-125"></path>
                <g id="Group-166" transform="translate(20.307692, 128.369231)">
                    <path d="M62.2248615,29.5612923 C62.2248615,28.9908308 62.2168615,28.4209846 62.2002462,27.8505231 C61.6297846,27.8505231 60.8944,27.8837538 60.4316308,27.9416 C60.4562462,27.8585231 60.4728615,27.7674462 60.4728615,27.6769846 C60.4728615,27.5945231 60.4562462,27.5114462 60.4316308,27.4203692 C61.1424,27.4456 61.8531692,27.4622154 62.5639385,27.4622154 C63.2747077,27.4622154 63.9848615,27.4456 64.6956308,27.4203692 C64.6710154,27.5114462 64.6550154,27.5945231 64.6550154,27.6856 C64.6550154,27.7674462 64.6710154,27.8585231 64.6956308,27.9416 C64.2334769,27.8837538 63.4980923,27.8505231 62.9276308,27.8505231 C62.9110154,28.4209846 62.9024,28.9908308 62.9024,29.5612923 L62.9024,30.9828308 C62.9024,31.6936 62.9356308,32.4129846 62.9688615,33.1237538 C62.8279385,33.0985231 62.6962462,33.0819077 62.5639385,33.0819077 C62.4316308,33.0819077 62.2993231,33.0985231 62.1584,33.1237538 C62.1922462,32.4129846 62.2248615,31.6936 62.2248615,30.9828308 L62.2248615,29.5612923 Z" id="Fill-127" fill="#FEFEFE"></path>
                    <path d="M64.6603692,30.7844308 C64.9994462,30.7930462 65.3877538,30.8096615 65.7348308,30.8096615 C66.0985231,30.8096615 66.4868308,30.7930462 66.8332923,30.7844308 C66.8332923,30.1973538 66.6769846,29.3542769 65.8172923,29.3542769 C65.0074462,29.3542769 64.7016,30.1899692 64.6603692,30.7844308 M65.8006769,29.0902769 C66.9576,29.0902769 67.5114462,29.8588923 67.5114462,30.7758154 C67.5114462,30.8841231 67.5034462,30.9912 67.4948308,31.0988923 C66.8997538,31.0902769 66.3132923,31.0736615 65.7262154,31.0736615 C65.3631385,31.0736615 65.0074462,31.0902769 64.6437538,31.0988923 C64.6357538,31.1807385 64.6357538,31.2552 64.6357538,31.3296615 C64.6357538,32.1893538 65.1477538,32.8582769 66.0652923,32.8582769 C66.5034462,32.8582769 67.0160615,32.6022769 67.3046769,32.2718154 L67.3459077,32.2964308 L67.2966769,32.7019692 C66.9662154,32.9659692 66.4289846,33.2059692 65.9163692,33.2059692 C64.7268308,33.2059692 63.9083692,32.3622769 63.9083692,31.2638154 C63.9083692,29.9247385 64.5859077,29.0902769 65.8006769,29.0902769" id="Fill-129" fill="#FEFEFE"></path>
                    <path d="M69.7564308,29.5196923 C68.9884308,29.5196923 68.6407385,30.0156923 68.6407385,30.8753846 L68.6407385,31.5775385 C68.6407385,32.0735385 68.6573538,32.6526154 68.7072,33.1233846 C68.5828923,33.0981538 68.4592,33.0821538 68.3348923,33.0821538 C68.2112,33.0821538 68.0875077,33.0981538 67.9632,33.1233846 C68.0130462,32.6526154 68.0296615,32.0735385 68.0296615,31.5775385 L68.0296615,30.7184615 C68.0296615,30.2224615 68.0130462,29.6446154 67.9632,29.1726154 C68.0875077,29.1978462 68.2112,29.2138462 68.3348923,29.2138462 C68.4179692,29.2138462 68.5416615,29.1978462 68.6659692,29.1726154 C68.6493538,29.396 68.6407385,29.6107692 68.6407385,29.8341538 L68.6573538,29.8341538 C68.9632,29.3627692 69.3847385,29.0901538 69.9798154,29.0901538 C70.5915077,29.0901538 71.3022769,29.388 71.3022769,30.5283077 C71.3022769,30.9990769 71.2690462,31.4950769 71.2690462,32.0569231 C71.2690462,32.4206154 71.2690462,32.7676923 71.2856615,33.1233846 C71.1613538,33.0981538 71.0542769,33.0821538 70.9385846,33.0821538 C70.8228923,33.0821538 70.7152,33.0981538 70.5995077,33.1233846 C70.6161231,32.5203077 70.6573538,31.9166154 70.6573538,31.2803077 L70.6573538,30.7756923 C70.6573538,29.9664615 70.3022769,29.5196923 69.7564308,29.5196923" id="Fill-131" fill="#FEFEFE"></path>
                    <path d="M72.5550769,30.7844308 C72.8941538,30.7930462 73.2824615,30.8096615 73.6295385,30.8096615 C73.9932308,30.8096615 74.3815385,30.7930462 74.728,30.7844308 C74.728,30.1973538 74.5716923,29.3542769 73.712,29.3542769 C72.9021538,29.3542769 72.5963077,30.1899692 72.5550769,30.7844308 M73.6953846,29.0902769 C74.8523077,29.0902769 75.4061538,29.8588923 75.4061538,30.7758154 C75.4061538,30.8841231 75.3981538,30.9912 75.3895385,31.0988923 C74.7944615,31.0902769 74.208,31.0736615 73.6209231,31.0736615 C73.2578462,31.0736615 72.9021538,31.0902769 72.5384615,31.0988923 C72.5304615,31.1807385 72.5304615,31.2552 72.5304615,31.3296615 C72.5304615,32.1893538 73.0424615,32.8582769 73.96,32.8582769 C74.3981538,32.8582769 74.9107692,32.6022769 75.1993846,32.2718154 L75.2406154,32.2964308 L75.1913846,32.7019692 C74.8609231,32.9659692 74.3236923,33.2059692 73.8110769,33.2059692 C72.6215385,33.2059692 71.8030769,32.3622769 71.8030769,31.2638154 C71.8030769,29.9247385 72.4806154,29.0902769 73.6953846,29.0902769" id="Fill-133" fill="#FEFEFE"></path>
                    <path d="M77.7507692,29.8504 C77.6929231,29.7845538 77.5107692,29.7180923 77.3458462,29.7180923 C76.8166154,29.7180923 76.5027692,30.2227077 76.5027692,30.8664 C76.5027692,32.3051692 76.5027692,32.7433231 76.536,33.1236308 C76.4283077,33.0984 76.3126154,33.0817846 76.2049231,33.0817846 C76.0898462,33.0817846 75.9821538,33.0984 75.8578462,33.1236308 C75.8910769,32.7180923 75.8910769,32.0731692 75.8910769,31.1482462 L75.8910769,30.8842462 C75.8910769,30.4534769 75.8910769,29.8830154 75.8578462,29.1728615 C75.9821538,29.1974769 76.0898462,29.2140923 76.2049231,29.2140923 C76.3126154,29.2140923 76.4283077,29.1974769 76.536,29.1728615 C76.4941538,29.5697846 76.4941538,29.7679385 76.4941538,29.9740923 L76.5113846,29.9827077 C76.8252308,29.3882462 77.2221538,29.0904 77.6018462,29.0904 C77.7009231,29.0904 77.7587692,29.0984 77.8664615,29.1396308 C77.8086154,29.2719385 77.8086154,29.5864 77.8086154,29.8085538 L77.7507692,29.8504 Z" id="Fill-135" fill="#FEFEFE"></path>
                    <path d="M78.4099692,30.7186462 C78.4099692,30.2226462 78.3933538,29.6441846 78.3435077,29.1728 C78.4678154,29.1974154 78.5915077,29.2140308 78.7158154,29.2140308 C78.8395077,29.2140308 78.9638154,29.1974154 79.0875077,29.1728 C79.0382769,29.6441846 79.0210462,30.2226462 79.0210462,30.7186462 L79.0210462,31.5771077 C79.0210462,32.0731077 79.0382769,32.6528 79.0875077,33.1235692 C78.9638154,33.0983385 78.8395077,33.0817231 78.7158154,33.0817231 C78.5915077,33.0817231 78.4678154,33.0983385 78.3435077,33.1235692 C78.3933538,32.6528 78.4099692,32.0731077 78.4099692,31.5771077 L78.4099692,30.7186462 Z M78.7158154,27.3131077 C78.9472,27.3131077 79.1373538,27.5038769 79.1373538,27.7346462 C79.1373538,27.9660308 78.9472,28.1561846 78.7158154,28.1561846 C78.4838154,28.1561846 78.2942769,27.9660308 78.2942769,27.7346462 C78.2942769,27.5038769 78.4838154,27.3131077 78.7158154,27.3131077 L78.7158154,27.3131077 Z" id="Fill-137" fill="#FEFEFE"></path>
                    <path d="M81.8297231,27.5529846 C81.6980308,27.4705231 81.5404923,27.4292923 81.3749538,27.4292923 C80.8881846,27.4292923 80.6974154,27.8256 80.6974154,28.2557538 C80.6974154,28.4539077 80.7478769,28.8834462 80.7971077,29.2225231 C81.0777231,29.2225231 81.3675692,29.2139077 81.6481846,29.2139077 C81.6401846,29.2723692 81.6315692,29.3302154 81.6315692,29.3794462 C81.6315692,29.4372923 81.6401846,29.4957538 81.6481846,29.5449846 C81.3675692,29.5363692 81.0777231,29.5197538 80.7971077,29.5197538 C80.7971077,30.7185231 80.7971077,31.9080615 80.8297231,33.1234462 C80.7140308,33.0982154 80.5903385,33.0816 80.4752615,33.0816 C80.3589538,33.0816 80.2352615,33.0982154 80.1115692,33.1234462 C80.1848,31.9080615 80.1848,30.7265231 80.1848,29.5197538 C79.9866462,29.5197538 79.7884923,29.5363692 79.5903385,29.5449846 C79.5983385,29.4957538 79.6069538,29.4372923 79.6069538,29.3794462 C79.6069538,29.3302154 79.5983385,29.2723692 79.5903385,29.2139077 C79.7884923,29.2139077 79.9952615,29.2225231 80.1848,29.2225231 C80.1848,28.5782154 80.4660308,27.6600615 80.9041846,27.2225231 C81.1023385,27.0243692 81.4334154,26.8422154 81.7472615,26.8422154 C81.7971077,26.8422154 81.8623385,26.8508308 81.9128,26.8674462 C81.9041846,27.0908308 81.8801846,27.3129846 81.8801846,27.5289846 L81.8297231,27.5529846 Z" id="Fill-139" fill="#FEFEFE"></path>
                    <path d="M82.3742154,30.7844308 C82.7126769,30.7930462 83.1016,30.8096615 83.4486769,30.8096615 C83.8123692,30.8096615 84.2006769,30.7930462 84.5471385,30.7844308 C84.5471385,30.1973538 84.3902154,29.3542769 83.5305231,29.3542769 C82.7212923,29.3542769 82.4148308,30.1899692 82.3742154,30.7844308 M83.5145231,29.0902769 C84.6714462,29.0902769 85.2246769,29.8588923 85.2246769,30.7758154 C85.2246769,30.8841231 85.2172923,30.9912 85.2080615,31.0988923 C84.6136,31.0902769 84.0265231,31.0736615 83.4400615,31.0736615 C83.0763692,31.0736615 82.7212923,31.0902769 82.3576,31.0988923 C82.3489846,31.1807385 82.3489846,31.2552 82.3489846,31.3296615 C82.3489846,32.1893538 82.8616,32.8582769 83.7791385,32.8582769 C84.2172923,32.8582769 84.7299077,32.6022769 85.0185231,32.2718154 L85.0597538,32.2964308 L85.0099077,32.7019692 C84.6794462,32.9659692 84.1428308,33.2059692 83.6302154,33.2059692 C82.4400615,33.2059692 81.6222154,32.3622769 81.6222154,31.2638154 C81.6222154,29.9247385 82.2997538,29.0902769 83.5145231,29.0902769" id="Fill-141" fill="#FEFEFE"></path>
                    <g id="Group-145" transform="translate(86.769231, 27.076923)">
                        <mask id="mask-4" fill="white">
                            <use xlink:href="#path-3"></use>
                        </mask>
                        <g id="Clip-144"></g>
                        <path d="M0.790215385,4.94713846 C0.971753846,5.33606154 1.38590769,5.80683077 2.09667692,5.80683077 C2.83144615,5.80683077 3.27821538,5.26898462 3.27821538,4.60867692 C3.27821538,3.08744615 0.675138462,3.74036923 0.675138462,1.79883077 C0.675138462,0.881292308 1.36929231,0.236369231 2.46775385,0.236369231 C2.98898462,0.236369231 3.36006154,0.360061538 3.69113846,0.624676923 C3.59206154,0.815446154 3.53421538,1.00498462 3.46836923,1.31944615 L3.36929231,1.31944615 C3.25298462,1.0136 3.0056,0.542830769 2.38590769,0.542830769 C1.7656,0.542830769 1.31883077,0.963138462 1.31883077,1.56683077 C1.31883077,3.11267692 3.92313846,2.46775385 3.92313846,4.29421538 C3.92313846,5.30283077 3.17052308,6.15390769 1.89852308,6.15390769 C1.21175385,6.15390769 0.824061538,5.91390769 0.534215385,5.68313846 C0.633292308,5.42652308 0.658523077,5.2616 0.691753846,4.94713846 L0.790215385,4.94713846 Z" id="Fill-143" fill="#FEFEFE" mask="url(#mask-4)"></path>
                    </g>
                    <path d="M91.3008,30.4866462 C91.3008,30.0989538 91.2921846,29.6355692 91.2841846,29.1728 C91.4004923,29.1974154 91.5241846,29.2140308 91.6312615,29.2140308 C91.7389538,29.2140308 91.8546462,29.1974154 91.9697231,29.1728 C91.9204923,29.8177231 91.8878769,30.6608 91.8878769,31.4700308 C91.8878769,32.0404923 92.0029538,32.3131077 92.1438769,32.4706462 C92.3008,32.6435692 92.5315692,32.7764923 92.8546462,32.7764923 C93.3168,32.7764923 93.6312615,32.5444923 93.7715692,32.2472615 C93.9364923,31.8915692 93.9451077,31.8257231 93.9451077,30.5284923 C93.9451077,30.0817231 93.9451077,29.5697231 93.9291077,29.1728 C94.0448,29.1974154 94.1524923,29.2140308 94.2761846,29.2140308 C94.3998769,29.2140308 94.5069538,29.1974154 94.6146462,29.1728 C94.5654154,30.0318769 94.5568,30.8097231 94.5568,31.6854154 C94.5568,32.1728 94.5654154,32.6601846 94.5900308,33.1235692 C94.4829538,33.0983385 94.3746462,33.0817231 94.2675692,33.0817231 C94.1598769,33.0817231 94.0528,33.0983385 93.9451077,33.1235692 C93.9617231,32.8835692 93.9617231,32.6435692 93.9617231,32.4128 L93.9451077,32.4128 C93.6638769,32.9254154 93.1764923,33.2054154 92.6564923,33.2054154 C91.7968,33.2054154 91.2755692,32.7094154 91.2755692,31.8509538 C91.2755692,31.2718769 91.3008,30.8915692 91.3008,30.4866462" id="Fill-146" fill="#FEFEFE"></path>
                    <path d="M97.3473846,29.8504 C97.2895385,29.7845538 97.1073846,29.7180923 96.9424615,29.7180923 C96.4132308,29.7180923 96.0993846,30.2227077 96.0993846,30.8664 C96.0993846,32.3051692 96.0993846,32.7433231 96.132,33.1236308 C96.0249231,33.0984 95.9086154,33.0817846 95.8015385,33.0817846 C95.6864615,33.0817846 95.5787692,33.0984 95.4544615,33.1236308 C95.4876923,32.7180923 95.4876923,32.0731692 95.4876923,31.1482462 L95.4876923,30.8842462 C95.4876923,30.4534769 95.4876923,29.8830154 95.4544615,29.1728615 C95.5787692,29.1974769 95.6864615,29.2140923 95.8015385,29.2140923 C95.9086154,29.2140923 96.0249231,29.1974769 96.132,29.1728615 C96.0901538,29.5697846 96.0901538,29.7679385 96.0901538,29.9740923 L96.108,29.9827077 C96.4212308,29.3882462 96.8187692,29.0904 97.1984615,29.0904 C97.2969231,29.0904 97.3553846,29.0984 97.4624615,29.1396308 C97.4046154,29.2719385 97.4046154,29.5864 97.4046154,29.8085538 L97.3473846,29.8504 Z" id="Fill-148" fill="#FEFEFE"></path>
                    <path d="M58.8938462,19.7686154 C59.1276923,19.7815385 59.3553846,19.7926154 59.5769231,19.7987692 C59.7996923,19.8055385 60.0187692,19.8073846 60.2335385,19.8073846 C60.4415385,19.8073846 60.6452308,19.8055385 60.8470769,19.7987692 C61.0483077,19.7926154 61.2415385,19.7815385 61.428,19.7686154 L60.1769231,16.5452308 L58.8938462,19.7686154 Z M56.3861538,23.8153846 C57.0033846,22.4307692 57.6298462,20.9956923 58.2630769,19.5064615 C58.8963077,18.0190769 59.5572308,16.4393846 60.2464615,14.7655385 C60.3073846,14.7784615 60.3633846,14.7876923 60.4156923,14.7938462 C60.4673846,14.8006154 60.5153846,14.8049231 60.5584615,14.8049231 C60.6083077,14.8049231 60.6606154,14.8006154 60.7104615,14.7938462 C60.7621538,14.7876923 60.8101538,14.7784615 60.8575385,14.7655385 C61.4366154,16.2916923 62.0347692,17.8067692 62.6483077,19.3156923 C63.2618462,20.824 63.8901538,22.3243077 64.5338462,23.8153846 C64.3695385,23.7963077 64.2175385,23.7809231 64.0766154,23.7698462 C63.9381538,23.7593846 63.8033846,23.7526154 63.6753846,23.7526154 C63.5498462,23.7526154 63.42,23.7593846 63.2852308,23.7698462 C63.1535385,23.7809231 63.0144615,23.7963077 62.8692308,23.8153846 C62.6827692,23.1913846 62.4944615,22.6018462 62.3055385,22.0424615 C62.1147692,21.4855385 61.9178462,20.952 61.7141538,20.4492308 C61.4778462,20.432 61.2347692,20.4190769 60.9898462,20.4123077 C60.7449231,20.4061538 60.4981538,20.4036923 60.2464615,20.4036923 C59.9886154,20.4036923 59.724,20.4061538 59.4507692,20.4123077 C59.1775385,20.4190769 58.8938462,20.432 58.6009231,20.4492308 L58.1006154,21.8406154 C57.9898462,22.1446154 57.8858462,22.4627692 57.7886154,22.7926154 C57.6932308,23.1243077 57.5996923,23.4646154 57.5110769,23.8153846 C57.4132308,23.7938462 57.3178462,23.7784615 57.2249231,23.768 C57.1313846,23.7569231 57.0403077,23.7526154 56.9516923,23.7526154 C56.8673846,23.7526154 56.7781538,23.7569231 56.6870769,23.768 C56.596,23.7784615 56.4963077,23.7938462 56.3861538,23.8153846 L56.3861538,23.8153846 Z" id="Fill-150" fill="#FEFEFE"></path>
                    <path d="M78.1258462,15.2327385 C77.0507692,15.2327385 76.2181538,15.5798154 75.6286154,16.2708923 C75.0372308,16.9625846 74.7424615,17.9422769 74.7424615,19.2081231 C74.7424615,20.5367385 75.0329231,21.5533538 75.6113846,22.2561231 C76.1923077,22.9582769 77.0310769,23.3090462 78.1258462,23.3090462 C79.2095385,23.3090462 80.044,22.9601231 80.6292308,22.2647385 C81.2126154,21.5687385 81.5049231,20.5718154 81.5049231,19.2776615 C81.5049231,17.9767385 81.2126154,16.9798154 80.6292308,16.2795077 C80.044,15.5816615 79.2095385,15.2327385 78.1258462,15.2327385 M78.1387692,23.8813538 C76.6366154,23.8813538 75.4532308,23.4696615 74.5861538,22.6462769 C73.7215385,21.8222769 73.2876923,20.6992 73.2876923,19.2776615 C73.2876923,17.8468923 73.7190769,16.7195077 74.5836923,15.8961231 C75.4464615,15.0721231 76.628,14.6604308 78.1283077,14.6604308 C79.6563077,14.6604308 80.844,15.0659692 81.6938462,15.8745846 C82.5412308,16.6832 82.9664615,17.8167385 82.9664615,19.2776615 C82.9664615,20.7213538 82.5412308,21.8481231 81.6938462,22.6610462 C80.844,23.4739692 79.6606154,23.8813538 78.1387692,23.8813538" id="Fill-152" fill="#FEFEFE"></path>
                    <path d="M84.5221538,23.7576615 C84.5935385,23.1355077 84.6476923,22.2272 84.6846154,21.0327385 C84.7215385,19.8388923 84.7387692,18.3841231 84.7387692,16.6696615 C84.7387692,16.3724308 84.7369231,16.0604308 84.7301538,15.7312 C84.724,15.3995077 84.7129231,15.0548923 84.7,14.6948923 L85.1701538,14.6948923 C86.1609231,15.8499692 87.1750769,16.9988923 88.2156923,18.1367385 C89.2538462,19.2770462 90.316,20.4087385 91.4003077,21.5361231 L91.4003077,17.9853538 C91.4003077,17.5539692 91.3867692,17.0745846 91.3590769,16.5502769 C91.3307692,16.0235077 91.2938462,15.4598154 91.2483077,14.8598154 C91.3326154,14.8727385 91.4218462,14.8813538 91.5129231,14.8875077 C91.604,14.8942769 91.6907692,14.8985846 91.7750769,14.8985846 C91.868,14.8985846 91.9572308,14.8942769 92.044,14.8875077 C92.1283077,14.8788923 92.2083077,14.8702769 92.2846154,14.8598154 C92.2175385,15.3256615 92.1627692,16.1730462 92.1221538,17.4019692 C92.0809231,18.6315077 92.0612308,20.1398154 92.0612308,21.9324308 C92.0612308,22.1275077 92.0655385,22.3878154 92.0716923,22.7108923 C92.0784615,23.0358154 92.0870769,23.4302769 92.1,23.8961231 L91.6729231,23.9028923 C91.3806154,23.5127385 91.0489231,23.1010462 90.6741538,22.6672 C90.2987692,22.2339692 89.8089231,21.6961231 89.2021538,21.0524308 L85.4304615,17.0315077 L85.4304615,20.5693538 C85.4304615,21.1761231 85.4433846,21.7416615 85.4716923,22.2684308 C85.5,22.7952 85.5412308,23.2918154 85.5953846,23.7576615 C85.4975385,23.7361231 85.4046154,23.7207385 85.3135385,23.7102769 C85.2224615,23.6992 85.1332308,23.6948923 85.0489231,23.6948923 C84.9689231,23.6948923 84.8864615,23.6992 84.8015385,23.7102769 C84.7172308,23.7207385 84.6243077,23.7361231 84.5221538,23.7576615" id="Fill-154" fill="#FEFEFE"></path>
                    <path d="M95.8169846,19.7410462 C96.0508308,19.7539692 96.2785231,19.7650462 96.5000615,19.7712 C96.7228308,19.7779692 96.9419077,19.7798154 97.1566769,19.7798154 C97.3646769,19.7798154 97.5683692,19.7779692 97.7702154,19.7712 C97.9714462,19.7650462 98.1646769,19.7539692 98.3511385,19.7410462 L97.1000615,16.5176615 L95.8169846,19.7410462 Z M93.3092923,23.7878154 C93.9265231,22.4032 94.5529846,20.9681231 95.1862154,19.4788923 C95.8194462,17.9915077 96.4803692,16.4118154 97.1696,14.7379692 C97.2305231,14.7508923 97.2865231,14.7601231 97.3388308,14.7662769 C97.3905231,14.7730462 97.4385231,14.7773538 97.4816,14.7773538 C97.5314462,14.7773538 97.5837538,14.7730462 97.6336,14.7662769 C97.6852923,14.7601231 97.7332923,14.7508923 97.7806769,14.7379692 C98.3597538,16.2641231 98.9579077,17.7792 99.5714462,19.2881231 C100.184985,20.7964308 100.813292,22.2967385 101.456985,23.7878154 C101.292677,23.7687385 101.140677,23.7533538 100.999754,23.7422769 C100.861292,23.7318154 100.726523,23.7250462 100.598523,23.7250462 C100.472985,23.7250462 100.343138,23.7318154 100.208369,23.7422769 C100.076677,23.7533538 99.9376,23.7687385 99.7923692,23.7878154 C99.6059077,23.1638154 99.4176,22.5742769 99.2286769,22.0148923 C99.0379077,21.4579692 98.8409846,20.9244308 98.6372923,20.4216615 C98.4009846,20.4044308 98.1579077,20.3915077 97.9129846,20.3847385 C97.6680615,20.3785846 97.4212923,20.3761231 97.1696,20.3761231 C96.9117538,20.3761231 96.6471385,20.3785846 96.3739077,20.3847385 C96.1006769,20.3915077 95.8169846,20.4044308 95.5246769,20.4216615 L95.0237538,21.8130462 C94.9129846,22.1170462 94.8089846,22.4352 94.7117538,22.7650462 C94.6163692,23.0967385 94.5228308,23.4370462 94.4342154,23.7878154 C94.3363692,23.7662769 94.2409846,23.7508923 94.1480615,23.7404308 C94.0545231,23.7293538 93.9634462,23.7250462 93.8748308,23.7250462 C93.7905231,23.7250462 93.7012923,23.7293538 93.6102154,23.7404308 C93.5191385,23.7508923 93.4194462,23.7662769 93.3092923,23.7878154 L93.3092923,23.7878154 Z" id="Fill-156" fill="#FEFEFE"></path>
                    <path d="M67.4591385,20.8212923 C67.4591385,21.2077538 67.4659077,21.6336 67.4788308,22.0994462 C67.4923692,22.5646769 67.5139077,23.1271385 67.5489846,23.7880615 C67.4505231,23.7659077 67.3428308,23.7505231 67.2240615,23.7394462 C67.1059077,23.7289846 66.9736,23.7240615 66.8289846,23.7240615 C66.6794462,23.7240615 66.5477538,23.7308308 66.4339077,23.7419077 C66.3194462,23.7529846 66.2142154,23.7683692 66.1151385,23.7880615 C66.1612923,22.8791385 66.1963692,21.9739077 66.2203692,21.0785231 C66.2449846,20.1800615 66.2560615,19.2822154 66.2560615,18.3862154 C66.2560615,17.6723692 66.2449846,17.0225231 66.2203692,16.4336 C66.1963692,15.8477538 66.1612923,15.2939077 66.1151385,14.7739077 C66.2603692,14.7911385 66.4092923,14.8022154 66.5631385,14.8108308 C66.7145231,14.8200615 66.8726769,14.8243692 67.0351385,14.8243692 C67.3009846,14.8243692 67.6548308,14.8157538 68.0979077,14.7979077 C68.5440615,14.7825231 68.8536,14.7739077 69.0289846,14.7739077 C69.9539077,14.7739077 70.6628308,14.9517538 71.1502154,15.3074462 C71.6400615,15.6631385 71.8837538,16.1812923 71.8837538,16.8576 C71.8837538,17.4637538 71.6622154,17.9665231 71.2185231,18.3708308 C70.7748308,18.7745231 70.1360615,19.0514462 69.3059077,19.2009846 C69.8837538,19.9739077 70.4677538,20.7400615 71.0536,21.5043692 C71.6425231,22.2686769 72.2351385,23.0280615 72.8302154,23.7880615 C72.6591385,23.7659077 72.4923692,23.7505231 72.3317538,23.7394462 C72.1717538,23.7289846 72.0179077,23.7240615 71.8726769,23.7240615 C71.7299077,23.7240615 71.5852923,23.7289846 71.4357538,23.7394462 C71.2843692,23.7505231 71.1194462,23.7659077 70.9397538,23.7880615 C69.9422154,22.1363692 68.7779077,20.5314462 67.7102154,18.9234462 C67.7637538,18.9240615 67.8277538,18.9240615 67.9028308,18.9240615 C68.7656,18.9240615 69.4203692,18.7634462 69.8677538,18.4409846 C70.3157538,18.1203692 70.5397538,17.6483692 70.5397538,17.0243692 C70.5397538,16.4668308 70.3489846,16.0385231 69.9649846,15.7376 C69.5803692,15.4366769 69.0314462,15.2877538 68.3157538,15.2877538 C68.1772923,15.2877538 68.0456,15.2920615 67.9157538,15.3006769 C67.7865231,15.3099077 67.6652923,15.3246769 67.5489846,15.3449846 C67.5182154,15.5640615 67.4966769,15.7948308 67.4812923,16.0342154 C67.4659077,16.2736 67.4591385,16.6009846 67.4591385,17.0114462 L67.4591385,20.8212923" id="Fill-158" fill="#FEFEFE"></path>
                    <path d="M144.503446,11.7236308 C144.503446,11.7236308 144.025292,11.5704 143.129292,11.2836308 C142.6856,11.1236308 142.116369,11.0073231 141.457908,10.8368615 C140.801292,10.6620923 140.036985,10.4977846 139.176677,10.3267077 C138.321292,10.1377846 137.3656,9.96855385 136.322523,9.79932308 C135.283138,9.6104 134.150831,9.45655385 132.9416,9.28793846 C130.523754,8.95132308 127.783446,8.66209231 124.794523,8.35009231 C121.802523,8.06455385 118.556985,7.79932308 115.119446,7.58332308 C111.681908,7.36855385 108.054215,7.18947692 104.300369,7.02270769 C100.547138,6.84916923 96.6646769,6.73901538 92.7200615,6.6584 C88.7748308,6.57716923 84.7662154,6.55132308 80.7576,6.55501538 C76.7502154,6.53778462 72.7348308,6.55870769 68.7951385,6.62393846 C64.8499077,6.6984 60.9674462,6.79501538 57.2129846,6.9544 C53.4585231,7.10701538 49.8302154,7.27932308 46.3914462,7.47563077 C42.9526769,7.67809231 39.7052923,7.92178462 36.7120615,8.19501538 C33.7212923,8.48547692 30.9779077,8.75316923 28.5563692,9.06701538 C27.3434462,9.21101538 26.2123692,9.3704 25.1686769,9.53532308 C24.1212923,9.68178462 23.1668308,9.85532308 22.3046769,10.0134769 C21.4394462,10.1587077 20.6751385,10.3248615 20.0086769,10.4670154 C19.3409846,10.6048615 18.7736,10.7242462 18.3219077,10.8534769 C17.4117538,11.0916308 16.9268308,11.2190154 16.9268308,11.2190154 C16.9268308,11.2190154 17.4049846,11.0676308 18.3022154,10.7833231 C18.7489846,10.6313231 19.3102154,10.4830154 19.9711385,10.3113231 C20.6302154,10.1316308 21.3908308,9.93409231 22.2523692,9.75809231 C23.1108308,9.56670769 24.0622154,9.35686154 25.1059077,9.17101538 C26.1465231,8.96670769 27.2745231,8.76363077 28.4849846,8.57409231 C30.9003692,8.16301538 33.6394462,7.78947692 36.6345231,7.44547692 C39.6302154,7.10332308 42.8800615,6.78393846 46.3225231,6.50209231 C49.7649846,6.22578462 53.3982154,5.95255385 57.1619077,5.7944 C60.9249846,5.60609231 64.8154462,5.47993846 68.7692923,5.37532308 C72.7292923,5.28116923 76.7403692,5.22516923 80.7594462,5.21778462 C84.7772923,5.24424615 88.7951385,5.30086154 92.7489846,5.41224615 C96.7028308,5.5224 100.593292,5.66270769 104.355138,5.86516923 C108.118831,6.03624615 111.750831,6.32424615 115.192677,6.61409231 C118.633908,6.90886154 121.882523,7.24978462 124.876369,7.60424615 C127.868985,7.96916923 130.6056,8.36670769 133.017908,8.79870769 C134.224677,9.01286154 135.353908,9.20916923 136.390215,9.43809231 C137.4296,9.64670769 138.3816,9.85224615 139.233908,10.0744 C140.089908,10.2750154 140.850523,10.4713231 141.502215,10.6842462 C142.155138,10.8885538 142.718831,11.0337846 143.153292,11.2153231 C144.033908,11.5470154 144.503446,11.7236308 144.503446,11.7236308" id="Fill-160" fill="#E63323"></path>
                    <path d="M152.831015,9.23341538 C152.831015,9.23341538 152.285785,9.07895385 151.264246,8.78849231 C150.757169,8.62664615 150.111015,8.5128 149.362708,8.33987692 C148.615631,8.16326154 147.747323,8.00141538 146.771938,7.82849231 C145.800862,7.63833846 144.717785,7.47218462 143.536862,7.30110769 C142.359631,7.11095385 141.077169,6.96018462 139.709169,6.79033846 C136.972554,6.45433846 133.874092,6.16510769 130.495015,5.85372308 C127.112862,5.57064615 123.445169,5.30418462 119.561477,5.08941538 C115.677785,4.87526154 111.579938,4.6968 107.339938,4.53064615 C103.100554,4.35833846 98.7159385,4.24756923 94.2611692,4.16756923 C89.8064,4.08695385 85.2796308,4.06049231 80.7528615,4.0648 C76.2273231,4.04756923 71.6944,4.06849231 67.2445538,4.13372308 C62.7891692,4.20756923 58.4045538,4.30418462 54.1645538,4.46356923 C49.9239385,4.61556923 45.8254769,4.78726154 41.9405538,4.98356923 C38.0562462,5.1848 34.3867077,5.42910769 31.0033231,5.70049231 C27.6217846,5.99095385 24.5214769,6.25803077 21.7817846,6.57187692 C20.4100923,6.71587692 19.1294769,6.87403077 17.9479385,7.04018462 C16.7627077,7.18664615 15.6808615,7.35833846 14.7036308,7.51772308 C13.7239385,7.66356923 12.8556308,7.82910769 12.0999385,7.97249231 C11.3436308,8.11156923 10.6993231,8.23033846 10.1848615,8.3608 C9.1504,8.6008 8.59901538,8.7288 8.59901538,8.7288 C8.59901538,8.7288 9.14486154,8.57618462 10.1676308,8.29003077 C10.6771692,8.13618462 11.3159385,7.98910769 12.0667077,7.81618462 C12.8162462,7.63526154 13.6808615,7.43833846 14.6574769,7.26172308 C15.6310154,7.06910769 16.7104,6.86110769 17.8919385,6.67464615 C19.0710154,6.46910769 20.3491692,6.26787692 21.7184,6.07710769 C24.4525538,5.66726154 27.5504,5.29433846 30.9350154,4.95033846 C34.3202462,4.60941538 37.9922462,4.29003077 41.8796308,4.0088 C45.7676308,3.73310769 49.8704,3.46049231 54.1190154,3.30356923 C58.3670154,3.11526154 62.7584,2.98910769 67.2217846,2.88449231 C71.6894769,2.79095385 76.2187077,2.73495385 80.7547077,2.72756923 C85.2894769,2.75403077 89.8242462,2.81064615 94.2870154,2.92141538 C98.7497846,3.03156923 103.141169,3.17126154 107.388554,3.37310769 C111.637169,3.54356923 115.738708,3.83033846 119.626092,4.11956923 C123.512862,4.41372308 127.183015,4.75464615 130.567015,5.10664615 C133.9504,5.47156923 137.045169,5.86849231 139.776862,6.29926154 C141.1424,6.51526154 142.421785,6.70849231 143.596554,6.93803077 C144.7744,7.14910769 145.8544,7.35156923 146.823015,7.57433846 C147.794092,7.77741538 148.659323,7.97126154 149.402092,8.18603077 C150.146092,8.3928 150.786708,8.53556923 151.285785,8.71956923 C152.293169,9.05495385 152.831015,9.23341538 152.831015,9.23341538" id="Fill-162" fill="#FECC00"></path>
                    <path d="M161.132369,6.74301538 C161.132369,6.74301538 160.520677,6.58732308 159.374215,6.29563077 C158.804985,6.13193846 158.082523,6.01993846 157.244369,5.84516923 C156.407446,5.66732308 155.436369,5.50793846 154.346523,5.33378462 C152.172369,4.96824615 149.513908,4.62732308 146.459754,4.29624615 C143.4056,3.96147692 139.950831,3.67347692 136.182215,3.36209231 C132.410523,3.08086154 128.321908,2.8144 123.993292,2.60086154 C119.665292,2.38732308 115.098523,2.20947692 110.3736,2.04455385 C105.648677,1.87224615 100.763754,1.76209231 95.8000615,1.68270769 C90.8363692,1.60209231 85.7926769,1.57624615 80.7489846,1.57993846 C75.7065231,1.56270769 70.6579077,1.58363077 65.6979077,1.64824615 C60.7342154,1.72270769 55.8486769,1.81870769 51.1237538,1.97747692 C46.3982154,2.12886154 41.8314462,2.29993846 37.5016,2.49563077 C33.1723692,2.69624615 29.0819077,2.94055385 25.3096,3.21070769 C21.5391385,3.50055385 18.0819077,3.76763077 15.0252923,4.08024615 C13.4954462,4.22424615 12.0665231,4.38116923 10.7471385,4.54732308 C9.42529231,4.6944 8.21606154,4.86486154 7.12498462,5.02547692 C6.03083077,5.17132308 5.06036923,5.33563077 4.21544615,5.48024615 C3.36990769,5.61993846 2.64990769,5.73747692 2.07329231,5.86855385 C0.915138462,6.10978462 0.297907692,6.2384 0.297907692,6.2384 C0.297907692,6.2384 0.9096,6.08455385 2.05790769,5.79716923 C2.6296,5.64270769 3.34467692,5.49563077 4.18529231,5.32147692 C5.02467692,5.13932308 5.99206154,4.94301538 7.08313846,4.76578462 C8.17175385,4.57255385 9.37790769,4.36516923 10.6966769,4.17809231 C12.0136,3.97193846 13.4406769,3.77132308 14.9680615,3.58055385 C18.0203692,3.17070769 21.4745231,2.79716923 25.2480615,2.45378462 C29.0216,2.11347692 33.1139077,1.79347692 37.4462154,1.51224615 C41.7785231,1.23655385 46.3496,0.963938462 51.0825231,0.807015385 C55.8148308,0.619323077 60.7065231,0.493169231 65.6776,0.388553846 C70.6536,0.295015385 75.6991385,0.239015385 80.7508308,0.231630769 C85.8019077,0.258092308 90.8523692,0.314707692 95.8234462,0.425476923 C100.794523,0.535015385 105.6856,0.674707692 110.417292,0.875938462 C115.150215,1.04578462 119.720062,1.33255385 124.051754,1.6224 C128.383446,1.91532308 132.474523,2.25747692 136.247446,2.60824615 C140.019138,2.97255385 143.471446,3.37009231 146.520677,3.80024615 C149.571138,4.22363077 152.223446,4.64455385 154.392677,5.07655385 C155.478831,5.28086154 156.447446,5.47347692 157.280677,5.68947692 C158.113908,5.89809231 158.831446,6.03901538 159.393908,6.22547692 C160.527446,6.56270769 161.132369,6.74301538 161.132369,6.74301538" id="Fill-164" fill="#006FB9"></path>
                </g>
            </g>
        </g>
    </g>
</svg>