<?xml version="1.0" encoding="UTF-8" standalone="no"?>
<svg width="263px" height="74px" viewBox="0 0 263 74" version="1.1" xmlns="http://www.w3.org/2000/svg" xmlns:xlink="http://www.w3.org/1999/xlink">
    <!-- Generator: sketchtool 3.8.2 (29753) - http://www.bohemiancoding.com/sketch -->
    <title>1DE81A5D-E375-4013-B8EA-175EB4CD5617</title>
    <desc>Created with sketchtool.</desc>
    <defs>
        <polygon id="path-1" points="5.74963753 0.490933156 0.180644336 0.490933156 0.180644336 15.5511418 5.74963753 15.5511418 5.74963753 0.490933156"></polygon>
        <polygon id="path-3" points="8.92449749 10.0289541 8.92449749 0.161674298 0.286075806 0.161674298 0.286075806 10.0289541 8.92449749 10.0289541"></polygon>
        <polygon id="path-5" points="0.696648447 8.57941437 5.43534499 8.57941437 5.43534499 0.30609444 0.696648447 0.30609444 0.696648447 8.57941437"></polygon>
    </defs>
    <g id="Travel-/-Home" stroke="none" stroke-width="1" fill="none" fill-rule="evenodd">
        <g id="Arona-travel-1024-/-Home" transform="translate(-508.000000, -550.000000)">
            <g id="Modulo-1-Destino">
                <g id="logo-copy" transform="translate(508.000000, 550.000000)">
                    <g id="Page-1" transform="translate(203.046140, 46.710145)">
                        <path d="M4.29962118,7.47286057 C4.29962118,6.10492062 4.27960254,4.73888719 4.24051854,3.3719005 C2.87257859,3.3719005 1.1090323,3.4500685 0.000381307306,3.58924567 C0.0594839397,3.3900126 0.0985679385,3.17171417 0.0985679385,2.954369 C0.0985679385,2.75704247 0.0594839397,2.55780941 0.000381307306,2.33951097 C1.70387169,2.39956687 3.40831535,2.43960414 5.11180574,2.43960414 C6.81624939,2.43960414 8.52069305,2.39956687 10.2241834,2.33951097 C10.1650808,2.55780941 10.1259968,2.75704247 10.1259968,2.97534091 C10.1259968,3.17171417 10.1650808,3.3900126 10.2241834,3.58924567 C9.11553245,3.4500685 7.35198616,3.3719005 5.9840462,3.3719005 C5.9449622,4.73888719 5.92494357,6.10492062 5.92494357,7.47286057 L5.92494357,10.8807946 C5.92494357,12.5852383 6.00406483,14.3097006 6.0831861,16.0141442 C5.7466824,15.9540883 5.43019734,15.914051 5.11180574,15.914051 C4.79532067,15.914051 4.47788234,15.9540883 4.14042538,16.0141442 C4.22049991,14.3097006 4.29962118,12.5852383 4.29962118,10.8807946 L4.29962118,7.47286057 Z" id="Fill-1" fill="#FEFEFE"></path>
                        <path d="M10.1394379,10.4056857 C10.9516224,10.4266576 11.8829655,10.4657416 12.7151687,10.4657416 C13.5874092,10.4657416 14.5187523,10.4266576 15.3500022,10.4056857 C15.3500022,8.99866176 14.9744145,6.97677977 12.9134485,6.97677977 C10.9716411,6.97677977 10.2376245,8.97959639 10.1394379,10.4056857 M12.8743645,6.34380964 C15.6483752,6.34380964 16.9753246,8.1864772 16.9753246,10.3847138 C16.9753246,10.6440028 16.955306,10.9013852 16.9362406,11.1587676 C15.509198,11.138749 14.1031273,11.0987117 12.6951501,11.0987117 C11.8238629,11.0987117 10.9716411,11.138749 10.1003539,11.1587676 C10.0803353,11.3560942 10.0803353,11.5343553 10.0803353,11.7135698 C10.0803353,13.7745358 11.3081448,15.3788862 13.5082879,15.3788862 C14.5587896,15.3788862 15.7875524,14.7640282 16.4805784,13.9718623 L16.578765,14.0319182 L16.4605597,15.0032986 C15.6674406,15.6362687 14.3795751,16.2110894 13.1508123,16.2110894 C10.2986337,16.2110894 8.33585433,14.1892075 8.33585433,11.5553272 C8.33585433,8.34471973 9.96117672,6.34380964 12.8743645,6.34380964" id="Fill-3" fill="#FEFEFE"></path>
                        <path d="M22.3586211,7.37324404 C20.5169069,7.37324404 19.6837504,8.56292283 19.6837504,10.6238888 L19.6837504,12.3073606 C19.6837504,13.4960861 19.7237877,14.884998 19.8429462,16.0136676 C19.5455265,15.9536117 19.2481068,15.9145277 18.9506871,15.9145277 C18.6532674,15.9145277 18.356801,15.9536117 18.0593813,16.0136676 C18.1785398,14.884998 18.2176238,13.4960861 18.2176238,12.3073606 L18.2176238,10.2483011 C18.2176238,9.05862233 18.1785398,7.67257028 18.0593813,6.54104085 C18.356801,6.60109675 18.6532674,6.64018075 18.9506871,6.64018075 C19.1489669,6.64018075 19.4463866,6.60109675 19.7438063,6.54104085 C19.703769,7.07677761 19.6837504,7.59154247 19.6837504,8.12632597 L19.7237877,8.12632597 C20.4558977,6.99765634 21.4673153,6.34371432 22.8943579,6.34371432 C24.3604845,6.34371432 26.0649282,7.05771224 26.0649282,9.79168563 C26.0649282,10.9203552 25.9858069,12.110034 25.9858069,13.4570021 C25.9858069,14.3282893 25.9858069,15.1614458 26.0248909,16.0136676 C25.7274712,15.9536117 25.4700888,15.9145277 25.1926877,15.9145277 C24.9162399,15.9145277 24.6569509,15.9536117 24.3805031,16.0136676 C24.4195871,14.5675596 24.5196803,13.1204984 24.5196803,11.5952692 L24.5196803,10.3846185 C24.5196803,8.44471757 23.6674585,7.37324404 22.3586211,7.37324404" id="Fill-5" fill="#FEFEFE"></path>
                        <path d="M29.0690578,10.4056857 C29.8812423,10.4266576 30.8125854,10.4657416 31.6447886,10.4657416 C32.5170291,10.4657416 33.4483722,10.4266576 34.2796221,10.4056857 C34.2796221,8.99866176 33.9040344,6.97677977 31.8430684,6.97677977 C29.901261,6.97677977 29.1672444,8.97959639 29.0690578,10.4056857 M31.8039844,6.34380964 C34.5779951,6.34380964 35.9049445,8.1864772 35.9049445,10.3847138 C35.9049445,10.6440028 35.8849259,10.9013852 35.8658605,11.1587676 C34.4388179,11.138749 33.0327472,11.0987117 31.62477,11.0987117 C30.7534828,11.0987117 29.901261,11.138749 29.0299738,11.1587676 C29.0099551,11.3560942 29.0099551,11.5343553 29.0099551,11.7135698 C29.0099551,13.7745358 30.2377647,15.3788862 32.4379078,15.3788862 C33.4884094,15.3788862 34.7171722,14.7640282 35.4101983,13.9718623 L35.5083849,14.0319182 L35.3901796,15.0032986 C34.5970604,15.6362687 33.309195,16.2110894 32.0804322,16.2110894 C29.2282536,16.2110894 27.2654742,14.1892075 27.2654742,11.5553272 C27.2654742,8.34471973 28.8907966,6.34380964 31.8039844,6.34380964" id="Fill-7" fill="#FEFEFE"></path>
                        <path d="M41.5269394,8.16607726 C41.3877622,8.00878799 40.9521186,7.84863892 40.555559,7.84863892 C39.2877122,7.84863892 38.533677,9.05833635 38.533677,10.6026309 C38.533677,14.0525088 38.533677,15.1030104 38.6137516,16.0143349 C38.3563692,15.954279 38.0780148,15.9142417 37.8206324,15.9142417 C37.5441846,15.9142417 37.2868022,15.954279 36.9884292,16.0143349 C37.0675505,15.0429545 37.0675505,13.4967534 37.0675505,11.2775449 L37.0675505,10.6445747 C37.0675505,9.61313848 37.0675505,8.24519852 36.9884292,6.54075487 C37.2868022,6.60081077 37.5441846,6.64084803 37.8206324,6.64084803 C38.0780148,6.64084803 38.3563692,6.60081077 38.6137516,6.54075487 C38.5146117,7.49402313 38.5146117,7.96875072 38.5146117,8.46254369 L38.554649,8.48351559 C39.3067776,7.05742626 40.2590926,6.34342833 41.1704171,6.34342833 C41.4077809,6.34342833 41.546958,6.3624937 41.8043405,6.4616336 C41.6651633,6.7800252 41.6651633,7.53310713 41.6651633,8.06598409 L41.5269394,8.16607726 Z" id="Fill-9" fill="#FEFEFE"></path>
                        <path d="M43.1075535,10.2479198 C43.1075535,9.05824102 43.0675162,7.67218897 42.9483577,6.54065954 C43.2457774,6.60071544 43.5431971,6.64075271 43.8406168,6.64075271 C44.1370832,6.64075271 44.4345029,6.60071544 44.7319226,6.54065954 C44.6137174,7.67218897 44.5727268,9.05824102 44.5727268,10.2479198 L44.5727268,12.3069793 C44.5727268,13.4966581 44.6137174,14.8846167 44.7319226,16.0142395 C44.4345029,15.9541836 44.1370832,15.9141464 43.8406168,15.9141464 C43.5431971,15.9141464 43.2457774,15.9541836 42.9483577,16.0142395 C43.0675162,14.8846167 43.1075535,13.4966581 43.1075535,12.3069793 L43.1075535,10.2479198 Z M43.8406168,2.08222387 C44.3954189,2.08222387 44.8510812,2.53883937 44.8510812,3.0936415 C44.8510812,3.64749036 44.3954189,4.10410586 43.8406168,4.10410586 C43.2848614,4.10410586 42.8291992,3.64749036 42.8291992,3.0936415 C42.8291992,2.53883937 43.2848614,2.08222387 43.8406168,2.08222387 L43.8406168,2.08222387 Z" id="Fill-11" fill="#FEFEFE"></path>
                        <g id="Group-15" transform="translate(45.756877, 0.462526)">
                            <mask id="mask-2" fill="white">
                                <use xlink:href="#path-1"></use>
                            </mask>
                            <g id="Clip-14"></g>
                            <path d="M5.55040447,2.19490018 C5.23487267,1.99757365 4.85737844,1.89843375 4.46081884,1.89843375 C3.29211195,1.89843375 2.83549645,2.84884221 2.83549645,3.88027847 C2.83549645,4.35595933 2.95560825,5.38548906 3.07381352,6.19862689 C3.74682091,6.19862689 4.44175348,6.17765498 5.11476087,6.17765498 C5.0956955,6.31683215 5.0747236,6.45600932 5.0747236,6.57421458 C5.0747236,6.71339175 5.0956955,6.85256891 5.11476087,6.97077418 C4.44175348,6.94980228 3.74682091,6.91071828 3.07381352,6.91071828 C3.07381352,9.78577536 3.07381352,12.6370007 3.15293478,15.5511418 C2.87458045,15.4910859 2.57811402,15.4520019 2.30166622,15.4520019 C2.02426516,15.4520019 1.72684546,15.4910859 1.43037903,15.5511418 C1.60673366,12.6370007 1.60673366,9.80388746 1.60673366,6.91071828 C1.1310528,6.91071828 0.6563252,6.94980228 0.180644336,6.97077418 C0.20066297,6.85256891 0.220681603,6.71339175 0.220681603,6.57421458 C0.220681603,6.45600932 0.20066297,6.31683215 0.180644336,6.17765498 C0.6563252,6.17765498 1.15107143,6.19862689 1.60673366,6.19862689 C1.60673366,4.65242576 2.28164759,2.45228261 3.33119595,1.40178098 C3.80687681,0.927053387 4.59999601,0.490456522 5.35307794,0.490456522 C5.4712832,0.490456522 5.62952573,0.511428424 5.74963753,0.551465691 C5.72866563,1.08624919 5.67051627,1.62007941 5.67051627,2.13675081 L5.55040447,2.19490018 Z" id="Fill-13" fill="#FEFEFE" mask="url(#mask-2)"></path>
                        </g>
                        <g id="Group-18" transform="translate(50.523218, 6.182135)">
                            <mask id="mask-4" fill="white">
                                <use xlink:href="#path-3"></use>
                            </mask>
                            <g id="Clip-17"></g>
                            <path d="M2.08965936,4.22355037 C2.90089065,4.24452227 3.83318702,4.28360627 4.66539021,4.28360627 C5.53763067,4.28360627 6.46897377,4.24452227 7.29927042,4.22355037 C7.29927042,2.81652641 6.92368273,0.794644425 4.86271674,0.794644425 C2.92186256,0.794644425 2.18689272,2.79746105 2.08965936,4.22355037 M4.82363274,0.161674298 C7.59859666,0.161674298 8.92459281,2.00434185 8.92459281,4.20257847 C8.92459281,4.46186744 8.90552745,4.71924987 8.88550881,4.9766323 C7.45941949,4.95661366 6.05239553,4.9165764 4.64441831,4.9165764 C3.77313112,4.9165764 2.92186256,4.95661366 2.05057536,4.9766323 C2.02960346,5.17395883 2.02960346,5.35221999 2.02960346,5.53143443 C2.02960346,7.59240041 3.25836625,9.1967509 5.45850941,9.1967509 C6.50901103,9.1967509 7.73777382,8.58189287 8.43079985,7.78972694 L8.52803322,7.84978285 L8.40982795,8.82116321 C7.61670875,9.45413333 6.3297966,10.0289541 5.10103381,10.0289541 C2.24694862,10.0289541 0.286075806,8.00707211 0.286075806,5.3731919 C0.286075806,2.16258438 1.9113982,0.161674298 4.82363274,0.161674298" id="Fill-16" fill="#FEFEFE" mask="url(#mask-4)"></path>
                        </g>
                        <g id="Group-21" transform="translate(21.925170, 17.621355)">
                            <mask id="mask-6" fill="white">
                                <use xlink:href="#path-5"></use>
                            </mask>
                            <g id="Clip-20"></g>
                            <path d="M1.05507731,6.89222487 C1.30959994,7.43558778 1.88823378,8.09429615 2.88153931,8.09429615 C3.9091625,8.09429615 4.53355321,7.34216749 4.53355321,6.41940382 C4.53355321,4.29266232 0.893974978,5.20494005 0.893974978,2.49003203 C0.893974978,1.20788622 1.86440207,0.30609444 3.40107051,0.30609444 C4.12936747,0.30609444 4.64889867,0.478635995 5.11123378,0.84945735 C4.97300988,1.1154192 4.89198208,1.38042777 4.79951505,1.81988444 L4.66033789,1.81988444 C4.49828228,1.39282026 4.1522459,0.73411189 3.28572505,0.73411189 C2.4192042,0.73411189 1.79481349,1.32227841 1.79481349,2.16592082 C1.79481349,4.32793324 5.43534499,3.42614147 5.43534499,5.97994715 C5.43534499,7.38983091 4.38293682,8.5795097 2.60413824,8.5795097 C1.6441971,8.5795097 1.10274073,8.24395927 0.696648447,7.92080133 C0.835825614,7.56237246 0.871096539,7.33168154 0.916853416,6.89222487 L1.05507731,6.89222487 Z" id="Fill-19" fill="#FEFEFE" mask="url(#mask-6)"></path>
                        </g>
                        <path d="M28.2111163,22.3641501 C28.2111163,21.8217405 28.1987238,21.1744713 28.1882379,20.5272022 C28.3502935,20.5624731 28.5237883,20.5853515 28.6734514,20.5853515 C28.8231146,20.5853515 28.9861234,20.5624731 29.1462725,20.5272022 C29.0776372,21.4289939 29.0318803,22.6072335 29.0318803,23.7387629 C29.0318803,24.5366485 29.1929826,24.9179558 29.3903092,25.1381608 C29.6086076,25.3802909 29.9317655,25.5652249 30.3836147,25.5652249 C31.0299306,25.5652249 31.4693873,25.2411137 31.6657605,24.8254888 C31.8964514,24.328836 31.9088439,24.236369 31.9088439,22.4222995 C31.9088439,21.7979088 31.9088439,21.0820043 31.8859655,20.5272022 C32.0480211,20.5624731 32.1976842,20.5853515 32.371179,20.5853515 C32.5437206,20.5853515 32.694337,20.5624731 32.8440001,20.5272022 C32.7753648,21.7283202 32.7629723,22.8159993 32.7629723,24.0399957 C32.7629723,24.7215825 32.7753648,25.4031693 32.8106357,26.0504385 C32.6600193,26.0151676 32.5084497,25.9922891 32.3587865,25.9922891 C32.2091234,25.9922891 32.058507,26.0151676 31.9088439,26.0504385 C31.9317224,25.7158413 31.9317224,25.3802909 31.9317224,25.0571329 L31.9088439,25.0571329 C31.5151441,25.7739907 30.8335573,26.1657839 30.1062136,26.1657839 C28.9041424,26.1657839 28.1758454,25.4718046 28.1758454,24.2716399 C28.1758454,23.4623151 28.2111163,22.9303915 28.2111163,22.3641501" id="Fill-22" fill="#FEFEFE"></path>
                        <path d="M36.6649853,21.4745602 C36.5839575,21.3830464 36.3294348,21.2896261 36.0987439,21.2896261 C35.3590077,21.2896261 34.9195511,21.9950446 34.9195511,22.8958831 C34.9195511,24.9072792 34.9195511,25.5192774 34.965308,26.0502478 C34.8156448,26.0159302 34.6535892,25.9930517 34.5029728,25.9930517 C34.3428238,25.9930517 34.1922074,26.0159302 34.0177593,26.0502478 C34.0654227,25.4840065 34.0654227,24.5822147 34.0654227,23.2886297 L34.0654227,22.9197148 C34.0654227,22.3182026 34.0654227,21.520317 34.0177593,20.5270115 C34.1922074,20.5622824 34.3428238,20.5851609 34.5029728,20.5851609 C34.6535892,20.5851609 34.8156448,20.5622824 34.965308,20.5270115 C34.9081119,21.0827669 34.9081119,21.3592147 34.9081119,21.648055 L34.9319436,21.6594942 C35.3694937,20.8282443 35.9252491,20.411666 36.4571728,20.411666 C36.5944434,20.411666 36.6754712,20.4231053 36.8260876,20.4812546 C36.7450598,20.6661887 36.7450598,21.1056453 36.7450598,21.4164108 L36.6649853,21.4745602 Z" id="Fill-24" fill="#FEFEFE"></path>
                    </g>
                    <g id="simbolo" fill="#FFFFFF">
                        <path d="M4.94708098,23.8488654 C15.7809748,14.9405735 26.0743655,14.8242748 36.1189532,23.9022484 C37.5784069,25.2215717 39.1818041,26.5628202 40.6078935,27.9202742 C42.3666734,30.0241372 40.0835959,31.4025631 35.6604312,32.1461124 C25.2879192,33.8877335 15.0336125,33.5664821 4.8956045,31.8877767 C-0.114773499,31.0584333 -1.00035972,29.5732413 0.9786252,27.3530796 C2.30176155,26.1853259 3.58390736,24.9699089 4.94708098,23.8488654" id="Fill-1"></path>
                        <path d="M49.1625229,25.0351125 C54.2501156,17.9361237 54.400732,10.6188365 49.1272519,3.49315623 C48.3312729,2.41882289 47.3360609,1.40263892 46.4228299,0.429352026 C45.0072265,-0.770812718 44.0663507,0.606659923 44.1140141,3.80582822 C44.2245933,11.1841246 44.326593,18.0657682 44.287509,24.8053748 C44.2674903,28.2714582 45.3103658,29.095082 46.8041372,27.7433476 C47.5905835,26.8406025 48.4647305,26.0093526 49.1625229,25.0351125" id="Fill-5"></path>
                        <path d="M50.4618275,36.7027347 C58.5293368,42.840829 66.692173,43.0667536 74.7901869,36.7380056 C75.9865385,35.8038027 77.1666846,34.7037311 78.2724758,33.665622 C79.6366027,32.0565052 77.8654303,30.8820787 74.4346178,30.3139308 C66.3899869,28.982215 58.5874862,29.1509435 50.723023,30.4349959 C46.8375016,31.0689193 45.8480091,32.3253268 47.3837243,34.0230976 C48.4094409,34.91631 49.3779615,35.8781576 50.4618275,36.7027347" id="Fill-9"></path>
                        <path d="M37.8248268,38.4327259 C31.3740604,47.3476907 30.8469031,56.1454035 37.5655378,65.094686 C38.5731424,66.4368877 39.8142976,67.7209401 40.9610794,68.94303 C42.7398779,70.4501471 43.9228839,68.7190119 43.862828,64.7019395 C43.7236508,55.4352187 43.5959128,46.7928886 43.6445295,38.3288197 C43.6702678,33.9752435 42.3585706,33.2583858 40.4815854,34.9552033 C39.4949528,36.0886393 38.7075532,37.2134958 37.8248268,38.4327259" id="Fill-14"></path>
                    </g>
                    <g id="Page-1" transform="translate(63.868974, 46.710145)" fill="#FEFEFE">
                        <path d="M7.14407835,14.5510681 C7.81136613,14.5882455 8.45958855,14.6187501 9.08874561,14.6378155 C9.72552881,14.6559276 10.3489663,14.6626005 10.9600112,14.6626005 C11.5529441,14.6626005 12.1334844,14.6559276 12.7073519,14.6378155 C13.2821727,14.6187501 13.8312552,14.5882455 14.3622256,14.5510681 L10.7998621,5.36918817 L7.14407835,14.5510681 Z M0.000285980479,26.0789412 C1.7600192,22.1333639 3.54453739,18.0457495 5.34716767,13.8037058 C7.14979796,9.56833487 9.03345605,5.06700213 10.9971887,0.299707542 C11.1697302,0.336885004 11.3308326,0.361669979 11.4785891,0.379782076 C11.627299,0.398847442 11.7626631,0.411239929 11.886588,0.411239929 C12.0286249,0.411239929 12.1763815,0.398847442 12.3184185,0.379782076 C12.4671283,0.361669979 12.6024924,0.336885004 12.7378565,0.299707542 C14.3870106,4.64661083 16.0914543,8.96300952 17.838795,13.2603429 C19.5861357,17.5576762 21.3763735,21.8311778 23.2104617,26.0789412 C22.7414537,26.0236516 22.3086699,25.9807546 21.907344,25.9492967 C21.5126909,25.9187921 21.129477,25.8997268 20.7653286,25.8997268 C20.4068997,25.8997268 20.0370316,25.9187921 19.6538178,25.9492967 C19.2772768,25.9807546 18.8816705,26.0236516 18.4679521,26.0789412 C17.9379349,24.3010959 17.4002916,22.6214372 16.8626483,21.0285259 C16.3192854,19.4413343 15.7578104,17.9227779 15.17727,16.4900157 C14.5042626,16.4404458 13.8131431,16.4032683 13.1153508,16.3851562 C12.4175584,16.3660909 11.7130931,16.3603713 10.9971887,16.3603713 C10.2622188,16.3603713 9.50913691,16.3660909 8.73127001,16.3851562 C7.95340311,16.4032683 7.14407835,16.4404458 6.31092189,16.4900157 L4.8838793,20.4537052 C4.56930077,21.3183195 4.27283434,22.2258309 3.99543327,23.1648001 C3.72375182,24.109489 3.45778997,25.0789628 3.20422062,26.0789412 C2.92681955,26.0169788 2.6551381,25.9740817 2.38917625,25.9435771 C2.12416767,25.9121193 1.8648787,25.8997268 1.61130935,25.8997268 C1.37108574,25.8997268 1.11751639,25.9121193 0.858227418,25.9435771 C0.59893845,25.9740817 0.314864508,26.0169788 0.000285980479,26.0789412 L0.000285980479,26.0789412 Z" id="Fill-1"></path>
                        <path d="M61.9279288,1.63018406 C58.8650779,1.63018406 56.4942997,2.61776998 54.8146411,4.58817548 C53.1292628,6.55762771 52.2894334,9.34879719 52.2894334,12.955011 C52.2894334,16.739486 53.1168703,19.635515 54.7650711,21.6364251 C56.4199448,23.6363819 58.8097883,24.6373136 61.9279288,24.6373136 C65.0155647,24.6373136 67.3920625,23.6430548 69.0593287,21.6612101 C70.7208753,19.6784121 71.5540318,16.8386259 71.5540318,13.1523376 C71.5540318,9.44698382 70.7208753,6.60719766 69.0593287,4.61296046 C67.3920625,2.62444286 65.0155647,1.63018406 61.9279288,1.63018406 M61.9651063,26.2674023 C57.6858851,26.2674023 54.3141752,25.0939291 51.8442571,22.7479359 C49.3810119,20.4009894 48.1465295,17.2027744 48.1465295,13.1523376 C48.1465295,9.07711573 49.3743391,5.86555495 51.8385375,3.51956176 C54.2960631,1.17356856 57.6611001,9.53268264e-05 61.9336484,9.53268264e-05 C66.2872246,9.53268264e-05 69.6713269,1.15450319 72.0916751,3.45759932 C74.5053503,5.76069545 75.716001,8.99036832 75.716001,13.1523376 C75.716001,17.2647369 74.5053503,20.4753444 72.0916751,22.790833 C69.6713269,25.1063216 66.2996171,26.2674023 61.9651063,26.2674023" id="Fill-3"></path>
                        <path d="M80.1483171,25.9141211 C80.3523165,24.1419954 80.506746,21.5548253 80.6116055,18.1526109 C80.716465,14.7503965 80.766035,10.6074926 80.766035,5.72294602 C80.766035,4.87739707 80.7593621,3.98799778 80.74125,3.04902854 C80.7221846,2.10433969 80.69168,1.12247338 80.6545026,0.097709997 L81.9947978,0.097709997 C84.8164718,3.38934531 87.7058279,6.66191526 90.669539,9.90302736 C93.6275304,13.1508123 96.6532038,16.3738123 99.7408398,19.5853731 L99.7408398,9.47119684 C99.7408398,8.24243404 99.7036623,6.87735389 99.6235878,5.38358252 C99.54256,3.88313827 99.4377004,2.27783452 99.308056,0.566717983 C99.5492328,0.603895445 99.8018489,0.62868042 100.062091,0.647745785 C100.32138,0.665857882 100.568277,0.67825037 100.8085,0.67825037 C101.074462,0.67825037 101.327078,0.665857882 101.573975,0.647745785 C101.815151,0.62296081 102.043936,0.598175836 102.259375,0.566717983 C102.068721,1.89462067 101.914291,4.30924919 101.797039,7.80965025 C101.679787,11.3110046 101.623545,15.6083379 101.623545,20.714996 C101.623545,21.2707514 101.635937,22.0114408 101.655002,22.9313447 C101.673115,23.8579215 101.697899,24.9818248 101.735077,26.3097274 L100.518707,26.3278395 C99.6845969,25.2163287 98.7399081,24.0428555 97.6722476,22.8083731 C96.6036339,21.5729374 95.2080492,20.0419886 93.4797738,18.2079005 L82.7354872,6.75438228 L82.7354872,16.8313811 C82.7354872,18.5606097 82.7726647,20.1716331 82.8527392,21.6720773 C82.9328137,23.1725216 83.0500657,24.5862184 83.2044952,25.9141211 C82.9270941,25.8521587 82.6611323,25.8092616 82.4018433,25.7778038 C82.1425543,25.7472992 81.8899382,25.7349067 81.6487614,25.7349067 C81.419977,25.7349067 81.185473,25.7472992 80.9452494,25.7778038 C80.7040725,25.8092616 80.4381107,25.8521587 80.1483171,25.9141211" id="Fill-5"></path>
                        <path d="M112.322456,14.4725188 C112.989743,14.5096962 113.637966,14.5402008 114.267123,14.5592662 C114.903906,14.5773783 115.527344,14.5840512 116.138388,14.5840512 C116.731321,14.5840512 117.311862,14.5773783 117.885729,14.5592662 C118.46055,14.5402008 119.009632,14.5096962 119.540603,14.4725188 L115.978239,5.29063886 L112.322456,14.4725188 Z M105.178663,26.0003919 C106.938396,22.0548146 108.722915,17.9672002 110.525545,13.7251565 C112.328175,9.48978557 114.211833,4.98845282 116.175566,0.221158237 C116.348107,0.258335699 116.50921,0.283120674 116.656966,0.301232771 C116.805676,0.320298137 116.94104,0.332690624 117.064965,0.332690624 C117.207002,0.332690624 117.354759,0.320298137 117.496796,0.301232771 C117.645506,0.283120674 117.78087,0.258335699 117.916234,0.221158237 C119.565388,4.56806152 121.269832,8.88446022 123.017172,13.1817936 C124.764513,17.4800802 126.554751,21.7526285 128.388839,26.0003919 C127.919831,25.9451023 127.487047,25.9022053 127.085721,25.8707474 C126.691068,25.8402428 126.307854,25.8211775 125.943706,25.8211775 C125.585277,25.8211775 125.215409,25.8402428 124.832195,25.8707474 C124.455654,25.9022053 124.061001,25.9451023 123.646329,26.0003919 C123.116312,24.2225466 122.578669,22.5428879 122.041026,20.9499766 C121.497663,19.362785 120.936188,17.8442286 120.355647,16.4114664 C119.68264,16.3618965 118.99152,16.324719 118.293728,16.3066069 C117.595936,16.2875416 116.89147,16.2818219 116.175566,16.2818219 C115.440596,16.2818219 114.687514,16.2875416 113.909647,16.3066069 C113.13178,16.324719 112.322456,16.3618965 111.489299,16.4114664 L110.062257,20.3751559 C109.747678,21.2397702 109.451212,22.1472816 109.173811,23.0862508 C108.902129,24.0309397 108.636167,25.0004135 108.382598,26.0003919 C108.105197,25.9393827 107.833515,25.8955324 107.567554,25.8650278 C107.302545,25.8335699 107.043256,25.8211775 106.789687,25.8211775 C106.549463,25.8211775 106.295894,25.8335699 106.036605,25.8650278 C105.777316,25.8955324 105.493242,25.9393827 105.178663,26.0003919 L105.178663,26.0003919 Z" id="Fill-7"></path>
                        <path d="M31.5428842,17.5496687 C31.5428842,18.6506936 31.5619496,19.8642041 31.5991271,21.1902002 C31.6363045,22.5161964 31.6992202,24.1176871 31.7993134,26.0003919 C31.5180993,25.9384295 31.2111469,25.8945791 30.8736899,25.8631213 C30.5362329,25.8316634 30.1606453,25.8192709 29.7478801,25.8192709 C29.3217692,25.8192709 28.9471348,25.8383363 28.6220703,25.8688409 C28.2960525,25.9002987 27.995773,25.9441491 27.7145589,26.0003919 C27.8461099,23.4113153 27.9462031,20.8336779 28.0148384,18.2817788 C28.0834737,15.7232067 28.1149316,13.1646347 28.1149316,10.6127356 C28.1149316,8.57941437 28.0834737,6.72816741 28.0148384,5.05136853 C27.9462031,3.38124253 27.8461099,1.80549009 27.7145589,0.323157941 C28.127324,0.372727891 28.5524817,0.404185744 28.9909851,0.428970719 C29.4228156,0.453755694 29.8727582,0.467101449 30.3360466,0.467101449 C31.0919883,0.467101449 32.0995929,0.441363206 33.3626734,0.391793256 C34.6333799,0.347942916 35.5151531,0.323157941 36.0156189,0.323157941 C38.6485459,0.323157941 40.6694746,0.82934339 42.0583865,1.84266755 C43.4530179,2.85599172 44.1469972,4.33260426 44.1469972,6.25915942 C44.1469972,7.98552825 43.5149804,9.41829045 42.2518999,10.5688852 C40.9878662,11.71948 39.1680771,12.5078329 36.8030185,12.9329905 C38.4483595,15.1350402 40.1127659,17.3180245 41.7828919,19.4952893 C43.4587375,21.6716007 45.1479289,23.8364729 46.8428399,26.0003919 C46.3557198,25.9384295 45.8800389,25.8945791 45.4234234,25.8631213 C44.9668079,25.8316634 44.5283045,25.8192709 44.1155394,25.8192709 C43.7094471,25.8192709 43.2966819,25.8316634 42.8715243,25.8631213 C42.4396938,25.8945791 41.9706858,25.9384295 41.4578274,26.0003919 C38.6151815,21.296013 35.2997145,16.7250917 32.2587887,12.1436844 C32.4094051,12.1455909 32.5924326,12.1455909 32.806918,12.1455909 C35.2644435,12.1455909 37.1290363,11.6889755 38.4045092,10.7690716 C39.6809354,9.85584058 40.3186719,8.51077906 40.3186719,6.73484028 C40.3186719,5.14574209 39.7743557,3.92555871 38.6800037,3.06857054 C37.5856518,2.21158237 36.0213385,1.78642473 33.9822977,1.78642473 C33.5885979,1.78642473 33.2130102,1.79881721 32.8440954,1.82455546 C32.4751806,1.84934043 32.1310508,1.89319077 31.7993134,1.9494336 C31.7116127,2.57477758 31.6496503,3.23157941 31.6057999,3.91316622 C31.5619496,4.5957063 31.5428842,5.52704939 31.5428842,6.69670955 L31.5428842,17.5496687" id="Fill-9"></path>
                    </g>
                </g>
            </g>
        </g>
    </g>
</svg>