<?xml version="1.0" encoding="UTF-8" standalone="no"?>
<svg width="115px" height="119px" viewBox="0 0 115 119" version="1.1" xmlns="http://www.w3.org/2000/svg" xmlns:xlink="http://www.w3.org/1999/xlink">
    <!-- Generator: Sketch 41.2 (35397) - http://www.bohemiancoding.com/sketch -->
    <title>LOGOS PANTONE</title>
    <desc>Created with Sketch.</desc>
    <defs></defs>
    <g id="Travel-/-Home" stroke="none" stroke-width="1" fill="none" fill-rule="evenodd">
        <g id="Arona-travel-1024-/-Home-Copy-5" transform="translate(-583.000000, -547.000000)" fill="#FFFFFF">
            <g id="LOGOS-PANTONE" transform="translate(583.000000, 547.000000)">
                <path d="M79.9298788,60.7376 C84.272697,66.0695 90.3084545,69.3994 96.9805455,69.3994 C100.412424,69.3994 103.620576,68.544 106.573636,66.9697 C100.125273,76.3539 90.2450303,80.9221 78.7178485,82.6959 L78.6906667,61.1051 C78.6906667,60.7327 78.9910606,60.4275 79.3625455,60.4275 C79.5674545,60.4275 79.7514545,60.5199 79.8741212,60.6655 L79.9298788,60.7376" id="Fill-1"></path>
                <path d="M76.7266061,59.0639 C77.0939091,59.059 77.3901212,59.3684 77.3901212,59.7387 C77.3901212,59.9473 77.2953333,60.1342 77.1468788,60.2581 C71.0978788,65.1196 67.3328485,71.9432 67.3328485,79.499 C67.3328485,80.9018 67.4624848,82.2829 67.712697,83.6269 C66.9913333,83.6416 66.3201515,83.6206 65.5918182,83.6206 L27.5686364,83.6129 C25.0511818,76.1957 23.7150909,67.9546 23.7150909,59.1122 L76.7266061,59.0639" id="Fill-2"></path>
                <path d="M35.7859091,57.7164 C40.9804242,50.5981 48.5794848,46.8958 57.0358182,46.8958 C65.066303,46.8958 72.3161818,50.9376 77.4730606,57.4329 C77.602,57.6009 77.7943636,57.7038 78.0104242,57.7038 C78.3812121,57.7038 78.6767273,57.386 78.6767273,57.0122 L78.683,47.1548 C78.683,15.4567 69.6419091,0.0364 50.0222121,0.0364 C33.304697,0.0364 22.2152121,11.3442 22.2152121,29.3342 C22.2152121,42.0945 25.8185455,50.75 34.4860606,57.9131 C34.6352121,58.0398 34.8352424,58.1105 35.0457273,58.1105 C35.3440303,58.1105 35.6332727,57.9495 35.7859091,57.7164" id="Fill-3"></path>
                <path d="M87.7826364,16.4122 C87.6446364,16.2351 87.5623939,16.0118 87.5623939,15.7696 C87.5623939,15.4014 87.7526667,15.0227 88.0398182,14.8918 C93.8483636,11.4317 100.251424,9.3898 106.961848,9.1266 C107.63303,9.1266 108.234515,9.4633 108.525848,10.0758 C112.345242,17.1486 114.719121,25.7558 114.719121,34.2797 C114.719121,44.3779 113.292424,52.5329 110.717121,59.0793 L81.0025152,59.0891 C80.6317273,59.0891 80.3306364,58.7839 80.3306364,58.4108 C80.3306364,58.177 80.4693333,57.9404 80.6491515,57.8193 C88.8991818,52.0905 94.1501515,43.463 94.1501515,33.8135 C94.1501515,27.3735 91.7909091,21.3773 87.7826364,16.4122" id="Fill-4"></path>
                <path d="M97.0669697,99.0129 L97.0669697,101.3866 L97.566697,101.3866 C98.0817576,100.4122 98.854697,99.6513 99.8855152,99.1039 C100.945606,98.5558 102.082364,98.2821 103.294394,98.2821 C104.203939,98.2821 104.976182,98.4494 105.612515,98.7847 C106.249545,99.0885 106.764606,99.4994 107.158394,100.0167 C107.552879,100.534 107.840727,101.143 108.022636,101.843 C108.203848,102.5437 108.295152,103.2731 108.295152,104.0347 C108.295152,104.4911 108.249152,104.8719 108.158545,105.1764 C108.067242,105.4501 107.794727,105.6937 107.340303,105.9065 C106.915848,106.1193 106.234212,106.3321 105.294697,106.5456 C104.385152,106.7283 103.112485,106.9565 101.476,107.2302 C99.475697,107.5655 97.8998485,108.2347 96.7484545,109.2399 C95.6270303,110.2444 95.0666667,111.6591 95.0666667,113.4854 C95.0666667,114.3681 95.2332424,115.1598 95.5663939,115.8591 C95.9302121,116.529 96.3853333,117.1079 96.9303636,117.5944 C97.5060606,118.0816 98.1570303,118.4302 98.8846667,118.6437 C99.612303,118.8572 100.354576,118.9636 101.112182,118.9636 C102.658061,118.9636 103.961394,118.7053 105.021485,118.188 C106.08297,117.6707 107.158394,116.8636 108.249152,115.7681 C108.340455,116.5591 108.642939,117.2143 109.158697,117.7309 C109.673758,118.2188 110.41603,118.461 111.385515,118.461 C111.991879,118.461 112.537606,118.4162 113.022697,118.3245 C113.537061,118.2335 113.961515,118.1124 114.295364,117.9598 L114.295364,116.9553 C114.143424,117.0463 113.976848,117.1079 113.795636,117.1373 L113.340515,117.1373 C112.886091,117.1373 112.537606,117.0316 112.295061,116.8188 C112.082485,116.6053 111.916606,116.347 111.794636,116.0425 C111.673364,115.7072 111.598091,115.3425 111.568121,114.9463 L111.568121,113.7598 C111.568121,111.8418 111.598091,110.0309 111.658727,108.3264 C111.719364,106.5918 111.75003,104.8565 111.75003,103.1219 C111.75003,102.1167 111.568121,101.2039 111.204303,100.3821 C110.840485,99.5295 110.340758,98.8148 109.704424,98.2366 C109.067394,97.6276 108.295152,97.1705 107.385606,96.8667 C106.476758,96.5321 105.476606,96.3648 104.385152,96.3648 C103.173121,96.3648 101.991061,96.5475 100.839667,96.9122 C99.6882727,97.2776 98.4309394,97.9776 97.0669697,99.0129 Z M108.295152,107.1392 L108.113242,113.988 C107.597485,114.8399 106.855212,115.5854 105.885727,116.2252 C104.946212,116.8636 103.900758,117.1835 102.749364,117.1835 C101.749212,117.1835 100.839667,116.8188 100.021424,116.088 C99.2031818,115.3579 98.7940606,114.2771 98.7940606,112.8463 C98.7940606,111.9944 98.945303,111.2944 99.2484848,110.7456 C99.5823333,110.1982 100.006788,109.7418 100.521152,109.3764 C101.067576,109.011 101.673242,108.7219 102.340242,108.5091 C103.037212,108.2956 103.734182,108.1283 104.430455,108.0065 C105.127424,107.8546 105.809758,107.7174 106.476758,107.5956 C107.17303,107.4745 107.779394,107.3219 108.295152,107.1392 Z M86.3636061,105.6783 L86.3636061,108.4636 C86.3636061,110.229 86.3176061,111.9482 86.227,113.6219 L86.0450909,118.5072 C86.6514545,118.4456 87.2724545,118.4162 87.9087879,118.4162 C88.5750909,118.4162 89.2121212,118.4456 89.8184848,118.5072 L89.7278788,117.1835 L89.7278788,112.7546 C89.7278788,111.2027 89.7571515,109.7418 89.8184848,108.3719 C89.8784242,106.9719 89.9090909,105.6174 89.9090909,104.3091 C89.9090909,102.7257 89.6818788,101.4321 89.2274545,100.4276 C88.803,99.393 88.2426364,98.5866 87.5456667,98.0084 C86.848,97.3994 86.0604242,96.9731 85.1815455,96.7295 C84.3333333,96.4859 83.4837273,96.3648 82.6355152,96.3648 C80.9997273,96.3648 79.5897576,96.7295 78.407697,97.4603 C77.2263333,98.1603 76.2115455,99.1648 75.3619394,100.4738 C75.2713333,99.2558 75.3173333,98.0392 75.4079394,96.8212 C75.0141515,96.8814 74.6649697,96.943 74.3617879,97.0039 C74.0892727,97.034 73.8320909,97.0494 73.5895455,97.0494 C73.0744848,97.0494 72.3928485,96.9731 71.5439394,96.8212 C71.6958788,98.1302 71.7864848,99.5449 71.8164545,101.0674 C71.8770909,102.5591 71.9077576,103.9892 71.9077576,105.3584 L71.9077576,110.1065 C71.9077576,111.4764 71.8770909,112.9219 71.8164545,114.4444 C71.7864848,115.9361 71.6958788,117.2899 71.5439394,118.5072 C72.2409091,118.4456 72.9225455,118.4162 73.5895455,118.4162 C74.2565455,118.4162 74.9388788,118.4456 75.6351515,118.5072 C75.4839091,117.2899 75.3772727,115.9361 75.3173333,114.4444 C75.2866667,112.9219 75.2713333,111.4764 75.2713333,110.1065 L75.2713333,106.2257 C75.2713333,103.8527 75.7564242,102.0103 76.7259091,100.702 C77.7260606,99.393 79.2872727,98.7385 81.4088485,98.7385 C82.9540303,98.7385 84.1660606,99.3321 85.0442424,100.5193 C85.9238182,101.6764 86.3636061,103.3956 86.3636061,105.6783 Z M44.1983333,107.7328 C44.1983333,109.8027 44.5168485,111.5681 45.1538788,113.029 C45.8208788,114.4598 46.6837273,115.6316 47.7445152,116.5451 C48.805303,117.4271 49.9873636,118.0508 51.290697,118.4162 C52.623303,118.7809 53.9419697,118.9636 55.246,118.9636 C56.5786061,118.9636 57.8965758,118.7809 59.1999091,118.4162 C60.5032424,118.0508 61.685303,117.4271 62.7460909,116.5451 C63.8061818,115.6316 64.6550909,114.4598 65.2914242,113.029 C65.9584242,111.5681 66.2915758,109.8027 66.2915758,107.7328 C66.2915758,105.6629 65.9584242,103.9129 65.2914242,102.4821 C64.6550909,101.0212 63.8061818,99.8494 62.7460909,98.9667 C61.685303,98.0539 60.5032424,97.3994 59.1999091,97.0039 C57.8965758,96.5776 56.5786061,96.3648 55.246,96.3648 C53.9419697,96.3648 52.623303,96.5776 51.290697,97.0039 C49.9873636,97.3994 48.805303,98.0539 47.7445152,98.9667 C46.6837273,99.8494 45.8208788,101.0212 45.1538788,102.4821 C44.5168485,103.9129 44.1983333,105.6629 44.1983333,107.7328 Z M48.1989394,107.7328 C48.1989394,106.4546 48.3048788,105.2219 48.5174545,104.0347 C48.76,102.8482 49.1537879,101.7975 49.6995152,100.8847 C50.2452424,99.9404 50.9721818,99.1956 51.8817273,98.6468 C52.7905758,98.0994 53.912,97.8257 55.246,97.8257 C56.5786061,97.8257 57.7000303,98.0994 58.6088788,98.6468 C59.5184242,99.1956 60.2453636,99.9404 60.7910909,100.8847 C61.3361212,101.7975 61.7152727,102.8482 61.9271515,104.0347 C62.1703939,105.2219 62.2916667,106.4546 62.2916667,107.7328 C62.2916667,109.011 62.1703939,110.2444 61.9271515,111.4309 C61.7152727,112.6181 61.3361212,113.6835 60.7910909,114.6264 C60.2453636,115.5399 59.5184242,116.27 58.6088788,116.8188 C57.7000303,117.3662 56.5786061,117.6399 55.246,117.6399 C53.912,117.6399 52.7905758,117.3662 51.8817273,116.8188 C50.9721818,116.27 50.2452424,115.5399 49.6995152,114.6264 C49.1537879,113.6835 48.76,112.6181 48.5174545,111.4309 C48.3048788,110.2444 48.1989394,109.011 48.1989394,107.7328 Z M2.47284848,99.0129 L2.47284848,101.3866 L2.97257576,101.3866 C3.48833333,100.4122 4.26057576,99.6513 5.29139394,99.1039 C6.35218182,98.5558 7.48824242,98.2821 8.70027273,98.2821 C9.60981818,98.2821 10.3827576,98.4494 11.0190909,98.7847 C11.6554242,99.0885 12.1704848,99.4994 12.5649697,100.0167 C12.9587576,100.534 13.2466061,101.143 13.4285152,101.843 C13.6104242,102.5437 13.7010303,103.2731 13.7010303,104.0347 C13.7010303,104.4911 13.6550303,104.8719 13.5644242,105.1764 C13.4738182,105.4501 13.2006061,105.6937 12.7468788,105.9065 C12.3224242,106.1193 11.6400909,106.3321 10.7012727,106.5456 C9.79172727,106.7283 8.51906061,106.9565 6.88257576,107.2302 C4.88227273,107.5655 3.30642424,108.2347 2.1550303,109.2399 C1.03360606,110.2444 0.472545455,111.6591 0.472545455,113.4854 C0.472545455,114.3681 0.639121212,115.1598 0.972969697,115.8591 C1.33609091,116.529 1.79121212,117.1079 2.33624242,117.5944 C2.91263636,118.0816 3.56360606,118.4302 4.29124242,118.6437 C5.01887879,118.8572 5.76115152,118.9636 6.51875758,118.9636 C8.06463636,118.9636 9.36727273,118.7053 10.4280606,118.188 C11.4888485,117.6707 12.5649697,116.8636 13.6550303,115.7681 C13.7470303,116.5591 14.0495152,117.2143 14.5645758,117.7309 C15.0796364,118.2188 15.8219091,118.461 16.7920909,118.461 C17.3977576,118.461 17.9441818,118.4162 18.4285758,118.3245 C18.9436364,118.2335 19.3680909,118.1124 19.7019394,117.9598 L19.7019394,116.9553 C19.55,117.0463 19.3834242,117.1079 19.2015152,117.1373 L18.7463939,117.1373 C18.2919697,117.1373 17.9441818,117.0316 17.7009394,116.8188 C17.4890606,116.6053 17.3224848,116.347 17.2012121,116.0425 C17.0799394,115.7072 17.0039697,115.3425 16.974697,114.9463 L16.974697,113.7598 C16.974697,111.8418 17.0039697,110.0309 17.065303,108.3264 C17.1252424,106.5918 17.1559091,104.8565 17.1559091,103.1219 C17.1559091,102.1167 16.974697,101.2039 16.6101818,100.3821 C16.2470606,99.5295 15.7466364,98.8148 15.111,98.2366 C14.4739697,97.6276 13.7010303,97.1705 12.7914848,96.8667 C11.8833333,96.5321 10.8824848,96.3648 9.79172727,96.3648 C8.579,96.3648 7.39763636,96.5475 6.24554545,96.9122 C5.09415152,97.2776 3.83681818,97.9776 2.47284848,99.0129 Z M13.7010303,107.1392 L13.5191212,113.988 C13.0040606,114.8399 12.2617879,115.5854 11.292303,116.2252 C10.3520909,116.8636 9.30663636,117.1835 8.15524242,117.1835 C7.15509091,117.1835 6.24554545,116.8188 5.42730303,116.088 C4.60975758,115.3579 4.20063636,114.2771 4.20063636,112.8463 C4.20063636,111.9944 4.35187879,111.2944 4.65436364,110.7456 C4.98821212,110.1982 5.41266667,109.7418 5.92772727,109.3764 C6.47345455,109.011 7.07981818,108.7219 7.74612121,108.5091 C8.44309091,108.2956 9.14075758,108.1283 9.8370303,108.0065 C10.534,107.8546 11.2156364,107.7174 11.8833333,107.5956 C12.5796061,107.4745 13.1852727,107.3219 13.7010303,107.1392 Z M28.4356667,105.0028 L28.4356667,106.4763 C28.6259394,106.5064 28.8245758,106.5281 29.0322727,106.5414 C29.3758788,106.5617 29.7480606,106.5715 30.152303,106.5715 C30.7663333,106.5715 31.4005758,106.5015 32.0543333,106.3622 C32.7171515,106.225 33.3130606,105.994 33.8525152,105.665 C34.3836061,105.322 34.8171212,104.8761 35.1600303,104.3203 C35.5071212,103.7701 35.6932121,103.0638 35.6932121,102.1839 C35.6932121,101.4209 35.5426667,100.821 35.2764242,100.3751 C34.7627576,99.4168 33.879,98.8519 32.8272727,98.6559 C32.2975758,98.5376 31.7720606,98.4774 31.2625758,98.4774 C30.5551515,98.4774 29.9613333,98.4977 29.4964545,98.5383 C29.1674848,98.553 28.8670909,98.5726 28.6092121,98.5971 C28.5311515,100.7321 28.4356667,102.8664 28.4356667,105.0028 Z M25.2059091,110.3305 L25.2059091,105.0028 C25.2059091,103.6455 25.1752424,102.3162 25.1132121,101.0205 C25.0679091,99.547 25.0086667,98.0735 24.9417576,96.6007 L27.0863333,96.7519 C27.6578485,96.7722 28.2335455,96.7827 28.8259697,96.7827 C29.4135152,96.7827 29.9850303,96.7624 30.5523636,96.7218 C31.1406061,96.6588 31.7330303,96.6273 32.3421818,96.6273 C33.9124545,96.6273 35.7057576,96.8625 37.0362727,97.7683 C37.6844545,98.1729 38.1813939,98.7063 38.5396364,99.3811 C38.9271515,100.0678 39.1076667,100.9015 39.1076667,101.8738 C39.1076667,102.9203 38.869303,103.8436 38.3765455,104.6311 C37.9221212,105.3696 37.3547879,105.9926 36.6808182,106.4952 C36.017303,106.9684 35.2945455,107.3478 34.5250909,107.6271 C34.0107273,107.8042 33.5249394,107.9407 33.0719091,108.0359 L33.7277576,108.8745 L35.1753636,110.7309 C35.7120303,111.3938 36.2654242,112.0945 36.8425152,112.84 L38.5061818,114.9428 C39.5802121,116.2707 40.6619091,117.5391 41.8662727,118.748 C41.2341212,118.6633 40.5998788,118.5506 39.9600606,118.5506 L38.1409697,118.5506 C37.7848182,118.5506 37.4363333,118.5891 37.0850606,118.6402 C36.5776667,117.9269 36.0619091,117.2213 35.5440606,116.5164 C34.1501212,114.5571 32.6760303,112.6531 31.1447879,110.8002 C30.4122727,109.8706 29.7313333,109.0754 29.1082424,108.4209 L28.4356667,108.4209 L28.4356667,110.3305 C28.4356667,111.6906 28.4565758,113.0262 28.497,114.3443 L28.7012121,118.6465 C28.0746364,118.5912 27.4501515,118.5506 26.8207879,118.5506 C26.1914242,118.5506 25.5669394,118.5912 24.9403636,118.6465 C25.0093636,117.2129 25.069303,115.7786 25.1132121,114.3443 C25.1752424,113.0283 25.2059091,111.6885 25.2059091,110.3305 L25.2059091,110.3305 Z" id="Fill-5"></path>
                <path d="M6.53757576,3.0177 L4.52472727,3.0177 C4.00966667,3.0177 3.50227273,3.0058 3.00324242,2.9827 C2.50351515,2.9666 2.01215152,2.947 1.52845455,2.9232 C1.54378788,3.1038 1.55145455,3.2956 1.55145455,3.5 C1.55145455,3.703 1.54378788,3.8955 1.52845455,4.0754 C2.01215152,4.0523 2.50351515,4.0285 3.00324242,4.0054 C3.50227273,3.9893 4.00966667,3.9816 4.52472727,3.9816 L6.53757576,3.9816 C7.34884848,3.9816 8.15663636,3.9935 8.96024242,4.0166 C8.96024242,4.2203 8.95675758,4.4324 8.94839394,4.6515 C8.94839394,4.879 8.94072727,5.1023 8.92539394,5.3221 C8.9170303,5.5489 8.90587879,5.7645 8.88984848,5.9682 C8.87451515,6.1796 8.855,6.3679 8.83130303,6.5324 C8.97209091,6.4932 9.09336364,6.4736 9.19442424,6.4736 C9.28781818,6.4736 9.41257576,6.4932 9.56939394,6.5324 C9.55336364,6.0151 9.5380303,5.5097 9.522,5.0162 C9.51433333,4.522 9.51015152,4.0166 9.51015152,3.5 C9.51015152,2.9827 9.51433333,2.4766 9.522,1.9831 C9.5380303,1.4896 9.55336364,0.9842 9.56939394,0.4669 C9.41257576,0.5061 9.292,0.5257 9.20627273,0.5257 C9.09684848,0.5257 8.97209091,0.5061 8.83130303,0.4669 C8.855,0.6314 8.87451515,0.8155 8.88984848,1.0192 C8.90587879,1.2306 8.9170303,1.4462 8.92539394,1.666 C8.94072727,1.8928 8.94839394,2.1161 8.94839394,2.3359 C8.95675758,2.5634 8.96024242,2.779 8.96024242,2.9827 C8.15663636,3.0058 7.34884848,3.0177 6.53757576,3.0177" id="Fill-6"></path>
                <path d="M6.54872727,8.6842 L4.53587879,8.6842 C4.02081818,8.6842 3.51342424,8.6723 3.01439394,8.6492 C2.52233333,8.6331 2.02748485,8.6135 1.52775758,8.5904 C1.54378788,8.9509 1.55145455,9.3072 1.55145455,9.66 L1.55145455,10.7296 L1.55145455,11.788 C1.55145455,12.1401 1.54378788,12.4929 1.52775758,12.8457 C1.60581818,12.8219 1.70687879,12.81 1.83163636,12.81 L2.00727273,12.81 C2.07766667,12.8184 2.14039394,12.8296 2.19475758,12.8457 C2.15572727,12.6574 2.12436364,12.4341 2.10136364,12.1751 C2.08533333,11.9245 2.07,11.6543 2.05466667,11.3645 C2.04630303,11.0824 2.04281818,10.7926 2.04281818,10.4944 L2.04281818,9.6719 C2.19057576,9.6635 2.40942424,9.6558 2.6979697,9.6481 L3.79848485,9.6481 L4.95684848,9.6481 L5.26142424,9.6481 C5.34715152,9.6558 5.42521212,9.66 5.49560606,9.66 C5.49560606,9.8007 5.49142424,9.989 5.48375758,10.2242 C5.48375758,10.4671 5.47957576,10.7219 5.47190909,10.9886 C5.47190909,11.2623 5.46424242,11.5332 5.44890909,11.7992 C5.43287879,12.0736 5.41336364,12.313 5.38966667,12.5167 C5.50745455,12.4929 5.62384848,12.481 5.74093939,12.481 C5.86569697,12.481 5.9869697,12.4929 6.10406061,12.5167 C6.08872727,12.3438 6.07269697,12.1597 6.05736364,11.9637 C6.04969697,11.7761 6.03784848,11.5682 6.02181818,11.3407 C6.01415152,11.1139 6.00648485,10.8626 5.99881818,10.5889 C5.99115152,10.3145 5.9869697,10.0044 5.9869697,9.66 C6.13542424,9.66 6.35357576,9.6558 6.64281818,9.6481 L7.53145455,9.6481 C7.82069697,9.6481 8.07787879,9.6523 8.30439394,9.66 C8.53090909,9.6754 8.76857576,9.6873 9.01809091,9.695 C9.01809091,10.0793 9.01042424,10.4083 8.99509091,10.6827 C8.98742424,10.9571 8.97557576,11.2077 8.96024242,11.4352 C8.94421212,11.6704 8.92887879,11.8895 8.91284848,12.0932 C8.89751515,12.3046 8.88218182,12.5363 8.86615152,12.7869 C8.98324242,12.7631 9.10033333,12.7512 9.21742424,12.7512 C9.33451515,12.7512 9.45160606,12.7631 9.56869697,12.7869 C9.55266667,12.4341 9.53733333,12.0855 9.522,11.7404 C9.51363636,11.396 9.51015152,11.0467 9.51015152,10.6946 C9.51015152,10.3418 9.51363636,9.989 9.522,9.6362 C9.53733333,9.2918 9.55266667,8.9432 9.56869697,8.5904 C9.0689697,8.6135 8.56993939,8.6331 8.07021212,8.6492 C7.57118182,8.6723 7.06378788,8.6842 6.54872727,8.6842" id="Fill-7"></path>
                <path d="M1.37581818,21.9443 L1.37581818,22.1088 L1.76193939,22.1088 C1.94942424,22.1088 2.16757576,22.1046 2.41778788,22.0969 C2.6749697,22.0969 2.94818182,22.0934 3.23672727,22.085 C3.53363636,22.085 3.82566667,22.0815 4.11490909,22.0738 L4.94569697,22.0738 L5.64824242,22.0738 C5.87406061,22.0738 6.17445455,22.0815 6.54872727,22.0969 C6.92369697,22.1123 7.30633333,22.1284 7.69593939,22.1438 C8.08624242,22.1676 8.45284848,22.1872 8.79575758,22.2026 C9.14006061,22.2264 9.39724242,22.246 9.56869697,22.2614 C9.52966667,22.1046 9.51015152,21.9793 9.51015152,21.8855 C9.51015152,21.7756 9.52966667,21.6426 9.56869697,21.4858 C8.88218182,21.525 8.1489697,21.5481 7.36836364,21.5565 C6.59612121,21.5719 5.80018182,21.5796 4.98054545,21.5796 L3.38866667,21.5796 C3.74760606,21.2191 4.18112121,20.7963 4.68781818,20.3098 C5.20287879,19.8324 5.74512121,19.3228 6.31524242,18.7824 C6.89233333,18.249 7.47360606,17.7086 8.05906061,17.1598 C8.65218182,16.6187 9.20627273,16.1098 9.72133333,15.6317 L9.72133333,15.4434 C9.45578788,15.4595 9.05363636,15.4672 8.51557576,15.4672 C7.97681818,15.4749 7.33281818,15.4784 6.58427273,15.4784 C6.32639394,15.4784 6.03436364,15.4749 5.70678788,15.4672 C5.37851515,15.4595 5.04327273,15.4476 4.69966667,15.4315 C4.35606061,15.4238 4.01315152,15.4084 3.67024242,15.3846 C3.32663636,15.3692 3.00672727,15.3538 2.70981818,15.3377 C2.42127273,15.3223 2.17175758,15.3027 1.96127273,15.2789 C1.75009091,15.2635 1.60581818,15.2474 1.52775758,15.232 C1.54378788,15.365 1.55145455,15.5106 1.55145455,15.6667 C1.55145455,15.8158 1.54378788,15.953 1.52775758,16.0783 C1.59048485,16.0706 1.70757576,16.0629 1.8790303,16.0545 C2.05884848,16.0468 2.26515152,16.0391 2.49933333,16.0314 C2.73351515,16.023 2.98721212,16.0153 3.26042424,16.0076 C3.53363636,15.9999 3.80266667,15.9922 4.06821212,15.9845 C4.33306061,15.9845 4.58675758,15.9803 4.82860606,15.9726 L5.43706061,15.9726 C6.06921212,15.9726 6.56893939,15.9768 6.93554545,15.9845 C7.30215152,15.9922 7.59487879,15.9999 7.8130303,16.0076 C6.73621212,17.0268 5.65172727,18.0453 4.55957576,19.0638 C3.47439394,20.083 2.41360606,21.0427 1.37581818,21.9443" id="Fill-8"></path>
                <path d="M6.54872727,25.2364 L4.53587879,25.2364 C4.02081818,25.2364 3.51342424,25.2245 3.01439394,25.2014 C2.52233333,25.1853 2.02748485,25.1657 1.52775758,25.1426 C1.54378788,25.5031 1.55145455,25.8594 1.55145455,26.2122 L1.55145455,27.2818 L1.55145455,28.3402 C1.55145455,28.6923 1.54378788,29.0451 1.52775758,29.3979 C1.60581818,29.3741 1.70687879,29.3622 1.83163636,29.3622 L2.00727273,29.3622 C2.07766667,29.3706 2.14039394,29.3818 2.19475758,29.3979 C2.15572727,29.2096 2.12436364,28.9863 2.10136364,28.7273 C2.08533333,28.4767 2.07,28.2065 2.05466667,27.9167 C2.04630303,27.6346 2.04281818,27.3448 2.04281818,27.0466 L2.04281818,26.2241 C2.19057576,26.2157 2.40942424,26.208 2.6979697,26.2003 L3.79848485,26.2003 L4.95684848,26.2003 L5.26142424,26.2003 C5.34715152,26.208 5.42521212,26.2122 5.49560606,26.2122 C5.49560606,26.3529 5.49142424,26.5412 5.48375758,26.7764 C5.48375758,27.0193 5.47957576,27.2741 5.47190909,27.5408 C5.47190909,27.8145 5.46424242,28.0854 5.44890909,28.3514 C5.43287879,28.6258 5.41336364,28.8652 5.38966667,29.0689 C5.50745455,29.0451 5.62384848,29.0332 5.74093939,29.0332 C5.86569697,29.0332 5.9869697,29.0451 6.10406061,29.0689 C6.08872727,28.896 6.07269697,28.7119 6.05736364,28.5159 C6.04969697,28.3283 6.03784848,28.1204 6.02181818,27.8929 C6.01415152,27.6661 6.00648485,27.4148 5.99881818,27.1404 C5.99115152,26.866 5.9869697,26.5566 5.9869697,26.2122 C6.13542424,26.2122 6.35357576,26.208 6.64281818,26.2003 L7.53145455,26.2003 C7.82069697,26.2003 8.07787879,26.2045 8.30439394,26.2122 C8.53090909,26.2276 8.76857576,26.2395 9.01809091,26.2472 C9.01809091,26.6315 9.01042424,26.9605 8.99509091,27.2349 C8.98742424,27.5093 8.97557576,27.7599 8.96024242,27.9874 C8.94421212,28.2219 8.92887879,28.4417 8.91284848,28.6454 C8.89751515,28.8568 8.88218182,29.0878 8.86615152,29.3391 C8.98324242,29.3153 9.10033333,29.3034 9.21742424,29.3034 C9.33451515,29.3034 9.45160606,29.3153 9.56869697,29.3391 C9.55266667,28.9863 9.53733333,28.6377 9.522,28.2926 C9.51363636,27.9482 9.51015152,27.5989 9.51015152,27.2468 C9.51015152,26.894 9.51363636,26.5412 9.522,26.1884 C9.53733333,25.844 9.55266667,25.4954 9.56869697,25.1426 C9.0689697,25.1657 8.56993939,25.1853 8.07021212,25.2014 C7.57118182,25.2245 7.06378788,25.2364 6.54872727,25.2364" id="Fill-9"></path>
                <path d="M6.53757576,31.878 L4.52472727,31.878 C4.00966667,31.878 3.50227273,31.8661 3.00324242,31.843 C2.50351515,31.8269 2.01215152,31.8073 1.52845455,31.7842 C1.54378788,31.9641 1.55145455,32.1559 1.55145455,32.3603 C1.55145455,32.564 1.54378788,32.7558 1.52845455,32.9357 C2.01215152,32.9126 2.50351515,32.8888 3.00324242,32.8657 C3.50227273,32.8496 4.00966667,32.8419 4.52472727,32.8419 L5.37921212,32.8419 L5.37921212,33.2885 C5.12133333,33.5391 4.80560606,33.8135 4.43063636,34.1117 C4.0640303,34.4176 3.69324242,34.7151 3.3189697,35.0049 C2.944,35.2947 2.59342424,35.5579 2.26515152,35.7924 C1.93757576,36.0353 1.69224242,36.2159 1.52845455,36.3335 C1.54378788,36.4427 1.55145455,36.5568 1.55145455,36.6744 L1.55145455,37.0153 L1.55145455,37.3674 C1.55145455,37.4857 1.54378788,37.6026 1.52845455,37.7202 C1.63718182,37.611 1.79748485,37.4654 2.0079697,37.2855 C2.21845455,37.1056 2.44915152,36.9131 2.69866667,36.7094 C2.95584848,36.5057 3.22139394,36.2943 3.49460606,36.0745 C3.77548485,35.8554 4.0410303,35.644 4.29054545,35.4403 C4.54772727,35.2359 4.78190909,35.0518 4.99239394,34.8873 C5.20357576,34.7228 5.36736364,34.594 5.48445455,34.4995 C5.51512121,34.727 5.57784848,34.9776 5.67124242,35.252 C5.773,35.5341 5.90960606,35.7966 6.08106061,36.0395 C6.26087879,36.2824 6.48321212,36.4861 6.74806061,36.6506 C7.02127273,36.8235 7.34536364,36.9096 7.71963636,36.9096 C8.07090909,36.9096 8.36293939,36.8424 8.59712121,36.7094 C8.83130303,36.5841 9.01878788,36.4077 9.15887879,36.1802 C9.30733333,35.9611 9.41257576,35.7028 9.47530303,35.4046 C9.5380303,35.1071 9.56939394,34.7935 9.56939394,34.4645 C9.56939394,34.237 9.55754545,34.0137 9.53384848,33.7939 C9.51851515,33.5748 9.51015152,33.3515 9.51015152,33.124 C9.51015152,32.8972 9.51433333,32.6732 9.522,32.4541 C9.5380303,32.235 9.55336364,32.0117 9.56939394,31.7842 C9.05433333,31.8073 8.54693939,31.8269 8.04721212,31.843 C7.55584848,31.8661 7.05263636,31.878 6.53757576,31.878 Z M5.87057576,32.8419 L6.53757576,32.8419 C6.95924242,32.8419 7.38021212,32.8496 7.80187879,32.8657 C8.22284848,32.8811 8.648,32.8972 9.07733333,32.9126 C9.09336364,33.0379 9.10451515,33.1905 9.11218182,33.3711 C9.12821212,33.551 9.13587879,33.7785 9.13587879,34.0529 C9.13587879,34.2566 9.11218182,34.4645 9.06548485,34.6759 C9.02645455,34.8873 8.94839394,35.0833 8.83130303,35.2639 C8.71490909,35.4438 8.55460606,35.5887 8.35178788,35.6986 C8.15663636,35.8162 7.90712121,35.875 7.60254545,35.875 C7.25127273,35.875 6.95924242,35.8001 6.72436364,35.6517 C6.49854545,35.5103 6.31524242,35.3304 6.17445455,35.1106 C6.0420303,34.8915 5.94863636,34.6486 5.89357576,34.3819 C5.83921212,34.1236 5.8120303,33.873 5.8120303,33.6294 C5.8120303,33.4726 5.81551515,33.3277 5.82387879,33.1947 C5.83154545,33.0694 5.84687879,32.9518 5.87057576,32.8419 L5.87057576,32.8419 Z" id="Fill-10"></path>
                <path d="M6.53757576,39.8251 L4.52472727,39.8251 C4.00966667,39.8251 3.50227273,39.8132 3.00324242,39.7894 C2.50351515,39.774 2.01215152,39.7544 1.52845455,39.7313 C1.54378788,39.9112 1.55145455,40.1037 1.55145455,40.3067 C1.55145455,40.5111 1.54378788,40.7029 1.52845455,40.8835 C2.01215152,40.8597 2.50351515,40.8359 3.00324242,40.8128 C3.50227273,40.7967 4.00966667,40.789 4.52472727,40.789 L6.53757576,40.789 C7.05263636,40.789 7.55584848,40.7967 8.04721212,40.8128 C8.54693939,40.8359 9.05433333,40.8597 9.56939394,40.8835 C9.55336364,40.7813 9.5380303,40.6833 9.522,40.5888 C9.51433333,40.495 9.51015152,40.4012 9.51015152,40.3067 C9.51015152,40.2136 9.51433333,40.1191 9.522,40.0253 C9.5380303,39.9308 9.55336364,39.8335 9.56939394,39.7313 C9.05433333,39.7544 8.54693939,39.774 8.04721212,39.7894 C7.55584848,39.8132 7.05263636,39.8251 6.53757576,39.8251" id="Fill-11"></path>
                <path d="M6.53757576,43.8571 L4.52472727,43.8571 C4.00966667,43.8571 3.50227273,43.8452 3.00324242,43.8214 C2.50351515,43.806 2.01215152,43.7864 1.52845455,43.7633 C1.54378788,43.9432 1.55145455,44.135 1.55145455,44.3394 C1.55145455,44.5431 1.54378788,44.7349 1.52845455,44.9148 C2.01215152,44.8917 2.50351515,44.8679 3.00324242,44.8448 C3.50227273,44.8287 4.00966667,44.821 4.52472727,44.821 L5.51930303,44.821 L5.51930303,45.6085 C5.51930303,45.8829 5.51512121,46.1531 5.50745455,46.4198 C5.49978788,46.6865 5.48793939,46.9406 5.47260606,47.1835 C5.46493939,47.4348 5.44890909,47.6581 5.42590909,47.8541 C5.543,47.8226 5.65939394,47.8065 5.77648485,47.8065 C5.89357576,47.8065 6.01066667,47.8226 6.12775758,47.8541 C6.08106061,47.3599 6.04969697,46.8587 6.03436364,46.3491 C6.01833333,45.8472 6.01066667,45.3383 6.01066667,44.821 C6.26087879,44.821 6.49854545,44.8168 6.72436364,44.8091 L7.48545455,44.8091 L8.23469697,44.8091 C8.48421212,44.8168 8.74557576,44.8252 9.01878788,44.8329 C9.01878788,45.0212 9.01530303,45.2564 9.00693939,45.5385 C8.99927273,45.8283 8.98742424,46.1258 8.97209091,46.4317 C8.96442424,46.7446 8.94839394,47.0505 8.92539394,47.348 C8.90936364,47.6462 8.88984848,47.901 8.86684848,48.1124 C8.98393939,48.0893 9.1010303,48.0774 9.21812121,48.0774 C9.33451515,48.0774 9.45160606,48.0893 9.56939394,48.1124 C9.55336364,47.6896 9.5380303,47.2976 9.522,46.9371 C9.51433333,46.5766 9.51015152,46.2196 9.51015152,45.8675 C9.51015152,45.5147 9.51433333,45.1619 9.522,44.8091 C9.5380303,44.4647 9.55336364,44.1161 9.56939394,43.7633 C9.05433333,43.7864 8.54693939,43.806 8.04721212,43.8214 C7.55584848,43.8452 7.05263636,43.8571 6.53757576,43.8571" id="Fill-12"></path>
                <path d="M6.54872727,50.4994 L4.53587879,50.4994 C4.02081818,50.4994 3.51342424,50.4875 3.01439394,50.4644 C2.52233333,50.4483 2.02748485,50.4287 1.52775758,50.4056 C1.54378788,50.7661 1.55145455,51.1224 1.55145455,51.4752 L1.55145455,52.5448 L1.55145455,53.6025 C1.55145455,53.9553 1.54378788,54.3081 1.52775758,54.6609 C1.60581818,54.6371 1.70687879,54.6252 1.83163636,54.6252 L2.00727273,54.6252 C2.07766667,54.6336 2.14039394,54.6448 2.19475758,54.6609 C2.15572727,54.4726 2.12436364,54.2493 2.10136364,53.991 C2.08533333,53.7397 2.07,53.4695 2.05466667,53.1797 C2.04630303,52.8976 2.04281818,52.6078 2.04281818,52.3096 L2.04281818,51.4864 C2.19057576,51.4787 2.40942424,51.471 2.6979697,51.4633 L3.79848485,51.4633 L4.95684848,51.4633 L5.26142424,51.4633 C5.34715152,51.471 5.42521212,51.4752 5.49560606,51.4752 C5.49560606,51.6159 5.49142424,51.8042 5.48375758,52.0394 C5.48375758,52.2823 5.47957576,52.5371 5.47190909,52.8031 C5.47190909,53.0775 5.46424242,53.3484 5.44890909,53.6144 C5.43287879,53.8888 5.41336364,54.1275 5.38966667,54.3319 C5.50745455,54.3081 5.62384848,54.2962 5.74093939,54.2962 C5.86569697,54.2962 5.9869697,54.3081 6.10406061,54.3319 C6.08872727,54.159 6.07269697,53.9749 6.05736364,53.7789 C6.04969697,53.5913 6.03784848,53.3834 6.02181818,53.1559 C6.01415152,52.9291 6.00648485,52.6785 5.99881818,52.4041 C5.99115152,52.1297 5.9869697,51.8203 5.9869697,51.4752 C6.13542424,51.4752 6.35357576,51.471 6.64281818,51.4633 L7.53145455,51.4633 C7.82069697,51.4633 8.07787879,51.4675 8.30439394,51.4752 C8.53090909,51.4906 8.76857576,51.5025 9.01809091,51.5102 C9.01809091,51.8945 9.01042424,52.2235 8.99509091,52.4979 C8.98742424,52.7723 8.97557576,53.0229 8.96024242,53.2504 C8.94421212,53.4849 8.92887879,53.7047 8.91284848,53.9084 C8.89751515,54.1198 8.88218182,54.3515 8.86615152,54.6021 C8.98324242,54.5783 9.10033333,54.5664 9.21742424,54.5664 C9.33451515,54.5664 9.45160606,54.5783 9.56869697,54.6021 C9.55266667,54.2493 9.53733333,53.9007 9.522,53.5556 C9.51363636,53.2112 9.51015152,52.8626 9.51015152,52.5098 C9.51015152,52.157 9.51363636,51.8042 9.522,51.4514 C9.53733333,51.107 9.55266667,50.7584 9.56869697,50.4056 C9.0689697,50.4287 8.56993939,50.4483 8.07021212,50.4644 C7.57118182,50.4875 7.06378788,50.4994 6.54872727,50.4994" id="Fill-13"></path>
                <path d="M3.04924242,60.9147 L3.04924242,60.774 C2.82272727,60.7502 2.63593939,60.7229 2.48748485,60.6914 C2.34669697,60.6676 2.18709091,60.6207 2.00727273,60.5507 C1.84348485,60.7544 1.69572727,61.005 1.56260606,61.3032 C1.43854545,61.6084 1.37581818,62.0039 1.37581818,62.4897 C1.37581818,62.9447 1.43854545,63.3479 1.56260606,63.7007 C1.69572727,64.0612 1.8790303,64.3629 2.11321212,64.6058 C2.35506061,64.8571 2.63593939,65.0447 2.95584848,65.17 C3.27575758,65.3037 3.61518182,65.3695 3.97412121,65.3695 C4.40275758,65.3695 4.74636364,65.2757 5.00424242,65.0881 C5.26142424,64.9075 5.47190909,64.6807 5.63639394,64.4056 C5.79948485,64.1319 5.93609091,63.8337 6.04551515,63.5124 C6.16260606,63.1995 6.29154545,62.9055 6.43163636,62.6311 C6.58009091,62.3567 6.75921212,62.1257 6.97039394,61.9374 C7.18087879,61.7575 7.46942424,61.6672 7.8360303,61.6672 C8.04651515,61.6672 8.24236364,61.7022 8.42148485,61.7729 C8.60060606,61.8513 8.75324242,61.957 8.878,62.0907 C9.01042424,62.2314 9.11218182,62.3924 9.18257576,62.5723 C9.25227273,62.7599 9.28781818,62.9643 9.28781818,63.1834 C9.28781818,63.4032 9.24878788,63.5908 9.17072727,63.7476 C9.10033333,63.9044 9.01042424,64.0374 8.901,64.1473 C8.79227273,64.2649 8.671,64.3552 8.53857576,64.4175 C8.41381818,64.4882 8.29672727,64.5435 8.18730303,64.582 L8.18730303,64.7234 C8.41381818,64.7703 8.60060606,64.8172 8.74906061,64.8648 C8.89751515,64.9117 9.03830303,64.9705 9.17072727,65.0405 C9.35751515,64.806 9.49412121,64.5512 9.58054545,64.2768 C9.67393939,64.0024 9.72063636,63.6769 9.72063636,63.301 C9.72063636,62.9097 9.66627273,62.5562 9.55684848,62.2433 C9.44742424,61.9297 9.29548485,61.6595 9.10033333,61.432 C8.90518182,61.2129 8.671,61.0442 8.39778788,60.9266 C8.13293939,60.809 7.8360303,60.7502 7.50845455,60.7502 C7.04845455,60.7502 6.68184848,60.8405 6.40863636,61.0204 C6.13542424,61.2087 5.90890909,61.4397 5.72978788,61.7141 C5.55833333,61.9885 5.41336364,62.2825 5.29627273,62.5961 C5.17918182,62.9174 5.05093939,63.2149 4.91015152,63.4893 C4.77006061,63.763 4.59442424,63.9905 4.38324242,64.1711 C4.17275758,64.3587 3.88839394,64.4532 3.52945455,64.4532 C3.29457576,64.4532 3.07293939,64.414 2.86175758,64.3356 C2.65963636,64.2572 2.47981818,64.1438 2.32369697,63.9947 C2.17524242,63.8533 2.05466667,63.6769 1.96057576,63.4655 C1.87484848,63.2618 1.83163636,63.0308 1.83163636,62.7725 C1.83163636,62.5212 1.86718182,62.2944 1.93757576,62.0907 C2.01563636,61.8863 2.11321212,61.7064 2.23030303,61.5496 C2.34669697,61.4005 2.47563636,61.2717 2.61572727,61.1618 C2.76418182,61.0596 2.90915152,60.9777 3.04924242,60.9147" id="Fill-14"></path>
                <path d="M5.76463636,73.9403 C5.52278788,73.9403 5.25793939,73.9368 4.96869697,73.9284 C4.68015152,73.9207 4.39160606,73.8934 4.10236364,73.8465 C3.81451515,73.7996 3.53712121,73.7212 3.27157576,73.6113 C3.00672727,73.5091 2.77254545,73.3642 2.56972727,73.1759 C2.36690909,72.9883 2.20312121,72.7454 2.07766667,72.4472 C1.95290909,72.1574 1.89087879,71.7969 1.89087879,71.3657 C1.89087879,70.9268 1.94106061,70.5586 2.04281818,70.2611 C2.15224242,69.9636 2.29651515,69.7165 2.47563636,69.5205 C2.66312121,69.3245 2.87778788,69.1719 3.11963636,69.062 C3.36915152,68.9598 3.6270303,68.8856 3.89257576,68.8387 C4.16509091,68.7918 4.44178788,68.7645 4.72336364,68.7561 C5.01190909,68.7484 5.28860606,68.7449 5.55415152,68.7449 C5.99115152,68.7449 6.41281818,68.7484 6.81775758,68.7561 C7.22409091,68.7645 7.60254545,68.7757 7.95381818,68.7918 C8.30439394,68.8072 8.61663636,68.8226 8.88984848,68.8387 C9.17072727,68.8541 9.39724242,68.8695 9.56869697,68.8856 C9.55336364,68.7995 9.53733333,68.7134 9.522,68.6273 C9.51433333,68.5489 9.51015152,68.4663 9.51015152,68.3802 C9.51015152,68.2857 9.51433333,68.1842 9.522,68.0743 C9.53733333,67.9651 9.55336364,67.8629 9.56869697,67.7691 C9.21742424,67.7845 8.78878788,67.8006 8.28139394,67.816 C7.774,67.8314 7.19272727,67.8398 6.53757576,67.8398 C6.24066667,67.8398 5.94793939,67.8279 5.65939394,67.8041 C5.37851515,67.7887 5.05442424,67.7803 4.68781818,67.7803 C3.54130303,67.7803 2.70215152,68.047 2.17175758,68.5797 C1.64066667,69.1131 1.37581818,69.9671 1.37581818,71.1424 C1.37581818,71.6758 1.45039394,72.1455 1.59815152,72.5529 C1.74660606,72.9687 1.96475758,73.3173 2.25330303,73.5994 C2.54184848,73.8815 2.89312121,74.0971 3.30712121,74.2462 C3.72042424,74.4023 4.18878788,74.4849 4.71151515,74.4926 C5.14015152,74.5003 5.58133333,74.5129 6.03366667,74.5283 C6.49436364,74.5437 6.9390303,74.5591 7.36836364,74.5752 C7.80536364,74.5906 8.211,74.6102 8.58527273,74.634 C8.96790909,74.6571 9.29548485,74.6809 9.56869697,74.7047 C9.52966667,74.571 9.51015152,74.4534 9.51015152,74.3519 C9.51015152,74.2735 9.51433333,74.1951 9.522,74.1167 C9.53733333,74.0383 9.55336364,73.9557 9.56869697,73.8696 C9.34218182,73.9011 8.92887879,73.9207 8.32809091,73.9284 C7.72730303,73.9368 6.87281818,73.9403 5.76463636,73.9403" id="Fill-15"></path>
                <path d="M6.53757576,77.7259 L4.52472727,77.7259 C4.00966667,77.7259 3.50227273,77.714 3.00324242,77.6902 C2.50351515,77.6748 2.01215152,77.6552 1.52845455,77.6321 C1.54378788,77.812 1.55145455,78.0038 1.55145455,78.2075 C1.55145455,78.4112 1.54378788,78.603 1.52845455,78.7836 C2.01215152,78.7598 2.50351515,78.7367 3.00324242,78.7129 C3.50227273,78.6975 4.00966667,78.6898 4.52472727,78.6898 L5.37921212,78.6898 L5.37921212,79.1364 C5.12133333,79.387 4.80560606,79.6614 4.43063636,79.9596 C4.0640303,80.2648 3.69324242,80.5623 3.3189697,80.8528 C2.944,81.1426 2.59342424,81.4051 2.26515152,81.6403 C1.93757576,81.8832 1.69224242,82.0631 1.52845455,82.1807 C1.54378788,82.2906 1.55145455,82.404 1.55145455,82.5216 L1.55145455,82.8625 L1.55145455,83.2153 C1.55145455,83.3329 1.54378788,83.4505 1.52845455,83.5681 C1.63718182,83.4582 1.79748485,83.3133 2.0079697,83.1334 C2.21845455,82.9528 2.44915152,82.761 2.69866667,82.5566 C2.95584848,82.3536 3.22139394,82.1415 3.49460606,81.9224 C3.77548485,81.7026 4.0410303,81.4912 4.29054545,81.2875 C4.54772727,81.0838 4.78190909,80.8997 4.99239394,80.7352 C5.20357576,80.5707 5.36736364,80.4412 5.48445455,80.3474 C5.51512121,80.5742 5.57784848,80.8255 5.67124242,81.0992 C5.773,81.382 5.90960606,81.6438 6.08106061,81.8867 C6.26087879,82.1296 6.48321212,82.334 6.74806061,82.4985 C7.02127273,82.6707 7.34536364,82.7568 7.71963636,82.7568 C8.07090909,82.7568 8.36293939,82.6903 8.59712121,82.5566 C8.83130303,82.432 9.01878788,82.2556 9.15887879,82.0281 C9.30733333,81.809 9.41257576,81.55 9.47530303,81.2525 C9.5380303,80.9543 9.56939394,80.6407 9.56939394,80.3117 C9.56939394,80.0849 9.55754545,79.8616 9.53384848,79.6418 C9.51851515,79.422 9.51015152,79.1987 9.51015152,78.9719 C9.51015152,78.7444 9.51433333,78.5211 9.522,78.302 C9.5380303,78.0822 9.55336364,77.8589 9.56939394,77.6321 C9.05433333,77.6552 8.54693939,77.6748 8.04721212,77.6902 C7.55584848,77.714 7.05263636,77.7259 6.53757576,77.7259 Z M5.87057576,78.6898 L6.53757576,78.6898 C6.95924242,78.6898 7.38021212,78.6975 7.80187879,78.7129 C8.22284848,78.729 8.648,78.7444 9.07733333,78.7598 C9.09336364,78.8858 9.10451515,79.0384 9.11218182,79.2183 C9.12821212,79.3989 9.13587879,79.6264 9.13587879,79.9001 C9.13587879,80.1038 9.11218182,80.3117 9.06548485,80.5238 C9.02645455,80.7352 8.94839394,80.9312 8.83130303,81.1111 C8.71490909,81.2917 8.55460606,81.4366 8.35178788,81.5458 C8.15663636,81.6641 7.90712121,81.7222 7.60254545,81.7222 C7.25127273,81.7222 6.95924242,81.648 6.72436364,81.4989 C6.49854545,81.3582 6.31524242,81.1776 6.17445455,80.9585 C6.0420303,80.7387 5.94863636,80.4958 5.89357576,80.2298 C5.83921212,79.9708 5.8120303,79.7202 5.8120303,79.4773 C5.8120303,79.3205 5.81551515,79.1756 5.82387879,79.0419 C5.83154545,78.9173 5.84687879,78.7997 5.87057576,78.6898 L5.87057576,78.6898 Z" id="Fill-16"></path>
            </g>
        </g>
    </g>
</svg>